<?xml version="1.0" encoding="utf-8"?>
<!-- Generator: Adobe Illustrator 18.0.0, SVG Export Plug-In . SVG Version: 6.00 Build 0)  -->
<!DOCTYPE svg PUBLIC "-//W3C//DTD SVG 1.1//EN" "http://www.w3.org/Graphics/SVG/1.1/DTD/svg11.dtd">
<svg version="1.1" id="Layer_1" xmlns="http://www.w3.org/2000/svg" xmlns:xlink="http://www.w3.org/1999/xlink" x="0px" y="0px"
	 viewBox="0 0 400.7 46.9" enable-background="new 0 0 400.7 46.9" xml:space="preserve">
<g>
	<g>
		<path fill="#DAABFF" d="M101.3,42.5V3.1c0-1.4,1.1-2.5,2.5-2.5h27.7c1.3,0,2.3,1,2.3,2.3c0,1.3-1,2.3-2.3,2.3h-25.1v15.2h22.3
			c1.3,0,2.3,1.1,2.3,2.3c0,1.3-1,2.3-2.3,2.3h-22.3v15.6h25.5c1.3,0,2.3,1,2.3,2.3c0,1.3-1,2.3-2.3,2.3h-28
			C102.4,45.1,101.3,43.9,101.3,42.5z"/>
	</g>
	<g>
		<path fill="#DAABFF" d="M169.4,2.8c0-1.3,1.1-2.5,2.5-2.5h0.6c1.1,0,1.8,0.6,2.4,1.3l15.9,23.9l15.9-23.9c0.5-0.8,1.3-1.3,2.4-1.3
			h0.6c1.3,0,2.5,1.1,2.5,2.5v40c0,1.4-1.1,2.5-2.5,2.5c-1.4,0-2.5-1.2-2.5-2.5V9.6l-14.3,20.9c-0.6,0.8-1.2,1.3-2.1,1.3
			c-0.9,0-1.6-0.4-2.2-1.3L174.3,9.7v33.2c0,1.4-1.1,2.5-2.5,2.5c-1.3,0-2.4-1.1-2.4-2.5V2.8z"/>
	</g>
	<g>
		<path fill="#DAABFF" d="M247.5,41.8l18.1-39.5c0.6-1.4,1.6-2.2,3.2-2.2h0.3c1.5,0,2.5,0.8,3.1,2.2l18.1,39.5
			c0.2,0.4,0.3,0.9,0.3,1.3c0,1.3-1.1,2.4-2.4,2.4c-1.2,0-2-0.8-2.5-1.8l-4.6-10.2h-24.4l-4.6,10.4c-0.4,1.1-1.3,1.7-2.4,1.7
			c-1.3,0-2.3-1-2.3-2.3C247.1,42.7,247.2,42.3,247.5,41.8z M279,28.7L268.7,5.9l-10.3,22.8H279z"/>
	</g>
	<g>
		<path fill="#DAABFF" d="M326.1,2.7c0-1.4,1.1-2.5,2.5-2.5c1.4,0,2.5,1.1,2.5,2.5v40.1c0,1.4-1.1,2.5-2.5,2.5
			c-1.3,0-2.5-1.1-2.5-2.5V2.7z"/>
	</g>
	<g>
		<path fill="#DAABFF" d="M369.6,2.7c0-1.4,1.1-2.5,2.5-2.5c1.4,0,2.5,1.1,2.5,2.5v37.7h23.1c1.3,0,2.3,1.1,2.3,2.4
			c0,1.3-1,2.3-2.3,2.3h-25.7c-1.3,0-2.5-1.1-2.5-2.5V2.7z"/>
	</g>
</g>
<g>
	<path fill="#DAABFF" d="M58,45.1H8c-3.5,0-6.4-2.9-6.4-6.4V14.7c0-1.2,1-2.1,2.1-2.1s2.1,1,2.1,2.1v23.9c0,1.2,1,2.1,2.1,2.1H58
		c1.2,0,2.1-1,2.1-2.1V7.8c0,0,0-0.1-0.1-0.1c-0.1,0-0.1,0-0.1,0l-25.5,22c-0.8,0.7-2,0.7-2.8,0L4.9,7.1c-1.2-1-1.6-2.5-1-4
		c0.5-1.4,1.8-2.4,3.4-2.4h42.2c1.2,0,2.1,1,2.1,2.1s-1,2.1-2.1,2.1H9.2L33,25.3L57.1,4.4c1.4-1.1,3.2-1.4,4.7-0.6
		c1.6,0.7,2.5,2.3,2.5,4v30.9C64.4,42.2,61.5,45.1,58,45.1z"/>
</g>
</svg>
