<?xml version="1.0" encoding="utf-8"?>
<!-- Generator: Adobe Illustrator 18.0.0, SVG Export Plug-In . SVG Version: 6.00 Build 0)  -->
<!DOCTYPE svg PUBLIC "-//W3C//DTD SVG 1.1//EN" "http://www.w3.org/Graphics/SVG/1.1/DTD/svg11.dtd">
<svg version="1.1" id="Layer_1" xmlns="http://www.w3.org/2000/svg" xmlns:xlink="http://www.w3.org/1999/xlink" x="0px" y="0px"
	 viewBox="0 0 414.8 546.8" enable-background="new 0 0 414.8 546.8" xml:space="preserve">
<g>
	<g>
		<path fill="#FFFFFF" d="M52,82.5V60.4h9.4v22.1c0,4.9,2.6,8.5,7.8,8.5c5.4,0,7.8-3.7,7.8-8.5V60.4h9.4v22.1
			c0,10-6.5,17.7-17.2,17.7C58.8,100.1,52,92.5,52,82.5z"/>
		<path fill="#FFFFFF" d="M129.2,99.2H122l-18.6-22.7v22.7H94V60.4h7.3l18.6,22.3V60.4h9.3V99.2z"/>
		<path fill="#FFFFFF" d="M134.7,60.4H166v8.1H155v30.8h-9.4V68.5h-10.9V60.4z"/>
		<path fill="#FFFFFF" d="M167.9,79.8c0-11.1,8.2-20.3,19.9-20.3c11.8,0,20,9.1,20,20.3s-8.2,20.3-20,20.3
			C176.1,100.1,167.9,90.9,167.9,79.8z M198.1,79.8c0-6.7-4.5-11.2-10.3-11.2c-5.6,0-10.2,4.5-10.2,11.2S182.2,91,187.8,91
			C193.6,91,198.1,86.5,198.1,79.8z"/>
		<path fill="#FFFFFF" d="M213.6,99.2V60.4h9.4v30.8h17.4v8.1H213.6z"/>
		<path fill="#FFFFFF" d="M261.1,99.2h-15V60.4h15c12.5,0,20.4,8.3,20.4,19.4S273.6,99.2,261.1,99.2z M255.5,68.5v22.7h4.9
			c6.3,0,11.4-4.2,11.4-11.3c0-7.5-5.1-11.3-11.4-11.3H255.5z"/>
		<path fill="#FFFFFF" d="M55.2,139.6c0,0,5.6,3.8,10.8,3.8c2.9,0,4.3-1.3,4.3-3.2c0-2-1.2-3-6.7-4.7c-8.2-2.4-12.8-5.6-12.8-12
			c0-7.1,4.8-12,15-12c10.6,0,14.6,4.1,14.6,4.1l-5.1,7.6c0,0-4.1-3.2-9.6-3.2c-3.2,0-4.2,1.2-4.2,2.8c0,1.9,1.7,2.7,6.2,4
			c8.6,2.4,13.5,5.8,13.5,12.2c0,7.1-4.7,12.9-15,12.9c-10.7,0-16.3-5.2-16.3-5.2L55.2,139.6z"/>
		<path fill="#FFFFFF" d="M84.5,112.3h31.3v8.1h-10.9v30.8h-9.4v-30.8H84.5V112.3z"/>
		<path fill="#FFFFFF" d="M117.7,131.7c0-11.1,8.2-20.3,19.9-20.3c11.8,0,20,9.1,20,20.3s-8.2,20.3-20,20.3
			C125.9,152.1,117.7,142.9,117.7,131.7z M147.9,131.7c0-6.7-4.5-11.2-10.3-11.2c-5.6,0-10.2,4.5-10.2,11.2s4.5,11.2,10.2,11.2
			C143.4,142.9,147.9,138.5,147.9,131.7z"/>
		<path fill="#FFFFFF" d="M180.6,112.3c8.9,0,15,5.5,15,13.1c0,5.4-2.8,9.5-7.3,11.5v0.7l8.7,12.9v0.6h-10.7l-8.1-12.8h-5.4v12.8
			h-9.4v-38.8H180.6z M180,120.4h-7.1v10h7.2c3.3,0,5.8-1.7,5.8-5C185.9,122,183.4,120.4,180,120.4z"/>
		<path fill="#FFFFFF" d="M211.7,151.2h-9.4v-38.8h9.4V151.2z"/>
		<path fill="#FFFFFF" d="M244.9,135.2h-15.8v7.9h18.8v8.1h-28.2v-38.8h28.2v8.1h-18.8v7.4h15.8V135.2z"/>
		<path fill="#FFFFFF" d="M256.9,139.6c0,0,5.6,3.8,10.8,3.8c2.9,0,4.3-1.3,4.3-3.2c0-2-1.2-3-6.7-4.7c-8.2-2.4-12.8-5.6-12.8-12
			c0-7.1,4.8-12,15-12c10.6,0,14.6,4.1,14.6,4.1l-5.1,7.6c0,0-4.1-3.2-9.6-3.2c-3.2,0-4.2,1.2-4.2,2.8c0,1.9,1.7,2.7,6.2,4
			c8.6,2.4,13.5,5.8,13.5,12.2c0,7.1-4.7,12.9-15,12.9c-10.7,0-16.3-5.2-16.3-5.2L256.9,139.6z"/>
		<path fill="#FFE527" d="M82.5,181.7l-8.4,11.1h-3.9l-8.4-11.2v21.5h-9.3l0.1-38.8h7.6l12,16.6l12-16.6h7.6l0.1,38.8h-9.3V181.7z"
			/>
		<path fill="#FFE527" d="M125,187.1h-15.8v7.9H128v8.1H99.8v-38.8H128v8.1h-18.8v7.4H125V187.1z"/>
		<path fill="#FFE527" d="M169.6,203.1h-10.1l-2.4-7h-14.9l-2.4,7h-10.1l14.8-38.8h10.2L169.6,203.1z M144.7,188.7h9.8l-4.9-14.4
			L144.7,188.7z"/>
		<path fill="#FFE527" d="M166.4,164.3h31.3v8.1h-10.9v30.8h-9.4v-30.8h-10.9V164.3z"/>
		<path fill="#FFE527" d="M248.1,203.1H238l-2.4-7h-14.9l-2.4,7h-10.1l14.8-38.8h10.2L248.1,203.1z M223.2,188.7h9.8l-4.9-14.4
			L223.2,188.7z"/>
		<path fill="#FFE527" d="M260.9,203.1h-9.4v-38.8h9.4V203.1z"/>
		<path fill="#FFE527" d="M271.6,191.6c0,0,5.6,3.8,10.8,3.8c2.9,0,4.3-1.3,4.3-3.2c0-2-1.2-3-6.7-4.7c-8.2-2.4-12.8-5.6-12.8-12
			c0-7.1,4.8-12,15-12c10.6,0,14.6,4.1,14.6,4.1l-5.1,7.6c0,0-4.1-3.2-9.6-3.2c-3.2,0-4.2,1.2-4.2,2.8c0,1.9,1.7,2.7,6.2,4
			c8.6,2.4,13.5,5.8,13.5,12.2c0,7.1-4.7,12.9-15,12.9c-10.7,0-16.3-5.2-16.3-5.2L271.6,191.6z"/>
		<path fill="#FFE527" d="M303.4,203.1v-38.8h9.4V195h17.4v8.1H303.4z"/>
		<path fill="#FFE527" d="M361.1,187.1h-15.8v7.9h18.8v8.1h-28.2v-38.8h28.2v8.1h-18.8v7.4h15.8V187.1z"/>
	</g>
	<g>
		<path fill="#34344F" d="M56.8,23.3h-6.1l2.5-17.7h6.1L56.8,23.3z"/>
		<path fill="#34344F" d="M66.6,10.7c2.1-1.4,3.5-1.8,4.8-1.8c3,0,4,1.7,3.5,5.5l-1.2,8.9h-5.9l1-7.5c0.1-1-0.1-1.4-0.7-1.4
			s-1.2,0.3-2.2,0.9l-1.1,8H59l2-14.2h5.9L66.6,10.7z"/>
		<path fill="#34344F" d="M88.7,17.5c-0.1,0.8-0.1,1.4,1.2,1.4h1.7l0.3,3.6c-1,0.7-2.7,1.1-4.8,1.1c-3.5,0-4.9-1.9-4.3-6.1l0.5-3.5
			h-1.9l0.7-4.9h1.9l0.4-2.9h5.9l-0.4,2.9h3.2L92.4,14h-3.2L88.7,17.5z"/>
		<path fill="#34344F" d="M100.6,10.8c2.1-1.4,3.4-1.9,4.8-1.9c3,0,4,1.7,3.5,5.5l-1.2,8.9h-5.9l1-7.5c0.1-1,0-1.4-0.6-1.4
			c-0.7,0-1.6,0.4-2.3,0.9l-1.1,8H93l2.6-18.5h5.9L100.6,10.8z"/>
		<path fill="#34344F" d="M115.8,23.3h-5.9l2-14.2h5.9L115.8,23.3z M115.6,2c1.8,0,3.4,1.2,3.1,3.3c-0.3,1.8-1.9,2.6-3.4,2.6
			c-1.8,0-3.4-1.2-3.1-3.3C112.4,2.8,114,2,115.6,2z"/>
		<path fill="#34344F" d="M130.7,14.2c-2.2-0.9-4.4-1.3-5-1.3c-0.5,0-0.8,0.1-0.8,0.5c-0.1,0.6,0.6,0.6,3,1.2
			c2.9,0.7,3.9,1.9,3.6,4.2c-0.4,3.3-3.2,4.8-6.8,4.8c-1.9,0-5-0.8-7.3-1.9l1.8-3.9c2.3,1.3,4.4,1.7,5.6,1.7c0.6,0,0.8-0.1,0.9-0.4
			c0.1-0.3-0.6-0.4-2.7-1c-3.3-1-4-2-3.5-4.9c0.4-2.6,2.6-4.3,6.1-4.3c2.1,0,4.6,0.5,7.1,1.3L130.7,14.2z"/>
		<path fill="#34344F" d="M144.1,23.3h-5.9l2-14.2h5.9L144.1,23.3z M143.9,2c1.8,0,3.4,1.2,3.1,3.3c-0.3,1.8-1.9,2.6-3.4,2.6
			c-1.8,0-3.4-1.2-3.1-3.3C140.7,2.8,142.3,2,143.9,2z"/>
		<path fill="#34344F" d="M159,14.2c-2.2-0.9-4.4-1.3-5-1.3c-0.5,0-0.8,0.1-0.8,0.5c-0.1,0.6,0.6,0.6,3,1.2c2.9,0.7,3.9,1.9,3.6,4.2
			c-0.4,3.3-3.2,4.8-6.8,4.8c-1.9,0-5-0.8-7.3-1.9l1.8-3.9c2.3,1.3,4.4,1.7,5.6,1.7c0.6,0,0.8-0.1,0.9-0.4c0.1-0.3-0.6-0.4-2.7-1
			c-3.3-1-4-2-3.5-4.9c0.4-2.6,2.6-4.3,6.1-4.3c2.1,0,4.6,0.5,7.1,1.3L159,14.2z"/>
		<path fill="#34344F" d="M173.5,14.2c-2.2-0.9-4.4-1.3-5-1.3c-0.5,0-0.8,0.1-0.8,0.5c-0.1,0.6,0.6,0.6,3,1.2
			c2.9,0.7,3.9,1.9,3.6,4.2c-0.4,3.3-3.2,4.8-6.8,4.8c-1.9,0-5-0.8-7.3-1.9l1.8-3.9c2.3,1.3,4.4,1.7,5.6,1.7c0.6,0,0.8-0.1,0.9-0.4
			c0.1-0.3-0.6-0.4-2.7-1c-3.3-1-4-2-3.5-4.9c0.4-2.6,2.6-4.3,6.1-4.3c2.1,0,4.6,0.5,7.1,1.3L173.5,14.2z"/>
		<path fill="#34344F" d="M189.5,23.3h-5.9l0.2-1.3c-1.7,1.1-2.9,1.5-4.2,1.5c-3,0-4.6-1.7-4.1-5.5l1.2-8.9h5.9l-1.1,7.7
			c-0.1,0.9,0.1,1.4,0.6,1.4c0.7,0,1.4-0.4,2.3-0.9l1.1-8.1h5.9L189.5,23.3z"/>
		<path fill="#34344F" d="M205.6,21.4c-2.6,1.6-4.7,2.2-7.2,2.2c-4.6,0-7.1-2.8-6.5-7.4c0.7-4.7,3.6-7.3,8.3-7.3
			c4.2,0,6.6,2.5,5.9,7c-0.1,0.5-0.2,1-0.4,1.9h-8.4c0,1.1,0.4,1.4,1.7,1.4c1.9,0,3.2-0.5,5.1-1.2L205.6,21.4z M201.3,14.8
			c0.3-1.4-0.2-2-1.2-2c-1.1,0-1.8,0.7-2.3,2H201.3z"/>
	</g>
	<g>
		<path fill="#FFFFFF" d="M63.8,309l0.9-7l0.2-0.9l-4.1,7.9h-3.4l-1.9-7.9l-0.1,0.7l-1.1,7.2h-5.8l3.1-17.1H58l1.7,6.8
			c0.1,0.6,0.3,1.3,0.4,1.8c0.3-0.6,0.4-1,0.8-1.6l3.8-7h6.5L69.6,309H63.8z"/>
		<path fill="#FFFFFF" d="M85.1,307.1c-2.5,1.5-4.5,2.1-6.9,2.1c-4.5,0-6.9-2.7-6.3-7.2c0.6-4.6,3.5-7.1,8.1-7.1
			c4.1,0,6.4,2.5,5.7,6.7c-0.1,0.5-0.2,0.9-0.4,1.8h-8.1c0,1.1,0.4,1.4,1.7,1.4c1.8,0,3.1-0.4,4.9-1.1L85.1,307.1z M80.9,300.7
			c0.3-1.4-0.2-2-1.2-2c-1.1,0-1.8,0.7-2.2,2H80.9z"/>
		<path fill="#FFFFFF" d="M100.3,309h-5.7l0.2-1.1c-1.2,1-2,1.4-3.8,1.4c-2.9,0-5.2-2.3-4.4-7.4c0.7-4.8,2.7-6.8,5.7-6.8
			c1.5,0,2.6,0.3,4,1.4l0.2-1.1h5.7L100.3,309z M95.8,300.4c-0.6-0.5-1-0.7-1.5-0.7c-1.1,0-1.9,0.9-2.1,2.4c-0.3,1.8,0.1,2.4,1,2.4
			c0.8,0,1.4-0.3,2.2-0.8L95.8,300.4z"/>
		<path fill="#FFFFFF" d="M109.6,303.3c-0.1,0.8-0.1,1.4,1.1,1.4h1.7l0.3,3.5c-1,0.6-2.6,1-4.6,1c-3.4,0-4.7-1.8-4.1-5.9l0.5-3.4
			h-1.8l0.6-4.7h1.8l0.4-2.8h5.7l-0.4,2.8h3.1l-0.6,4.7h-3.1L109.6,303.3z"/>
		<path fill="#FFFFFF" d="M135.3,307.4c-3,1.4-5.2,1.8-7.7,1.8c-4.9,0-7.7-2.5-7.7-7.2c0-6.2,4.1-10.4,9.9-10.4
			c2.5,0,4.6,0.6,6.7,1.6l-2.2,4.3c-2.2-0.5-3.3-0.7-4.5-0.7c-2.4,0-4,1.8-4,4.5c0,1.6,0.6,2.6,2.5,2.6c1.6,0,2.7-0.3,5.4-1.1
			L135.3,307.4z"/>
		<path fill="#FFFFFF" d="M150.7,302.1c-0.6,4.8-3.5,7.1-8.2,7.1c-5,0-7-2.5-6.4-7.1c0.7-4.8,3.6-7.1,8.2-7.1
			C149.3,295,151.3,297.5,150.7,302.1z M145.1,302c0.3-1.8-0.2-2.6-1.3-2.6c-1.3,0-2,1.1-2.3,2.8c-0.3,1.8,0.2,2.6,1.3,2.6
			C144.1,304.8,144.9,303.7,145.1,302z"/>
		<path fill="#FFFFFF" d="M158.4,296.7c1.8-1.3,2.9-1.7,4.2-1.7c1.9,0,3,0.7,3.4,2.2c2.2-1.8,3.5-2.2,4.7-2.2c2.9,0,3.9,1.6,3.4,5.3
			l-1.2,8.6h-5.7l1-7.3c0.1-0.8-0.1-1.3-0.6-1.3c-0.5,0-1,0.1-1.7,0.6l-1.1,8h-5.7l1-7.3c0.1-0.8-0.1-1.3-0.6-1.3
			c-0.4,0-0.9,0.1-1.8,0.7l-1.1,7.9H151l1.9-13.7h5.7L158.4,296.7z"/>
		<path fill="#FFFFFF" d="M182.1,296.4c1.6-1.1,2.7-1.4,4-1.4c3.5,0,4.9,2.3,4.2,7.1c-0.7,5.1-3.3,7.1-6,7.1c-1.9,0-2.6-0.6-3.7-1.6
			l-0.8,5.5h-5.7l2.5-17.9h5.7L182.1,296.4z M181.1,304c0.5,0.4,0.9,0.5,1.5,0.5c1.2,0,2-1,2.2-2.7c0.2-1.5-0.1-2-1-2
			c-0.8,0-1.4,0.4-2.2,0.9L181.1,304z"/>
		<path fill="#FFFFFF" d="M205.1,309h-5.7l0.2-1.1c-1.2,1-2,1.4-3.8,1.4c-2.9,0-5.2-2.3-4.4-7.4c0.7-4.8,2.7-6.8,5.7-6.8
			c1.5,0,2.6,0.3,4,1.4l0.2-1.1h5.7L205.1,309z M200.6,300.4c-0.6-0.5-1-0.7-1.5-0.7c-1.1,0-1.9,0.9-2.1,2.4c-0.3,1.8,0.1,2.4,1,2.4
			c0.8,0,1.4-0.3,2.2-0.8L200.6,300.4z"/>
		<path fill="#FFFFFF" d="M214.4,296.7c2.1-1.3,3.4-1.7,4.6-1.7c2.9,0,3.9,1.6,3.4,5.3l-1.2,8.6h-5.7l1-7.3c0.1-1-0.1-1.3-0.7-1.3
			c-0.6,0-1.2,0.3-2.1,0.8l-1.1,7.8H207l1.9-13.7h5.7L214.4,296.7z"/>
		<path fill="#FFFFFF" d="M229,309h-5.7l1.9-13.7h5.7L229,309z M228.9,288.3c1.8,0,3.2,1.1,3,3.2c-0.3,1.8-1.8,2.5-3.3,2.5
			c-1.8,0-3.2-1.1-3-3.2C225.8,289.1,227.3,288.3,228.9,288.3z"/>
		<path fill="#FFFFFF" d="M244.7,307.1c-2.5,1.5-4.5,2.1-6.9,2.1c-4.5,0-6.9-2.7-6.3-7.2c0.6-4.6,3.5-7.1,8.1-7.1
			c4.1,0,6.4,2.5,5.7,6.7c-0.1,0.5-0.2,0.9-0.4,1.8h-8.1c0,1.1,0.4,1.4,1.7,1.4c1.8,0,3.1-0.4,4.9-1.1L244.7,307.1z M240.6,300.7
			c0.3-1.4-0.2-2-1.2-2c-1.1,0-1.8,0.7-2.2,2H240.6z"/>
		<path fill="#FFFFFF" d="M258.3,300.2c-2.1-0.9-4.2-1.3-4.9-1.3c-0.4,0-0.8,0.1-0.8,0.5c-0.1,0.5,0.6,0.6,2.9,1.1
			c2.8,0.7,3.8,1.8,3.5,4.1c-0.4,3.2-3.1,4.6-6.6,4.6c-1.9,0-4.8-0.7-7.1-1.9l1.7-3.8c2.2,1.3,4.3,1.7,5.4,1.7
			c0.6,0,0.8-0.1,0.8-0.4c0.1-0.3-0.6-0.4-2.6-1c-3.2-1-3.8-1.9-3.4-4.7c0.4-2.5,2.5-4.1,5.9-4.1c2,0,4.5,0.4,6.9,1.3L258.3,300.2z"
			/>
		<path fill="#FFFFFF" d="M282.6,306.9c-3.6,1.8-6.1,2.3-8.9,2.3c-5.3,0-7.7-3.2-7.7-6.9c0-6.6,3.6-10.7,9.9-10.7
			c2.2,0,5.1,0.5,7.6,1.6l-1.8,4.3c-2.5-0.5-4.3-0.7-5.7-0.7c-2.5,0-4,2.1-4,4.8c0,1.9,1,2.7,2.6,2.7c1.2,0,1.7-0.1,3.2-0.4l0.2-1
			h-3.3l0.6-3.9h8.5L282.6,306.9z"/>
		<path fill="#FFFFFF" d="M299.3,302.1c-0.6,4.8-3.5,7.1-8.2,7.1c-5,0-7-2.5-6.4-7.1c0.7-4.8,3.6-7.1,8.2-7.1
			C298,295,300,297.5,299.3,302.1z M293.8,302c0.3-1.8-0.2-2.6-1.3-2.6c-1.3,0-2,1.1-2.3,2.8c-0.3,1.8,0.2,2.6,1.3,2.6
			C292.8,304.8,293.5,303.7,293.8,302z"/>
		<path fill="#FFFFFF" d="M54.8,335.6l-1.1,2.4h-6.2l8.3-17.1h8.1l3.5,17.1h-6.1l-0.4-2.4H54.8z M59.5,327.7c-0.2-1.1-0.2-1.5-0.3-2
			h0c-0.2,0.6-0.5,1.2-0.8,2l-1.4,3.1H60L59.5,327.7z"/>
		<path fill="#FFFFFF" d="M75.6,325.7c2.1-1.3,3.4-1.7,4.6-1.7c2.9,0,3.9,1.6,3.4,5.3l-1.2,8.6h-5.7l1-7.3c0.1-1-0.1-1.3-0.7-1.3
			c-0.6,0-1.2,0.3-2.1,0.8l-1.1,7.8h-5.7l1.9-13.7h5.7L75.6,325.7z"/>
		<path fill="#FFFFFF" d="M91.5,332.3c-0.1,0.8-0.1,1.4,1.1,1.4h1.7l0.3,3.5c-1,0.6-2.6,1-4.6,1c-3.4,0-4.7-1.8-4.1-5.9l0.5-3.4
			h-1.8l0.6-4.7h1.8l0.4-2.8H93l-0.4,2.8h3.1l-0.6,4.7h-3.1L91.5,332.3z"/>
		<path fill="#FFFFFF" d="M101.3,338h-5.7l1.9-13.7h5.7L101.3,338z M101.1,317.3c1.8,0,3.2,1.1,3,3.2c-0.3,1.8-1.8,2.5-3.3,2.5
			c-1.8,0-3.2-1.1-3-3.2C98,318.1,99.6,317.3,101.1,317.3z"/>
		<path fill="#FFFFFF" d="M111,325.5c1.5-1.1,2.7-1.5,4-1.5c3.5,0,4.9,2.3,4.2,7.1c-0.7,5.1-3.3,7.1-6,7.1c-2,0-2.8-0.6-3.7-1.7
			l-0.2,1.5h-5.7l2.5-17.9h5.7L111,325.5z M109.9,332.9c0.4,0.5,0.8,0.6,1.5,0.6c1.2,0,2-1,2.2-2.7c0.2-1.5-0.1-2-1-2
			c-0.8,0-1.5,0.4-2.2,1L109.9,332.9z"/>
		<path fill="#FFFFFF" d="M125.7,338h-5.7l1.9-13.7h5.7L125.7,338z M125.5,317.3c1.8,0,3.2,1.1,3,3.2c-0.3,1.8-1.8,2.5-3.3,2.5
			c-1.8,0-3.2-1.1-3-3.2C122.5,318.1,124,317.3,125.5,317.3z"/>
		<path fill="#FFFFFF" d="M142.8,331.1c-0.6,4.8-3.5,7.1-8.2,7.1c-5,0-7-2.5-6.4-7.1c0.7-4.8,3.6-7.1,8.2-7.1
			C141.4,324,143.4,326.5,142.8,331.1z M137.2,331c0.3-1.8-0.2-2.6-1.3-2.6c-1.3,0-2,1.1-2.3,2.8c-0.3,1.8,0.2,2.6,1.3,2.6
			C136.2,333.8,137,332.7,137.2,331z"/>
		<path fill="#FFFFFF" d="M150.8,332.3c-0.1,0.8-0.1,1.4,1.1,1.4h1.7l0.3,3.5c-1,0.6-2.6,1-4.6,1c-3.4,0-4.7-1.8-4.1-5.9l0.5-3.4
			h-1.8l0.6-4.7h1.8l0.4-2.8h5.7l-0.4,2.8h3.1l-0.6,4.7h-3.1L150.8,332.3z"/>
		<path fill="#FFFFFF" d="M160.7,338H155l1.9-13.7h5.7L160.7,338z M160.5,317.3c1.8,0,3.2,1.1,3,3.2c-0.3,1.8-1.8,2.5-3.3,2.5
			c-1.8,0-3.2-1.1-3-3.2C157.4,318.1,158.9,317.3,160.5,317.3z"/>
		<path fill="#FFFFFF" d="M175.7,336.3c-2.2,1.4-3.9,1.9-6.6,1.9c-3.8,0-6.5-2.7-5.8-7.2c0.6-4.6,3.6-7,7.6-7c2,0,3.7,0.4,5.7,1.6
			l-1.8,3.5c-1.6-0.5-2.5-0.6-3.4-0.6c-1.3,0-2.3,0.7-2.6,2.8c-0.3,2,0.2,2.4,1.6,2.4c1.1,0,2.5-0.3,3.9-0.9L175.7,336.3z"/>
		<path fill="#FFFFFF" d="M188.8,329.2c-2.1-0.9-4.2-1.3-4.9-1.3c-0.4,0-0.8,0.1-0.8,0.5c-0.1,0.5,0.6,0.6,2.9,1.1
			c2.8,0.7,3.8,1.8,3.5,4.1c-0.4,3.2-3.1,4.6-6.6,4.6c-1.9,0-4.8-0.7-7.1-1.9l1.7-3.8c2.2,1.3,4.3,1.7,5.4,1.7
			c0.6,0,0.8-0.1,0.8-0.4c0.1-0.3-0.6-0.4-2.6-1c-3.2-1-3.8-1.9-3.4-4.7c0.4-2.5,2.5-4.1,5.9-4.1c2,0,4.5,0.4,6.9,1.3L188.8,329.2z"
			/>
		<path fill="#FFFFFF" d="M201.2,327.8l-0.7,5h-8.8l0.7-5H201.2z"/>
		<path fill="#FFFFFF" d="M209.5,328.4h6.2l-0.7,5.1h-6.2l-0.6,4.5h-5.8l2.4-17.1h13.1l-0.7,5.3h-7.3L209.5,328.4z"/>
		<path fill="#FFFFFF" d="M224.3,326.3c1.4-1.8,2.4-2.4,3.7-2.4c0.5,0,0.9,0,1.7,0.1l-1,5.7h-1.6c-1.5,0-2.6,0.3-3.6,1.7l-0.9,6.4
			H217l1.9-13.7h5.7L224.3,326.3z"/>
		<path fill="#FFFFFF" d="M242.6,336.1c-2.5,1.5-4.5,2.1-6.9,2.1c-4.5,0-6.9-2.7-6.3-7.2c0.6-4.6,3.5-7.1,8.1-7.1
			c4.1,0,6.4,2.5,5.7,6.7c-0.1,0.5-0.2,0.9-0.4,1.8h-8.1c0,1.1,0.4,1.4,1.7,1.4c1.8,0,3.1-0.4,4.9-1.1L242.6,336.1z M238.4,329.7
			c0.3-1.4-0.2-2-1.2-2c-1.1,0-1.8,0.7-2.2,2H238.4z"/>
		<path fill="#FFFFFF" d="M257.3,336.1c-2.5,1.5-4.5,2.1-6.9,2.1c-4.5,0-6.9-2.7-6.3-7.2c0.6-4.6,3.5-7.1,8.1-7.1
			c4.1,0,6.4,2.5,5.7,6.7c-0.1,0.5-0.2,0.9-0.4,1.8h-8.1c0,1.1,0.4,1.4,1.7,1.4c1.8,0,3.1-0.4,4.9-1.1L257.3,336.1z M253.1,329.7
			c0.3-1.4-0.2-2-1.2-2c-1.1,0-1.8,0.7-2.2,2H253.1z"/>
		<path fill="#FFFFFF" d="M278.1,338h-5.7l0.2-1.1c-1.2,1-2,1.4-3.8,1.4c-2.9,0-5.2-2.3-4.4-7.4c0.7-4.8,2.7-6.8,5.7-6.8
			c1.5,0,2.6,0.3,4,1.4l0.2-1.1h5.7L278.1,338z M273.6,329.4c-0.6-0.5-1-0.7-1.5-0.7c-1.1,0-1.9,0.9-2.1,2.4c-0.3,1.8,0.1,2.4,1,2.4
			c0.8,0,1.4-0.3,2.2-0.8L273.6,329.4z"/>
		<path fill="#FFFFFF" d="M292.5,329.2c-2.1-0.9-4.2-1.3-4.9-1.3c-0.4,0-0.8,0.1-0.8,0.5c-0.1,0.5,0.6,0.6,2.9,1.1
			c2.8,0.7,3.8,1.8,3.5,4.1c-0.4,3.2-3.1,4.6-6.6,4.6c-1.9,0-4.8-0.7-7.1-1.9l1.7-3.8c2.2,1.3,4.3,1.7,5.4,1.7
			c0.6,0,0.8-0.1,0.8-0.4c0.1-0.3-0.6-0.4-2.6-1c-3.2-1-3.8-1.9-3.4-4.7c0.4-2.5,2.5-4.1,5.9-4.1c2,0,4.5,0.4,6.9,1.3L292.5,329.2z"
			/>
		<path fill="#FFFFFF" d="M63.8,367l0.9-7l0.2-0.9l-4.1,7.9h-3.4l-1.9-7.9l-0.1,0.7l-1.1,7.2h-5.8l3.1-17.1H58l1.7,6.8
			c0.1,0.6,0.3,1.3,0.4,1.8c0.3-0.6,0.4-1,0.8-1.6l3.8-7h6.5L69.6,367H63.8z"/>
		<path fill="#FFFFFF" d="M86.4,360.1c-0.6,4.8-3.5,7.1-8.2,7.1c-5,0-7-2.5-6.4-7.1c0.7-4.8,3.6-7.1,8.2-7.1
			C85.1,353,87.1,355.5,86.4,360.1z M80.9,360c0.3-1.8-0.2-2.6-1.3-2.6c-1.3,0-2,1.1-2.3,2.8c-0.3,1.8,0.2,2.6,1.3,2.6
			C79.9,362.8,80.6,361.7,80.9,360z"/>
		<path fill="#FFFFFF" d="M94,355.3c1.4-1.8,2.4-2.4,3.7-2.4c0.5,0,0.9,0,1.7,0.1l-1,5.7h-1.6c-1.5,0-2.6,0.3-3.6,1.7l-0.9,6.4h-5.7
			l1.9-13.7h5.7L94,355.3z"/>
		<path fill="#FFFFFF" d="M112.3,365.1c-2.5,1.5-4.5,2.1-6.9,2.1c-4.5,0-6.9-2.7-6.3-7.2c0.6-4.6,3.5-7.1,8.1-7.1
			c4.1,0,6.4,2.5,5.7,6.7c-0.1,0.5-0.2,0.9-0.4,1.8h-8.1c0,1.1,0.4,1.4,1.7,1.4c1.8,0,3.1-0.4,4.9-1.1L112.3,365.1z M108.2,358.7
			c0.3-1.4-0.2-2-1.2-2c-1.1,0-1.8,0.7-2.2,2H108.2z"/>
		<path fill="#FFFFFF" d="M135.1,365.4c-3,1.4-5.2,1.8-7.7,1.8c-4.9,0-7.7-2.5-7.7-7.2c0-6.2,4.1-10.4,9.9-10.4
			c2.5,0,4.6,0.6,6.7,1.6l-2.2,4.3c-2.2-0.5-3.3-0.7-4.5-0.7c-2.4,0-4,1.8-4,4.5c0,1.6,0.6,2.6,2.5,2.6c1.6,0,2.7-0.3,5.4-1.1
			L135.1,365.4z"/>
		<path fill="#FFFFFF" d="M150.4,360.1c-0.6,4.8-3.5,7.1-8.2,7.1c-5,0-7-2.5-6.4-7.1c0.7-4.8,3.6-7.1,8.2-7.1
			C149,353,151,355.5,150.4,360.1z M144.9,360c0.3-1.8-0.2-2.6-1.3-2.6c-1.3,0-2,1.1-2.3,2.8c-0.3,1.8,0.2,2.6,1.3,2.6
			C143.9,362.8,144.6,361.7,144.9,360z"/>
		<path fill="#FFFFFF" d="M158.1,354.7c2.1-1.3,3.4-1.7,4.6-1.7c2.9,0,3.9,1.6,3.4,5.3l-1.2,8.6h-5.7l1-7.3c0.1-1-0.1-1.3-0.7-1.3
			s-1.2,0.3-2.1,0.8l-1.1,7.8h-5.7l1.9-13.7h5.7L158.1,354.7z"/>
		<path fill="#FFFFFF" d="M179.1,358.2c-2.1-0.9-4.2-1.3-4.9-1.3c-0.4,0-0.8,0.1-0.8,0.5c-0.1,0.5,0.6,0.6,2.9,1.1
			c2.8,0.7,3.8,1.8,3.5,4.1c-0.4,3.2-3.1,4.6-6.6,4.6c-1.9,0-4.8-0.7-7.1-1.9l1.7-3.8c2.2,1.3,4.3,1.7,5.4,1.7
			c0.6,0,0.8-0.1,0.8-0.4c0.1-0.3-0.6-0.4-2.6-1c-3.2-1-3.8-1.9-3.4-4.7c0.4-2.5,2.5-4.1,5.9-4.1c2,0,4.5,0.4,6.9,1.3L179.1,358.2z"
			/>
		<path fill="#FFFFFF" d="M194.6,367H189l0.2-1.2c-1.6,1.1-2.8,1.5-4,1.5c-2.9,0-4.5-1.6-3.9-5.3l1.2-8.6h5.7l-1,7.4
			c-0.1,0.9,0.1,1.3,0.6,1.3c0.7,0,1.4-0.4,2.2-0.9l1.1-7.9h5.7L194.6,367z"/>
		<path fill="#FFFFFF" d="M204.1,354.7c1.8-1.3,2.9-1.7,4.2-1.7c1.9,0,3,0.7,3.4,2.2c2.2-1.8,3.5-2.2,4.7-2.2c2.9,0,3.9,1.6,3.4,5.3
			l-1.2,8.6h-5.7l1-7.3c0.1-0.8-0.1-1.3-0.6-1.3c-0.5,0-1,0.1-1.7,0.6l-1.1,8h-5.7l1-7.3c0.1-0.8-0.1-1.3-0.6-1.3
			c-0.4,0-0.9,0.1-1.8,0.7l-1.1,7.9h-5.7l1.9-13.7h5.7L204.1,354.7z"/>
		<path fill="#FFFFFF" d="M233.8,365.1c-2.5,1.5-4.5,2.1-6.9,2.1c-4.5,0-6.9-2.7-6.3-7.2c0.6-4.6,3.5-7.1,8.1-7.1
			c4.1,0,6.4,2.5,5.7,6.7c-0.1,0.5-0.2,0.9-0.4,1.8h-8.1c0,1.1,0.4,1.4,1.7,1.4c1.8,0,3.1-0.4,4.9-1.1L233.8,365.1z M229.7,358.7
			c0.3-1.4-0.2-2-1.2-2c-1.1,0-1.8,0.7-2.2,2H229.7z"/>
		<path fill="#FFFFFF" d="M242.2,355.3c1.4-1.8,2.4-2.4,3.7-2.4c0.5,0,0.9,0,1.7,0.1l-1,5.7H245c-1.5,0-2.6,0.3-3.6,1.7l-0.9,6.4
			h-5.7l1.9-13.7h5.7L242.2,355.3z"/>
		<path fill="#FFFFFF" d="M258.8,358.2c-2.1-0.9-4.2-1.3-4.9-1.3c-0.4,0-0.8,0.1-0.8,0.5c-0.1,0.5,0.6,0.6,2.9,1.1
			c2.8,0.7,3.8,1.8,3.5,4.1c-0.4,3.2-3.1,4.6-6.6,4.6c-1.9,0-4.8-0.7-7.1-1.9l1.7-3.8c2.2,1.3,4.3,1.7,5.4,1.7
			c0.6,0,0.8-0.1,0.8-0.4c0.1-0.3-0.6-0.4-2.6-1c-3.2-1-3.8-1.9-3.4-4.7c0.4-2.5,2.5-4.1,5.9-4.1c2,0,4.5,0.4,6.9,1.3L258.8,358.2z"
			/>
		<path fill="#FFFFFF" d="M58.3,378.9c5.4,0,8,2.2,8,6.9c0,6.2-4.1,10.2-10.1,10.2h-7.7l2.4-17.1H58.3z M56.1,391.1
			c2.8,0,4.3-1.7,4.3-5c0-1.7-0.8-2.4-2.7-2.4H56l-1,7.3H56.1z"/>
		<path fill="#FFFFFF" d="M80.3,394.1c-2.5,1.5-4.5,2.1-6.9,2.1c-4.5,0-6.9-2.7-6.3-7.2c0.6-4.6,3.5-7.1,8.1-7.1
			c4.1,0,6.4,2.5,5.7,6.7c-0.1,0.5-0.2,0.9-0.4,1.8h-8.1c0,1.1,0.4,1.4,1.7,1.4c1.8,0,3.1-0.4,4.9-1.1L80.3,394.1z M76.2,387.7
			c0.3-1.4-0.2-2-1.2-2c-1.1,0-1.8,0.7-2.2,2H76.2z"/>
		<path fill="#FFFFFF" d="M88.8,383.7c1.8-1.3,2.9-1.7,4.2-1.7c1.9,0,3,0.7,3.4,2.2c2.2-1.8,3.5-2.2,4.7-2.2c2.9,0,3.9,1.6,3.4,5.3
			l-1.2,8.6h-5.7l1-7.3c0.1-0.8-0.1-1.3-0.6-1.3c-0.5,0-1,0.1-1.7,0.6l-1.1,8h-5.7l1-7.3c0.1-0.8-0.1-1.3-0.6-1.3
			c-0.4,0-0.9,0.1-1.8,0.7l-1.1,7.9h-5.7l1.9-13.7H89L88.8,383.7z"/>
		<path fill="#FFFFFF" d="M119.1,396h-5.7l0.2-1.1c-1.2,1-2,1.4-3.8,1.4c-2.9,0-5.2-2.3-4.4-7.4c0.7-4.8,2.7-6.8,5.7-6.8
			c1.5,0,2.6,0.3,4,1.4l0.2-1.1h5.7L119.1,396z M114.6,387.4c-0.6-0.5-1-0.7-1.5-0.7c-1.1,0-1.9,0.9-2.1,2.4c-0.3,1.8,0.1,2.4,1,2.4
			c0.8,0,1.4-0.3,2.2-0.8L114.6,387.4z"/>
		<path fill="#FFFFFF" d="M128.4,383.7c2.1-1.3,3.4-1.7,4.6-1.7c2.9,0,3.9,1.6,3.4,5.3l-1.2,8.6h-5.7l1-7.3c0.1-1-0.1-1.3-0.7-1.3
			s-1.2,0.3-2.1,0.8l-1.1,7.8h-5.7l1.9-13.7h5.7L128.4,383.7z"/>
		<path fill="#FFFFFF" d="M151.1,396h-5.7l0.2-1.1c-1.2,1-2,1.4-3.8,1.4c-2.9,0-5.2-2.3-4.4-7.4c0.7-4.8,2.7-6.8,5.7-6.8
			c1.5,0,2.7,0.3,4.1,1.4l0.8-5.3h5.7L151.1,396z M146.7,387.4c-0.6-0.5-1-0.7-1.6-0.7c-1.1,0-1.9,0.9-2.1,2.4
			c-0.3,1.8,0.1,2.4,1,2.4c0.8,0,1.5-0.3,2.2-0.8L146.7,387.4z"/>
		<path fill="#FFFFFF" d="M164.4,396h-5.9l2.4-17.1h5.9L164.4,396z"/>
		<path fill="#FFFFFF" d="M173.9,390.3c-0.1,0.8-0.1,1.4,1.1,1.4h1.7l0.3,3.5c-1,0.6-2.6,1-4.6,1c-3.4,0-4.7-1.8-4.1-5.9l0.5-3.4
			h-1.8l0.6-4.7h1.8l0.4-2.8h5.7l-0.4,2.8h3.1l-0.6,4.7h-3.1L173.9,390.3z"/>
	</g>
	<g>
		<g>
			<circle fill="#FFFFFF" cx="323.5" cy="128.1" r="30"/>
		</g>
		<g>
			<path fill="#3671FF" d="M309.1,133.1c0.1,3.3-1.6,5.8-4.7,6.8c-3.1,1-4.9-0.3-5-3.6c-0.1-3.3,1.6-5.6,4.7-6.7
				C307.3,128.6,309,129.9,309.1,133.1z M305.9,134.2c0-1.3-0.6-1.8-1.6-1.5c-1.1,0.3-1.6,1.3-1.6,2.6c0,1.3,0.6,1.9,1.6,1.6
				C305.3,136.5,305.9,135.5,305.9,134.2z"/>
			<path fill="#3671FF" d="M313.4,131.2l3.3-1.1l0.1,3l-3.3,1.1l0.1,2.6l-3.1,1l-0.2-10l7-2.3l0.1,3.1l-3.9,1.3L313.4,131.2z"/>
			<path fill="#3671FF" d="M326.5,125.6l0.1,6.8l-3.2,1l-0.1-6.8l-2.6,0.9l0-3.1l8.4-2.7l0,3.1L326.5,125.6z"/>
			<path fill="#3671FF" d="M338.6,128.5l-3.2,1l-0.1-3.4l-2.5,0.8l0.1,3.4l-3.2,1l-0.2-10l3.2-1l0.1,3.4l2.5-0.8l-0.1-3.4l3.2-1
				L338.6,128.5z"/>
			<path fill="#3671FF" d="M343.2,120.7l3.4-1.1l0,2.5l-3.4,1.1l0,0.9l4.2-1.4l0.1,2.8l-7.3,2.4l-0.2-10l7.2-2.4l0.1,2.8l-4,1.3
				L343.2,120.7z"/>
		</g>
	</g>
	<g>
		<path fill="#FFFFFF" d="M58.9,535.8l-1.5,11h-4.6l1.5-11h-4.5l0.6-4.2H64l-0.6,4.2H58.9z"/>
		<path fill="#FFFFFF" d="M69.3,536.1c1.8-1.2,2.9-1.7,4.2-1.7c2.6,0,3.5,1.5,3,4.8l-1.1,7.6h-4.5l0.9-6.4c0.1-1.2,0-1.5-0.7-1.5
			s-1.6,0.5-2.3,1l-1,6.9h-4.5l2.2-16.1h4.5L69.3,536.1z"/>
		<path fill="#FFFFFF" d="M89.1,545.2c-2.1,1.4-3.9,1.9-5.9,1.9c-3.9,0-6-2.3-5.5-6.4c0.6-4.1,3.1-6.2,7-6.2c3.5,0,5.6,2.1,5,6
			c-0.1,0.5-0.1,0.9-0.3,1.5h-7.5c0,1.2,0.5,1.6,1.7,1.6c1.7,0,2.8-0.4,4.4-1.1L89.1,545.2z M86,539.5c0.2-1.4-0.3-2-1.4-2
			c-1.1,0-1.9,0.7-2.3,2H86z"/>
		<path fill="#FFFFFF" d="M106.6,546.8H95.2l0.5-3.9h3.7l0.9-6.2c-1,0.2-2,0.4-3.1,0.6l-0.7-3c1.8-0.7,3.6-1.7,5.3-2.7h3.8
			l-1.6,11.3h3.1L106.6,546.8z"/>
		<path fill="#FFFFFF" d="M122.6,539.4c-0.7,4.9-3.3,7.6-8.1,7.6c-4.9,0-6.8-2.9-6.1-8c0.7-5,3.3-7.7,8.1-7.7
			C121.4,531.3,123.4,534.3,122.6,539.4z M118,539.1c0.3-2.4,0.1-3.5-1.8-3.5c-1.9,0-2.7,1.3-3.1,3.9c-0.3,2.4-0.1,3.4,1.8,3.4
			C116.8,542.9,117.6,541.5,118,539.1z"/>
		<path fill="#FFFFFF" d="M137.3,531.6c3.7,0,5.4,1.6,5.2,4.2c-0.1,1.6-0.9,2.6-2.2,3.1c1.6,0.5,2.4,1.7,2.2,3.4
			c-0.2,3.3-2.5,4.5-7.3,4.5h-6.8l2.1-15.2H137.3z M135.5,543.2c1.6,0,2.3-0.5,2.4-1.5c0-0.8-0.4-1.2-1.5-1.2H134l-0.4,2.6H135.5z
			 M136,537.6c1.2,0,2-0.4,2-1.3c0-0.7-0.3-1-1.4-1h-2l-0.3,2.3H136z"/>
		<path fill="#FFFFFF" d="M155.3,545.2c-2.1,1.4-3.9,1.9-5.9,1.9c-3.9,0-6-2.3-5.5-6.4c0.6-4.1,3.1-6.2,7-6.2c3.5,0,5.6,2.1,5,6
			c-0.1,0.5-0.1,0.9-0.3,1.5H148c0,1.2,0.5,1.6,1.7,1.6c1.7,0,2.8-0.4,4.4-1.1L155.3,545.2z M152.1,539.5c0.2-1.4-0.3-2-1.4-2
			c-1.1,0-1.9,0.7-2.3,2H152.1z"/>
		<path fill="#FFFFFF" d="M166.9,538.6c-1.8-0.6-3.5-1-4.2-1c-0.5,0-0.9,0.2-1,0.6c0,0.5,0.5,0.6,2.6,1.2c2.4,0.6,3.4,1.6,3.1,3.6
			c-0.4,2.7-2.5,4-5.7,4c-1.9,0-4.1-0.7-5.8-1.6l1.4-2.9c1.7,0.9,3.5,1.3,4.5,1.3c0.7,0,1.1-0.2,1.1-0.6c0-0.4-0.5-0.5-2.4-1
			c-2.6-0.8-3.3-1.8-3-4c0.3-2.3,2.2-3.7,5-3.7c1.7,0,3.8,0.4,5.8,1.1L166.9,538.6z"/>
		<path fill="#FFFFFF" d="M174.4,542.1c-0.1,0.9,0,1.3,1.1,1.3c0.6,0,1,0,1.6,0l0.2,2.8c-0.9,0.5-2.4,0.8-3.8,0.8
			c-3,0-4.1-1.5-3.6-5l0.5-3.6h-1.6l0.5-3.7h1.6l0.4-2.6h4.5l-0.4,2.6h2.8l-0.5,3.7h-2.8L174.4,542.1z"/>
		<path fill="#FFFFFF" d="M196,546.8l-0.6-6c-0.1-0.7-0.1-1.5-0.1-2.4c-0.3,1-0.5,1.8-0.8,2.6l-2.3,5.8h-5.6l-1.7-15.2h4.9l0.6,8.5
			c0,0.5,0,1.1,0,1.6c0.2-0.6,0.4-1.2,0.5-1.9l2.7-8.3h5l0.4,8.5c0,0.5,0,1.1,0,1.6c0.2-0.7,0.3-1.3,0.5-1.9l3-8.3h5l-5.7,15.2H196z
			"/>
		<path fill="#FFFFFF" d="M211.3,546.8h-4.5l1.7-12.2h4.5L211.3,546.8z M211.4,528.8c1.4,0,2.6,0.9,2.4,2.6c-0.2,1.4-1.4,2-2.6,2
			c-1.4,0-2.6-0.9-2.4-2.6C208.9,529.5,210.1,528.8,211.4,528.8z"/>
		<path fill="#FFFFFF" d="M218,546.8h-4.5l2.3-16.1h4.5L218,546.8z"/>
		<path fill="#FFFFFF" d="M232.3,546.8h-4.5l0.1-1c-1.1,0.8-1.9,1.2-3.5,1.2c-2.6,0-4.6-2-4-6.6c0.6-4.3,2.5-6,5.2-6
			c1.4,0,2.5,0.3,3.7,1.4l0.7-5.1h4.5L232.3,546.8z M228.8,539.1c-0.6-0.6-1.1-0.8-1.7-0.8c-1.2,0-2,0.8-2.2,2.5
			c-0.3,1.8,0.2,2.5,1.2,2.5c0.9,0,1.5-0.3,2.3-0.9L228.8,539.1z"/>
		<path fill="#FFFFFF" d="M254.4,545.1c-3.1,1.5-5.3,1.9-7.7,1.9c-4.7,0-7-2.9-6.7-7.1c0.3-5.2,3.6-8.6,8.7-8.6c2,0,4.5,0.5,6.6,1.4
			l-1.4,3.4c-2-0.5-3.6-0.8-5.1-0.8c-2.3,0-3.9,1.9-4.1,4.4c-0.2,2,0.8,3.2,2.6,3.2c1.2,0,2,0,3.3-0.4l0.2-1.2h-3.4l0.5-3.4h7.5
			L254.4,545.1z"/>
		<path fill="#FFFFFF" d="M268.4,546.8h-4.5l0.1-1c-1.1,0.8-1.9,1.2-3.4,1.2c-2.6,0-4.6-2-4-6.6c0.6-4.2,2.5-6,5.2-6
			c1.4,0,2.4,0.4,3.7,1.3l0.1-1.1h4.5L268.4,546.8z M264.9,539c-0.6-0.6-1.1-0.8-1.7-0.8c-1.2,0-2,0.8-2.2,2.5
			c-0.3,1.8,0.2,2.5,1.2,2.5c0.9,0,1.5-0.3,2.2-0.9L264.9,539z"/>
		<path fill="#FFFFFF" d="M276.5,536c1.6-1.1,2.6-1.5,3.8-1.5c1.7,0,2.6,0.6,3,2c2-1.5,3.2-2,4.3-2c2.6,0,3.4,1.5,3,4.7l-1.1,7.6
			h-4.5l0.9-6.6c0.1-1.1,0-1.5-0.7-1.5c-0.6,0-1.2,0.2-1.9,0.8l-1,7.3h-4.5l0.9-6.6c0.1-1.1-0.1-1.5-0.7-1.5c-0.6,0-1.1,0.3-2,0.9
			l-1,7.2h-4.5l1.7-12.2h4.5L276.5,536z"/>
		<path fill="#FFFFFF" d="M303.2,545.2c-2.1,1.4-3.9,1.9-5.9,1.9c-3.9,0-6-2.3-5.5-6.4c0.6-4.1,3.1-6.2,7-6.2c3.5,0,5.6,2.1,5,6
			c-0.1,0.5-0.1,0.9-0.3,1.5H296c0,1.2,0.5,1.6,1.7,1.6c1.7,0,2.8-0.4,4.4-1.1L303.2,545.2z M300.1,539.5c0.2-1.4-0.3-2-1.4-2
			c-1.1,0-1.9,0.7-2.3,2H300.1z"/>
		<path fill="#FFFFFF" d="M320.1,540.7c-0.6,4.5-2.3,6.3-6.1,6.3c-1.7,0-3.5-0.6-5.1-1.4l1.3-3.1c1.2,0.3,2,0.5,3,0.5
			c1.2,0,2-0.8,2.2-2.3l1.2-9h4.7L320.1,540.7z"/>
		<path fill="#FFFFFF" d="M334.4,540.9c-0.6,4.1-3.1,6.2-7.1,6.2c-4.2,0-6.2-2.3-5.6-6.4c0.6-4.1,3.1-6.2,7.1-6.2
			C333.1,534.4,335,536.8,334.4,540.9z M330,540.6c0.2-1.9-0.3-2.6-1.5-2.6c-1.3,0-2.2,0.9-2.5,2.9c-0.3,1.9,0.3,2.6,1.5,2.6
			C328.9,543.5,329.7,542.6,330,540.6z"/>
		<path fill="#FFFFFF" d="M339.9,546.8h-4.5l1.7-12.2h4.5L339.9,546.8z M339.9,528.8c1.4,0,2.6,0.9,2.4,2.6c-0.2,1.4-1.4,2-2.6,2
			c-1.4,0-2.6-0.9-2.4-2.6C337.5,529.5,338.7,528.8,339.9,528.8z"/>
		<path fill="#FFFFFF" d="M348.2,536c1.8-1.1,3-1.5,4.2-1.5c2.6,0,3.5,1.5,3,4.7l-1.1,7.6h-4.5l0.9-6.6c0.2-1.1,0-1.5-0.8-1.5
			c-0.7,0-1.4,0.4-2.3,1l-1,7.1h-4.5l1.7-12.2h4.5L348.2,536z"/>
		<path fill="#FFFFFF" d="M362.2,542.1c-0.1,0.9,0,1.3,1.1,1.3c0.6,0,1,0,1.6,0l0.2,2.8c-0.9,0.5-2.4,0.8-3.8,0.8
			c-3,0-4.1-1.5-3.6-5l0.5-3.6h-1.6l0.5-3.7h1.6l0.4-2.6h4.5l-0.4,2.6h2.8l-0.5,3.7h-2.8L362.2,542.1z"/>
		<path fill="#FFFFFF" d="M376.7,538.6c-1.8-0.6-3.5-1-4.2-1c-0.5,0-0.9,0.2-1,0.6c0,0.5,0.5,0.6,2.6,1.2c2.4,0.6,3.4,1.6,3.1,3.6
			c-0.4,2.7-2.5,4-5.7,4c-1.9,0-4.1-0.7-5.8-1.6l1.4-2.9c1.7,0.9,3.5,1.3,4.5,1.3c0.7,0,1.1-0.2,1.1-0.6c0-0.4-0.5-0.5-2.4-1
			c-2.6-0.8-3.3-1.8-3-4c0.3-2.3,2.2-3.7,5-3.7c1.7,0,3.8,0.4,5.8,1.1L376.7,538.6z"/>
	</g>
	<g>
		<path fill="#FFFFFF" d="M49.8,449c3-1.2,5-1.9,7.1-1.9c3.4,0,5.4,2.2,5,5.4c-0.4,2.5-3,4.3-6.6,6.3c0.9-0.1,1.7-0.2,2.7-0.2h3.1
			l-0.5,3.9H48.4l0.4-3.3c4.6-3.3,8-5.6,8.3-7c0.1-1-0.4-1.3-1.3-1.3c-1.4,0-3,0.5-5,1.3L49.8,449z"/>
		<path fill="#FFFFFF" d="M77.3,455.2c-0.7,4.9-3.3,7.6-8.1,7.6c-4.9,0-6.8-2.9-6.1-8c0.7-5,3.3-7.7,8.1-7.7
			C76.1,447.1,78,450.1,77.3,455.2z M72.6,454.9c0.3-2.4,0.1-3.5-1.8-3.5c-1.9,0-2.7,1.3-3.1,3.9c-0.3,2.4-0.1,3.4,1.8,3.4
			C71.5,458.7,72.3,457.3,72.6,454.9z"/>
		<path fill="#FFFFFF" d="M76.8,464.6c1-0.7,1.6-1.2,2-1.9c-0.9-0.4-1.4-1.3-1.3-2.4c0.2-1.4,1.3-2.4,2.7-2.4c1.6,0,2.5,1.2,2.3,2.9
			v0c-0.2,1.9-2.1,4.1-4.7,5.4L76.8,464.6z"/>
		<path fill="#FFFFFF" d="M98.7,455.2c-0.7,4.9-3.3,7.6-8.1,7.6c-4.9,0-6.8-2.9-6.1-8c0.7-5,3.3-7.7,8.1-7.7
			C97.4,447.1,99.4,450.1,98.7,455.2z M94,454.9c0.3-2.4,0.1-3.5-1.8-3.5c-1.9,0-2.7,1.3-3.1,3.9c-0.3,2.4-0.1,3.4,1.8,3.4
			C92.9,458.7,93.6,457.3,94,454.9z"/>
		<path fill="#FFFFFF" d="M114.3,455.2c-0.7,4.9-3.3,7.6-8.1,7.6c-4.9,0-6.8-2.9-6.1-8c0.7-5,3.3-7.7,8.1-7.7
			C113,447.1,115,450.1,114.3,455.2z M109.6,454.9c0.3-2.4,0.1-3.5-1.8-3.5c-1.9,0-2.7,1.3-3.1,3.9c-0.3,2.4-0.1,3.4,1.8,3.4
			C108.5,458.7,109.2,457.3,109.6,454.9z"/>
		<path fill="#FFFFFF" d="M129.9,455.2c-0.7,4.9-3.3,7.6-8.1,7.6c-4.9,0-6.8-2.9-6.1-8c0.7-5,3.3-7.7,8.1-7.7
			C128.6,447.1,130.6,450.1,129.9,455.2z M125.2,454.9c0.3-2.4,0.1-3.5-1.8-3.5c-1.9,0-2.7,1.3-3.1,3.9c-0.3,2.4-0.1,3.4,1.8,3.4
			C124.1,458.7,124.8,457.3,125.2,454.9z"/>
		<path fill="#FFFFFF" d="M144.1,447.4c4.5,0,6.4,2,6.1,5.7c-0.2,4-2.8,6.3-7.2,6.3h-2.2l-0.4,3.2h-4.7l2.1-15.2H144.1z
			 M143.1,455.6c1.6,0,2.5-0.9,2.6-2.5c0.1-1.1-0.5-1.8-2-1.8h-1.8l-0.6,4.2H143.1z"/>
		<path fill="#FFFFFF" d="M163.5,456.7c-0.5,4.1-3.1,6.2-7.1,6.2c-4.2,0-6.2-2.3-5.6-6.4c0.6-4.1,3.1-6.2,7.1-6.2
			C162.2,450.2,164.1,452.6,163.5,456.7z M159.1,456.4c0.2-1.9-0.3-2.6-1.5-2.6c-1.3,0-2.2,0.9-2.5,2.9c-0.3,1.9,0.3,2.6,1.5,2.6
			C158,459.3,158.9,458.4,159.1,456.4z"/>
		<path fill="#FFFFFF" d="M176.4,462.6h-4.5l0.1-1.1c-1.5,0.9-2.5,1.4-3.7,1.4c-2.6,0-3.9-1.5-3.5-4.8l1.1-7.6h4.5l-0.9,6.7
			c-0.2,1.2,0,1.6,0.7,1.6c0.8,0,1.5-0.5,2.4-1l1-7.2h4.5L176.4,462.6z"/>
		<path fill="#FFFFFF" d="M184.6,451.8c1.8-1.1,3-1.5,4.2-1.5c2.6,0,3.5,1.5,3,4.7l-1.1,7.6h-4.5l0.9-6.6c0.2-1.1,0-1.5-0.8-1.5
			c-0.7,0-1.4,0.4-2.3,1l-1,7.1h-4.5l1.7-12.2h4.5L184.6,451.8z"/>
		<path fill="#FFFFFF" d="M204.9,462.6h-4.5l0.1-1c-1.1,0.8-1.9,1.2-3.5,1.2c-2.6,0-4.6-2-4-6.6c0.6-4.3,2.5-6,5.2-6
			c1.4,0,2.5,0.3,3.7,1.4l0.7-5.1h4.5L204.9,462.6z M201.4,454.9c-0.6-0.6-1.1-0.8-1.7-0.8c-1.2,0-2,0.8-2.2,2.5
			c-0.3,1.8,0.2,2.5,1.2,2.5c0.9,0,1.5-0.3,2.3-0.9L201.4,454.9z"/>
		<path fill="#FFFFFF" d="M217.4,454.4c-1.8-0.6-3.5-1-4.2-1c-0.5,0-0.9,0.2-1,0.6c0,0.5,0.5,0.6,2.6,1.2c2.4,0.6,3.4,1.6,3.1,3.6
			c-0.4,2.7-2.5,4-5.7,4c-1.9,0-4.1-0.7-5.8-1.6l1.4-2.9c1.7,0.9,3.5,1.3,4.5,1.3c0.7,0,1.1-0.2,1.1-0.6c0-0.4-0.5-0.5-2.4-1
			c-2.6-0.8-3.3-1.8-3-4c0.4-2.3,2.2-3.7,5-3.7c1.7,0,3.8,0.4,5.8,1.1L217.4,454.4z"/>
		<path fill="#FFFFFF" d="M237.2,456.7c-0.5,4.1-3.1,6.2-7.1,6.2c-4.2,0-6.2-2.3-5.6-6.4c0.6-4.1,3.1-6.2,7.1-6.2
			C235.9,450.2,237.8,452.6,237.2,456.7z M232.8,456.4c0.2-1.9-0.3-2.6-1.5-2.6c-1.3,0-2.2,0.9-2.5,2.9c-0.3,1.9,0.3,2.6,1.5,2.6
			C231.7,459.3,232.6,458.4,232.8,456.4z"/>
		<path fill="#FFFFFF" d="M248.1,448.9c-0.5,0-1,0-1.4,0c-1.2,0-1.7,0.7-1.8,1.5l0,0.1h2.9l-0.5,3.7h-2.9l-1.2,8.4h-4.5l1.2-8.4
			h-1.6l0.5-3.7h1.6l0-0.2c0.5-3.4,2.2-4.8,5.6-4.8c1,0,1.8,0.1,2.7,0.3L248.1,448.9z"/>
		<path fill="#FFFFFF" d="M261.5,451.6l-1.5,11h-4.6l1.5-11h-4.5l0.6-4.2h13.7l-0.6,4.2H261.5z"/>
		<path fill="#FFFFFF" d="M280.7,450.5c-1.7,3.7-3.3,7.3-5,10c-2.1,3.1-4.7,5.3-8.5,6.8l-1.4-3.5c1.3-0.6,2.4-1.2,3.5-2.2l-2.8-11.1
			h4.6l1.1,5.1c0.1,0.6,0.2,1.2,0.3,1.8c1.2-2,2.1-4,3.3-6.9L280.7,450.5z"/>
		<path fill="#FFFFFF" d="M289.8,454.4c-1.8-0.6-3.5-1-4.2-1c-0.5,0-0.9,0.2-1,0.6c0,0.5,0.5,0.6,2.6,1.2c2.4,0.6,3.4,1.6,3.1,3.6
			c-0.4,2.7-2.5,4-5.7,4c-1.9,0-4.1-0.7-5.8-1.6l1.4-2.9c1.7,0.9,3.5,1.3,4.5,1.3c0.7,0,1.1-0.2,1.1-0.6c0-0.4-0.5-0.5-2.4-1
			c-2.6-0.8-3.3-1.8-3-4c0.3-2.3,2.2-3.7,5-3.7c1.7,0,3.8,0.4,5.8,1.1L289.8,454.4z"/>
		<path fill="#FFFFFF" d="M304.4,456.7c-0.5,4.1-3.1,6.2-7.1,6.2c-4.2,0-6.2-2.3-5.6-6.4c0.6-4.1,3.1-6.2,7.1-6.2
			C303,450.2,305,452.6,304.4,456.7z M300,456.4c0.2-1.9-0.3-2.6-1.5-2.6c-1.3,0-2.2,0.9-2.5,2.9c-0.3,1.9,0.3,2.6,1.5,2.6
			C298.8,459.3,299.7,458.4,300,456.4z"/>
		<path fill="#FFFFFF" d="M311,451.8c1.8-1.1,3-1.5,4.2-1.5c2.6,0,3.5,1.5,3,4.7l-1.1,7.6h-4.5l0.9-6.6c0.2-1.1,0-1.5-0.8-1.5
			c-0.7,0-1.4,0.4-2.3,1l-1,7.1H305l1.7-12.2h4.5L311,451.8z"/>
		<path fill="#FFFFFF" d="M338.3,461.2c-2.5,1.2-4.5,1.7-6.7,1.7c-4.5,0-7.1-2.6-6.7-7.2c0.4-5.2,3.8-8.5,8.8-8.5
			c2.1,0,4,0.5,5.8,1.4l-1.7,3.4c-1.9-0.5-2.9-0.7-4-0.7c-2.4,0-3.9,1.6-4.1,4.2c-0.2,1.9,0.7,3.1,2.5,3.1c1.6,0,2.7-0.2,5-1
			L338.3,461.2z"/>
		<path fill="#FFFFFF" d="M345.4,451.9c1.8-1.2,2.9-1.7,4.2-1.7c2.6,0,3.5,1.5,3,4.8l-1.1,7.6H347l0.9-6.4c0.1-1.2,0-1.5-0.7-1.5
			s-1.6,0.5-2.3,1l-1,6.9h-4.5l2.2-16.1h4.5L345.4,451.9z"/>
		<path fill="#FFFFFF" d="M358.2,462.6h-4.5l1.7-12.2h4.5L358.2,462.6z M358.3,444.6c1.4,0,2.6,0.9,2.4,2.6c-0.2,1.4-1.4,2-2.6,2
			c-1.4,0-2.6-0.9-2.4-2.6C355.8,445.3,357,444.6,358.3,444.6z"/>
		<path fill="#FFFFFF" d="M371.6,461.1c-1.9,1.2-3.4,1.7-5.8,1.7c-3.3,0-5.7-2.3-5.1-6.4c0.6-4.1,3.2-6.2,6.7-6.2
			c1.8,0,3.3,0.4,5,1.4l-1.5,2.7c-1.4-0.5-2.2-0.6-3.1-0.6c-1.4,0-2.4,0.9-2.7,2.9c-0.3,1.8,0.3,2.5,1.6,2.5c1.1,0,2.4-0.3,3.7-0.9
			L371.6,461.1z"/>
		<path fill="#FFFFFF" d="M381.6,455.9l3.6,6.3l-0.1,0.5h-4.6l-2.1-3.5l-1.2,1.2l-0.3,2.3h-4.5l2.3-16.1h4.5l-1.1,7.6l3.8-3.7h5
			l-0.1,0.4L381.6,455.9z"/>
		<path fill="#FFFFFF" d="M397.3,461c-2.1,1.4-3.9,1.9-5.9,1.9c-3.9,0-6-2.3-5.5-6.4c0.6-4.1,3.1-6.2,7-6.2c3.5,0,5.6,2.1,5,6
			c-0.1,0.5-0.1,0.9-0.3,1.5h-7.5c0,1.2,0.5,1.6,1.7,1.6c1.7,0,2.8-0.4,4.4-1.1L397.3,461z M394.1,455.3c0.2-1.4-0.3-2-1.4-2
			c-1.1,0-1.9,0.7-2.3,2H394.1z"/>
		<path fill="#FFFFFF" d="M404.6,451.8c1.8-1.1,3-1.5,4.2-1.5c2.6,0,3.5,1.5,3,4.7l-1.1,7.6h-4.5l0.9-6.6c0.2-1.1,0-1.5-0.8-1.5
			c-0.7,0-1.4,0.4-2.3,1l-1,7.1h-4.5l1.7-12.2h4.5L404.6,451.8z"/>
		<path fill="#FFFFFF" d="M57.4,471.8c4.7,0,6.5,1.9,6.3,5.4c-0.1,2.5-1.3,4.3-3.1,5.2l2.4,4.2l-0.1,0.3h-4.9l-1.9-3.8h-1.9
			l-0.5,3.8h-4.7l2.1-15.2H57.4z M56.8,479.5c1.3,0,2.2-0.6,2.3-2.2c0.1-1-0.6-1.6-2-1.6h-1.9l-0.5,3.8H56.8z"/>
		<path fill="#FFFFFF" d="M75.5,485.4c-2.1,1.4-3.9,1.9-5.9,1.9c-3.9,0-6-2.3-5.5-6.4c0.6-4.1,3.1-6.2,7-6.2c3.5,0,5.6,2.1,5,6
			c-0.1,0.5-0.1,0.9-0.3,1.5h-7.5c0,1.2,0.5,1.6,1.7,1.6c1.7,0,2.8-0.4,4.4-1.1L75.5,485.4z M72.3,479.7c0.2-1.4-0.3-2-1.4-2
			c-1.1,0-1.9,0.7-2.3,2H72.3z"/>
		<path fill="#FFFFFF" d="M87.9,485.5c-1.9,1.2-3.4,1.7-5.8,1.7c-3.3,0-5.7-2.3-5.1-6.4c0.6-4.1,3.2-6.2,6.7-6.2
			c1.8,0,3.3,0.4,5,1.4l-1.5,2.7c-1.4-0.5-2.2-0.6-3.1-0.6c-1.4,0-2.4,0.9-2.7,2.9c-0.3,1.8,0.3,2.5,1.6,2.5c1.1,0,2.4-0.3,3.7-0.9
			L87.9,485.5z"/>
		<path fill="#FFFFFF" d="M100.9,487h-4.5l0.1-1c-1.1,0.8-1.9,1.2-3.4,1.2c-2.6,0-4.6-2-4-6.6c0.6-4.2,2.5-6,5.2-6
			c1.4,0,2.4,0.4,3.7,1.3l0.1-1.1h4.5L100.9,487z M97.4,479.2c-0.6-0.6-1.1-0.8-1.7-0.8c-1.2,0-2,0.8-2.2,2.5
			c-0.3,1.8,0.2,2.5,1.2,2.5c0.9,0,1.5-0.3,2.2-0.9L97.4,479.2z"/>
		<path fill="#FFFFFF" d="M107.5,487H103l2.3-16.1h4.5L107.5,487z"/>
		<path fill="#FFFFFF" d="M114.1,487h-4.5l2.3-16.1h4.5L114.1,487z"/>
		<path fill="#FFFFFF" d="M127.9,485.4c-2.1,1.4-3.9,1.9-5.9,1.9c-3.9,0-6-2.3-5.5-6.4c0.6-4.1,3.1-6.2,7-6.2c3.5,0,5.6,2.1,5,6
			c-0.1,0.5-0.1,0.9-0.3,1.5h-7.5c0,1.2,0.5,1.6,1.7,1.6c1.7,0,2.8-0.4,4.4-1.1L127.9,485.4z M124.7,479.7c0.2-1.4-0.3-2-1.4-2
			c-1.1,0-1.9,0.7-2.3,2H124.7z"/>
		<path fill="#FFFFFF" d="M141.3,487h-4.5l0.1-1c-1.1,0.8-1.9,1.2-3.5,1.2c-2.6,0-4.6-2-4-6.6c0.6-4.3,2.5-6,5.2-6
			c1.4,0,2.5,0.3,3.7,1.4l0.7-5.1h4.5L141.3,487z M137.9,479.3c-0.6-0.6-1.1-0.8-1.7-0.8c-1.2,0-2,0.8-2.2,2.5
			c-0.3,1.8,0.2,2.5,1.2,2.5c0.9,0,1.5-0.3,2.3-0.9L137.9,479.3z"/>
		<path fill="#FFFFFF" d="M158.5,473.3c-0.5,0-1,0-1.4,0c-1.2,0-1.7,0.7-1.8,1.5l0,0.1h2.9l-0.5,3.7h-2.9l-1.2,8.4H149l1.2-8.4h-1.6
			l0.5-3.7h1.6l0-0.2c0.5-3.4,2.2-4.8,5.6-4.8c1,0,1.8,0.1,2.7,0.3L158.5,473.3z"/>
		<path fill="#FFFFFF" d="M171,481.1c-0.6,4.1-3.1,6.2-7.1,6.2c-4.2,0-6.2-2.3-5.6-6.4c0.6-4.1,3.1-6.2,7.1-6.2
			C169.6,474.6,171.5,477,171,481.1z M166.6,480.8c0.2-1.9-0.3-2.6-1.5-2.6c-1.3,0-2.2,0.9-2.5,2.9c-0.3,1.9,0.3,2.6,1.5,2.6
			C165.4,483.7,166.3,482.7,166.6,480.8z"/>
		<path fill="#FFFFFF" d="M177.5,476.7c1.2-1.4,2.1-2,3.3-2c0.5,0,0.9,0,1.5,0.1l-0.8,4.6c-0.5,0-1,0-1.4,0c-1.4,0-2.4,0.4-3.3,1.7
			l-0.9,6h-4.5l1.7-12.2h4.5L177.5,476.7z"/>
		<path fill="#FFFFFF" d="M200.6,476.3c-2.7-0.8-4.4-1-5.5-1c-1.1,0-1.5,0.2-1.5,0.8c0,0.8,0.5,0.8,3.5,1.7c3.1,1,4.1,2.1,3.9,4.7
			c-0.2,2.8-2.9,4.9-6.9,4.9c-2.3,0-5-0.8-7.3-2.1l1.9-3.4c2.3,1.1,4.3,1.7,5.7,1.7c1,0,1.6-0.3,1.6-0.8c0-0.6-0.6-0.8-3.3-1.7
			c-3.4-1-4.3-2.1-4.1-4.7c0.2-2.9,3-4.6,6.6-4.6c2.3,0,4,0.3,6.9,1.3L200.6,476.3z"/>
		<path fill="#FFFFFF" d="M214.1,487h-4.5l0.1-1c-1.1,0.8-1.9,1.2-3.4,1.2c-2.6,0-4.6-2-4-6.6c0.6-4.2,2.5-6,5.2-6
			c1.4,0,2.4,0.4,3.7,1.3l0.1-1.1h4.5L214.1,487z M210.7,479.2c-0.6-0.6-1.1-0.8-1.7-0.8c-1.2,0-2,0.8-2.2,2.5
			c-0.3,1.8,0.2,2.5,1.2,2.5c0.9,0,1.5-0.3,2.2-0.9L210.7,479.2z"/>
		<path fill="#FFFFFF" d="M220.7,487h-4.5l2.3-16.1h4.5L220.7,487z"/>
		<path fill="#FFFFFF" d="M228.9,476.2c1.6-1.1,2.6-1.5,3.8-1.5c1.7,0,2.6,0.6,3,1.9c2-1.5,3.2-1.9,4.3-1.9c2.6,0,3.4,1.5,3,4.7
			L242,487h-4.5l0.9-6.6c0.1-1.1,0-1.5-0.7-1.5c-0.6,0-1.2,0.2-1.9,0.8l-1,7.3h-4.5l0.9-6.6c0.1-1.1-0.1-1.5-0.7-1.5
			c-0.6,0-1.1,0.3-2,0.9l-1,7.2h-4.5l1.7-12.2h4.5L228.9,476.2z"/>
		<path fill="#FFFFFF" d="M256.9,481.1c-0.5,4.1-3.1,6.2-7.1,6.2c-4.2,0-6.2-2.3-5.6-6.4c0.6-4.1,3.1-6.2,7.1-6.2
			C255.6,474.6,257.5,477,256.9,481.1z M252.5,480.8c0.2-1.9-0.3-2.6-1.5-2.6c-1.3,0-2.2,0.9-2.5,2.9c-0.3,1.9,0.3,2.6,1.5,2.6
			C251.4,483.7,252.3,482.7,252.5,480.8z"/>
		<path fill="#FFFFFF" d="M263.6,476.2c1.8-1.1,3-1.5,4.2-1.5c2.6,0,3.5,1.5,3,4.7l-1.1,7.6h-4.5l0.9-6.6c0.2-1.1,0-1.5-0.8-1.5
			c-0.7,0-1.4,0.4-2.3,1l-1,7.1h-4.5l1.7-12.2h4.5L263.6,476.2z"/>
		<path fill="#FFFFFF" d="M283.4,485.4c-2.1,1.4-3.9,1.9-5.9,1.9c-3.9,0-6-2.3-5.5-6.4c0.6-4.1,3.1-6.2,7-6.2c3.5,0,5.6,2.1,5,6
			c-0.1,0.5-0.1,0.9-0.3,1.5h-7.5c0,1.2,0.5,1.6,1.7,1.6c1.7,0,2.8-0.4,4.4-1.1L283.4,485.4z M280.2,479.7c0.2-1.4-0.3-2-1.4-2
			c-1.1,0-1.9,0.7-2.3,2H280.2z"/>
		<path fill="#FFFFFF" d="M289.3,487h-4.5L287,471h4.5L289.3,487z"/>
		<path fill="#FFFFFF" d="M295.9,487h-4.5l2.3-16.1h4.5L295.9,487z"/>
		<path fill="#FFFFFF" d="M310.1,487h-4.5l0.1-1c-1.1,0.8-1.9,1.2-3.4,1.2c-2.6,0-4.6-2-4-6.6c0.6-4.2,2.5-6,5.2-6
			c1.4,0,2.4,0.4,3.7,1.3l0.1-1.1h4.5L310.1,487z M306.7,479.2c-0.6-0.6-1.1-0.8-1.7-0.8c-1.2,0-2,0.8-2.2,2.5
			c-0.3,1.8,0.2,2.5,1.2,2.5c0.9,0,1.5-0.3,2.2-0.9L306.7,479.2z"/>
	</g>
	<g>
		<rect x="0" y="59.3" fill="#FFFFFF" width="7.8" height="146"/>
	</g>
</g>
</svg>
