<?xml version="1.0" encoding="utf-8"?>
<!-- Generator: Adobe Illustrator 18.1.0, SVG Export Plug-In . SVG Version: 6.00 Build 0)  -->
<svg version="1.1" id="Layer_1" xmlns="http://www.w3.org/2000/svg" xmlns:xlink="http://www.w3.org/1999/xlink" x="0px" y="0px"
	 viewBox="0 0 768 1202" enable-background="new 0 0 768 1202" xml:space="preserve">
<path fill="#FFE527" d="M768,1123.8V579.5L572.9,384.3c-0.5-0.5-1-1-1.4-1.4c-5.7-6.4-14.7-9.4-27.5-9.4h-28.5H512l-0.5,3.4
	l-2.8,20.2h-0.6l0.2-1.4h-1.6l0.2-1.4h-1.6l0.2-1.4h-1.6l0.2-1.4h-1.6l0.2-1.4h-1.6l0.2-1.4h-1.6l0.2-1.4h-1.6l0.2-1.4H497l0.2-1.4
	h-1.6l0.2-1.4h-1.6l0.2-1.4h-1.6l0.2-1.4h-1.6l0.2-1.4H490l0.2-1.4h-1.6l0.2-1.4h-1.6l0.2-1.4h-1.6l0.2-1.4h-4.6h-22.4h-3.5
	l-0.5,3.4l-1.8,12.6c-0.1-0.1-0.3-0.3-0.5-0.4c-0.4-0.4-0.9-0.9-1.4-1.4c-0.4-0.4-0.9-0.9-1.4-1.4c-0.4-0.5-0.9-0.9-1.4-1.4
	c-0.4-0.4-0.9-0.9-1.4-1.4c-0.4-0.5-0.9-0.9-1.4-1.4c-5.9-6.5-15-9.8-27.1-9.8c-10.6,0-19.7,2.7-26.8,8l0.2-1.3h-1.6l0.2-1.4h-1.6
	l0.2-1.4h-1.6l0.2-1.4h-1.6l0.2-1.4h-4.6h-59.3h-1.8h-4.6h-22.4h-3.5l-0.5,3.5l-1.5,10.5l0-0.1h-0.6l-0.8-1.4h-0.6l-0.8-1.4h-0.6
	l-0.8-1.4h-0.6l-0.8-1.4h-0.6l-0.8-1.4h-0.6l-0.8-1.4h-0.6l-0.8-1.4h-0.6l-0.8-1.4h-0.6l-0.8-1.4h-0.6l-0.8-1.4h-2.3h-19.9h-2.4
	h-4.6h-22.4h-3.5l-0.5,3.4l-0.7,4.9h-1.3l0.2-1.4h-1.6l0.2-1.4h-1.6l0.2-1.4H213l0.2-1.4h-1.6l0.2-1.4h-1.6l0.2-1.4h-4.6h-22.4H180
	l-0.5,3.4l-4.6,32.5c-1.9,14.1,0.6,24.4,7.5,30.8c0.4,0.5,0.9,0.9,1.4,1.4c0.4,0.5,0.9,0.9,1.4,1.4c0.4,0.5,0.9,0.9,1.4,1.4
	c0.4,0.5,0.9,0.9,1.4,1.4c0.4,0.5,0.9,0.9,1.4,1.4c0.4,0.5,0.9,0.9,1.4,1.4c0.4,0.5,0.9,0.9,1.4,1.4c0.4,0.5,0.9,0.9,1.4,1.4
	c0.4,0.5,0.9,0.9,1.4,1.4c0.4,0.5,0.9,0.9,1.4,1.4c0.4,0.5,0.9,0.9,1.4,1.4c0.4,0.5,0.9,0.9,1.4,1.4c0.4,0.5,0.9,0.9,1.4,1.4
	c0.1,0.1,0.1,0.1,0.2,0.2c-14.2,3-23.5,12.6-23.5,25.2c0,6.7,1.7,11.4,5.5,15.1l-1.8-0.9l-1.8,3.4l-9,16.7l-1.4,2.6l1.9,1.9
	l-3.5-0.7L768,1123.8z"/>
<g>
	<rect x="57" y="1178.5" width="198.8" height="5"/>
</g>
<g>
	<path fill="#EC345B" d="M239.5,408.5c-3.2,22.6-14.2,33.5-35.3,33.5s-29.8-10.9-26.8-33.5l4.6-32.5h22.4l-4.6,32.5
		c-1.3,9,0.6,12.8,6.5,12.8s9.6-3.8,10.8-12.8l4.6-32.5h22.4L239.5,408.5z"/>
	<path fill="#EC345B" d="M286.1,441.1l-17.7-29.7c-0.2,2.6-0.5,5-0.9,7.4l-3.1,22.4h-22.4l9.1-65h19.9l17.7,29.3
		c0.2-2.3,0.5-4.7,0.9-6.9l3.1-22.4h22.4l-9.1,65H286.1z"/>
	<path fill="#EC345B" d="M359.4,396.4l-6.2,44.7h-22.4l6.2-44.7h-18.4l2.9-20.4h59.3l-2.9,20.4H359.4z"/>
	<path fill="#EC345B" d="M447.2,408.1c-3,21.7-16.8,33.9-38.4,33.9c-22.2,0-32.8-12.2-29.8-33.9c3-21.2,16.8-33.1,38.5-33.1
		C439.6,375,450.2,386.9,447.2,408.1z M424.7,408.1c1.1-8.4-2.3-13.1-9.6-13.1c-7.5,0-12.4,4.7-13.6,13.1c-1.2,8.7,2,13.6,9,13.6
		C418.2,421.8,423.5,416.9,424.7,408.1z"/>
	<path fill="#EC345B" d="M498.1,441.1h-49.5l9.1-65h22.4l-6.2,44.7h27L498.1,441.1z"/>
	<path fill="#EC345B" d="M542.5,376c20.6,0,30.3,8.4,30.3,26.3c0,23.4-15.5,38.7-38.6,38.7H505l9.1-65H542.5z M534,422.5
		c10.6,0,16.4-6.4,16.4-19c0-6.4-3.2-9-10.2-9h-6.3l-3.9,27.9H534z"/>
	<path fill="#EC345B" d="M233.1,481.7c-13-3.3-20.4-4.2-23.9-4.2c-3.3,0-4.7,0.5-4.9,2.3c-0.1,2.1,1.8,2.3,13.7,5.5
		c13.1,3.5,17.3,8,17.3,18.8c0,12.6-11.9,22.9-31.1,22.9c-10,0-22.2-3.4-32-8.6l9-16.7c9.6,4.8,18.8,7.4,24.4,7.4
		c3.6,0,5.3-1,5.3-2.5c0-2-3.4-2.8-13.6-5.8c-13.3-3.9-17.5-8.4-17.5-18.7c0-13.9,12.9-22.2,29.1-22.2c10.6,0,16.3,1.1,31,5.3
		L233.1,481.7z"/>
	<path fill="#EC345B" d="M282.1,481.5l-6.2,44.7h-22.4l6.2-44.7h-18.4l2.9-20.4h59.3l-2.9,20.4H282.1z"/>
	<path fill="#EC345B" d="M370,493.2c-3,21.7-16.8,33.9-38.4,33.9c-22.2,0-32.8-12.2-29.8-33.9c3-21.2,16.8-33.1,38.5-33.1
		C362.3,460.1,373,472,370,493.2z M347.5,493.2c1.1-8.4-2.3-13.1-9.6-13.1c-7.5,0-12.4,4.7-13.6,13.1c-1.2,8.7,2,13.6,9,13.6
		C341,506.9,346.2,502,347.5,493.2z"/>
	<path fill="#EC345B" d="M407.8,461.1c21.7,0,28.4,8,28.4,22c0,11.6-4.7,19.7-12.5,24l9.1,17.1l-0.3,2h-23.6l-6.3-15.5h-6.7
		l-2.1,15.5h-22.4l9.1-65H407.8z M405.7,493.5c5,0,8.3-2,8.3-8.7c0-3.2-2.1-5.3-7.7-5.3h-6.1l-1.9,14.1H405.7z"/>
	<path fill="#EC345B" d="M460.9,526.2h-22.4l9.1-65h22.4L460.9,526.2z"/>
	<path fill="#EC345B" d="M497.1,485.5h24.2l-2.2,16.1h-24.2l-0.9,6.1h29.5l-2.6,18.4h-51.6l9.1-65h50.7l-2.6,18.4H498L497.1,485.5z"
		/>
	<path fill="#EC345B" d="M588.9,481.7c-13-3.3-20.4-4.2-23.9-4.2c-3.3,0-4.7,0.5-4.9,2.3c-0.1,2.1,1.8,2.3,13.7,5.5
		c13.1,3.5,17.3,8,17.3,18.8c0,12.6-11.9,22.9-31.1,22.9c-10,0-22.2-3.4-32-8.6l9-16.7c9.6,4.8,18.8,7.4,24.4,7.4
		c3.6,0,5.3-1,5.3-2.5c0-2-3.4-2.8-13.6-5.8c-13.3-3.9-17.5-8.4-17.5-18.7c0-13.9,12.9-22.2,29.1-22.2c10.6,0,16.3,1.1,31,5.3
		L588.9,481.7z"/>
</g>
<rect x="165.2" y="576.7" fill="#FFFFFF" width="435.8" height="7"/>
<g>
	<path d="M176.5,580.2c0-4.9,3.6-9,8.8-9c5.2,0,8.8,4,8.8,9c0,4.9-3.6,9-8.8,9C180.1,589.2,176.5,585.1,176.5,580.2z M189.8,580.2
		c0-3-2-5-4.6-5c-2.5,0-4.5,2-4.5,5s2,5,4.5,5C187.8,585.1,189.8,583.2,189.8,580.2z"/>
	<path d="M219,581.7h-7v7h-4.2v-17.2h12.6v3.6H212v3.3h7V581.7z"/>
	<path d="M249,571.6h13.8v3.6H258v13.6h-4.2v-13.6H249V571.6z"/>
	<path d="M291.8,588.8h-4.2v-7h-7v7h-4.2v-17.2h4.2v7h7v-7h4.2V588.8z"/>
	<path d="M317.6,581.7h-7v3.5h8.3v3.6h-12.5v-17.2H319v3.6h-8.3v3.3h7V581.7z"/>
	<path d="M363,579.3l-3.7,4.9h-1.7l-3.7-5v9.5h-4.1l0-17.2h3.4l5.3,7.4l5.3-7.4h3.4l0,17.2H363V579.3z"/>
	<path d="M393,581.7h-7v3.5h8.3v3.6h-12.5v-17.2h12.5v3.6H386v3.3h7V581.7z"/>
	<path d="M423.9,588.8h-4.5l-1.1-3.1h-6.6l-1.1,3.1h-4.5l6.6-17.2h4.5L423.9,588.8z M412.9,582.4h4.4l-2.2-6.4L412.9,582.4z"/>
	<path d="M433.6,571.6h13.8v3.6h-4.8v13.6h-4.2v-13.6h-4.8V571.6z"/>
	<path d="M492.1,588.8h-4.5l-1.1-3.1H480l-1.1,3.1h-4.5l6.6-17.2h4.5L492.1,588.8z M481.1,582.4h4.4l-2.2-6.4L481.1,582.4z"/>
	<path d="M508.9,588.8h-4.2v-17.2h4.2V588.8z"/>
	<path d="M524.8,583.7c0,0,2.5,1.7,4.8,1.7c1.3,0,1.9-0.6,1.9-1.4c0-0.9-0.5-1.3-3-2.1c-3.6-1.1-5.7-2.5-5.7-5.3
		c0-3.1,2.1-5.3,6.6-5.3c4.7,0,6.5,1.8,6.5,1.8l-2.2,3.4c0,0-1.8-1.4-4.2-1.4c-1.4,0-1.9,0.5-1.9,1.3c0,0.9,0.7,1.2,2.7,1.8
		c3.8,1.1,6,2.5,6,5.4c0,3.1-2.1,5.7-6.6,5.7c-4.8,0-7.2-2.3-7.2-2.3L524.8,583.7z"/>
	<path d="M550.1,588.8v-17.2h4.2v13.6h7.7v3.6H550.1z"/>
	<path d="M586.8,581.7h-7v3.5h8.3v3.6h-12.5v-17.2h12.5v3.6h-8.3v3.3h7V581.7z"/>
</g>
<g>
	<path d="M61.7,884.6h-1.9v-19.8h1.9V884.6z"/>
	<path d="M73.6,882.1c0,0,1.8,1.3,4.7,1.3c2.5,0,3.6-1,3.6-2.3c0-3.5-9-1.7-9-6.7c0-2.2,1.6-3.9,5.1-3.9c3.3,0,5.2,1.1,5.2,1.1
		l-0.7,1.6c0,0-1.7-1.1-4.3-1.1c-2.3,0-3.5,0.7-3.5,2.2c0,3.3,9,1.4,9,6.7c0,2.1-1.5,4-5.3,4c-3.8,0-5.5-1.6-5.5-1.6L73.6,882.1z"/>
	<path d="M87.6,870.8v-4.2h1.8v4.2h4.2v1.5h-4.2v8.6c0,1.7,0.8,2.4,2.2,2.4c1.1,0,2-0.6,2-0.6l0.6,1.4c0,0-1.1,0.9-2.8,0.9
		c-2.6,0-3.9-1.6-3.9-4v-8.7h-2.7v-1.5H87.6z"/>
	<path d="M107.7,873.4l0.3-2.6h1.3v13.9h-1.3l-0.3-2.6h-0.1c0,0-1.3,2.9-5.4,2.9c-3.6,0-6.5-2.9-6.5-7.3c0-4.3,2.9-7.3,6.5-7.3
		C106.3,870.4,107.6,873.4,107.7,873.4L107.7,873.4z M102.4,872c-2.8,0-5,2.3-5,5.7c0,3.3,2.2,5.7,5,5.7c2.7,0,5-2.1,5-5.7
		S105.2,872,102.4,872z"/>
	<path d="M119.9,872.3h-0.7c-2.2,0-3.8,1.8-3.9,4.1v8.3h-1.8v-13.9h1.3l0.2,2.6h0.1c0.5-1.2,1.8-2.6,4.1-2.6h0.7V872.3z"/>
	<path d="M123.1,870.8v-4.2h1.8v4.2h4.2v1.5h-4.2v8.6c0,1.7,0.8,2.4,2.2,2.4c1.1,0,2-0.6,2-0.6l0.6,1.4c0,0-1.1,0.9-2.8,0.9
		c-2.6,0-3.9-1.6-3.9-4v-8.7h-2.7v-1.5H123.1z"/>
	<path d="M142.9,883.4c0,0-1.6,1.6-4.9,1.6c-4.2,0-6.9-2.9-6.9-7.2s2.6-7.3,6.4-7.3c3.9,0,6.1,2.9,6.1,6.8v0.5H133v0
		c0,3.6,2.2,5.6,5.1,5.6c2.6,0,4.1-1.3,4.1-1.3L142.9,883.4z M133.1,876.2h8.6c-0.3-2.6-1.7-4.2-4.2-4.2
		C135.2,872,133.6,873.4,133.1,876.2z"/>
	<path d="M157.7,873.1v-8.4h1.8v20h-1.3L158,882h-0.1c0,0-1.3,2.9-5.4,2.9c-3.6,0-6.5-2.9-6.5-7.3c0-4.3,2.9-7.3,6.5-7.3
		C156.4,870.4,157.6,873.1,157.7,873.1L157.7,873.1z M152.8,872c-2.8,0-5,2.3-5,5.7c0,3.3,2.2,5.7,5,5.7c2.7,0,5-2.1,5-5.7
		S155.5,872,152.8,872z"/>
	<path d="M168.8,870.8h1.9l3.6,10.8c0.1,0.3,0.2,0.7,0.2,0.9h0.2c0-0.2,0.2-0.6,0.2-0.9l3.1-10.8h1.6l3.2,10.8
		c0.1,0.3,0.2,0.7,0.2,0.9h0.2c0-0.2,0.1-0.6,0.2-0.9l3.6-10.8h1.8l-5,13.9h-1.7l-3.1-10.9c-0.1-0.2-0.2-0.5-0.2-0.8h-0.1
		c0,0.3-0.1,0.6-0.2,0.8l-3.1,10.9h-1.6L168.8,870.8z"/>
	<path d="M197.9,872.3h-0.7c-2.2,0-3.8,1.8-3.9,4.1v8.3h-1.8v-13.9h1.3l0.2,2.6h0.1c0.5-1.2,1.8-2.6,4.1-2.6h0.7V872.3z"/>
	<path d="M199.9,866c0-0.8,0.6-1.4,1.4-1.4c0.7,0,1.3,0.6,1.3,1.4c0,0.7-0.6,1.3-1.3,1.3C200.5,867.3,199.9,866.8,199.9,866z
		 M200.3,870.8h1.8v13.9h-1.8V870.8z"/>
	<path d="M207.4,870.8v-4.2h1.8v4.2h4.2v1.5h-4.2v8.6c0,1.7,0.8,2.4,2.2,2.4c1.1,0,2-0.6,2-0.6l0.6,1.4c0,0-1.1,0.9-2.8,0.9
		c-2.6,0-3.9-1.6-3.9-4v-8.7h-2.7v-1.5H207.4z"/>
	<path d="M216,866c0-0.8,0.6-1.4,1.4-1.4c0.7,0,1.3,0.6,1.3,1.4c0,0.7-0.6,1.3-1.3,1.3C216.6,867.3,216,866.8,216,866z M216.5,870.8
		h1.8v13.9h-1.8V870.8z"/>
	<path d="M222.7,870.8h1.3l0.2,2.3h0.1c0.7-1.1,2-2.6,5-2.6c3.7,0,5.7,2.7,5.7,6.4v7.8h-1.8v-7.6c0-2.9-1.5-5-4.3-5
		c-3.1,0-4.3,2.5-4.4,4.2v8.4h-1.8V870.8z"/>
	<path d="M251.8,883.8c0,4-2.3,6.8-6.6,6.8c-3.8,0-5.4-2-5.4-2l1-1.3c0,0,1.5,1.7,4.3,1.7c3.2,0,4.9-1.9,4.8-5.1v-1.7h-0.1
		c0,0-1.1,2.8-5.2,2.8c-3.6,0-6.5-2.9-6.5-7.3c0-4.4,2.9-7.3,6.5-7.3c4.2,0,5.4,3,5.4,3h0.1l0.3-2.7h1.3V883.8z M245,872
		c-2.8,0-5,2.3-5,5.7c0,3.4,2.2,5.7,5,5.7c2.7,0,5-2.1,5-5.7S247.8,872,245,872z"/>
	<path d="M274.4,873.4l0.3-2.6h1.3v13.9h-1.3l-0.3-2.6h-0.1c0,0-1.3,2.9-5.4,2.9c-3.6,0-6.5-2.9-6.5-7.3c0-4.3,2.9-7.3,6.5-7.3
		C273,870.4,274.3,873.4,274.4,873.4L274.4,873.4z M269.2,872c-2.8,0-5,2.3-5,5.7c0,3.3,2.2,5.7,5,5.7c2.7,0,5-2.1,5-5.7
		S272,872,269.2,872z"/>
	<path d="M280.3,864.7h1.8v8.6h0.1c0,0,1.1-2.8,5.2-2.8c3.6,0,6.5,2.9,6.5,7.3c0,4.4-2.9,7.3-6.5,7.3c-4.2,0-5.4-3.1-5.4-3.1h-0.1
		l-0.2,2.7h-1.4V864.7z M287.1,883.4c2.8,0,4.9-2.3,4.9-5.7c0-3.4-2.1-5.7-4.9-5.7c-2.7,0-5,2.1-5,5.7S284.4,883.4,287.1,883.4z"/>
	<path d="M303.2,885c-3.8,0-6.9-2.8-6.9-7.2s3.1-7.3,6.9-7.3c3.8,0,6.9,2.9,6.9,7.3S307,885,303.2,885z M308.3,877.8
		c0-3.6-2.4-5.8-5-5.8c-2.7,0-5.1,2.2-5.1,5.8s2.4,5.7,5.1,5.7C305.9,883.5,308.3,881.3,308.3,877.8z"/>
	<path d="M325.5,884.6h-1.2l-0.3-2.2h-0.1c-0.2,0.3-1.5,2.6-5,2.6c-3.7,0-5.6-2.7-5.6-6.4v-7.8h1.8v7.6c0,2.9,1.3,5,4.1,5
		c3.1,0,4.4-2.5,4.5-4.2v-8.4h1.8V884.6z"/>
	<path d="M330.7,870.8v-4.2h1.8v4.2h4.2v1.5h-4.2v8.6c0,1.7,0.8,2.4,2.2,2.4c1.1,0,2-0.6,2-0.6l0.6,1.4c0,0-1.1,0.9-2.8,0.9
		c-2.6,0-3.9-1.6-3.9-4v-8.7H328v-1.5H330.7z"/>
	<path d="M349.3,872.3v12.3h-1.8v-12.3h-2.6v-1.6h2.6v-1.7c0-2.9,1.8-4.7,4.6-4.7c1.7,0,2.7,0.6,2.7,0.6l-0.6,1.5
		c0,0-0.9-0.4-2.1-0.4c-1.6,0-2.7,1-2.7,3v1.7h4.3v1.6H349.3z"/>
	<path d="M361.5,885c-3.8,0-6.9-2.8-6.9-7.2s3.1-7.3,6.9-7.3c3.8,0,6.9,2.9,6.9,7.3S365.2,885,361.5,885z M366.5,877.8
		c0-3.6-2.4-5.8-5-5.8c-2.7,0-5.1,2.2-5.1,5.8s2.4,5.7,5.1,5.7C364.1,883.5,366.5,881.3,366.5,877.8z"/>
	<path d="M377.7,885c-3.8,0-6.9-2.8-6.9-7.2s3.1-7.3,6.9-7.3c3.8,0,6.9,2.9,6.9,7.3S381.5,885,377.7,885z M382.7,877.8
		c0-3.6-2.4-5.8-5-5.8c-2.7,0-5.1,2.2-5.1,5.8s2.4,5.7,5.1,5.7C380.4,883.5,382.7,881.3,382.7,877.8z"/>
	<path d="M398.8,873.1v-8.4h1.8v20h-1.3l-0.3-2.6H399c0,0-1.3,2.9-5.4,2.9c-3.6,0-6.5-2.9-6.5-7.3c0-4.3,2.9-7.3,6.5-7.3
		C397.5,870.4,398.7,873.1,398.8,873.1L398.8,873.1z M393.9,872c-2.8,0-5,2.3-5,5.7c0,3.3,2.2,5.7,5,5.7c2.7,0,5-2.1,5-5.7
		S396.6,872,393.9,872z"/>
	<path d="M412.2,864.7h1.8v8.6h0.1c0,0,1.1-2.8,5.2-2.8c3.6,0,6.5,2.9,6.5,7.3c0,4.4-2.9,7.3-6.5,7.3c-4.2,0-5.4-3.1-5.4-3.1h-0.1
		l-0.2,2.7h-1.4V864.7z M419,883.4c2.8,0,4.9-2.3,4.9-5.7c0-3.4-2.1-5.7-4.9-5.7c-2.7,0-5,2.1-5,5.7S416.3,883.4,419,883.4z"/>
	<path d="M440,883.4c0,0-1.6,1.6-4.9,1.6c-4.2,0-6.9-2.9-6.9-7.2s2.6-7.3,6.4-7.3c3.9,0,6.1,2.9,6.1,6.8v0.5h-10.6v0
		c0,3.6,2.2,5.6,5.1,5.6c2.6,0,4.1-1.3,4.1-1.3L440,883.4z M430.2,876.2h8.6c-0.3-2.6-1.7-4.2-4.2-4.2
		C432.3,872,430.6,873.4,430.2,876.2z"/>
	<path d="M443,877.8c0-4.4,2.9-7.3,6.8-7.3c3,0,4.2,1.2,4.2,1.2l-0.6,1.4c0,0-1.4-1.1-3.5-1.1c-2.7,0-5,2.1-5,5.7
		c0,3.7,2.3,5.6,5,5.6c2.1,0,3.5-1.1,3.5-1.1l0.5,1.4c0,0-1.2,1.2-4.2,1.2C445.9,885,443,882.1,443,877.8z"/>
	<path d="M467.9,873.4l0.3-2.6h1.3v13.9h-1.3l-0.3-2.6h-0.1c0,0-1.3,2.9-5.4,2.9c-3.6,0-6.5-2.9-6.5-7.3c0-4.3,2.9-7.3,6.5-7.3
		C466.6,870.4,467.8,873.4,467.9,873.4L467.9,873.4z M462.7,872c-2.8,0-5,2.3-5,5.7c0,3.3,2.2,5.7,5,5.7c2.7,0,5-2.1,5-5.7
		S465.5,872,462.7,872z"/>
	<path d="M485.8,884.6h-1.2l-0.3-2.2h-0.1c-0.2,0.3-1.5,2.6-5,2.6c-3.7,0-5.6-2.7-5.6-6.4v-7.8h1.8v7.6c0,2.9,1.3,5,4.1,5
		c3.1,0,4.4-2.5,4.5-4.2v-8.4h1.8V884.6z"/>
	<path d="M490,882.1c0,0,1.8,1.3,4.7,1.3c2.5,0,3.6-1,3.6-2.3c0-3.5-9-1.7-9-6.7c0-2.2,1.6-3.9,5.1-3.9c3.3,0,5.2,1.1,5.2,1.1
		l-0.7,1.6c0,0-1.7-1.1-4.3-1.1c-2.3,0-3.5,0.7-3.5,2.2c0,3.3,9,1.4,9,6.7c0,2.1-1.5,4-5.3,4c-3.8,0-5.5-1.6-5.5-1.6L490,882.1z"/>
	<path d="M514,883.4c0,0-1.6,1.6-4.9,1.6c-4.2,0-6.9-2.9-6.9-7.2s2.6-7.3,6.4-7.3c3.9,0,6.1,2.9,6.1,6.8v0.5h-10.6v0
		c0,3.6,2.2,5.6,5.1,5.6c2.6,0,4.1-1.3,4.1-1.3L514,883.4z M504.2,876.2h8.6c-0.3-2.6-1.7-4.2-4.2-4.2
		C506.3,872,504.6,873.4,504.2,876.2z"/>
	<path d="M527.5,884.6h-1.9v-19.8h1.9V884.6z"/>
	<path d="M537.2,870.8h1.9l3.6,10.8c0.1,0.3,0.2,0.7,0.2,0.9h0.2c0-0.2,0.2-0.6,0.2-0.9l3.1-10.8h1.6l3.2,10.8
		c0.1,0.3,0.2,0.7,0.2,0.9h0.2c0-0.2,0.1-0.6,0.2-0.9l3.6-10.8h1.8l-5,13.9h-1.7l-3.1-10.9c-0.1-0.2-0.2-0.5-0.2-0.8h-0.1
		c0,0.3-0.1,0.6-0.2,0.8l-3.1,10.9h-1.6L537.2,870.8z"/>
	<path d="M570.9,873.4l0.3-2.6h1.3v13.9h-1.3l-0.3-2.6h-0.1c0,0-1.3,2.9-5.4,2.9c-3.6,0-6.5-2.9-6.5-7.3c0-4.3,2.9-7.3,6.5-7.3
		C569.5,870.4,570.8,873.4,570.9,873.4L570.9,873.4z M565.7,872c-2.8,0-5,2.3-5,5.7c0,3.3,2.2,5.7,5,5.7c2.7,0,5-2.1,5-5.7
		S568.4,872,565.7,872z"/>
	<path d="M576.6,882.1c0,0,1.8,1.3,4.7,1.3c2.5,0,3.6-1,3.6-2.3c0-3.5-9-1.7-9-6.7c0-2.2,1.6-3.9,5.1-3.9c3.3,0,5.2,1.1,5.2,1.1
		l-0.7,1.6c0,0-1.7-1.1-4.3-1.1c-2.3,0-3.5,0.7-3.5,2.2c0,3.3,9,1.4,9,6.7c0,2.1-1.5,4-5.3,4c-3.8,0-5.5-1.6-5.5-1.6L576.6,882.1z"
		/>
	<path d="M60.2,910.8v-4.2H62v4.2h4.2v1.5H62v8.6c0,1.7,0.8,2.4,2.2,2.4c1.1,0,2-0.6,2-0.6l0.6,1.4c0,0-1.1,0.9-2.8,0.9
		c-2.6,0-3.9-1.6-3.9-4v-8.7h-2.7v-1.5H60.2z"/>
	<path d="M68.8,906c0-0.8,0.6-1.4,1.4-1.4c0.7,0,1.3,0.6,1.3,1.4c0,0.7-0.6,1.3-1.3,1.3C69.4,907.3,68.8,906.8,68.8,906z
		 M69.2,910.8h1.8v13.9h-1.8V910.8z"/>
	<path d="M81.8,912.3h-0.7c-2.2,0-3.8,1.8-3.9,4.1v8.3h-1.8v-13.9h1.3l0.2,2.6H77c0.5-1.2,1.8-2.6,4.1-2.6h0.7V912.3z"/>
	<path d="M94.6,923.4c0,0-1.6,1.6-4.9,1.6c-4.2,0-6.9-2.9-6.9-7.2s2.6-7.3,6.4-7.3c3.9,0,6.1,2.9,6.1,6.8v0.5H84.7v0
		c0,3.6,2.2,5.6,5.1,5.6c2.6,0,4.1-1.3,4.1-1.3L94.6,923.4z M84.8,916.2h8.6c-0.3-2.6-1.7-4.2-4.2-4.2
		C86.9,912,85.2,913.4,84.8,916.2z"/>
	<path d="M109.3,913.1v-8.4h1.8v20h-1.3l-0.3-2.6h-0.1c0,0-1.3,2.9-5.4,2.9c-3.6,0-6.5-2.9-6.5-7.3c0-4.3,2.9-7.3,6.5-7.3
		C108.1,910.4,109.3,913.1,109.3,913.1L109.3,913.1z M104.4,912c-2.8,0-5,2.3-5,5.7c0,3.3,2.2,5.7,5,5.7c2.7,0,5-2.1,5-5.7
		S107.2,912,104.4,912z"/>
	<path d="M128.7,925c-3.8,0-6.9-2.8-6.9-7.2s3.1-7.3,6.9-7.3c3.8,0,6.9,2.9,6.9,7.3S132.5,925,128.7,925z M133.8,917.8
		c0-3.6-2.4-5.8-5-5.8c-2.7,0-5.1,2.2-5.1,5.8s2.4,5.7,5.1,5.7C131.4,923.5,133.8,921.3,133.8,917.8z"/>
	<path d="M141.5,912.3v12.3h-1.8v-12.3h-2.6v-1.6h2.6v-1.7c0-2.9,1.8-4.7,4.6-4.7c1.7,0,2.7,0.6,2.7,0.6l-0.6,1.5
		c0,0-0.9-0.4-2.1-0.4c-1.6,0-2.7,1-2.7,3v1.7h4.3v1.6H141.5z"/>
	<path d="M159.8,924.6h-1.3l-6.4-13.9h2.1l4.7,10.8c0.1,0.3,0.2,0.7,0.2,0.9h0.1c0-0.2,0.1-0.6,0.3-0.9l4.7-10.8h2L159.8,924.6z"/>
	<path d="M179.1,923.4c0,0-1.6,1.6-4.9,1.6c-4.2,0-6.9-2.9-6.9-7.2s2.6-7.3,6.4-7.3c3.9,0,6.1,2.9,6.1,6.8v0.5h-10.6v0
		c0,3.6,2.2,5.6,5.1,5.6c2.6,0,4.1-1.3,4.1-1.3L179.1,923.4z M169.3,916.2h8.6c-0.3-2.6-1.7-4.2-4.2-4.2
		C171.4,912,169.7,913.4,169.3,916.2z"/>
	<path d="M195.7,923.8c0,4-2.3,6.8-6.6,6.8c-3.8,0-5.4-2-5.4-2l1-1.3c0,0,1.5,1.7,4.3,1.7c3.2,0,4.9-1.9,4.8-5.1v-1.7h-0.1
		c0,0-1.1,2.8-5.2,2.8c-3.6,0-6.5-2.9-6.5-7.3c0-4.4,2.9-7.3,6.5-7.3c4.2,0,5.4,3,5.4,3h0.1l0.3-2.7h1.3V923.8z M188.9,912
		c-2.8,0-5,2.3-5,5.7c0,3.4,2.2,5.7,5,5.7c2.7,0,5-2.1,5-5.7S191.6,912,188.9,912z"/>
	<path d="M210.8,923.4c0,0-1.6,1.6-4.9,1.6c-4.2,0-6.9-2.9-6.9-7.2s2.6-7.3,6.4-7.3c3.9,0,6.1,2.9,6.1,6.8v0.5h-10.6v0
		c0,3.6,2.2,5.6,5.1,5.6c2.6,0,4.1-1.3,4.1-1.3L210.8,923.4z M201,916.2h8.6c-0.3-2.6-1.7-4.2-4.2-4.2
		C203.1,912,201.4,913.4,201,916.2z"/>
	<path d="M215.6,910.8v-4.2h1.8v4.2h4.2v1.5h-4.2v8.6c0,1.7,0.8,2.4,2.2,2.4c1.1,0,2-0.6,2-0.6l0.6,1.4c0,0-1.1,0.9-2.8,0.9
		c-2.6,0-3.9-1.6-3.9-4v-8.7h-2.7v-1.5H215.6z"/>
	<path d="M235.7,913.4l0.3-2.6h1.3v13.9h-1.3l-0.3-2.6h-0.1c0,0-1.3,2.9-5.4,2.9c-3.6,0-6.5-2.9-6.5-7.3c0-4.3,2.9-7.3,6.5-7.3
		C234.3,910.4,235.6,913.4,235.7,913.4L235.7,913.4z M230.4,912c-2.8,0-5,2.3-5,5.7c0,3.3,2.2,5.7,5,5.7c2.7,0,5-2.1,5-5.7
		S233.2,912,230.4,912z"/>
	<path d="M247.9,912.3h-0.7c-2.2,0-3.8,1.8-3.9,4.1v8.3h-1.8v-13.9h1.3l0.2,2.6h0.1c0.5-1.2,1.8-2.6,4.1-2.6h0.7V912.3z"/>
	<path d="M249.9,906c0-0.8,0.6-1.4,1.4-1.4c0.7,0,1.3,0.6,1.3,1.4c0,0.7-0.6,1.3-1.3,1.3C250.5,907.3,249.9,906.8,249.9,906z
		 M250.3,910.8h1.8v13.9h-1.8V910.8z"/>
	<path d="M267.7,913.4l0.3-2.6h1.3v13.9h-1.3l-0.3-2.6h-0.1c0,0-1.3,2.9-5.4,2.9c-3.6,0-6.5-2.9-6.5-7.3c0-4.3,2.9-7.3,6.5-7.3
		C266.3,910.4,267.6,913.4,267.7,913.4L267.7,913.4z M262.5,912c-2.8,0-5,2.3-5,5.7c0,3.3,2.2,5.7,5,5.7c2.7,0,5-2.1,5-5.7
		S265.2,912,262.5,912z"/>
	<path d="M273.5,910.8h1.3l0.2,2.3h0.1c0.7-1.1,2-2.6,5-2.6c3.7,0,5.7,2.7,5.7,6.4v7.8H284v-7.6c0-2.9-1.5-5-4.3-5
		c-3.1,0-4.3,2.5-4.4,4.2v8.4h-1.8V910.8z"/>
	<path d="M289.8,922.1c0,0,1.8,1.3,4.7,1.3c2.5,0,3.6-1,3.6-2.3c0-3.5-9-1.7-9-6.7c0-2.2,1.6-3.9,5.1-3.9c3.3,0,5.2,1.1,5.2,1.1
		l-0.7,1.6c0,0-1.7-1.1-4.3-1.1c-2.3,0-3.5,0.7-3.5,2.2c0,3.3,9,1.4,9,6.7c0,2.1-1.5,4-5.3,4c-3.8,0-5.5-1.6-5.5-1.6L289.8,922.1z"
		/>
	<path d="M321.3,913.4l0.3-2.6h1.3v13.9h-1.3l-0.3-2.6h-0.1c0,0-1.3,2.9-5.4,2.9c-3.6,0-6.5-2.9-6.5-7.3c0-4.3,2.9-7.3,6.5-7.3
		C319.9,910.4,321.2,913.4,321.3,913.4L321.3,913.4z M316.1,912c-2.8,0-5,2.3-5,5.7c0,3.3,2.2,5.7,5,5.7c2.7,0,5-2.1,5-5.7
		S318.9,912,316.1,912z"/>
	<path d="M327.2,910.8h1.3l0.2,2.3h0.1c0.7-1.1,2-2.6,5-2.6c3.7,0,5.7,2.7,5.7,6.4v7.8h-1.8v-7.6c0-2.9-1.5-5-4.3-5
		c-3.1,0-4.3,2.5-4.4,4.2v8.4h-1.8V910.8z"/>
	<path d="M354.5,913.1v-8.4h1.8v20H355l-0.3-2.6h-0.1c0,0-1.3,2.9-5.4,2.9c-3.6,0-6.5-2.9-6.5-7.3c0-4.3,2.9-7.3,6.5-7.3
		C353.2,910.4,354.4,913.1,354.5,913.1L354.5,913.1z M349.5,912c-2.8,0-5,2.3-5,5.7c0,3.3,2.2,5.7,5,5.7c2.7,0,5-2.1,5-5.7
		S352.3,912,349.5,912z"/>
	<path d="M372.9,924.6h-1.3l-6.4-13.9h2.1l4.7,10.8c0.1,0.3,0.2,0.7,0.2,0.9h0.1c0-0.2,0.1-0.6,0.3-0.9l4.7-10.8h2L372.9,924.6z"/>
	<path d="M392.2,923.4c0,0-1.6,1.6-4.9,1.6c-4.2,0-6.9-2.9-6.9-7.2s2.6-7.3,6.4-7.3c3.9,0,6.1,2.9,6.1,6.8v0.5h-10.6v0
		c0,3.6,2.2,5.6,5.1,5.6c2.6,0,4.1-1.3,4.1-1.3L392.2,923.4z M382.4,916.2h8.6c-0.3-2.6-1.7-4.2-4.2-4.2
		C384.5,912,382.8,913.4,382.4,916.2z"/>
	<path d="M408.8,923.8c0,4-2.3,6.8-6.6,6.8c-3.8,0-5.4-2-5.4-2l1-1.3c0,0,1.5,1.7,4.3,1.7c3.2,0,4.9-1.9,4.8-5.1v-1.7h-0.1
		c0,0-1.1,2.8-5.2,2.8c-3.6,0-6.5-2.9-6.5-7.3c0-4.4,2.9-7.3,6.5-7.3c4.2,0,5.4,3,5.4,3h0.1l0.3-2.7h1.3V923.8z M402,912
		c-2.8,0-5,2.3-5,5.7c0,3.4,2.2,5.7,5,5.7c2.7,0,5-2.1,5-5.7S404.8,912,402,912z"/>
	<path d="M424.2,913.4l0.3-2.6h1.3v13.9h-1.3l-0.3-2.6h-0.1c0,0-1.3,2.9-5.4,2.9c-3.6,0-6.5-2.9-6.5-7.3c0-4.3,2.9-7.3,6.5-7.3
		C422.8,910.4,424.1,913.4,424.2,913.4L424.2,913.4z M419,912c-2.8,0-5,2.3-5,5.7c0,3.3,2.2,5.7,5,5.7c2.7,0,5-2.1,5-5.7
		S421.7,912,419,912z"/>
	<path d="M430.1,910.8h1.3l0.2,2.3h0.1c0.7-1.1,2-2.6,5-2.6c3.7,0,5.7,2.7,5.7,6.4v7.8h-1.8v-7.6c0-2.9-1.5-5-4.3-5
		c-3.1,0-4.3,2.5-4.4,4.2v8.4h-1.8V910.8z"/>
	<path d="M446.4,922.1c0,0,1.8,1.3,4.7,1.3c2.5,0,3.6-1,3.6-2.3c0-3.5-9-1.7-9-6.7c0-2.2,1.6-3.9,5.1-3.9c3.3,0,5.2,1.1,5.2,1.1
		l-0.7,1.6c0,0-1.7-1.1-4.3-1.1c-2.3,0-3.5,0.7-3.5,2.2c0,3.3,9,1.4,9,6.7c0,2.1-1.5,4-5.3,4c-3.8,0-5.5-1.6-5.5-1.6L446.4,922.1z"
		/>
	<path d="M467.1,910.8v-4.2h1.8v4.2h4.2v1.5h-4.2v8.6c0,1.7,0.8,2.4,2.2,2.4c1.1,0,2-0.6,2-0.6l0.6,1.4c0,0-1.1,0.9-2.8,0.9
		c-2.6,0-3.9-1.6-3.9-4v-8.7h-2.7v-1.5H467.1z"/>
	<path d="M486.9,923.4c0,0-1.6,1.6-4.9,1.6c-4.2,0-6.9-2.9-6.9-7.2s2.6-7.3,6.4-7.3c3.9,0,6.1,2.9,6.1,6.8v0.5H477v0
		c0,3.6,2.2,5.6,5.1,5.6c2.6,0,4.1-1.3,4.1-1.3L486.9,923.4z M477.1,916.2h8.6c-0.3-2.6-1.7-4.2-4.2-4.2
		C479.2,912,477.5,913.4,477.1,916.2z"/>
	<path d="M490.9,904.7h1.8v20h-1.8V904.7z"/>
	<path d="M497.2,904.7h1.8v20h-1.8V904.7z"/>
	<path d="M503.2,906c0-0.8,0.6-1.4,1.4-1.4c0.7,0,1.3,0.6,1.3,1.4c0,0.7-0.6,1.3-1.3,1.3C503.7,907.3,503.2,906.8,503.2,906z
		 M503.6,910.8h1.8v13.9h-1.8V910.8z"/>
	<path d="M509.8,910.8h1.3l0.2,2.3h0.1c0.7-1.1,2-2.6,5-2.6c3.7,0,5.7,2.7,5.7,6.4v7.8h-1.8v-7.6c0-2.9-1.5-5-4.3-5
		c-3.1,0-4.3,2.5-4.4,4.2v8.4h-1.8V910.8z"/>
	<path d="M538.9,923.8c0,4-2.3,6.8-6.6,6.8c-3.8,0-5.4-2-5.4-2l1-1.3c0,0,1.5,1.7,4.3,1.7c3.2,0,4.9-1.9,4.8-5.1v-1.7H537
		c0,0-1.1,2.8-5.2,2.8c-3.6,0-6.5-2.9-6.5-7.3c0-4.4,2.9-7.3,6.5-7.3c4.2,0,5.4,3,5.4,3h0.1l0.3-2.7h1.3V923.8z M532.2,912
		c-2.8,0-5,2.3-5,5.7c0,3.4,2.2,5.7,5,5.7c2.7,0,5-2.1,5-5.7S534.9,912,532.2,912z"/>
	<path d="M550.4,910.8h1.3l0.2,2.3h0.1c0.8-1.2,2-2.6,4.9-2.6c2.5,0,4.3,1.2,5.1,3h0.1c0.7-1.1,1.9-3,5.1-3c3.7,0,5.7,2.7,5.7,6.4
		v7.8h-1.8v-7.6c0-2.9-1.4-5-4.2-5c-3.1,0-4.3,2.5-4.3,4.4v8.3h-1.8v-8.2c0-2.5-1.4-4.4-4.3-4.4c-3.1,0-4.3,2.5-4.3,4.2v8.4h-1.8
		V910.8z"/>
	<path d="M588,923.4c0,0-1.6,1.6-4.9,1.6c-4.2,0-6.9-2.9-6.9-7.2s2.6-7.3,6.4-7.3c3.9,0,6.1,2.9,6.1,6.8v0.5h-10.6v0
		c0,3.6,2.2,5.6,5.1,5.6c2.6,0,4.1-1.3,4.1-1.3L588,923.4z M578.2,916.2h8.6c-0.3-2.6-1.7-4.2-4.2-4.2
		C580.3,912,578.7,913.4,578.2,916.2z"/>
	<path d="M601.6,924.6h-1.9v-19.8h1.9V924.6z"/>
	<path d="M59.2,962.1c0,0,1.8,1.3,4.7,1.3c2.5,0,3.6-1,3.6-2.3c0-3.5-9-1.7-9-6.7c0-2.2,1.6-3.9,5.1-3.9c3.3,0,5.2,1.1,5.2,1.1
		l-0.7,1.6c0,0-1.7-1.1-4.3-1.1c-2.3,0-3.5,0.7-3.5,2.2c0,3.3,9,1.4,9,6.7c0,2.1-1.5,4-5.3,4c-3.8,0-5.5-1.6-5.5-1.6L59.2,962.1z"/>
	<path d="M72.3,944.7h1.8v7.9h0.1c0.7-0.9,2-2.1,4.7-2.1c3.6,0,5.7,2.7,5.7,6.4v7.8h-1.8v-7.6c0-2.9-1.4-5-4.2-5
		c-3.1,0-4.3,2.5-4.4,4.2v8.4h-1.8V944.7z"/>
	<path d="M94.7,965c-3.8,0-6.9-2.8-6.9-7.2s3.1-7.3,6.9-7.3c3.8,0,6.9,2.9,6.9,7.3S98.5,965,94.7,965z M99.8,957.8
		c0-3.6-2.4-5.8-5-5.8c-2.7,0-5.1,2.2-5.1,5.8s2.4,5.7,5.1,5.7C97.4,963.5,99.8,961.3,99.8,957.8z"/>
	<path d="M117,964.6h-1.2l-0.3-2.2h-0.1c-0.2,0.3-1.5,2.6-5,2.6c-3.7,0-5.6-2.7-5.6-6.4v-7.8h1.8v7.6c0,2.9,1.3,5,4.1,5
		c3.1,0,4.4-2.5,4.5-4.2v-8.4h1.8V964.6z"/>
	<path d="M121.4,944.7h1.8v20h-1.8V944.7z"/>
	<path d="M138.5,953.1v-8.4h1.8v20h-1.3l-0.3-2.6h-0.1c0,0-1.3,2.9-5.4,2.9c-3.6,0-6.5-2.9-6.5-7.3c0-4.3,2.9-7.3,6.5-7.3
		C137.3,950.4,138.4,953.1,138.5,953.1L138.5,953.1z M133.6,952c-2.8,0-5,2.3-5,5.7c0,3.3,2.2,5.7,5,5.7c2.7,0,5-2.1,5-5.7
		S136.3,952,133.6,952z"/>
	<path d="M151.8,962.1c0,0,1.8,1.3,4.7,1.3c2.5,0,3.6-1,3.6-2.3c0-3.5-9-1.7-9-6.7c0-2.2,1.6-3.9,5.1-3.9c3.3,0,5.2,1.1,5.2,1.1
		l-0.7,1.6c0,0-1.7-1.1-4.3-1.1c-2.3,0-3.5,0.7-3.5,2.2c0,3.3,9,1.4,9,6.7c0,2.1-1.5,4-5.3,4c-3.8,0-5.5-1.6-5.5-1.6L151.8,962.1z"
		/>
	<path d="M165.8,950.8v-4.2h1.8v4.2h4.2v1.5h-4.2v8.6c0,1.7,0.8,2.4,2.2,2.4c1.1,0,2-0.6,2-0.6l0.6,1.4c0,0-1.1,0.9-2.8,0.9
		c-2.6,0-3.9-1.6-3.9-4v-8.7h-2.7v-1.5H165.8z"/>
	<path d="M180.7,965c-3.8,0-6.9-2.8-6.9-7.2s3.1-7.3,6.9-7.3c3.8,0,6.9,2.9,6.9,7.3S184.4,965,180.7,965z M185.7,957.8
		c0-3.6-2.4-5.8-5-5.8c-2.7,0-5.1,2.2-5.1,5.8s2.4,5.7,5.1,5.7C183.4,963.5,185.7,961.3,185.7,957.8z"/>
	<path d="M192.8,962.3v7.5h-1.8v-19h1.3l0.2,2.5h0.2c0,0,1.3-2.8,5.3-2.8c3.6,0,6.5,2.9,6.5,7.3c0,4.3-2.9,7.3-6.5,7.3
		C194,965,192.9,962.3,192.8,962.3L192.8,962.3z M197.7,963.4c2.8,0,4.9-2.3,4.9-5.7c0-3.3-2.1-5.7-4.9-5.7c-2.7,0-5,2.1-5,5.7
		S195,963.4,197.7,963.4z"/>
	<path d="M226,963.4c0,0-1.6,1.6-4.9,1.6c-4.2,0-6.9-2.9-6.9-7.2s2.6-7.3,6.4-7.3c3.9,0,6.1,2.9,6.1,6.8v0.5h-10.6v0
		c0,3.6,2.2,5.6,5.1,5.6c2.6,0,4.1-1.3,4.1-1.3L226,963.4z M216.2,956.2h8.6c-0.3-2.6-1.7-4.2-4.2-4.2
		C218.3,952,216.6,953.4,216.2,956.2z"/>
	<path d="M241,953.4l0.3-2.6h1.3v13.9h-1.3L241,962h-0.1c0,0-1.3,2.9-5.4,2.9c-3.6,0-6.5-2.9-6.5-7.3c0-4.3,2.9-7.3,6.5-7.3
		C239.7,950.4,240.9,953.4,241,953.4L241,953.4z M235.8,952c-2.8,0-5,2.3-5,5.7c0,3.3,2.2,5.7,5,5.7c2.7,0,5-2.1,5-5.7
		S238.6,952,235.8,952z"/>
	<path d="M247.7,950.8v-4.2h1.8v4.2h4.2v1.5h-4.2v8.6c0,1.7,0.8,2.4,2.2,2.4c1.1,0,2-0.6,2-0.6l0.6,1.4c0,0-1.1,0.9-2.8,0.9
		c-2.6,0-3.9-1.6-3.9-4v-8.7h-2.7v-1.5H247.7z"/>
	<path d="M256.4,946c0-0.8,0.6-1.4,1.4-1.4c0.7,0,1.3,0.6,1.3,1.4c0,0.7-0.6,1.3-1.3,1.3C256.9,947.3,256.4,946.8,256.4,946z
		 M256.8,950.8h1.8v13.9h-1.8V950.8z"/>
	<path d="M263,950.8h1.3l0.2,2.3h0.1c0.7-1.1,2-2.6,5-2.6c3.7,0,5.7,2.7,5.7,6.4v7.8h-1.8v-7.6c0-2.9-1.5-5-4.3-5
		c-3.1,0-4.3,2.5-4.4,4.2v8.4H263V950.8z"/>
	<path d="M292.1,963.8c0,4-2.3,6.8-6.6,6.8c-3.8,0-5.4-2-5.4-2l1-1.3c0,0,1.5,1.7,4.3,1.7c3.2,0,4.9-1.9,4.8-5.1v-1.7h-0.1
		c0,0-1.1,2.8-5.2,2.8c-3.6,0-6.5-2.9-6.5-7.3c0-4.4,2.9-7.3,6.5-7.3c4.2,0,5.4,3,5.4,3h0.1l0.3-2.7h1.3V963.8z M285.4,952
		c-2.8,0-5,2.3-5,5.7c0,3.4,2.2,5.7,5,5.7c2.7,0,5-2.1,5-5.7S288.1,952,285.4,952z"/>
	<path d="M303.6,950.8h1.3l0.2,2.3h0.1c0.8-1.2,2-2.6,4.9-2.6c2.5,0,4.3,1.2,5.1,3h0.1c0.7-1.1,1.9-3,5.1-3c3.7,0,5.7,2.7,5.7,6.4
		v7.8h-1.8v-7.6c0-2.9-1.4-5-4.2-5c-3.1,0-4.3,2.5-4.3,4.4v8.3H314v-8.2c0-2.5-1.4-4.4-4.3-4.4c-3.1,0-4.3,2.5-4.3,4.2v8.4h-1.8
		V950.8z"/>
	<path d="M341.2,963.4c0,0-1.6,1.6-4.9,1.6c-4.2,0-6.9-2.9-6.9-7.2s2.6-7.3,6.4-7.3c3.9,0,6.1,2.9,6.1,6.8v0.5h-10.6v0
		c0,3.6,2.2,5.6,5.1,5.6c2.6,0,4.1-1.3,4.1-1.3L341.2,963.4z M331.4,956.2h8.6c-0.3-2.6-1.7-4.2-4.2-4.2
		C333.5,952,331.9,953.4,331.4,956.2z"/>
	<path d="M356.3,953.4l0.3-2.6h1.3v13.9h-1.3l-0.3-2.6h-0.1c0,0-1.3,2.9-5.4,2.9c-3.6,0-6.5-2.9-6.5-7.3c0-4.3,2.9-7.3,6.5-7.3
		C354.9,950.4,356.2,953.4,356.3,953.4L356.3,953.4z M351.1,952c-2.8,0-5,2.3-5,5.7c0,3.3,2.2,5.7,5,5.7c2.7,0,5-2.1,5-5.7
		S353.8,952,351.1,952z"/>
	<path d="M363,950.8v-4.2h1.8v4.2h4.2v1.5h-4.2v8.6c0,1.7,0.8,2.4,2.2,2.4c1.1,0,2-0.6,2-0.6l0.6,1.4c0,0-1.1,0.9-2.8,0.9
		c-2.6,0-3.9-1.6-3.9-4v-8.7h-2.7v-1.5H363z"/>
	<path d="M390.3,953.4l0.3-2.6h1.3v13.9h-1.3l-0.3-2.6h-0.1c0,0-1.3,2.9-5.4,2.9c-3.6,0-6.5-2.9-6.5-7.3c0-4.3,2.9-7.3,6.5-7.3
		C388.9,950.4,390.2,953.4,390.3,953.4L390.3,953.4z M385.1,952c-2.8,0-5,2.3-5,5.7c0,3.3,2.2,5.7,5,5.7c2.7,0,5-2.1,5-5.7
		S387.8,952,385.1,952z"/>
	<path d="M396.2,944.7h1.8v20h-1.8V944.7z"/>
	<path d="M402.6,944.7h1.8v20h-1.8V944.7z"/>
	<path d="M416.4,950.8v-4.2h1.8v4.2h4.2v1.5h-4.2v8.6c0,1.7,0.8,2.4,2.2,2.4c1.1,0,2-0.6,2-0.6l0.6,1.4c0,0-1.1,0.9-2.8,0.9
		c-2.6,0-3.9-1.6-3.9-4v-8.7h-2.7v-1.5H416.4z"/>
	<path d="M431.3,965c-3.8,0-6.9-2.8-6.9-7.2s3.1-7.3,6.9-7.3c3.8,0,6.9,2.9,6.9,7.3S435.1,965,431.3,965z M436.4,957.8
		c0-3.6-2.4-5.8-5-5.8c-2.7,0-5.1,2.2-5.1,5.8s2.4,5.7,5.1,5.7C434,963.5,436.4,961.3,436.4,957.8z"/>
	<path d="M454.3,963.8c0,4-2.3,6.8-6.6,6.8c-3.8,0-5.4-2-5.4-2l1-1.3c0,0,1.5,1.7,4.3,1.7c3.2,0,4.9-1.9,4.8-5.1v-1.7h-0.1
		c0,0-1.1,2.8-5.2,2.8c-3.6,0-6.5-2.9-6.5-7.3c0-4.4,2.9-7.3,6.5-7.3c4.2,0,5.4,3,5.4,3h0.1l0.3-2.7h1.3V963.8z M447.5,952
		c-2.8,0-5,2.3-5,5.7c0,3.4,2.2,5.7,5,5.7c2.7,0,5-2.1,5-5.7S450.2,952,447.5,952z"/>
	<path d="M469.4,963.4c0,0-1.6,1.6-4.9,1.6c-4.2,0-6.9-2.9-6.9-7.2s2.6-7.3,6.4-7.3c3.9,0,6.1,2.9,6.1,6.8v0.5h-10.6v0
		c0,3.6,2.2,5.6,5.1,5.6c2.6,0,4.1-1.3,4.1-1.3L469.4,963.4z M459.6,956.2h8.6c-0.3-2.6-1.7-4.2-4.2-4.2
		C461.7,952,460,953.4,459.6,956.2z"/>
	<path d="M474.2,950.8v-4.2h1.8v4.2h4.2v1.5H476v8.6c0,1.7,0.8,2.4,2.2,2.4c1.1,0,2-0.6,2-0.6l0.6,1.4c0,0-1.1,0.9-2.8,0.9
		c-2.6,0-3.9-1.6-3.9-4v-8.7h-2.7v-1.5H474.2z"/>
	<path d="M483.2,944.7h1.8v7.9h0.1c0.7-0.9,2-2.1,4.7-2.1c3.6,0,5.7,2.7,5.7,6.4v7.8h-1.8v-7.6c0-2.9-1.4-5-4.2-5
		c-3.1,0-4.3,2.5-4.4,4.2v8.4h-1.8V944.7z"/>
	<path d="M510.5,963.4c0,0-1.6,1.6-4.9,1.6c-4.2,0-6.9-2.9-6.9-7.2s2.6-7.3,6.4-7.3c3.9,0,6.1,2.9,6.1,6.8v0.5h-10.6v0
		c0,3.6,2.2,5.6,5.1,5.6c2.6,0,4.1-1.3,4.1-1.3L510.5,963.4z M500.6,956.2h8.6c-0.3-2.6-1.7-4.2-4.2-4.2
		C502.8,952,501.1,953.4,500.6,956.2z"/>
	<path d="M520.8,952.3h-0.7c-2.2,0-3.8,1.8-3.9,4.1v8.3h-1.8v-13.9h1.3l0.2,2.6h0.1c0.5-1.2,1.8-2.6,4.1-2.6h0.7V952.3z"/>
	<path d="M540.8,953.4l0.3-2.6h1.3v13.9h-1.3l-0.3-2.6h-0.1c0,0-1.3,2.9-5.4,2.9c-3.6,0-6.5-2.9-6.5-7.3c0-4.3,2.9-7.3,6.5-7.3
		C539.5,950.4,540.7,953.4,540.8,953.4L540.8,953.4z M535.6,952c-2.8,0-5,2.3-5,5.7c0,3.3,2.2,5.7,5,5.7c2.7,0,5-2.1,5-5.7
		S538.4,952,535.6,952z"/>
	<path d="M546.5,962.1c0,0,1.8,1.3,4.7,1.3c2.5,0,3.6-1,3.6-2.3c0-3.5-9-1.7-9-6.7c0-2.2,1.6-3.9,5.1-3.9c3.3,0,5.2,1.1,5.2,1.1
		l-0.7,1.6c0,0-1.7-1.1-4.3-1.1c-2.3,0-3.5,0.7-3.5,2.2c0,3.3,9,1.4,9,6.7c0,2.1-1.5,4-5.3,4c-3.8,0-5.5-1.6-5.5-1.6L546.5,962.1z"
		/>
	<path d="M566.9,950.8h1.3l0.2,2.3h0.1c0.8-1.2,2-2.6,4.9-2.6c2.5,0,4.3,1.2,5.1,3h0.1c0.7-1.1,1.9-3,5.1-3c3.7,0,5.7,2.7,5.7,6.4
		v7.8h-1.8v-7.6c0-2.9-1.4-5-4.2-5c-3.1,0-4.3,2.5-4.3,4.4v8.3h-1.8v-8.2c0-2.5-1.4-4.4-4.3-4.4c-3.1,0-4.3,2.5-4.3,4.2v8.4h-1.8
		V950.8z"/>
	<path d="M605.6,950.8v13.6c0,3.7-2.1,6.2-6.2,6.2c-3.8,0-5.3-2-5.3-2l1-1.3c0,0,1.5,1.7,4.3,1.7c2.9,0,4.4-1.7,4.4-4.5v-1.6
		c-0.8,1-1.9,2.2-4.6,2.2c-3.9,0-5.8-2.6-5.8-6.4v-7.8h1.8v7.6c0,2.9,1.3,5,4.1,5c3.1,0,4.5-2.5,4.5-4.2v-8.4H605.6z"/>
	<path d="M58.4,997.8c0-4.4,2.9-7.3,6.8-7.3c3,0,4.2,1.2,4.2,1.2l-0.6,1.4c0,0-1.4-1.1-3.5-1.1c-2.7,0-5,2.1-5,5.7
		c0,3.7,2.3,5.6,5,5.6c2.1,0,3.5-1.1,3.5-1.1l0.5,1.4c0,0-1.2,1.2-4.2,1.2C61.3,1005,58.4,1002.1,58.4,997.8z"/>
	<path d="M83.3,993.4l0.3-2.6h1.3v13.9h-1.3l-0.3-2.6h-0.1c0,0-1.3,2.9-5.4,2.9c-3.6,0-6.5-2.9-6.5-7.3c0-4.3,2.9-7.3,6.5-7.3
		C81.9,990.4,83.2,993.4,83.3,993.4L83.3,993.4z M78.1,992c-2.8,0-5,2.3-5,5.7c0,3.3,2.2,5.7,5,5.7c2.7,0,5-2.1,5-5.7
		S80.9,992,78.1,992z"/>
	<path d="M95.6,992.3h-0.7c-2.2,0-3.8,1.8-3.9,4.1v8.3h-1.8v-13.9h1.3l0.2,2.6h0.1c0.5-1.2,1.8-2.6,4.1-2.6h0.7V992.3z"/>
	<path d="M98,990.8h1.3l0.2,2.3h0.1c0.7-1.1,2-2.6,5-2.6c3.7,0,5.7,2.7,5.7,6.4v7.8h-1.8v-7.6c0-2.9-1.5-5-4.3-5
		c-3.1,0-4.3,2.5-4.4,4.2v8.4H98V990.8z"/>
	<path d="M114.1,986c0-0.8,0.6-1.4,1.4-1.4c0.7,0,1.3,0.6,1.3,1.4c0,0.7-0.6,1.3-1.3,1.3C114.6,987.3,114.1,986.8,114.1,986z
		 M114.5,990.8h1.8v13.9h-1.8V990.8z"/>
	<path d="M126.5,1004.6h-1.3l-6.4-13.9h2.1l4.7,10.8c0.1,0.3,0.2,0.7,0.2,0.9h0.1c0-0.2,0.1-0.6,0.3-0.9l4.7-10.8h2L126.5,1004.6z"
		/>
	<path d="M140.9,1005c-3.8,0-6.9-2.8-6.9-7.2s3.1-7.3,6.9-7.3c3.8,0,6.9,2.9,6.9,7.3S144.7,1005,140.9,1005z M146,997.8
		c0-3.6-2.4-5.8-5-5.8c-2.7,0-5.1,2.2-5.1,5.8s2.4,5.7,5.1,5.7C143.6,1003.5,146,1001.3,146,997.8z"/>
	<path d="M157.6,992.3h-0.7c-2.2,0-3.8,1.8-3.9,4.1v8.3h-1.8v-13.9h1.3l0.2,2.6h0.1c0.5-1.2,1.8-2.6,4.1-2.6h0.7V992.3z"/>
	<path d="M165.5,1005c-3.8,0-6.9-2.8-6.9-7.2s3.1-7.3,6.9-7.3c3.8,0,6.9,2.9,6.9,7.3S169.2,1005,165.5,1005z M170.5,997.8
		c0-3.6-2.4-5.8-5-5.8c-2.7,0-5.1,2.2-5.1,5.8s2.4,5.7,5.1,5.7C168.1,1003.5,170.5,1001.3,170.5,997.8z"/>
	<path d="M187.8,1004.6h-1.2l-0.3-2.2h-0.1c-0.2,0.3-1.5,2.6-5,2.6c-3.7,0-5.6-2.7-5.6-6.4v-7.8h1.8v7.6c0,2.9,1.3,5,4.1,5
		c3.1,0,4.4-2.5,4.5-4.2v-8.4h1.8V1004.6z"/>
	<path d="M191.9,1002.1c0,0,1.8,1.3,4.7,1.3c2.5,0,3.6-1,3.6-2.3c0-3.5-9-1.7-9-6.7c0-2.2,1.6-3.9,5.1-3.9c3.3,0,5.2,1.1,5.2,1.1
		l-0.7,1.6c0,0-1.7-1.1-4.3-1.1c-2.3,0-3.5,0.7-3.5,2.2c0,3.3,9,1.4,9,6.7c0,2.1-1.5,4-5.3,4c-3.8,0-5.5-1.6-5.5-1.6L191.9,1002.1z"
		/>
	<path d="M211.4,997.8c0-4.4,2.9-7.3,6.8-7.3c3,0,4.2,1.2,4.2,1.2l-0.6,1.4c0,0-1.4-1.1-3.5-1.1c-2.7,0-5,2.1-5,5.7
		c0,3.7,2.3,5.6,5,5.6c2.1,0,3.5-1.1,3.5-1.1l0.5,1.4c0,0-1.2,1.2-4.2,1.2C214.2,1005,211.4,1002.1,211.4,997.8z"/>
	<path d="M231.1,1005c-3.8,0-6.9-2.8-6.9-7.2s3.1-7.3,6.9-7.3c3.8,0,6.9,2.9,6.9,7.3S234.9,1005,231.1,1005z M236.2,997.8
		c0-3.6-2.4-5.8-5-5.8c-2.7,0-5.1,2.2-5.1,5.8s2.4,5.7,5.1,5.7C233.8,1003.5,236.2,1001.3,236.2,997.8z"/>
	<path d="M241.4,990.8h1.3l0.2,2.3h0.1c0.7-1.1,2-2.6,5-2.6c3.7,0,5.7,2.7,5.7,6.4v7.8h-1.8v-7.6c0-2.9-1.5-5-4.3-5
		c-3.1,0-4.3,2.5-4.4,4.2v8.4h-1.8V990.8z"/>
	<path d="M257.7,1002.1c0,0,1.8,1.3,4.7,1.3c2.5,0,3.6-1,3.6-2.3c0-3.5-9-1.7-9-6.7c0-2.2,1.6-3.9,5.1-3.9c3.3,0,5.2,1.1,5.2,1.1
		l-0.7,1.6c0,0-1.7-1.1-4.3-1.1c-2.3,0-3.5,0.7-3.5,2.2c0,3.3,9,1.4,9,6.7c0,2.1-1.5,4-5.3,4c-3.8,0-5.5-1.6-5.5-1.6L257.7,1002.1z"
		/>
	<path d="M282.9,1004.6h-1.2l-0.3-2.2h-0.1c-0.2,0.3-1.5,2.6-5,2.6c-3.7,0-5.6-2.7-5.6-6.4v-7.8h1.8v7.6c0,2.9,1.3,5,4.1,5
		c3.1,0,4.4-2.5,4.5-4.2v-8.4h1.8V1004.6z"/>
	<path d="M287.2,990.8h1.3l0.2,2.3h0.1c0.8-1.2,2-2.6,4.9-2.6c2.5,0,4.3,1.2,5.1,3h0.1c0.7-1.1,1.9-3,5.1-3c3.7,0,5.7,2.7,5.7,6.4
		v7.8H308v-7.6c0-2.9-1.4-5-4.2-5c-3.1,0-4.3,2.5-4.3,4.4v8.3h-1.8v-8.2c0-2.5-1.4-4.4-4.3-4.4c-3.1,0-4.3,2.5-4.3,4.2v8.4h-1.8
		V990.8z"/>
	<path d="M315.8,1002.3v7.5h-1.8v-19h1.3l0.2,2.5h0.2c0,0,1.3-2.8,5.3-2.8c3.6,0,6.5,2.9,6.5,7.3c0,4.3-2.9,7.3-6.5,7.3
		C317,1005,315.9,1002.3,315.8,1002.3L315.8,1002.3z M320.7,1003.4c2.8,0,4.9-2.3,4.9-5.7c0-3.3-2.1-5.7-4.9-5.7c-2.7,0-5,2.1-5,5.7
		S318,1003.4,320.7,1003.4z"/>
	<path d="M331.6,990.8v-4.2h1.8v4.2h4.2v1.5h-4.2v8.6c0,1.7,0.8,2.4,2.2,2.4c1.1,0,2-0.6,2-0.6l0.6,1.4c0,0-1.1,0.9-2.8,0.9
		c-2.6,0-3.9-1.6-3.9-4v-8.7h-2.7v-1.5H331.6z"/>
	<path d="M340.2,986c0-0.8,0.6-1.4,1.4-1.4c0.7,0,1.3,0.6,1.3,1.4c0,0.7-0.6,1.3-1.3,1.3C340.8,987.3,340.2,986.8,340.2,986z
		 M340.6,990.8h1.8v13.9h-1.8V990.8z"/>
	<path d="M352.8,1005c-3.8,0-6.9-2.8-6.9-7.2s3.1-7.3,6.9-7.3c3.8,0,6.9,2.9,6.9,7.3S356.5,1005,352.8,1005z M357.8,997.8
		c0-3.6-2.4-5.8-5-5.8c-2.7,0-5.1,2.2-5.1,5.8s2.4,5.7,5.1,5.7C355.5,1003.5,357.8,1001.3,357.8,997.8z"/>
	<path d="M363,990.8h1.3l0.2,2.3h0.1c0.7-1.1,2-2.6,5-2.6c3.7,0,5.7,2.7,5.7,6.4v7.8h-1.8v-7.6c0-2.9-1.5-5-4.3-5
		c-3.1,0-4.3,2.5-4.4,4.2v8.4H363V990.8z"/>
	<path d="M384.4,990.8h1.9l3.6,10.8c0.1,0.3,0.2,0.7,0.2,0.9h0.2c0-0.2,0.2-0.6,0.2-0.9l3.1-10.8h1.6l3.2,10.8
		c0.1,0.3,0.2,0.7,0.2,0.9h0.2c0-0.2,0.1-0.6,0.2-0.9l3.6-10.8h1.8l-5,13.9h-1.7l-3.1-10.9c-0.1-0.2-0.2-0.5-0.2-0.8h-0.1
		c0,0.3-0.1,0.6-0.2,0.8l-3.1,10.9h-1.6L384.4,990.8z"/>
	<path d="M418.1,993.4l0.3-2.6h1.3v13.9h-1.3l-0.3-2.6H418c0,0-1.3,2.9-5.4,2.9c-3.6,0-6.5-2.9-6.5-7.3c0-4.3,2.9-7.3,6.5-7.3
		C416.7,990.4,418,993.4,418.1,993.4L418.1,993.4z M412.8,992c-2.8,0-5,2.3-5,5.7c0,3.3,2.2,5.7,5,5.7c2.7,0,5-2.1,5-5.7
		S415.6,992,412.8,992z"/>
	<path d="M423.8,1002.1c0,0,1.8,1.3,4.7,1.3c2.5,0,3.6-1,3.6-2.3c0-3.5-9-1.7-9-6.7c0-2.2,1.6-3.9,5.1-3.9c3.3,0,5.2,1.1,5.2,1.1
		l-0.7,1.6c0,0-1.7-1.1-4.3-1.1c-2.3,0-3.5,0.7-3.5,2.2c0,3.3,9,1.4,9,6.7c0,2.1-1.5,4-5.3,4c-3.8,0-5.5-1.6-5.5-1.6L423.8,1002.1z"
		/>
	<path d="M443.8,986c0-0.8,0.6-1.4,1.4-1.4c0.7,0,1.3,0.6,1.3,1.4c0,0.7-0.6,1.3-1.3,1.3C444.4,987.3,443.8,986.8,443.8,986z
		 M444.2,990.8h1.8v13.9h-1.8V990.8z"/>
	<path d="M450.4,990.8h1.3l0.2,2.3h0.1c0.7-1.1,2-2.6,5-2.6c3.7,0,5.7,2.7,5.7,6.4v7.8h-1.8v-7.6c0-2.9-1.5-5-4.3-5
		c-3.1,0-4.3,2.5-4.4,4.2v8.4h-1.8V990.8z"/>
	<path d="M466.9,984.7h1.8v7.9h0.1c0.7-0.9,2-2.1,4.7-2.1c3.6,0,5.7,2.7,5.7,6.4v7.8h-1.8v-7.6c0-2.9-1.4-5-4.2-5
		c-3.1,0-4.3,2.5-4.4,4.2v8.4h-1.8V984.7z"/>
	<path d="M495.3,1004.6h-1.2l-0.3-2.2h-0.1c-0.2,0.3-1.5,2.6-5,2.6c-3.7,0-5.6-2.7-5.6-6.4v-7.8h1.8v7.6c0,2.9,1.3,5,4.1,5
		c3.1,0,4.4-2.5,4.5-4.2v-8.4h1.8V1004.6z"/>
	<path d="M499.6,990.8h1.3l0.2,2.3h0.1c0.8-1.2,2-2.6,4.9-2.6c2.5,0,4.3,1.2,5.1,3h0.1c0.7-1.1,1.9-3,5.1-3c3.7,0,5.7,2.7,5.7,6.4
		v7.8h-1.8v-7.6c0-2.9-1.4-5-4.2-5c-3.1,0-4.3,2.5-4.3,4.4v8.3H510v-8.2c0-2.5-1.4-4.4-4.3-4.4c-3.1,0-4.3,2.5-4.3,4.2v8.4h-1.8
		V990.8z"/>
	<path d="M537.5,993.4l0.3-2.6h1.3v13.9h-1.3l-0.3-2.6h-0.1c0,0-1.3,2.9-5.4,2.9c-3.6,0-6.5-2.9-6.5-7.3c0-4.3,2.9-7.3,6.5-7.3
		C536.1,990.4,537.4,993.4,537.5,993.4L537.5,993.4z M532.3,992c-2.8,0-5,2.3-5,5.7c0,3.3,2.2,5.7,5,5.7c2.7,0,5-2.1,5-5.7
		S535,992,532.3,992z"/>
	<path d="M543.3,990.8h1.3l0.2,2.3h0.1c0.7-1.1,2-2.6,5-2.6c3.7,0,5.7,2.7,5.7,6.4v7.8h-1.8v-7.6c0-2.9-1.5-5-4.3-5
		c-3.1,0-4.3,2.5-4.4,4.2v8.4h-1.8V990.8z"/>
	<path d="M570.6,1003.4c0,0-1.6,1.6-4.9,1.6c-4.2,0-6.9-2.9-6.9-7.2s2.6-7.3,6.4-7.3c3.9,0,6.1,2.9,6.1,6.8v0.5h-10.6v0
		c0,3.6,2.2,5.6,5.1,5.6c2.6,0,4.1-1.3,4.1-1.3L570.6,1003.4z M560.8,996.2h8.6c-0.3-2.6-1.7-4.2-4.2-4.2
		C563,992,561.3,993.4,560.8,996.2z"/>
	<path d="M592.9,993.4l0.3-2.6h1.3v13.9h-1.3l-0.3-2.6h-0.1c0,0-1.3,2.9-5.4,2.9c-3.6,0-6.5-2.9-6.5-7.3c0-4.3,2.9-7.3,6.5-7.3
		C591.5,990.4,592.8,993.4,592.9,993.4L592.9,993.4z M587.7,992c-2.8,0-5,2.3-5,5.7c0,3.3,2.2,5.7,5,5.7c2.7,0,5-2.1,5-5.7
		S590.4,992,587.7,992z"/>
	<path d="M598.8,990.8h1.3l0.2,2.3h0.1c0.7-1.1,2-2.6,5-2.6c3.7,0,5.7,2.7,5.7,6.4v7.8h-1.8v-7.6c0-2.9-1.5-5-4.3-5
		c-3.1,0-4.3,2.5-4.4,4.2v8.4h-1.8V990.8z"/>
	<path d="M626,993.1v-8.4h1.8v20h-1.3l-0.3-2.6h-0.1c0,0-1.3,2.9-5.4,2.9c-3.6,0-6.5-2.9-6.5-7.3c0-4.3,2.9-7.3,6.5-7.3
		C624.8,990.4,626,993.1,626,993.1L626,993.1z M621.1,992c-2.8,0-5,2.3-5,5.7c0,3.3,2.2,5.7,5,5.7c2.7,0,5-2.1,5-5.7
		S623.9,992,621.1,992z"/>
	<path d="M58.4,1037.8c0-4.4,2.9-7.3,6.8-7.3c3,0,4.2,1.2,4.2,1.2l-0.6,1.4c0,0-1.4-1.1-3.5-1.1c-2.7,0-5,2.1-5,5.7
		c0,3.7,2.3,5.6,5,5.6c2.1,0,3.5-1.1,3.5-1.1l0.5,1.4c0,0-1.2,1.2-4.2,1.2C61.3,1045,58.4,1042.1,58.4,1037.8z"/>
	<path d="M78.2,1045c-3.8,0-6.9-2.8-6.9-7.2s3.1-7.3,6.9-7.3c3.8,0,6.9,2.9,6.9,7.3S81.9,1045,78.2,1045z M83.2,1037.8
		c0-3.6-2.4-5.8-5-5.8c-2.7,0-5.1,2.2-5.1,5.8s2.4,5.7,5.1,5.7C80.8,1043.5,83.2,1041.3,83.2,1037.8z"/>
	<path d="M88.4,1030.8h1.3l0.2,2.3h0.1c0.7-1.1,2-2.6,5-2.6c3.7,0,5.7,2.7,5.7,6.4v7.8h-1.8v-7.6c0-2.9-1.5-5-4.3-5
		c-3.1,0-4.3,2.5-4.4,4.2v8.4h-1.8V1030.8z"/>
	<path d="M105.5,1030.8v-4.2h1.8v4.2h4.2v1.5h-4.2v8.6c0,1.7,0.8,2.4,2.2,2.4c1.1,0,2-0.6,2-0.6l0.6,1.4c0,0-1.1,0.9-2.8,0.9
		c-2.6,0-3.9-1.6-3.9-4v-8.7h-2.7v-1.5H105.5z"/>
	<path d="M121,1032.3h-0.7c-2.2,0-3.8,1.8-3.9,4.1v8.3h-1.8v-13.9h1.3l0.2,2.6h0.1c0.5-1.2,1.8-2.6,4.1-2.6h0.7V1032.3z"/>
	<path d="M134,1033.4l0.3-2.6h1.3v13.9h-1.3l-0.3-2.6h-0.1c0,0-1.3,2.9-5.4,2.9c-3.6,0-6.5-2.9-6.5-7.3c0-4.3,2.9-7.3,6.5-7.3
		C132.6,1030.4,133.9,1033.4,134,1033.4L134,1033.4z M128.8,1032c-2.8,0-5,2.3-5,5.7c0,3.3,2.2,5.7,5,5.7c2.7,0,5-2.1,5-5.7
		S131.5,1032,128.8,1032z"/>
	<path d="M146.3,1032.3h-0.7c-2.2,0-3.8,1.8-3.9,4.1v8.3h-1.8v-13.9h1.3l0.2,2.6h0.1c0.5-1.2,1.8-2.6,4.1-2.6h0.7V1032.3z"/>
	<path d="M160.6,1030.8v13.6c0,3.7-2.1,6.2-6.2,6.2c-3.8,0-5.3-2-5.3-2l1-1.3c0,0,1.5,1.7,4.3,1.7c2.9,0,4.4-1.7,4.4-4.5v-1.6
		c-0.8,1-1.9,2.2-4.6,2.2c-3.9,0-5.8-2.6-5.8-6.4v-7.8h1.8v7.6c0,2.9,1.3,5,4.1,5c3.1,0,4.5-2.5,4.5-4.2v-8.4H160.6z"/>
	<path d="M172.4,1030.8v-4.2h1.8v4.2h4.2v1.5h-4.2v8.6c0,1.7,0.8,2.4,2.2,2.4c1.1,0,2-0.6,2-0.6l0.6,1.4c0,0-1.1,0.9-2.8,0.9
		c-2.6,0-3.9-1.6-3.9-4v-8.7h-2.7v-1.5H172.4z"/>
	<path d="M187.3,1045c-3.8,0-6.9-2.8-6.9-7.2s3.1-7.3,6.9-7.3c3.8,0,6.9,2.9,6.9,7.3S191.1,1045,187.3,1045z M192.4,1037.8
		c0-3.6-2.4-5.8-5-5.8c-2.7,0-5.1,2.2-5.1,5.8s2.4,5.7,5.1,5.7C190,1043.5,192.4,1041.3,192.4,1037.8z"/>
	<path d="M204.8,1024.7h1.8v7.9h0.1c0.7-0.9,2-2.1,4.7-2.1c3.6,0,5.7,2.7,5.7,6.4v7.8h-1.8v-7.6c0-2.9-1.4-5-4.2-5
		c-3.1,0-4.3,2.5-4.4,4.2v8.4h-1.8V1024.7z"/>
	<path d="M233.3,1044.6h-1.2l-0.3-2.2h-0.1c-0.2,0.3-1.5,2.6-5,2.6c-3.7,0-5.6-2.7-5.6-6.4v-7.8h1.8v7.6c0,2.9,1.3,5,4.1,5
		c3.1,0,4.4-2.5,4.5-4.2v-8.4h1.8V1044.6z"/>
	<path d="M237.6,1030.8h1.3l0.2,2.3h0.1c0.8-1.2,2-2.6,4.9-2.6c2.5,0,4.3,1.2,5.1,3h0.1c0.7-1.1,1.9-3,5.1-3c3.7,0,5.7,2.7,5.7,6.4
		v7.8h-1.8v-7.6c0-2.9-1.4-5-4.2-5c-3.1,0-4.3,2.5-4.3,4.4v8.3H248v-8.2c0-2.5-1.4-4.4-4.3-4.4c-3.1,0-4.3,2.5-4.3,4.2v8.4h-1.8
		V1030.8z"/>
	<path d="M275.4,1033.4l0.3-2.6h1.3v13.9h-1.3l-0.3-2.6h-0.1c0,0-1.3,2.9-5.4,2.9c-3.6,0-6.5-2.9-6.5-7.3c0-4.3,2.9-7.3,6.5-7.3
		C274,1030.4,275.3,1033.4,275.4,1033.4L275.4,1033.4z M270.2,1032c-2.8,0-5,2.3-5,5.7c0,3.3,2.2,5.7,5,5.7c2.7,0,5-2.1,5-5.7
		S273,1032,270.2,1032z"/>
	<path d="M281.3,1030.8h1.3l0.2,2.3h0.1c0.7-1.1,2-2.6,5-2.6c3.7,0,5.7,2.7,5.7,6.4v7.8h-1.8v-7.6c0-2.9-1.5-5-4.3-5
		c-3.1,0-4.3,2.5-4.4,4.2v8.4h-1.8V1030.8z"/>
	<path d="M297.4,1026c0-0.8,0.6-1.4,1.4-1.4c0.7,0,1.3,0.6,1.3,1.4c0,0.7-0.6,1.3-1.3,1.3C298,1027.3,297.4,1026.8,297.4,1026z
		 M297.8,1030.8h1.8v13.9h-1.8V1030.8z"/>
	<path d="M304.9,1030.8v-4.2h1.8v4.2h4.2v1.5h-4.2v8.6c0,1.7,0.8,2.4,2.2,2.4c1.1,0,2-0.6,2-0.6l0.6,1.4c0,0-1.1,0.9-2.8,0.9
		c-2.6,0-3.9-1.6-3.9-4v-8.7h-2.7v-1.5H304.9z"/>
	<path d="M313.5,1026c0-0.8,0.6-1.4,1.4-1.4c0.7,0,1.3,0.6,1.3,1.4c0,0.7-0.6,1.3-1.3,1.3C314.1,1027.3,313.5,1026.8,313.5,1026z
		 M313.9,1030.8h1.8v13.9h-1.8V1030.8z"/>
	<path d="M331,1043.4c0,0-1.6,1.6-4.9,1.6c-4.2,0-6.9-2.9-6.9-7.2s2.6-7.3,6.4-7.3c3.9,0,6.1,2.9,6.1,6.8v0.5h-10.6v0
		c0,3.6,2.2,5.6,5.1,5.6c2.6,0,4.1-1.3,4.1-1.3L331,1043.4z M321.2,1036.2h8.6c-0.3-2.6-1.7-4.2-4.2-4.2
		C323.3,1032,321.6,1033.4,321.2,1036.2z"/>
	<path d="M334.8,1042.1c0,0,1.8,1.3,4.7,1.3c2.5,0,3.6-1,3.6-2.3c0-3.5-9-1.7-9-6.7c0-2.2,1.6-3.9,5.1-3.9c3.3,0,5.2,1.1,5.2,1.1
		l-0.7,1.6c0,0-1.7-1.1-4.3-1.1c-2.3,0-3.5,0.7-3.5,2.2c0,3.3,9,1.4,9,6.7c0,2.1-1.5,4-5.3,4c-3.8,0-5.5-1.6-5.5-1.6L334.8,1042.1z"
		/>
	<path d="M351.2,1026.5c0,2.4-1.4,4.2-3.7,4.6l-0.3-1.1c1.5-0.3,2.5-1.4,2.5-2.4c-0.7-0.1-1.2-0.6-1.2-1.4c0-0.7,0.6-1.4,1.4-1.4
		c0.8,0,1.4,0.6,1.4,1.4V1026.5z"/>
	<path d="M372.6,1043.4c0,0-1.6,1.6-4.9,1.6c-4.2,0-6.9-2.9-6.9-7.2s2.6-7.3,6.4-7.3c3.9,0,6.1,2.9,6.1,6.8v0.5h-10.6v0
		c0,3.6,2.2,5.6,5.1,5.6c2.6,0,4.1-1.3,4.1-1.3L372.6,1043.4z M362.8,1036.2h8.6c-0.3-2.6-1.7-4.2-4.2-4.2
		C365,1032,363.3,1033.4,362.8,1036.2z"/>
	<path d="M382.1,1044.6h-1.3l-6.4-13.9h2.1l4.7,10.8c0.1,0.3,0.2,0.7,0.2,0.9h0.1c0-0.2,0.1-0.6,0.3-0.9l4.7-10.8h2L382.1,1044.6z"
		/>
	<path d="M396.5,1045c-3.8,0-6.9-2.8-6.9-7.2s3.1-7.3,6.9-7.3c3.8,0,6.9,2.9,6.9,7.3S400.2,1045,396.5,1045z M401.5,1037.8
		c0-3.6-2.4-5.8-5-5.8c-2.7,0-5.1,2.2-5.1,5.8s2.4,5.7,5.1,5.7C399.1,1043.5,401.5,1041.3,401.5,1037.8z"/>
	<path d="M406.8,1024.7h1.8v20h-1.8V1024.7z"/>
	<path d="M425.1,1044.6h-1.2l-0.3-2.2h-0.1c-0.2,0.3-1.5,2.6-5,2.6c-3.7,0-5.6-2.7-5.6-6.4v-7.8h1.8v7.6c0,2.9,1.3,5,4.1,5
		c3.1,0,4.4-2.5,4.5-4.2v-8.4h1.8V1044.6z"/>
	<path d="M430.3,1030.8v-4.2h1.8v4.2h4.2v1.5h-4.2v8.6c0,1.7,0.8,2.4,2.2,2.4c1.1,0,2-0.6,2-0.6l0.6,1.4c0,0-1.1,0.9-2.8,0.9
		c-2.6,0-3.9-1.6-3.9-4v-8.7h-2.7v-1.5H430.3z"/>
	<path d="M438.9,1026c0-0.8,0.6-1.4,1.4-1.4c0.7,0,1.3,0.6,1.3,1.4c0,0.7-0.6,1.3-1.3,1.3C439.5,1027.3,438.9,1026.8,438.9,1026z
		 M439.3,1030.8h1.8v13.9h-1.8V1030.8z"/>
	<path d="M451.5,1045c-3.8,0-6.9-2.8-6.9-7.2s3.1-7.3,6.9-7.3c3.8,0,6.9,2.9,6.9,7.3S455.3,1045,451.5,1045z M456.6,1037.8
		c0-3.6-2.4-5.8-5-5.8c-2.7,0-5.1,2.2-5.1,5.8s2.4,5.7,5.1,5.7C454.2,1043.5,456.6,1041.3,456.6,1037.8z"/>
	<path d="M461.8,1030.8h1.3l0.2,2.3h0.1c0.7-1.1,2-2.6,5-2.6c3.7,0,5.7,2.7,5.7,6.4v7.8h-1.8v-7.6c0-2.9-1.5-5-4.3-5
		c-3.1,0-4.3,2.5-4.4,4.2v8.4h-1.8V1030.8z"/>
	<path d="M496.6,1033.4l0.3-2.6h1.3v13.9h-1.3l-0.3-2.6h-0.1c0,0-1.3,2.9-5.4,2.9c-3.6,0-6.5-2.9-6.5-7.3c0-4.3,2.9-7.3,6.5-7.3
		C495.2,1030.4,496.5,1033.4,496.6,1033.4L496.6,1033.4z M491.4,1032c-2.8,0-5,2.3-5,5.7c0,3.3,2.2,5.7,5,5.7c2.7,0,5-2.1,5-5.7
		S494.1,1032,491.4,1032z"/>
	<path d="M502.3,1042.1c0,0,1.8,1.3,4.7,1.3c2.5,0,3.6-1,3.6-2.3c0-3.5-9-1.7-9-6.7c0-2.2,1.6-3.9,5.1-3.9c3.3,0,5.2,1.1,5.2,1.1
		l-0.7,1.6c0,0-1.7-1.1-4.3-1.1c-2.3,0-3.5,0.7-3.5,2.2c0,3.3,9,1.4,9,6.7c0,2.1-1.5,4-5.3,4c-3.8,0-5.5-1.6-5.5-1.6L502.3,1042.1z"
		/>
	<path d="M533.8,1033.4l0.3-2.6h1.3v13.9H534l-0.3-2.6h-0.1c0,0-1.3,2.9-5.4,2.9c-3.6,0-6.5-2.9-6.5-7.3c0-4.3,2.9-7.3,6.5-7.3
		C532.4,1030.4,533.7,1033.4,533.8,1033.4L533.8,1033.4z M528.6,1032c-2.8,0-5,2.3-5,5.7c0,3.3,2.2,5.7,5,5.7c2.7,0,5-2.1,5-5.7
		S531.3,1032,528.6,1032z"/>
	<path d="M546.7,1042.1c0,0,1.8,1.3,4.7,1.3c2.5,0,3.6-1,3.6-2.3c0-3.5-9-1.7-9-6.7c0-2.2,1.6-3.9,5.1-3.9c3.3,0,5.2,1.1,5.2,1.1
		l-0.7,1.6c0,0-1.7-1.1-4.3-1.1c-2.3,0-3.5,0.7-3.5,2.2c0,3.3,9,1.4,9,6.7c0,2.1-1.5,4-5.3,4c-3.8,0-5.5-1.6-5.5-1.6L546.7,1042.1z"
		/>
	<path d="M561.7,1042.3v7.5h-1.8v-19h1.3l0.2,2.5h0.2c0,0,1.3-2.8,5.3-2.8c3.6,0,6.5,2.9,6.5,7.3c0,4.3-2.9,7.3-6.5,7.3
		C562.9,1045,561.8,1042.3,561.7,1042.3L561.7,1042.3z M566.6,1043.4c2.8,0,4.9-2.3,4.9-5.7c0-3.3-2.1-5.7-4.9-5.7
		c-2.7,0-5,2.1-5,5.7S563.9,1043.4,566.6,1043.4z"/>
	<path d="M587.7,1043.4c0,0-1.6,1.6-4.9,1.6c-4.2,0-6.9-2.9-6.9-7.2s2.6-7.3,6.4-7.3c3.9,0,6.1,2.9,6.1,6.8v0.5h-10.6v0
		c0,3.6,2.2,5.6,5.1,5.6c2.6,0,4.1-1.3,4.1-1.3L587.7,1043.4z M577.9,1036.2h8.6c-0.3-2.6-1.7-4.2-4.2-4.2
		C580,1032,578.3,1033.4,577.9,1036.2z"/>
	<path d="M590.7,1037.8c0-4.4,2.9-7.3,6.8-7.3c3,0,4.2,1.2,4.2,1.2l-0.6,1.4c0,0-1.4-1.1-3.5-1.1c-2.7,0-5,2.1-5,5.7
		c0,3.7,2.3,5.6,5,5.6c2.1,0,3.5-1.1,3.5-1.1l0.5,1.4c0,0-1.2,1.2-4.2,1.2C593.5,1045,590.7,1042.1,590.7,1037.8z"/>
	<path d="M604.6,1026c0-0.8,0.6-1.4,1.4-1.4c0.7,0,1.3,0.6,1.3,1.4c0,0.7-0.6,1.3-1.3,1.3C605.2,1027.3,604.6,1026.8,604.6,1026z
		 M605,1030.8h1.8v13.9H605V1030.8z"/>
	<path d="M622.1,1043.4c0,0-1.6,1.6-4.9,1.6c-4.2,0-6.9-2.9-6.9-7.2s2.6-7.3,6.4-7.3c3.9,0,6.1,2.9,6.1,6.8v0.5h-10.6v0
		c0,3.6,2.2,5.6,5.1,5.6c2.6,0,4.1-1.3,4.1-1.3L622.1,1043.4z M612.3,1036.2h8.6c-0.3-2.6-1.7-4.2-4.2-4.2
		C614.4,1032,612.7,1033.4,612.3,1036.2z"/>
	<path d="M625.9,1042.1c0,0,1.8,1.3,4.7,1.3c2.5,0,3.6-1,3.6-2.3c0-3.5-9-1.7-9-6.7c0-2.2,1.6-3.9,5.1-3.9c3.3,0,5.2,1.1,5.2,1.1
		l-0.7,1.6c0,0-1.7-1.1-4.3-1.1c-2.3,0-3.5,0.7-3.5,2.2c0,3.3,9,1.4,9,6.7c0,2.1-1.5,4-5.3,4c-3.8,0-5.5-1.6-5.5-1.6L625.9,1042.1z"
		/>
	<path d="M638.6,1043.6c0-0.8,0.6-1.4,1.4-1.4s1.4,0.6,1.4,1.4c0,0.8-0.6,1.3-1.4,1.3S638.6,1044.4,638.6,1043.6z"/>
	<path d="M61.7,1084.6h-1.9v-19.8h1.9V1084.6z"/>
	<path d="M84.6,1083.4c0,0-1.6,1.6-4.9,1.6c-4.2,0-6.9-2.9-6.9-7.2s2.6-7.3,6.4-7.3c3.9,0,6.1,2.9,6.1,6.8v0.5H74.7v0
		c0,3.6,2.2,5.6,5.1,5.6c2.6,0,4.1-1.3,4.1-1.3L84.6,1083.4z M74.8,1076.2h8.6c-0.3-2.6-1.7-4.2-4.2-4.2
		C76.9,1072,75.2,1073.4,74.8,1076.2z"/>
	<path d="M99.6,1073.4l0.3-2.6h1.3v13.9h-1.3l-0.3-2.6h-0.1c0,0-1.3,2.9-5.4,2.9c-3.6,0-6.5-2.9-6.5-7.3c0-4.3,2.9-7.3,6.5-7.3
		C98.2,1070.4,99.5,1073.4,99.6,1073.4L99.6,1073.4z M94.4,1072c-2.8,0-5,2.3-5,5.7c0,3.3,2.2,5.7,5,5.7c2.7,0,5-2.1,5-5.7
		S97.2,1072,94.4,1072z"/>
	<path d="M106.3,1070.8v-4.2h1.8v4.2h4.2v1.5h-4.2v8.6c0,1.7,0.8,2.4,2.2,2.4c1.1,0,2-0.6,2-0.6l0.6,1.4c0,0-1.1,0.9-2.8,0.9
		c-2.6,0-3.9-1.6-3.9-4v-8.7h-2.7v-1.5H106.3z"/>
	<path d="M122.5,1070.8h1.3l0.2,2.3h0.1c0.8-1.2,2-2.6,4.9-2.6c2.5,0,4.3,1.2,5.1,3h0.1c0.7-1.1,1.9-3,5.1-3c3.7,0,5.7,2.7,5.7,6.4
		v7.8h-1.8v-7.6c0-2.9-1.4-5-4.2-5c-3.1,0-4.3,2.5-4.3,4.4v8.3h-1.8v-8.2c0-2.5-1.4-4.4-4.3-4.4c-3.1,0-4.3,2.5-4.3,4.2v8.4h-1.8
		V1070.8z"/>
	<path d="M160.1,1083.4c0,0-1.6,1.6-4.9,1.6c-4.2,0-6.9-2.9-6.9-7.2s2.6-7.3,6.4-7.3c3.9,0,6.1,2.9,6.1,6.8v0.5h-10.6v0
		c0,3.6,2.2,5.6,5.1,5.6c2.6,0,4.1-1.3,4.1-1.3L160.1,1083.4z M150.3,1076.2h8.6c-0.3-2.6-1.7-4.2-4.2-4.2
		C152.4,1072,150.8,1073.4,150.3,1076.2z"/>
	<path d="M175.2,1073.4l0.3-2.6h1.3v13.9h-1.3l-0.3-2.6h-0.1c0,0-1.3,2.9-5.4,2.9c-3.6,0-6.5-2.9-6.5-7.3c0-4.3,2.9-7.3,6.5-7.3
		C173.8,1070.4,175.1,1073.4,175.2,1073.4L175.2,1073.4z M170,1072c-2.8,0-5,2.3-5,5.7c0,3.3,2.2,5.7,5,5.7c2.7,0,5-2.1,5-5.7
		S172.7,1072,170,1072z"/>
	<path d="M181.9,1070.8v-4.2h1.8v4.2h4.2v1.5h-4.2v8.6c0,1.7,0.8,2.4,2.2,2.4c1.1,0,2-0.6,2-0.6l0.6,1.4c0,0-1.1,0.9-2.8,0.9
		c-2.6,0-3.9-1.6-3.9-4v-8.7h-2.7v-1.5H181.9z"/>
	<path d="M190.4,1083.6c0-0.8,0.6-1.4,1.4-1.4s1.4,0.6,1.4,1.4c0,0.8-0.6,1.3-1.4,1.3S190.4,1084.4,190.4,1083.6z"/>
	<path d="M206.6,1084.6h-1.9v-19.8h1.9V1084.6z"/>
	<path d="M216.3,1070.8h1.9l3.6,10.8c0.1,0.3,0.2,0.7,0.2,0.9h0.2c0-0.2,0.2-0.6,0.2-0.9l3.1-10.8h1.6l3.2,10.8
		c0.1,0.3,0.2,0.7,0.2,0.9h0.2c0-0.2,0.1-0.6,0.2-0.9l3.6-10.8h1.8l-5,13.9h-1.7l-3.1-10.9c-0.1-0.2-0.2-0.5-0.2-0.8h-0.1
		c0,0.3-0.1,0.6-0.2,0.8l-3.1,10.9h-1.6L216.3,1070.8z"/>
	<path d="M238.7,1066c0-0.8,0.6-1.4,1.4-1.4c0.7,0,1.3,0.6,1.3,1.4c0,0.7-0.6,1.3-1.3,1.3C239.3,1067.3,238.7,1066.8,238.7,1066z
		 M239.1,1070.8h1.8v13.9h-1.8V1070.8z"/>
	<path d="M245.4,1064.7h1.8v20h-1.8V1064.7z"/>
	<path d="M251.8,1064.7h1.8v20h-1.8V1064.7z"/>
	<path d="M264.4,1077.8c0-4.4,2.9-7.3,6.8-7.3c3,0,4.2,1.2,4.2,1.2l-0.6,1.4c0,0-1.4-1.1-3.5-1.1c-2.7,0-5,2.1-5,5.7
		c0,3.7,2.3,5.6,5,5.6c2.1,0,3.5-1.1,3.5-1.1l0.5,1.4c0,0-1.2,1.2-4.2,1.2C267.2,1085,264.4,1082.1,264.4,1077.8z"/>
	<path d="M284.1,1085c-3.8,0-6.9-2.8-6.9-7.2s3.1-7.3,6.9-7.3c3.8,0,6.9,2.9,6.9,7.3S287.9,1085,284.1,1085z M289.2,1077.8
		c0-3.6-2.4-5.8-5-5.8c-2.7,0-5.1,2.2-5.1,5.8s2.4,5.7,5.1,5.7C286.8,1083.5,289.2,1081.3,289.2,1077.8z"/>
	<path d="M294.4,1070.8h1.3l0.2,2.3h0.1c0.7-1.1,2-2.6,5-2.6c3.7,0,5.7,2.7,5.7,6.4v7.8h-1.8v-7.6c0-2.9-1.5-5-4.3-5
		c-3.1,0-4.3,2.5-4.4,4.2v8.4h-1.8V1070.8z"/>
	<path d="M311.5,1070.8v-4.2h1.8v4.2h4.2v1.5h-4.2v8.6c0,1.7,0.8,2.4,2.2,2.4c1.1,0,2-0.6,2-0.6l0.6,1.4c0,0-1.1,0.9-2.8,0.9
		c-2.6,0-3.9-1.6-3.9-4v-8.7h-2.7v-1.5H311.5z"/>
	<path d="M320.1,1066c0-0.8,0.6-1.4,1.4-1.4c0.7,0,1.3,0.6,1.3,1.4c0,0.7-0.6,1.3-1.3,1.3C320.7,1067.3,320.1,1066.8,320.1,1066z
		 M320.6,1070.8h1.8v13.9h-1.8V1070.8z"/>
	<path d="M326.8,1070.8h1.3l0.2,2.3h0.1c0.7-1.1,2-2.6,5-2.6c3.7,0,5.7,2.7,5.7,6.4v7.8h-1.8v-7.6c0-2.9-1.5-5-4.3-5
		c-3.1,0-4.3,2.5-4.4,4.2v8.4h-1.8V1070.8z"/>
	<path d="M355.3,1084.6h-1.2l-0.3-2.2h-0.1c-0.2,0.3-1.5,2.6-5,2.6c-3.7,0-5.6-2.7-5.6-6.4v-7.8h1.8v7.6c0,2.9,1.3,5,4.1,5
		c3.1,0,4.4-2.5,4.5-4.2v-8.4h1.8V1084.6z"/>
	<path d="M370.4,1083.4c0,0-1.6,1.6-4.9,1.6c-4.2,0-6.9-2.9-6.9-7.2s2.6-7.3,6.4-7.3c3.9,0,6.1,2.9,6.1,6.8v0.5h-10.6v0
		c0,3.6,2.2,5.6,5.1,5.6c2.6,0,4.1-1.3,4.1-1.3L370.4,1083.4z M360.6,1076.2h8.6c-0.3-2.6-1.7-4.2-4.2-4.2
		C362.7,1072,361.1,1073.4,360.6,1076.2z"/>
	<path d="M381.9,1070.8v-4.2h1.8v4.2h4.2v1.5h-4.2v8.6c0,1.7,0.8,2.4,2.2,2.4c1.1,0,2-0.6,2-0.6l0.6,1.4c0,0-1.1,0.9-2.8,0.9
		c-2.6,0-3.9-1.6-3.9-4v-8.7h-2.7v-1.5H381.9z"/>
	<path d="M396.8,1085c-3.8,0-6.9-2.8-6.9-7.2s3.1-7.3,6.9-7.3c3.8,0,6.9,2.9,6.9,7.3S400.6,1085,396.8,1085z M401.8,1077.8
		c0-3.6-2.4-5.8-5-5.8c-2.7,0-5.1,2.2-5.1,5.8s2.4,5.7,5.1,5.7C399.5,1083.5,401.8,1081.3,401.8,1077.8z"/>
	<path d="M425.1,1083.4c0,0-1.6,1.6-4.9,1.6c-4.2,0-6.9-2.9-6.9-7.2s2.6-7.3,6.4-7.3c3.9,0,6.1,2.9,6.1,6.8v0.5h-10.6v0
		c0,3.6,2.2,5.6,5.1,5.6c2.6,0,4.1-1.3,4.1-1.3L425.1,1083.4z M415.3,1076.2h8.6c-0.3-2.6-1.7-4.2-4.2-4.2
		C417.5,1072,415.8,1073.4,415.3,1076.2z"/>
	<path d="M440.2,1073.4l0.3-2.6h1.3v13.9h-1.3l-0.3-2.6h-0.1c0,0-1.3,2.9-5.4,2.9c-3.6,0-6.5-2.9-6.5-7.3c0-4.3,2.9-7.3,6.5-7.3
		C438.8,1070.4,440.1,1073.4,440.2,1073.4L440.2,1073.4z M435,1072c-2.8,0-5,2.3-5,5.7c0,3.3,2.2,5.7,5,5.7c2.7,0,5-2.1,5-5.7
		S437.7,1072,435,1072z"/>
	<path d="M446.9,1070.8v-4.2h1.8v4.2h4.2v1.5h-4.2v8.6c0,1.7,0.8,2.4,2.2,2.4c1.1,0,2-0.6,2-0.6l0.6,1.4c0,0-1.1,0.9-2.8,0.9
		c-2.6,0-3.9-1.6-3.9-4v-8.7h-2.7v-1.5H446.9z"/>
	<path d="M463.1,1070.8h1.3l0.2,2.3h0.1c0.8-1.2,2-2.6,4.9-2.6c2.5,0,4.3,1.2,5.1,3h0.1c0.7-1.1,1.9-3,5.1-3c3.7,0,5.7,2.7,5.7,6.4
		v7.8h-1.8v-7.6c0-2.9-1.4-5-4.2-5c-3.1,0-4.3,2.5-4.3,4.4v8.3h-1.8v-8.2c0-2.5-1.4-4.4-4.3-4.4c-3.1,0-4.3,2.5-4.3,4.2v8.4h-1.8
		V1070.8z"/>
	<path d="M500.7,1083.4c0,0-1.6,1.6-4.9,1.6c-4.2,0-6.9-2.9-6.9-7.2s2.6-7.3,6.4-7.3c3.9,0,6.1,2.9,6.1,6.8v0.5h-10.6v0
		c0,3.6,2.2,5.6,5.1,5.6c2.6,0,4.1-1.3,4.1-1.3L500.7,1083.4z M490.9,1076.2h8.6c-0.3-2.6-1.7-4.2-4.2-4.2
		C493,1072,491.3,1073.4,490.9,1076.2z"/>
	<path d="M515.7,1073.4l0.3-2.6h1.3v13.9H516l-0.3-2.6h-0.1c0,0-1.3,2.9-5.4,2.9c-3.6,0-6.5-2.9-6.5-7.3c0-4.3,2.9-7.3,6.5-7.3
		C514.3,1070.4,515.6,1073.4,515.7,1073.4L515.7,1073.4z M510.5,1072c-2.8,0-5,2.3-5,5.7c0,3.3,2.2,5.7,5,5.7c2.7,0,5-2.1,5-5.7
		S513.2,1072,510.5,1072z"/>
	<path d="M522.4,1070.8v-4.2h1.8v4.2h4.2v1.5h-4.2v8.6c0,1.7,0.8,2.4,2.2,2.4c1.1,0,2-0.6,2-0.6l0.6,1.4c0,0-1.1,0.9-2.8,0.9
		c-2.6,0-3.9-1.6-3.9-4v-8.7h-2.7v-1.5H522.4z"/>
	<path d="M531,1083.6c0-0.8,0.6-1.4,1.4-1.4s1.4,0.6,1.4,1.4c0,0.8-0.6,1.3-1.4,1.3S531,1084.4,531,1083.6z"/>
	<path d="M560.5,1084.6h-1.9l-2-4.8H546l-2,4.8h-1.9l8.4-19.8h1.7L560.5,1084.6z M546.7,1078.1h9.1l-4.6-10.9L546.7,1078.1z"/>
	<path d="M563,1070.8h1.3l0.2,2.3h0.1c0.7-1.1,2-2.6,5-2.6c3.7,0,5.7,2.7,5.7,6.4v7.8h-1.8v-7.6c0-2.9-1.5-5-4.3-5
		c-3.1,0-4.3,2.5-4.4,4.2v8.4H563V1070.8z"/>
	<path d="M590.3,1073.1v-8.4h1.8v20h-1.3l-0.3-2.6h-0.1c0,0-1.3,2.9-5.4,2.9c-3.6,0-6.5-2.9-6.5-7.3c0-4.3,2.9-7.3,6.5-7.3
		C589,1070.4,590.2,1073.1,590.3,1073.1L590.3,1073.1z M585.4,1072c-2.8,0-5,2.3-5,5.7c0,3.3,2.2,5.7,5,5.7c2.7,0,5-2.1,5-5.7
		S588.1,1072,585.4,1072z"/>
	<path d="M606,1084.6h-1.9v-19.8h1.9V1084.6z"/>
	<path d="M60.2,1110.8v-4.2H62v4.2h4.2v1.5H62v8.6c0,1.7,0.8,2.4,2.2,2.4c1.1,0,2-0.6,2-0.6l0.6,1.4c0,0-1.1,0.9-2.8,0.9
		c-2.6,0-3.9-1.6-3.9-4v-8.7h-2.7v-1.5H60.2z"/>
	<path d="M69.1,1104.7H71v7.9h0.1c0.7-0.9,2-2.1,4.7-2.1c3.6,0,5.7,2.7,5.7,6.4v7.8h-1.8v-7.6c0-2.9-1.4-5-4.2-5
		c-3.1,0-4.3,2.5-4.4,4.2v8.4h-1.8V1104.7z"/>
	<path d="M85.2,1106c0-0.8,0.6-1.4,1.4-1.4c0.7,0,1.3,0.6,1.3,1.4c0,0.7-0.6,1.3-1.3,1.3C85.8,1107.3,85.2,1106.8,85.2,1106z
		 M85.6,1110.8h1.8v13.9h-1.8V1110.8z"/>
	<path d="M91.8,1110.8h1.3l0.2,2.3h0.1c0.7-1.1,2-2.6,5-2.6c3.7,0,5.7,2.7,5.7,6.4v7.8h-1.8v-7.6c0-2.9-1.5-5-4.3-5
		c-3.1,0-4.3,2.5-4.4,4.2v8.4h-1.8V1110.8z"/>
	<path d="M119.8,1110.8l-6.5,6l6.6,7.9h-2.3l-5.6-6.7l-1.8,1.7v5h-1.8v-20h1.8v12.5h0l7.2-6.4H119.8z"/>
	<path d="M141.4,1110.8v13.6c0,3.7-2.1,6.2-6.2,6.2c-3.8,0-5.3-2-5.3-2l1-1.3c0,0,1.5,1.7,4.3,1.7c2.9,0,4.4-1.7,4.4-4.5v-1.6
		c-0.8,1-1.9,2.2-4.6,2.2c-3.9,0-5.8-2.6-5.8-6.4v-7.8h1.8v7.6c0,2.9,1.3,5,4.1,5c3.1,0,4.5-2.5,4.5-4.2v-8.4H141.4z"/>
	<path d="M151.6,1125c-3.8,0-6.9-2.8-6.9-7.2s3.1-7.3,6.9-7.3c3.8,0,6.9,2.9,6.9,7.3S155.4,1125,151.6,1125z M156.7,1117.8
		c0-3.6-2.4-5.8-5-5.8c-2.7,0-5.1,2.2-5.1,5.8s2.4,5.7,5.1,5.7C154.3,1123.5,156.7,1121.3,156.7,1117.8z"/>
	<path d="M174,1124.6h-1.2l-0.3-2.2h-0.1c-0.2,0.3-1.5,2.6-5,2.6c-3.7,0-5.6-2.7-5.6-6.4v-7.8h1.8v7.6c0,2.9,1.3,5,4.1,5
		c3.1,0,4.4-2.5,4.5-4.2v-8.4h1.8V1124.6z"/>
	<path d="M185.3,1122.1c0,0,1.8,1.3,4.7,1.3c2.5,0,3.6-1,3.6-2.3c0-3.5-9-1.7-9-6.7c0-2.2,1.6-3.9,5.1-3.9c3.3,0,5.2,1.1,5.2,1.1
		l-0.7,1.6c0,0-1.7-1.1-4.3-1.1c-2.3,0-3.5,0.7-3.5,2.2c0,3.3,9,1.4,9,6.7c0,2.1-1.5,4-5.3,4c-3.8,0-5.5-1.6-5.5-1.6L185.3,1122.1z"
		/>
	<path d="M198.5,1104.7h1.8v7.9h0.1c0.7-0.9,2-2.1,4.7-2.1c3.6,0,5.7,2.7,5.7,6.4v7.8h-1.8v-7.6c0-2.9-1.4-5-4.2-5
		c-3.1,0-4.3,2.5-4.4,4.2v8.4h-1.8V1104.7z"/>
	<path d="M220.9,1125c-3.8,0-6.9-2.8-6.9-7.2s3.1-7.3,6.9-7.3c3.8,0,6.9,2.9,6.9,7.3S224.6,1125,220.9,1125z M225.9,1117.8
		c0-3.6-2.4-5.8-5-5.8c-2.7,0-5.1,2.2-5.1,5.8s2.4,5.7,5.1,5.7C223.6,1123.5,225.9,1121.3,225.9,1117.8z"/>
	<path d="M243.2,1124.6H242l-0.3-2.2h-0.1c-0.2,0.3-1.5,2.6-5,2.6c-3.7,0-5.6-2.7-5.6-6.4v-7.8h1.8v7.6c0,2.9,1.3,5,4.1,5
		c3.1,0,4.4-2.5,4.5-4.2v-8.4h1.8V1124.6z"/>
	<path d="M247.6,1104.7h1.8v20h-1.8V1104.7z"/>
	<path d="M264.7,1113.1v-8.4h1.8v20h-1.3l-0.3-2.6h-0.1c0,0-1.3,2.9-5.4,2.9c-3.6,0-6.5-2.9-6.5-7.3c0-4.3,2.9-7.3,6.5-7.3
		C263.4,1110.4,264.6,1113.1,264.7,1113.1L264.7,1113.1z M259.8,1112c-2.8,0-5,2.3-5,5.7c0,3.3,2.2,5.7,5,5.7c2.7,0,5-2.1,5-5.7
		S262.5,1112,259.8,1112z"/>
	<path d="M278.4,1110.8v-4.2h1.8v4.2h4.2v1.5h-4.2v8.6c0,1.7,0.8,2.4,2.2,2.4c1.1,0,2-0.6,2-0.6l0.6,1.4c0,0-1.1,0.9-2.8,0.9
		c-2.6,0-3.9-1.6-3.9-4v-8.7h-2.7v-1.5H278.4z"/>
	<path d="M293.3,1125c-3.8,0-6.9-2.8-6.9-7.2s3.1-7.3,6.9-7.3c3.8,0,6.9,2.9,6.9,7.3S297,1125,293.3,1125z M298.3,1117.8
		c0-3.6-2.4-5.8-5-5.8c-2.7,0-5.1,2.2-5.1,5.8s2.4,5.7,5.1,5.7C296,1123.5,298.3,1121.3,298.3,1117.8z"/>
	<path d="M309.5,1125c-3.8,0-6.9-2.8-6.9-7.2s3.1-7.3,6.9-7.3c3.8,0,6.9,2.9,6.9,7.3S313.3,1125,309.5,1125z M314.6,1117.8
		c0-3.6-2.4-5.8-5-5.8c-2.7,0-5.1,2.2-5.1,5.8s2.4,5.7,5.1,5.7C312.2,1123.5,314.6,1121.3,314.6,1117.8z"/>
	<path d="M319,1123.6c0-0.8,0.6-1.4,1.4-1.4s1.4,0.6,1.4,1.4c0,0.8-0.6,1.3-1.4,1.3S319,1124.4,319,1123.6z"/>
</g>
<g>
	<path d="M64.8,771.5h-6.1V758h5.8c2.9,0,4.7,1.3,4.7,3.7c0,1.4-0.8,2.5-2,2.9v0.1c1.4,0.4,2.4,1.5,2.4,3.1
		C69.7,770.3,67.7,771.5,64.8,771.5z M64.6,759.7h-3.9v4.2h3.9c1.7,0,2.8-0.8,2.8-2.1C67.3,760.3,66.3,759.7,64.6,759.7z
		 M60.6,765.5v4.3h4.2c1.6,0,2.8-0.7,2.8-2.2c0-1.4-1.3-2.1-2.9-2.1H60.6z"/>
	<path d="M84.5,758h2.1l-5,8.4v5.2h-1.9v-5.2l-5-8.4H77l3.3,5.7l0.4,0.9h0l0.5-0.9L84.5,758z"/>
	<path d="M114,771.5h-2.5l-6.5-7.9v7.9h-3.3V758h2.5l6.5,7.8V758h3.3V771.5z"/>
	<path d="M124.6,771.5h-3.3V758h3.3V771.5z"/>
	<path d="M137.9,763.5h6.8v2c0,3.9-2.5,6.4-6.5,6.4c-4.3,0-6.9-3.2-6.9-7.1s2.6-7.1,7-7.1c3.5,0,4.9,1.7,4.9,1.7l-2,2.5
		c0,0-1-1.1-3-1.1c-2,0-3.5,1.6-3.5,3.9s1.5,3.9,3.5,3.9c1.9,0,2.8-1.1,2.8-2.5V766h-3.1V763.5z"/>
	<path d="M159.8,766h-5.5v2.8h6.6v2.8H151V758h9.9v2.8h-6.6v2.6h5.5V766z"/>
	<path d="M167.6,771.5V758h3.3v10.7h6.1v2.8H167.6z"/>
	<path d="M204.1,771.6h-3.3V766h-5.6v5.5H192V758h3.3v5.5h5.6V758h3.3V771.6z"/>
	<path d="M220.3,766h-5.5v2.8h6.6v2.8h-9.9V758h9.9v2.8h-6.6v2.6h5.5V766z"/>
	<path d="M234,758c3.1,0,5.2,1.9,5.2,4.6c0,1.9-1,3.3-2.5,4v0.2l3.1,4.5v0.2H236l-2.8-4.5h-1.9v4.5H228V758H234z M233.8,760.8h-2.5
		v3.5h2.5c1.2,0,2-0.6,2-1.8C235.9,761.4,235,760.8,233.8,760.8z"/>
	<path d="M256.6,764.1l-2.9,3.9h-1.4l-2.9-3.9v7.5h-3.3l0-13.6h2.6l4.2,5.8l4.2-5.8h2.6l0,13.6h-3.3V764.1z"/>
	<path d="M279.5,771.5H276l-0.8-2.4h-5.2l-0.8,2.4h-3.5l5.2-13.6h3.6L279.5,771.5z M270.8,766.5h3.4l-1.7-5L270.8,766.5z"/>
	<path d="M297.5,771.5H295l-6.5-7.9v7.9h-3.3V758h2.5l6.5,7.8V758h3.3V771.5z"/>
	<path d="M58,802.7c0,0,0.8,0.6,1.8,0.6c1.4,0,2.2-0.8,2.2-2.6v-7h1.5v7.3c0,2.3-1.2,3.8-3.6,3.8c-1.7,0-2.6-0.9-2.7-0.9L58,802.7z"
		/>
	<path d="M78.9,804.5h-1.6l-1-2.3h-5.5l-1,2.3h-1.5l4.5-10.8h1.4L78.9,804.5z M71.4,800.9h4.4l-2.2-5.3L71.4,800.9z"/>
	<path d="M93.2,804.5h-1.1l-6.6-8.2v8.2H84v-10.8h1.1l6.6,8.1v-8.1h1.5V804.5z"/>
	<path d="M99.5,800v-6.3h1.5v6.3c0,1.9,1,3.4,2.9,3.4c2,0,2.9-1.4,2.9-3.4v-6.3h1.5v6.3c0,2.8-1.6,4.8-4.4,4.8
		C101.1,804.8,99.5,802.8,99.5,800z"/>
	<path d="M123.5,804.5h-1.6l-1-2.3h-5.5l-1,2.3H113l4.5-10.8h1.4L123.5,804.5z M116,800.9h4.4l-2.2-5.3L116,800.9z"/>
	<path d="M132.9,793.7c2.6,0,4.1,1.3,4.1,3.6c0,1.7-0.9,2.9-2.4,3.4v0.1l2.6,3.5v0.3h-1.6L133,801h-2.9v3.6h-1.5v-10.8H132.9z
		 M132.9,795.1h-2.8v4.5h2.9c1.5,0,2.5-0.7,2.5-2.3C135.5,795.8,134.5,795.1,132.9,795.1z"/>
	<path d="M149,793.7h1.7l-3.9,6.7v4.1h-1.5v-4.1l-3.9-6.7h1.7l2.6,4.6l0.3,0.8h0l0.4-0.8L149,793.7z"/>
	<path d="M162.2,799.2c0-3.1,1.7-5.7,4.6-5.7s4.6,2.5,4.6,5.7c0,3.1-1.6,5.6-4.6,5.6S162.2,802.2,162.2,799.2z M169.9,799.2
		c0-2.4-1.1-4.2-3.1-4.2c-2,0-3.1,1.9-3.1,4.2c0,2.3,1.1,4.2,3.1,4.2C168.8,803.4,169.9,801.5,169.9,799.2z"/>
	<path d="M176.1,793.7h3.9v10.8h-1.5v-9.5h-2.4V793.7z"/>
	<path d="M187.6,803.9c0,1.5-0.8,2.6-2.3,2.8l-0.2-0.8c0.8-0.2,1.3-0.6,1.4-1.2c-0.4-0.1-0.8-0.5-0.8-0.9c0-0.5,0.4-0.9,0.9-0.9
		c0.5,0,1,0.4,1,0.9V803.9z"/>
	<path d="M200.5,803.5l4.4-4.5c0.8-0.8,1.1-1.3,1.1-2.1c0-1.1-0.8-2-2.2-2c-1.5,0-2.5,1.1-2.7,1.3l-0.8-1.2c0,0,1.3-1.5,3.5-1.5
		c2.5,0,3.7,1.4,3.7,3.3c0,1-0.3,1.8-1.2,2.7l-3.6,3.7h5v1.4h-7.4V803.5z"/>
	<path d="M213.1,799.2c0-3.1,1.7-5.7,4.6-5.7s4.6,2.5,4.6,5.7c0,3.1-1.6,5.6-4.6,5.6S213.1,802.2,213.1,799.2z M220.8,799.2
		c0-2.4-1.1-4.2-3.1-4.2c-2,0-3.1,1.9-3.1,4.2c0,2.3,1.1,4.2,3.1,4.2C219.7,803.4,220.8,801.5,220.8,799.2z"/>
	<path d="M227,793.7h3.9v10.8h-1.5v-9.5H227V793.7z"/>
	<path d="M238.5,795.1l-0.1,3c0.4-0.1,0.8-0.1,1.4-0.1c2.7,0,4,1.4,4,3.3c0,2.1-1.4,3.5-3.9,3.5c-2.4,0-3.5-1.5-3.5-1.5l0.8-1.1
		c0,0,0.9,1.2,2.6,1.2c1.5,0,2.4-0.8,2.4-2.1c0-1.2-0.9-2-2.6-2c-1.5,0-2.4,0.4-2.4,0.5l-0.3-0.2l0.2-5.8h6.1v1.3H238.5z"/>
</g>
<g>
	<polygon fill="#DFAB43" points="61.2,658.1 66.4,655.2 70.4,659.6 76.1,658.1 76.3,658.4 78.8,663.8 84.3,664.2 84.7,664.5 
		85.4,670.4 90.6,672.7 90.8,672.9 89.6,678.8 94,682.8 91.1,688 94,693.2 89.6,697.2 90.8,703.1 85.4,705.6 84.7,711.5 78.8,712.2 
		76.3,717.6 70.4,716.4 66.4,720.8 61.2,717.9 56,720.8 52,716.4 46.1,717.6 43.6,712.2 37.7,711.5 37,705.6 31.6,703.1 32.8,697.2 
		28.4,693.2 31.3,688 28.4,682.8 32.8,678.8 31.6,672.9 37,670.4 37.7,664.5 43.6,663.8 46.1,658.4 52,659.6 56,655.2 	"/>
	<linearGradient id="SVGID_1_" gradientUnits="userSpaceOnUse" x1="36.0179" y1="643.3232" x2="69.7244" y2="703.4305">
		<stop  offset="0" style="stop-color:#EDBA06"/>
		<stop  offset="0.4826" style="stop-color:#F6E473"/>
		<stop  offset="0.9916" style="stop-color:#F3D44A"/>
	</linearGradient>
	<polygon fill="url(#SVGID_1_)" points="60.9,657.8 66.1,654.9 70.1,659.2 76,658.1 78.5,663.5 84.4,664.2 85.1,670.1 90.5,672.6 
		89.3,678.4 93.7,682.5 90.8,687.7 93.7,692.9 89.3,696.9 90.5,702.7 85.1,705.2 84.4,711.1 78.5,711.8 76,717.3 70.1,716.1 
		66.1,720.5 60.9,717.6 55.7,720.5 51.6,716.1 45.8,717.3 43.3,711.8 37.4,711.1 36.7,705.2 31.3,702.7 32.5,696.9 28.1,692.9 
		31,687.7 28.1,682.5 32.5,678.4 31.3,672.6 36.7,670.1 37.4,664.2 43.3,663.5 45.8,658.1 51.6,659.2 55.7,654.9 	"/>
	<g opacity="0.3">
		<path fill="#DAA143" d="M60.9,714.9c-15,0-27.2-12.2-27.2-27.2s12.2-27.2,27.2-27.2c15,0,27.2,12.2,27.2,27.2
			S75.9,714.9,60.9,714.9z M60.9,661.4c-14.5,0-26.2,11.8-26.2,26.2s11.8,26.2,26.2,26.2c14.5,0,26.2-11.8,26.2-26.2
			S75.4,661.4,60.9,661.4z"/>
	</g>
	<linearGradient id="SVGID_2_" gradientUnits="userSpaceOnUse" x1="46.5157" y1="671.3804" x2="70.0261" y2="699.5217">
		<stop  offset="0" style="stop-color:#CE883F"/>
		<stop  offset="0.9916" style="stop-color:#F3D44A"/>
	</linearGradient>
	<polygon fill="url(#SVGID_2_)" points="60.9,671.5 66,681 76.6,682.9 69.2,690.7 70.6,701.4 60.9,696.7 51.2,701.4 52.6,690.7 
		45.2,682.9 55.8,681 	"/>
</g>
</svg>
