<?xml version="1.0" encoding="utf-8"?>
<!-- Generator: Adobe Illustrator 18.1.0, SVG Export Plug-In . SVG Version: 6.00 Build 0)  -->
<svg version="1.1" id="Layer_1" xmlns="http://www.w3.org/2000/svg" xmlns:xlink="http://www.w3.org/1999/xlink" x="0px" y="0px"
	 viewBox="0 0 33 33" enable-background="new 0 0 33 33" xml:space="preserve">
<g>
	<linearGradient id="SVGID_1_" gradientUnits="userSpaceOnUse" x1="2.1245" y1="36.523" x2="31.7984" y2="-4.8085">
		<stop  offset="0.2413" style="stop-color:#276FFF"/>
		<stop  offset="1" style="stop-color:#8DB6FF"/>
	</linearGradient>
	<circle fill="url(#SVGID_1_)" cx="16.5" cy="16.5" r="16.2"/>
	<path fill="#FFFFFF" d="M22.4,10.6c-1.3-1.3-3-2-4.8-2c-1.8,0-3.5,0.7-4.8,2s-2,3-2,4.8c0,1.3,0.4,2.5,1,3.6l-3,3l2.1,2.1l3-3
		c1.1,0.7,2.3,1,3.6,1c1.8,0,3.5-0.7,4.8-2c1.3-1.3,2-3,2-4.8C24.4,13.5,23.7,11.8,22.4,10.6z M20.3,18c-1.4,1.4-3.9,1.4-5.3,0
		c-0.7-0.7-1.1-1.6-1.1-2.7c0-1,0.4-1.9,1.1-2.7c0.7-0.7,1.6-1.1,2.7-1.1s1.9,0.4,2.7,1.1c0.7,0.7,1.1,1.6,1.1,2.7S21,17.3,20.3,18z
		"/>
</g>
</svg>
