<?xml version="1.0" encoding="utf-8"?>
<!-- Generator: Adobe Illustrator 18.0.0, SVG Export Plug-In . SVG Version: 6.00 Build 0)  -->
<!DOCTYPE svg PUBLIC "-//W3C//DTD SVG 1.1//EN" "http://www.w3.org/Graphics/SVG/1.1/DTD/svg11.dtd">
<svg version="1.1" id="Layer_1" xmlns="http://www.w3.org/2000/svg" xmlns:xlink="http://www.w3.org/1999/xlink" x="0px" y="0px"
	 viewBox="105 102.7 145 41.7" enable-background="new 105 102.7 145 41.7" xml:space="preserve">
<g>
	<path fill="#FF8352" d="M146.5,110.8c0.8-1.5,0.7-3-0.2-4.2c-0.7-1.2-1.7-2-3.3-1.7c-2.2,0.5-6,1.5-8.2,2.2c-2.8,1-5.7,2.2-8.5,3.3
		c-0.8,0.3-1.5,0.3-2.5-0.2c-1.3-0.8-2.3-0.5-2.7,0.5c-0.5,1.8-1.8,2.5-3.5,2.8c-1.5,0.5-3,1-4.5,1.7c-1,0.3-1.7,1-1.2,2.3
		c0.8,2,1.8,3.7,4.3,4c-0.2,0.7-0.3,1-0.5,1.5c-0.5,1.5-1,3-2.8,3.5c-0.8,0.3-1.2,1.3-1,2.3c0.3,1,0.7,2,0.7,3
		c-0.2,1.8-0.5,3.8-1,5.7c-0.5,2,2.2,5.2,4.2,5c2.2,0,4.2-0.7,6.3-1.7c5.3-2.3,10.8-4.2,16.3-6.2c1.3-0.5,2.2-1.3,2.2-2.3
		s-1.8-4-2.5-4.2c-0.2,0-0.2,0-0.3,0c-1.3,0.3-2.7,0.3-3.8,0.8c-2.3,0.8-4.7,1.7-6.8,2.5c-2.8,1.2-5.7,2.5-8.5,3.7
		c-0.2-0.2-0.3-0.3-0.3-0.3c0.5-1.3,1-2.5,1.3-3.8c0.3-1.2,1-1.8,2.2-2c5.8-1.5,11.3-3.8,16.8-6.2c1-0.5,1.5-1.5,1-2.5
		c-0.5-1-1-1.8-1.5-2.7c-0.3-0.8-0.8-0.8-1.7-0.5c-3.7,1.5-7.2,2.8-10.8,4.3c-0.5,0.2-1.2,0.3-2,0.5c0.5-1.2,0.7-2.2,1.3-3
		c0.8-1.2,1.3-2.5,2.8-3c3.7-1.3,9-3.2,12.7-4.5c0.8-0.3,1.7-0.7,2.2,0.5c0,0.2,0.3,0.3,0.5,0.3
		C144.3,112.2,145.7,112.2,146.5,110.8z"/>
	<path fill="#FF8352" d="M180.7,110.2c0.2-1.5-0.2-2.8-1.2-3.8s-1.7-1-2.7,0c-4.8,5.2-9.8,10.5-14.7,15.7c-0.5,0.5-1,1-1.7,1.5
		c-0.2,0-0.2-0.2-0.3-0.2c0-1.2,0-2.5,0-3.7c0-2.2,0-4.5-0.3-6.7c-0.2-2-2.8-3.2-4.5-1.8c-1.2,0.8-2.2,2-3.3,3
		c-2.5-0.7-3.2-0.5-4,2.2c-1.5,4-3,8.2-4.3,12.3c-0.2,0.3,0,0.8,0.3,1c0.3,0.5,1,1,1.3,1.3c1,1,2.7,0.8,3.3-0.5
		c1.7-3,3.3-5.8,5.2-8.8c0.2-0.3,0.5-0.5,0.8-1c0.2,1,0.2,1.7,0.2,2.3c0.2,1.5,0.3,3,0.7,4.5c0.2,0.8,0.3,1.8,1,2.5
		c1.3,1.3,3.8,1.3,5.3-0.2c1.3-1.2,2.5-2.5,3.8-3.8c1.2-1.2,2.2-2.3,3.2-3.5c-0.2,1-0.5,1.8-0.8,2.7c-1.3,3.3-2.8,6.5-4.2,9.8
		c-1,2.5-0.5,3.7,2,4.8c1.3,0.7,2.3,0.5,2.8-0.5c1.3-3.2,2.8-6.5,4.2-9.7c2-4.7,4.2-9.5,6.3-14.2
		C179.7,113.8,180.5,112.2,180.7,110.2z"/>
	<path fill="#FF8352" d="M200.8,106.8c-1.8-1.5-2.8-1.7-5-0.3l-0.2,0.2c-2.5,0.3-3.8,2.2-5.2,3.8c-3.8,5.2-7.7,10.3-11.3,15.5
		c-1.5,2-2.7,4.2-4,6.3c-0.5,0.8-1,1.8,0,2.8c1,0.8,2.2,1.2,3.5,0.7c0.3-0.2,0.5-0.2,0.8-0.2c1,0,1.3-0.5,1.7-1.3
		c0.3-1.3,1.2-2.3,2.7-2.5c2.7-0.5,5.5-1.2,8.2-1.7c1-0.2,1.8-0.3,3.2-0.5c-0.2,4-0.3,7.7-0.7,11.3c-0.2,1.8,0,2.2,1.5,3
		c2.3,1.2,4.5-0.3,4.7-3c0.3-8.7,1-17.3,1.7-26c0.2-2.8-0.8-5.3-1.3-7.8C201.2,107,201,107,200.8,106.8z M195.5,123.7
		c0,0.2-0.3,0.5-0.7,0.5c-2.3,0.7-4.8,1.3-7.2,1.8c-0.2,0-0.2,0-0.7-0.2c3-3.7,5.8-7.2,8.7-10.7c0.2,0,0.3,0.2,0.5,0.2
		C195.8,118.2,195.7,121,195.5,123.7z"/>
	<path fill="#FF8352" d="M250,131.7c0-0.5-0.5-1-0.8-1.2c-0.8-0.2-1.8-0.3-2.8-0.3c-3,0.5-4.7,1.3-7.8,1.5c-4,0.3-8,1-12.5,1.2
		c0.5-1.2,1-2,1.3-3c3-6.2,5.8-12.5,9-18.7c0.8-1.8,0.8-3.5,0-5.2c-0.3-0.8-1.3-1.7-2.2-2c-1.2-0.3-1.8,0.8-2.2,1.8
		c-0.8,1.8-1.5,3.8-2.3,5.7c-3.2,6.8-6.5,13.5-9.8,20.3c-0.5,1-1,1.7-2.2,1.8c-1.3,0.2-2.2,2-1.8,3.7c0.2,1.3,0.8,1.8,2.3,1.8
		c2.2-0.2,4.5-0.3,6.7-0.5c4.5-0.2,9.2-0.8,13.7-1.2c2.8-0.2,4.5-0.5,7.3-0.8C248.8,136.3,250.2,134.5,250,131.7z"/>
	<path fill="#FF8352" d="M219.7,110.5c0.2-0.5,0.5-1.2,0.3-1.5c-0.7-1.7-1.3-3.2-3-4.3c-1-0.7-1.8-0.8-2.5,0c-0.8,1.2-1.7,2.5-2.2,4
		c-1.3,3.8-2.5,7.7-3.7,11.7c-1.5,5.2-2.8,10.2-4.2,15.3c0.2,0,0.2,0,0.3,0.2c-0.2,1.5,1.3,3.2,2.7,3.3c1.8,0.2,3.7-0.8,4-2.3
		c1.5-6.2,2.2-12.3,4.5-18.3C217,115.8,218.3,113.2,219.7,110.5z"/>
</g>
</svg>
