<?xml version="1.0" encoding="utf-8"?>
<!-- Generator: Adobe Illustrator 18.0.0, SVG Export Plug-In . SVG Version: 6.00 Build 0)  -->
<!DOCTYPE svg PUBLIC "-//W3C//DTD SVG 1.1//EN" "http://www.w3.org/Graphics/SVG/1.1/DTD/svg11.dtd">
<svg version="1.1" id="Layer_1" xmlns="http://www.w3.org/2000/svg" xmlns:xlink="http://www.w3.org/1999/xlink" x="0px" y="0px"
	 viewBox="0 102.5 250 44.2" enable-background="new 0 102.5 250 44.2" xml:space="preserve">
<g>
	<path fill="#FF8352" d="M153.5,128.3c-1-2-2.2-3.7-4.3-4.5c-1.3-0.5-3.3-0.2-4.8-0.7c0.7-0.3,1-0.7,1.3-0.8c3-2.2,5.8-4.3,8.8-6.3
		c0.8-0.7,1-1.3,0.5-2.2c-0.5-1-1-2-1.3-3c-0.5-1.5-1.5-2-3-2c-3.8-0.3-8.3,0.3-12,1.5c-1.3-0.3-1.7-0.3-3.3-0.7
		c-0.8-0.2-1.5,0-2,0.7c-0.8,1.5-1.8,2.5-3.3,3.2c-0.8,0.3-0.8,0.8-0.8,2c0.2,1.8,0.7,3.7,0.7,3.7s-2.8,7-4,10
		c-0.8,2.3-1.8,4.7-2.7,6.8c-0.7,1.8-0.7,1.8-2.7,1.3c-0.8-0.2-1.8-0.3-2.7-0.3c-0.3,0-1,0.5-1.2,0.8c-0.3,2.2,1.5,4.8,3.7,5.2
		c3.7,0.7,7.5,0.5,11.2-0.2c3.3-0.7,6.7-1.7,10-2.7c4-1.3,7.8-2.7,11.2-5.3c1.7-1.3,2.7-2.7,1.7-4.7
		C154,129.3,153.7,128.8,153.5,128.3z M142.5,116c0,0.2-2.3,2.5-6.7,4.2c0.3-1.2,1-2.5,1-2.5C137.8,117,139.7,116.7,142.5,116z
		 M129.8,137.3c1-3,1.8-5.7,2.7-8.3c0.3-1,1-1.2,1.8-1.2c4.7,0,12.3,1.7,13.3,2.7C142.3,134.5,136.2,136,129.8,137.3z M121,131.8
		c0.5-1-0.5-3.5-1.3-4.2c-1.3-0.8-3-0.7-4.2,0.3c-0.5,0.5-1,0.8-1.7,1.2c-3.3,1.7-6.7,3.3-10,5c-1.2,0.5-2.3,0.8-3.5,1.2
		c-0.2-0.2-0.2-0.2-0.3-0.3c0.5-1.7,2.5-5.7,3.2-7.2c0,0,0.7-0.5,1.3-0.7c2.7-0.8,5.5-1.7,8-2.7c2.3-0.8,4.7-1.8,7.3-2
		c0.3,0,1-0.5,1-0.8c0.3-1,0.5-2,0.3-2.8c-0.3-2.2-1.3-3.5-3.7-2.7c-0.3,0.2-0.8,0.3-1.2,0.3c-2.8,1-5.7,2-9,3c0.7-1.2,1.3-2,1.7-3
		c0.5-1.2,1.3-1.7,2.5-2c2.8-0.8,5.5-2,8.3-2.8c2-0.7,4.2-1.3,6.3-0.2c1.5,0.7,2.7-0.5,2.5-2.2c0-0.5-0.2-1.2-0.3-1.8
		c-0.3-2-1-2.7-3.2-2.8c-0.7,0-1.2,0-1.8,0.2c-2.7,0.7-5.3,1.3-8,2c-1.7,0.5-2,0.3-3.5-1c-1.2-1.2-2.3-1.2-2.7-1.2
		c-1.8,0.8-2,2.3-2.8,4c-0.7,1.2-1.5,1.7-2.7,2c-3.2,0.8-4.5,1.3-7.7,2.2c-0.7,0.2-1.3,0.5-1.7,0.8c-0.7,0.8-0.5,3.3,0.2,4
		c1,1.3,2.2,1.5,3.8,1c1.2-0.3,0.8-0.3,2.3-0.7c-0.5,1.2-1,2-1.3,2.8c-0.5,1-1,1.7-2,2c-1.7,0.7-2.2,2.2-1.7,3.8
		c0.2,0.5,0.2,1.3,0.2,1.3c-0.7,2-2.7,5.8-3.2,7.8c-0.5,1.8,0,3.5,1.2,4.7c2.3,2,5.8,2.2,8.3,0.5c0.2-0.2,0.3-0.2,0.5-0.3
		c5.7-2.5,11.3-5.2,17-7.8C120.2,132.8,120.7,132.3,121,131.8z M34.8,127.2c0.2-0.7,0.2-1.5,0-2.2c-0.2-1.5-1.3-2.7-2.7-2.7
		c-1.5,0-3.2,0-4.7,0.2c-2.8,0.2-5.7,0.3-8.8,0.7c0.8-1.8,1.5-3.3,2.2-5c0.5-1.3,1-1.3,2-1.5c3-0.3,6-0.8,9-1.2
		c3.3-0.3,6.7-0.5,9.8-0.8c0.5,0,0.8-0.5,1-0.8c0.7-1.7,0.2-3-0.5-4.5c-0.5-1-1.3-1.3-2.3-1.2c-4.8,0.5-9.8,1.2-14.7,1.7
		c-1.5,0.2-1.8,0.2-3.2-1c-1.5-1.3-3.5-1-4.3,0.8c-0.5,1-1,1.3-2.2,1.5c-4,0.3-8,0.5-11.7,2c-1.2,0.5-2.3,1.3-3.2,2.2
		c-0.7,0.5-0.2,3,0.5,4s1.7,1.3,2.5,1.5c0.8,0,1.7-0.3,2.2-0.8c1.7-1.5,3.7-1.8,7.8-2.3c-0.2,0.7-0.7,1.5-0.8,2.2
		c-0.8,2.2-1.7,3.7-1.7,3.7s-1.2,0.3-2.8,0.5c-1,0-2.5,0.7-2.5,2c0,1.3,0.2,2.8,1.5,3.7c0.8,0.7,1.2,0.2,0.8,0.8
		c-0.7,1.7-3.2,7-3.8,8.7c-1,2.2-0.3,4.2,1.7,5c1.8,0.8,3.8-0.2,4.7-1.8c1.2-2.5,3.7-8.5,4.7-11c0.5-1.3,0.7-1.5,2.3-1.7
		c2.7,0,5.3-0.3,8-0.5c2.5-0.2,4.8-0.3,7.3-0.3C34.5,128.8,34.7,128.8,34.8,127.2z M92.5,123c-1.3-1-2.5,0-3.5,0.5
		c-1.8,1.2-3.7,2.7-5.3,4.2c-4.3,3.8-9,7-14.3,9.3c-0.5,0.2-2.2,0.7-2-0.7c1.2-6,3.7-12,7.2-17c1.3-1.8,2.7-3.2,5-4.2
		c-0.3,1.3-0.8,2.5-1,3.7c-0.3,2.2,0.2,3,2.5,3.2c1.2,0,2.2,0,3.3,0c0.5,0,1-0.5,1.2-1c1-3,2-6,2.7-9.2c0.3-1.7,0.3-2.2,0.2-3.8
		c-0.2-1.2-1.2-2.8-2.5-3c-1.2-0.2-2,0.3-2.5,1.3c-0.3,0.7-0.5,0.8-0.7,1.2c-1.5,0-2.7-0.2-3.8,0c-3.3,0.7-6,2.5-8.2,5.2
		c-3.3,4-8,11.3-9.7,23.3c-0.5,4,0.3,5.8,4.2,7.5c1,0.3,4.3,1.3,7,0c4.2-2,7.8-4.7,11.3-7.5c2.3-1.8,4.7-3.8,7.3-5
		c2-0.8,2.5-2.2,2.8-3.8C94,125.3,93.7,124,92.5,123z M57.2,123.7c0.3-3.7,0.7-7,1.2-10.3c0.2-1.2,0.2-2.3-0.8-3
		c-1.3-0.8-3-1.5-4.7-0.7c-1,0.5-1.8,1.3-2.7,2.2c-4.2,4-7.5,8.8-10.8,13.7c-1.2,1.8-1.8,4-4.2,5c-1.8,0.8-2.7,2.2-2.8,4.2
		c0,0.7,0.3,0.8,0,1.3c-0.8,1.3-2.3,3.3-3.3,4.5c-0.8,0.8-1,1.7-0.5,2.5c0.8,1.3,1.7,1.8,3,1.5c0.7-0.2,1.5-0.5,2-1
		c1.7-1.8,3.5-3.7,5-5.7c2.5-3.5,2.7-4,5.5-4.3c2-0.2,4-1,6.2-1.5c0,0.7,0,1.2-0.2,1.7c-0.2,2.5-0.5,5.2-0.5,7.7
		c0,1.7,1.2,2.8,2.7,2.8c1,0,2.2-0.2,3.2-0.5c1.3-0.5,1.3-1.8,0.8-3.3c-0.2-0.5-0.3-2.2-0.3-2.7c0.2-1.5,0.2-2.5,0.2-4
		c0.2-3.2,0.2-3,2.2-4c1-0.5,1.3-1.3,1.3-2.5C59.5,125.3,58.8,124.2,57.2,123.7z M51.2,125.2c0,0.3-0.2,0.7-0.5,0.8
		c-1.3,0.5-2.8,0.8-4.2,1.3c-0.3,0.2-0.5-0.2-0.3-0.5c1.7-2.2,3.5-4.2,5.2-6.3l0.3-0.7C51.5,121.3,51.3,123.7,51.2,125.2z
		 M248.3,140.2c-4.5-3-10.7-7.5-13.8-12c-1.3-2-3-3.8-4.5-5.8c0.3-0.3,0.5-0.5,0.7-0.7c1.8-1,3.5-2.5,5.2-3.5c1.8-1,4.3-3,6.2-4
		c0.5-0.3,1-0.7,1.2-1.2c0.5-1.3,0.2-1.3,0.5-2.8c0.2-1-1.7-3.3-2.5-3.3s-1.7,0.2-2.3,0.7c-2.8,1.8-5.5,4-8.3,5.8
		c-1.3,1-3,1.5-4.7,2.5c0.8-2.7,1.7-6,2.3-8.3c0.5-1.8-1.7-1.7-3.5-2c-1.7-0.3-3-0.2-3.7,1.8c-1.5,4.2-3.2,8.2-4.3,12.3
		c-1.5,5.3-2.7,10.7-4,16.2c-0.2,0.5,0.3,1.5,0.7,1.5c1.3,0.5,2.7,0.7,4,0.8c1.2,0.2,1.8-0.7,2.3-1.7c0.3-1,0.7-2,0.8-3
		c0.5-2.3,0.8-4.7,1.3-6.8c0-0.3,0.3-0.8,0.5-1.3c0.3,0.5,0.5,0.7,0.7,0.8c3.2,4.7,6.8,9,11.3,12.3c2.3,1.8,6.7,4.8,9.3,6.2
		c1.3,0.7,2.8,1,4.3-0.3C250,143,250.2,141.5,248.3,140.2z M211.5,112.7c-0.5-0.5-0.8,0-1.2-0.7c-1-3-3.8-6.2-6.7-5.7
		c-1.7,0.2-3.5,0.8-5,1.7c-3.3,2-6,4.7-8.3,7.8c-2.8,4.2-5.2,8.5-5.3,13.5c-0.2,4,0.8,7.7,4.8,9.8c2.7,1.5,5.5,2.5,8.7,2
		c0.7-0.2,1.2-0.2,1.8-0.3c3.2-1,5.7-3,7.3-5.8c2.3-3.8,4.3-7.7,5-12c0.3-2.3,0.3-4.7,0.5-6.8C213.2,114.7,212.5,113.5,211.5,112.7z
		 M203.5,128.5c-1,2.3-2.3,4.7-4.3,6.3c-1.7,1.5-3.5,1.5-5.3,1c-1.8-0.5-2.5-2-2.7-3.7c0-0.5,0-1,0-1.5c0-5.7,2.5-10.3,5.8-14.7
		c0.8-1.2,1.5-1.7,2.7-2.7c1.7-1.3,5.7-0.2,6,1.8C206.3,120,205.3,124.3,203.5,128.5z M180.8,112c-0.5-0.7-1.5-1.3-2.3-1.5
		c-1.7-0.3-3.3-0.5-5-0.7c-2.5-0.2-4.8,0.3-7,1.5c-2.5,1.3-4.5,3.3-6.2,5.5c-2.3,3.3-4.2,7.2-4.3,11.3c-0.2,5,1.8,9.2,6.5,11.5
		c3.2,1.7,6.5,1.3,9.7,0c4.2-1.8,6.5-5.5,8.7-9.3c2-3.3,2.5-7.2,2.8-11.3C183.7,116.7,182.5,114.2,180.8,112z M176,123.3
		c-0.7,3-1.7,5.7-3.8,7.8c-1.2,1.2-2.5,2.3-3.8,3.3c-1.5,1-3.2,0.8-4.7-0.2c-1.7-1-1.7-3-1.7-3.8c0-0.3-0.2-0.5-0.3-0.5
		c0.5-1.7,0.8-3.3,1.5-5c1-2.3,2-4.8,4.2-6.7c1-0.8,2-1.8,3.2-2.5c1.7-1.2,3.5-0.8,5-0.2c0.7,0.3,1.2,1.5,1.2,2.3
		C176.8,119.8,176.3,121.7,176,123.3z"/>
</g>
</svg>
