<?xml version="1.0" encoding="utf-8"?>
<!-- Generator: Adobe Illustrator 18.0.0, SVG Export Plug-In . SVG Version: 6.00 Build 0)  -->
<!DOCTYPE svg PUBLIC "-//W3C//DTD SVG 1.1//EN" "http://www.w3.org/Graphics/SVG/1.1/DTD/svg11.dtd">
<svg version="1.1" id="Layer_1" xmlns="http://www.w3.org/2000/svg" xmlns:xlink="http://www.w3.org/1999/xlink" x="0px" y="0px"
	 viewBox="0 106.2 250 37.7" enable-background="new 0 106.2 250 37.7" xml:space="preserve">
<g>
	<path fill="#FF8352" d="M249.1,106.6c-0.1-0.3-0.4-0.4-0.8-0.4c-0.8,0-1.6,0-2.4,0.1c-5.7,1.3-11.3,2.8-16.8,4.3
		c-2.4,0.7-2,0.7-4.3,1.5c-1.2,0.4-1.7,2.2-1.3,3.6c0.3,0.8,1.5,1.5,2.7,1.2c0.7-0.1,1.3-0.4,2-0.5l0,0c0,0,0,0,0.1,0
		c0.1,0,0.4-0.1,0.5-0.1c2.6-0.8,2.7-0.8,3.9-1.1l0,0c0.3-0.1,0.5-0.1,1.1-0.1c-0.3,0.7-0.4,1.3-0.5,1.9c-1.3,3.2-2.8,6.6-4,9.8
		c-0.9,2.6-1.9,5.2-2.6,7.9c-0.4,1.3,0.5,2.7,1.7,2.8c2,0.4,3.5-0.4,3.8-2c0.1-0.5,0.1-1.2,0.1-1.7c0.1-0.8,0.5-1.9,0.9-3.2
		c0.3-0.7,0.5-1.3,0.7-2c2-5.4,5.1-12.6,6.2-14.9c0.3-0.4,0.3-0.7,0.5-0.9c0.1,0,0.4-0.1,0.5-0.1c2.2-0.4,4.2-1.3,6.5-0.5
		c0.7,0.3,1.6-0.1,1.9-0.8C250.3,109.5,250.1,108,249.1,106.6z"/>
	<path fill="#FF8352" d="M82.2,132c-0.9,0.3-7.3,2-10.8,2.4c-0.5,0.1-0.9,0-1.7,0c0.4-1.1,0.5-2.2,1.1-3c1.5-2.8,4.7-8.6,6.3-11.4
		c0.5-0.9,1.3-1.9,2-2.8c0.1-0.3,0.5-0.8,0.4-1.3c-0.3-1.9-0.3-3.2-0.9-5c-0.4-1.3-2.3-1.3-3,0c-0.8,1.5-1.7,3-2.6,4.4
		c-2.8,5-7.5,12.8-8.9,18.4c-0.5,2.4-0.1,4.2,1.9,5c0.4,0.1,0.9,0.3,1.3,0.4c1.6,0.4,4.2,0.5,10.4-0.5c6.5-1.2,5.8-1.5,6.1-2.2l0,0
		c0.4-0.7,0.7-2.4,0.5-3.6C84.2,131.6,83.2,131.6,82.2,132z"/>
	<path fill="#FF8352" d="M100.1,112.4c0.1-0.1,0.1-0.5,0-0.7c-0.7-1.1-1.6-1.9-2.8-1.9c-1.2,0-2.3,0.3-2.8,1.5
		c-0.3,0.7-0.7,1.2-0.9,1.7c-1.9,4.4-2.6,6.2-4.4,10.8c-0.9,2.2-1.9,4.3-2.7,6.5c-0.4,1.1,0,1.7,1.1,2.2c0.5,0.1,1.1,0.3,1.6,0.4
		c1.5,0.1,2.3-0.7,2.8-1.9c1.5-3.5,3.1-7,4.7-10.5C98.1,116.8,98.5,116,100.1,112.4z"/>
	<path fill="#FF8352" d="M36.7,113.4c-0.4-1.1-1.2-2-1.9-3c-0.4-0.7-1.1-0.9-1.9-0.4c-1.5,0.9-3.1,1.7-4.3,2.8
		c-3.2,2.8-6.2,5.7-9.3,8.6c-0.9,0.9-2,1.9-3,2.8l0,0c0-1.2,0-2.4,0-3.5c0-1.1,0.4-2.3,0-3.1c-0.7-1.5-1.7-2.7-3-3.9
		c-0.7-0.9-1.9-0.4-2.2,0.7c0,0.1-0.3,0.4-0.3,0.5c-2.2-1.1-3.1-0.7-3.9,1.5c0,0.1-0.1,0.4-0.3,0.5c-2.2,4.7-4.3,9.3-6.3,14
		c-0.4,0.8-0.7,2-0.4,2.7c0.4,0.8,1.1,1.3,1.9,1.9c0.4,0.3,0.9,0.3,1.3,0c0.7-0.4,1.3-0.9,1.7-1.5c1.2-1.6,2.3-3.5,3.5-5.2
		c0.7-1.1,1.5-2.2,2.4-3.4c0.1,0.4,0.1,0.5,0.1,0.7c-0.3,2.4,1.1,4,2.8,5.5c0.3,0.3,0.9,0.4,1.3,0.3c1.1-0.5,2.3-1.1,3.2-2
		c2.4-2.3,4.7-4.6,7-7c0.4-0.4,0.8-0.9,1.2-1.3l0.1,0.1c-1.3,2.8-2.7,5.8-3.9,8.7c-0.9,2.7-2.3,5.2-3.6,7.7c-0.8,1.6-0.8,3,0.1,4.3
		c0.7,1.1,2.3,1.7,3.4,1.1c0.7-0.4,1.2-1.2,1.5-1.9c1.5-3.4,2.7-6.7,4.3-10c2.6-5.5,5.2-10.9,7.8-16.3C36.7,114.9,37,114,36.7,113.4
		z"/>
	<path fill="#FF8352" d="M52.1,111c-0.7,0.1-1.5,0.4-2,0.8c-4.4,3.2-8.1,7.4-11.6,11.7c-0.7,0.8-1.1,1.6-2.2,1.3
		c-0.1,0-0.4,0.1-0.7,0.3c-1.6,1.1-2,3.2-0.9,4.8c-1.5,2-2.8,3.9-4.3,5.9c-0.5,0.7-0.7,1.3,0,1.9c1.3,1.1,4.4,0.9,5.4-0.5
		c1.3-2,2.6-4,3.9-6.2c0.4-0.5,0.8-1.5,1.2-1.5c1.9-0.3,3.9-0.3,6.2-0.4c-0.4,1.3-0.8,2.3-1.1,3.4c-0.3,1.1-0.7,2.3-0.8,3.4
		c-0.1,0.9,0.5,1.7,1.3,1.9c1.3,0.3,2.7,0.4,4,0.3c0.5,0,1.3-1.1,1.2-1.6c-0.5-2.7,0.5-5.1,1.2-7.7c0.7-3.1,1.7-6.1,2.3-9.3
		c0.4-2.4,0.8-5-0.7-7.4C53.8,111.4,53.1,110.7,52.1,111z M49.4,118.8c-0.1,0.3-0.7,3.5-1.1,5.2c-0.1,0.3-0.4,0.4-0.7,0.4
		c-1.3,0-2.6,0-3.9,0l5.5-5.7C49.2,118.5,49.4,118.4,49.4,118.8z"/>
	<path fill="#FF8352" d="M68.5,113.4c-0.1-0.1-0.3-0.3-0.3-0.4c-1.7-1.7-4-1.5-5.2,0.7c-0.3,0.5-0.5,1.2-0.8,1.7
		c-2.6,6.2-5,12.4-7.5,18.6c-0.1,0.3,0,0.7,0.1,0.8c1.1,1.5,3.8,1.5,4.7,0c0.5-0.8,1.1-1.9,1.5-2.8c1.7-4.2,3.5-8.3,5.2-12.5
		c0.7-1.6,2.3-5.1,2.4-5.5C68.8,113.7,68.5,113.4,68.5,113.4z"/>
	<path fill="#FF8352" d="M221.5,113.2c-0.5-2-1.6-2.4-2.6-2.4h-0.1h-0.1c-1.3,0.1-2.7,0.1-4,0.5c-3.2,1.1-6.5,2.3-9,3.2
		c-3.4,1.3-5.9,2.7-8.1,4.3c-1.2,0.9-2,2.4-2,3.9h-0.1l0.1,0.8c0,0,0,0,0,0.1l0,0v0.1c0.3,1.1,0.8,2,1.7,2.6c1.1,0.8,3,1.6,5.9,2.6
		c1.3,0.4,2.8,0.7,4.4,0.9c1.1,0.1,2.2,0.3,3.1,0.5c-1.6,0.9-3.4,1.5-5,1.9l-0.4,0.1c-2.8,0.7-2.8,0.7-5.9,0.8h-0.3
		c-0.3,0-0.7,0-0.9,0c-2,0-3.5-0.1-5-0.7h-0.1c-0.8-0.3-1.9-0.4-2.7,0.1c-0.4,0.3-0.5,0.7-0.4,1.1c0.3,1.2,0.8,2.8,2.4,3.5
		c0.8,0.4,1.7,0.5,2.6,0.7c0.4,0,0.9,0.1,1.3,0.1c1.3,0.1,2.6,0.4,3.9,0.4c0.1,0,0.4,0,0.5,0c0.7,0,1.2,0,1.7,0
		c2.3-0.1,2.8-0.1,5.9-1.1c2.3-0.7,5.1-1.9,7.5-4.4c1.6-1.7,1.3-2.4,0.4-4.2l-0.1-0.3c-0.9-1.7-2.6-2.3-4.2-2.6
		c-1.7-0.4-3.1-0.7-4.3-0.8c-1.3-0.3-2.7-0.4-4.6-0.9c-0.5-0.1-1.1-0.4-1.7-0.7c-0.1-0.1-0.3-0.1-0.4-0.3c3.5-2.4,7.4-3.6,11.2-4.8
		c0.7-0.3,1.3-0.4,2-0.7c0,0.5-0.1,0.8-0.1,1.5c0,1.2,0.3,2.8,2.3,2.8h0.1c1.2,0,2.8-1.1,3-1.5c0.1-0.3,0.1-0.4,0.3-0.7
		c0.1-0.3,0.1-0.5,0.3-0.7c0.1-0.3,0.3-0.7,0.3-0.9c0.3-0.7,0.4-1.3,0.8-1.7C221.6,115,221.7,114.2,221.5,113.2z"/>
	<path fill="#FF8352" d="M123,113.3c-0.4,0.9-0.8,1.7-1.3,2.6c-1.7,3.1-3.5,6.2-5.2,9.1c-0.9,1.6-2,3.2-3.1,4.8c-0.1,0-0.1,0-0.3,0
		c-0.5-3-1.3-6.1-1.6-9c-0.3-2.8-1.1-5.2-3.2-7.1c-0.7-0.7-1.6-1.2-2.3-0.5c-1.3,1.2-2.7,2.7-3.9,4.2c-0.7,0.7-0.9,1.6-1.5,2.6
		c-2.7,5-4.6,10.4-6.2,15.7c-0.1,0.5,0,1.5,0.3,1.9c1.5,1.6,3.9,1.1,4.8-0.9c0.8-1.6,1.3-3.4,2.3-5c1.5-2.6,3-5.1,4.7-7.9
		c0.3,0.5,0.3,0.8,0.4,1.1c0.8,2.8,1.6,5.7,2.6,8.3c1.2,3.1,5.2,3.5,7.1,0.9c2.3-3.5,4.4-7,6.6-10.6c1.5-2.6,3-5.2,4.4-7.8
		c0.8-1.2,0.3-2.2-0.5-3.1C125.1,110.2,124.3,110.5,123,113.3z"/>
	<path fill="#FF8352" d="M187.7,130.9c1.2-2.7,2.3-5.5,3.5-8.2c1.6-3.4,3.2-6.7,4.8-10.1c0.1-0.3,0.1-0.8,0-1.1
		c-0.5-1.3-1.7-2.3-3.1-3c-1.2-0.7-2-0.1-2.4,1.3c-0.5,1.9-1.1,3.8-2,5.5c-2.4,4.4-4.6,8.7-4.7,13.6c0.1,0.4,0.3,0.8,0.3,1.2
		c0.1,1.5,0.7,2.2,1.9,2.4C187.2,132.7,187.3,131.6,187.7,130.9z"/>
	<path fill="#FF8352" d="M150.8,121.2c-0.7-0.1-1.2-0.3-1.9-0.3c-3,0-5.9,0.1-8.7,0.3c-1.9,0-2,0.1-2.6,2c0,0.1,0,0.1,0,0.3
		c-0.5,1.7,0.1,2.6,2,2.6c1.2,0,2.6-0.1,3.8-0.1c1.1,0,1.1,0.4,0.9,0.5c-1.7,1.5-3.5,2.8-5.2,4.3c-2.2,1.7-4.6,3-7.3,3.8
		c-0.9,0.3-1.6,0-1.7-0.9c-0.1-1.2-0.4-2.4-0.1-3.5c1.1-4.6,3.5-8.5,6.6-12c1.3-1.6,2.8-3.1,5-3.6c1.6-0.4,2.6,0.1,3,1.7
		c0.1,0.4,0.4,0.9,0.7,1.1c3,0.8,4.3,0.7,5.2-2.4c0.1-0.3,0.5-2.4,0.3-4.4c-0.3-1.5-1.5-2-2.7-1.1c-0.4,0.3-0.7,0.7-1.1,0.9
		c-0.3,0.1-0.7,0.3-0.8,0.1c-1.7-1.2-3.8-0.8-5.7-0.5c-2.2,0.3-4,1.2-5.7,2.6c-4.2,3.5-7.1,7.9-9,13.1c-1.2,3.1-1.5,6.1-0.4,9.3
		c0.8,2.3,3.5,4.7,6.2,4.7c2.7,0,5.1-0.7,7.4-1.9c1.6-0.9,3.1-2.3,4.4-3.5c2.7-2.6,5.2-5.2,7.8-7.9c1.1-1.1,1.2-3.2,0.4-4.6
		C151.2,121.4,151,121.2,150.8,121.2z"/>
	<path fill="#FF8352" d="M179,128.2c-1.1,0.4-2.3,0.7-3.5,0.9c-4.2,1.2-6.7,1.9-10.9,3.2c0-0.1-0.1-0.1-0.1-0.1c0.7-1.6,1.2-3.4,2-5
		c0.8-1.7,1.9-3.4,2.7-5.1c1.1-2.4,3.4-6.5,5-8.5c0.5-0.8,1.2-1.6,1.1-2.7c-0.3-1.1-0.4-2.2-0.8-3.1c-0.3-0.7-1.1-1.2-1.7-1.3
		c-0.4-0.1-1.2,0.7-1.5,1.1c-2.3,3.8-4.6,7.5-6.9,11.3c-2.4,4.2-5,10.4-5.9,15.1c-0.5,2.6,0.1,3.8,2.7,4.4c0.4,0.1,0.9,0,1.3,0
		c3.2-0.8,6.6-1.3,9.8-2.3c3.1-0.8,4.7-1.5,7.8-2.4c0.1,0,0.1,0,0.3,0c0.8-0.1,1.5-0.7,1.6-1.5c0-0.9-0.1-1.9-0.5-2.7
		C180.8,128.4,180,127.8,179,128.2z"/>
</g>
</svg>
