<?xml version="1.0" encoding="utf-8"?>
<!-- Generator: Adobe Illustrator 18.0.0, SVG Export Plug-In . SVG Version: 6.00 Build 0)  -->
<!DOCTYPE svg PUBLIC "-//W3C//DTD SVG 1.1//EN" "http://www.w3.org/Graphics/SVG/1.1/DTD/svg11.dtd">
<svg version="1.1" id="Layer_1" xmlns="http://www.w3.org/2000/svg" xmlns:xlink="http://www.w3.org/1999/xlink" x="0px" y="0px"
	 viewBox="0 95.1 250 59.8" enable-background="new 0 95.1 250 59.8" xml:space="preserve">
<g>
	<path fill="#FF8352" d="M85.4,101.6c-0.6,0-1.4,0.4-1.6,0.8c-0.8,1.2-1.4,2.3-1.8,3.5c-1.4,4.1-2.5,8-4.3,12.1
		c-2,4.7-4.5,9.2-6.8,13.7c-1.2,2.1-2.3,4.1-3.9,6.6c-0.2-0.6-0.2-0.8-0.2-1c0.4-6.6,1-13.1,1.4-19.7c0-0.8-0.4-2-1.2-2.3
		c-1.4-1-2.9-1.6-4.5-2.1c-0.6-0.2-1.8,0-2.1,0.6c-2.3,3.3-4.5,6.6-6.8,10c-1.2,1.6-2.3,3.3-3.3,4.9c-0.2,0-0.2-0.2-0.4-0.2
		c0-0.6,0.2-1,0.2-1.6c0.8-2.9,0.8-2.9,1.6-6.1c1-3.7-0.8-6.6-4.5-7.4c-1.2-0.2-2.3,0-2.5,1.6c-0.6,2.7-1.4,5.3-2,8
		c-1.4,5.3-2.1,7.6-3.1,13.1c-0.8,3.5-1,7.2-1.8,10.7c-0.4,1.6,0,2.3,1.4,2.9c2.1,0.8,7-0.8,8.4-3.1c1.4-2.1,2.5-4.5,3.9-6.6
		c2.5-4.1,5.3-8.2,7.8-12.1c0.2,0,0.4,0.2,0.8,0.2c-0.2,2.3-0.4,4.7-0.8,6.8c-0.4,3.9-0.6,7.8-1.6,11.7c-0.6,2.7,1.2,5.3,3.3,5.3
		c1.8,0,3.5-0.4,5.3-1c0.8-0.2,1.8-1,2.1-1.8c3.3-5.7,7-11.1,10-17c3.9-7.8,7.4-15.6,10.9-23.6C91,104.9,89.1,101.8,85.4,101.6z"/>
	<path fill="#FF8352" d="M97.5,115.2c-1.2-0.6-2.7-1-4.1-1.2c-2.3-0.2-3.3,1.2-3.3,3.3c0,0.6,0,1.2-0.2,1.8
		c-2,5.7-4.9,13.5-6.6,19.1c-0.8,2.5-1.6,5.1-2.1,7.6c0,2,0.4,3.5,1.6,4.9c0.8,0.8,1.4,1,2,0.2c1-1.2,2.3-2.1,2.9-3.5
		c4.1-8.8,8.4-20.1,10.9-29.5C99,117,98.4,115.8,97.5,115.2z"/>
	<path fill="#FF8352" d="M38.5,111.5c4.1-2,8-3.7,12.3-5.3c1.8-0.6,3.5-1.2,5.3-1.4c2.3-0.2,2.5-0.4,2-2.7c-0.8-3.3-3.7-5.7-7-4.1
		c-2.1,1-4.1,2.1-6.2,2.9c-10.4,4.3-20.9,8.4-31.2,12.7c-3.9,1.6-7.8,3.3-11.5,5.1c-2.3,1.2-2.5,2.9-1,4.9c1.2,1.4,2.7,1.6,4.1,1
		c3.7-1.4,7.2-2.9,10.9-4.5c2.7-1.2,5.7-2.1,8.4-3.3c0.2,0.2,0.4,0.4,0.4,0.4c-1,2.3-2,4.7-2.9,7c-2.7,6.2-5.9,12.1-7.2,18.8
		c-0.2,0.8-0.8,1.6-1.2,2.5c-0.2,0.8-0.4,1.8-0.2,2.5c0.2,1,1,1.8,1.6,2.5c1.2,1.6,5.7,2,7,0.8c0.4-0.2,0.6-0.8,0.8-1.2
		c0.2-2.1,2-3.7,1.6-5.9c0-0.2,0-0.4,0.2-0.6c0.8-2.7,1.6-5.5,2.5-8c1.2-2.9,2.3-5.7,3.7-8.4c2-4.1,3.7-8.2,5.7-12.3
		c0.2-0.6,0.4-1.2,0.6-1.8C37.5,112.9,37.9,111.9,38.5,111.5z"/>
	<path fill="#FF8352" d="M160.9,113.5c2.9-1,5.5-1.8,8.2-2.5c3.9-1,5.7-2.9,5.7-6.6s-1.6-4.9-4.9-3.5c-3.3,1.2-6.6,2.7-10,3.9
		c-6.2,2.1-12.5,4.3-18.9,6.1c-3.1,1-2.1,0.4-5.5,1.2c-1.6,0.4-2.9,1.8-3.5,3.5c-0.4,1.8,1.4,2.3,2.7,3.3c2.3,1.6,3.7,1.4,6.2,0.4
		c2.1-0.8,0,0,2.1-0.8c1.6-0.6,3.1-1,4.9-1.4c-0.2,0.6-0.2,1-0.2,1.2c-1,2.5-2,5.1-2.9,7.6c-2.3,6.8-4.7,13.9-7.2,20.9
		c-0.6,1.6-0.2,2.9,1.4,3.7c3.3,1.8,8.6-1.2,9.4-5.1c0.6-3.3,1.4-6.6,2.3-10c0.8-2.9,2.1-5.7,3.3-8.4c1.6-3.7,3.3-7.4,5.1-11.1
		C159.6,114.8,160.2,113.9,160.9,113.5z"/>
	<path fill="#FF8352" d="M233.4,119.9c0.8-0.2,1.6-0.8,2.3-1.4c4.9-2.9,9.6-5.9,13.3-10.2c0.4-0.4,0.8-1.2,0.6-1.6
		c-0.8-2.3-2.1-4.3-4.5-5.3c-4.5-2-9.2-2.3-14.1-1.6c-2.9,0.4-6.1,0.4-9,0.4c-1.2,0-2.3-0.2-3.3,1c-0.6,0.6-1.6,0.8-2.3,1
		c-1.6,0.4-3.3,0.6-4.9,1c-2.1,0.4-3.7,2.5-3.1,3.9c0.6,1.6,3.7,3.3,5.3,2.9c0.4-0.2,1,0,1.8,0c-1.4,4.1-2.5,7.8-3.9,11.7
		c-0.2,0.4-0.6,0.6-0.8,0.8c-1.2,1-2.3,1.8-3.3,2.7c-1.6,2-1.4,2.5,0.8,3.5c1.2,0.6,1.4,1.2,1,2.1c-0.8,2.5-1.6,4.9-2.3,7.4
		c-0.8,2.1-0.4,3.3,1.8,3.9c1.4,0.4,2.7,0.6,4.3,0.6c0.8,0,2-0.6,2.3-1.4c0.6-0.8,0.4-2,0.8-2.9c1-3.1,2.3-6.2,2.9-9.4
		c0.6-3.1,2.5-4.1,5.3-4.9c0.2,0.6,0.4,1.2,0.6,1.8c1.4,4.3,3.1,8.4,5.9,11.9c2.5,3.5,5.7,6.4,8.6,9.2c1.2,1.2,2.1,2,3.7,1.8
		c1.8-0.2,3.7-0.6,5.3-1c0.6-0.2,1.6-1.2,1.6-1.8s-0.8-1.4-1.4-2c-0.6-0.4-1.2-0.8-1.6-1.2c-4.7-4.1-11.7-9.8-14.8-20.5
		C232,121.9,231.8,120.3,233.4,119.9z M223,117.2c-0.2-0.2-0.2-0.2-0.4-0.4c0.6-1.6,1.2-3.3,1.6-4.9c0.2-0.4,0.4-0.8,0.4-1.4
		c0.6-2.7,0.6-2.9,3.3-3.1c3.9-0.4,7.8-0.6,11.9-1c0,0.2,0.2,0.4,0.2,0.4C235.2,111.5,229.1,114.3,223,117.2z"/>
	<path fill="#FF8352" d="M205.7,106.8c0.2-2-1.8-3.5-3.7-2.9c-1.4,0.4-3.1,0.6-9.2,2.3c-8.6,2.7-14.1,4.5-22.7,7
		c-2.1,0.6-2.9,2.1-3.7,3.9c-0.6,1.6,0.2,3.3,1.8,3.5c1.2,0.2,2.5,0,3.9-0.4c2-0.6,1.2-0.4,3.1-1.2c0,0.2,0.2,0.2,0.2,0.4
		c-1.2,2.3-2,3.3-3.1,5.7c-0.6,1-1.2,1.8-2.3,2.1c-3.1,1-3.7,2.5-3.3,5.7c0.2,1.6,1,2.1,1,2.5c-1,2.9-2.3,8.4-2,11.5
		c0,0.6,0.4,1.6,0.8,1.8c2.7,1.4,5.9,2.3,8.8,1.6c2.7-0.8,5.5-2.1,8-3.5c4.5-2.5,6.1-3.1,11.1-4.5c0.8-0.2,1.6-0.4,2-1
		c1.4-2,2-4.1,1-6.4c-0.2-0.6-1.2-1-1.8-1c-1.2,0.2-2.5,0.8-3.7,1.4c-4.7,2-6.1,2.7-10.9,4.7c-2.5,1-4.5,2.3-7.4,2.1
		c0-0.8,1.8-5.9,2.3-7.2c0.4-0.6,1-1.4,1.6-1.6c4.5-1.6,8-2.9,12.5-4.3c3.1-1,4.5-1.4,7.6-1.6c1.8-0.2,2.5-1,3.1-2.3
		c0.2-0.6,0.2-0.6,0.4-1.2c0.6-1.6-0.4-3.7-2-4.1c-3.1-1-4.1,0.2-6.8,1c-3.3,1-6.4,2.1-10.2,3.5c0.4-2,2.1-5.7,2.5-7
		c0.4-1.2,1.2-1.8,2.1-2c5.1-1.4,12.5-3.7,14.8-3.9c2-0.2,2.7-1.2,3.1-2.5C205.3,108,205.5,108.2,205.7,106.8z"/>
	<path fill="#FF8352" d="M142,105.7c1.6-3.9-1.2-5.9-4.1-5.3c-2.3,0.4-4.5,0.8-6.8,1.6c-6.8,2-13.9,3.9-20.7,5.9
		c-6.4,1.8-2.7,0-9.2,1.6c-1.4,0.4-2,1.8-2,3.1c0,1.4,1.8,3.7,2.7,4.3c2.5,1.4,3.3,1.2,6.6,0c4.9-1.8-0.4,0.2,4.9-1.6
		c-0.8,2.1-1.6,3.9-2.1,5.9c-1.6,5.1-2.9,10-4.5,15c-0.8,2.3-1.6,4.7-2.1,7.2c-0.6,2.3,1,3.7,3.1,2.9c1.4-0.4,2.7-0.8,3.9-1.6
		c1.2-0.8,2.5-1.8,2.7-2.9c1.2-3.7,2-7.6,2.7-11.3c1.2-5.7,3.5-11.1,5.7-16.6c0.2-0.4,0.8-0.6,1.2-0.8c4.1-1,8-2,12.1-2.7
		C139.6,109.6,140.8,109,142,105.7z"/>
</g>
</svg>
