<?xml version="1.0" encoding="utf-8"?>
<!-- Generator: Adobe Illustrator 18.0.0, SVG Export Plug-In . SVG Version: 6.00 Build 0)  -->
<!DOCTYPE svg PUBLIC "-//W3C//DTD SVG 1.1//EN" "http://www.w3.org/Graphics/SVG/1.1/DTD/svg11.dtd">
<svg version="1.1" id="Layer_1" xmlns="http://www.w3.org/2000/svg" xmlns:xlink="http://www.w3.org/1999/xlink" x="0px" y="0px"
	 viewBox="1.5 56.1 125 17.1" enable-background="new 1.5 56.1 125 17.1" xml:space="preserve">
<g>
	<path fill="#A456FF" d="M15.6,60c0.3-0.6,0.3-1.1-0.1-1.6c-0.3-0.5-0.7-0.8-1.3-0.7c-0.8,0.2-2.3,0.6-3.2,0.8
		c-1.1,0.4-2.2,0.8-3.3,1.3c-0.3,0.1-0.6,0.1-1-0.1c-0.5-0.3-0.9-0.2-1.1,0.2c-0.2,0.7-0.7,1-1.4,1.1c-0.6,0.2-1.1,0.4-1.8,0.7
		c-0.4,0.1-0.7,0.4-0.5,0.9c0.3,0.8,0.7,1.5,1.7,1.5c-0.1,0.3-0.1,0.4-0.2,0.6c-0.2,0.6-0.4,1.1-1.1,1.4C2.2,66.2,2,66.6,2.1,67
		c0.1,0.4,0.3,0.8,0.3,1.1c-0.1,0.7-0.2,1.5-0.4,2.2c-0.2,0.8,0.8,2,1.6,1.9c0.8,0,1.6-0.3,2.4-0.7c2.1-0.9,4.2-1.6,6.3-2.4
		c0.5-0.2,0.8-0.5,0.8-0.9c0-0.4-0.7-1.5-1-1.6c-0.1,0-0.1,0-0.1,0c-0.5,0.1-1.1,0.1-1.5,0.3c-0.9,0.3-1.8,0.7-2.6,1
		c-1.1,0.5-2.2,1-3.3,1.5c-0.1-0.1-0.1-0.1-0.1-0.1c0.2-0.5,0.4-1,0.5-1.5c0.1-0.5,0.4-0.7,0.8-0.8c2.3-0.6,4.4-1.5,6.5-2.4
		c0.4-0.2,0.6-0.6,0.4-1c-0.2-0.4-0.4-0.7-0.6-1.1c-0.1-0.3-0.3-0.3-0.7-0.2c-1.5,0.6-2.8,1.1-4.2,1.7c-0.2,0.1-0.5,0.1-0.8,0.2
		c0.2-0.5,0.3-0.8,0.5-1.1c0.3-0.5,0.5-1,1.1-1.1c1.5-0.5,3.5-1.2,4.9-1.8c0.3-0.1,0.7-0.3,0.8,0.2c0,0.1,0.1,0.1,0.2,0.1
		C14.7,60.6,15.3,60.6,15.6,60z"/>
	<path fill="#A456FF" d="M28.8,59.8c0.1-0.6-0.1-1.1-0.5-1.5c-0.4-0.4-0.7-0.4-1.1,0c-1.9,2-3.8,4.1-5.7,6.1
		c-0.2,0.2-0.4,0.4-0.7,0.6c-0.1,0-0.1-0.1-0.1-0.1c0-0.5,0-1,0-1.5c0-0.8,0-1.8-0.1-2.6c-0.1-0.8-1.1-1.2-1.8-0.7
		c-0.5,0.3-0.8,0.8-1.3,1.1c-1-0.3-1.2-0.2-1.5,0.8c-0.6,1.5-1.1,3.2-1.7,4.8c-0.1,0.1,0,0.3,0.1,0.4c0.1,0.2,0.4,0.4,0.5,0.5
		c0.4,0.4,1.1,0.3,1.3-0.2c0.7-1.1,1.3-2.3,2-3.4c0.1-0.1,0.2-0.2,0.3-0.4c0.1,0.4,0.1,0.7,0.1,0.9c0.1,0.6,0.1,1.1,0.3,1.8
		c0.1,0.3,0.1,0.7,0.4,1c0.5,0.5,1.5,0.5,2.1-0.1c0.5-0.5,1-1,1.5-1.5c0.5-0.5,0.8-0.9,1.2-1.4c-0.1,0.4-0.2,0.7-0.3,1.1
		c-0.5,1.3-1.1,2.5-1.6,3.8c-0.3,1-0.1,1.5,0.8,1.9c0.5,0.3,0.9,0.2,1.1-0.2c0.5-1.2,1.1-2.5,1.6-3.8c0.8-1.8,1.6-3.7,2.4-5.5
		C28.4,61.2,28.7,60.6,28.8,59.8z"/>
	<path fill="#A456FF" d="M36.6,58.5c-0.7-0.6-1.1-0.7-1.9-0.1l-0.1,0.1c-1,0.1-1.5,0.8-2,1.5c-1.5,2-3,4-4.4,6
		c-0.6,0.8-1.1,1.6-1.5,2.4c-0.2,0.3-0.4,0.7,0,1.1c0.4,0.3,0.8,0.5,1.4,0.3c0.1-0.1,0.2-0.1,0.3-0.1c0.4,0,0.5-0.2,0.7-0.5
		c0.1-0.5,0.5-0.9,1.1-1c1.1-0.2,2.1-0.5,3.2-0.7c0.4-0.1,0.7-0.1,1.2-0.2c-0.1,1.5-0.1,3-0.3,4.4c-0.1,0.7,0,0.8,0.6,1.1
		c0.9,0.5,1.8-0.1,1.8-1.1c0.1-3.4,0.4-6.7,0.7-10.1c0.1-1.1-0.3-2.1-0.5-3C36.8,58.6,36.7,58.6,36.6,58.5z M34.6,65.1
		c0,0.1-0.1,0.2-0.3,0.2c-0.9,0.3-1.9,0.5-2.8,0.7c-0.1,0-0.1,0-0.3-0.1c1.1-1.5,2.3-2.8,3.4-4.1c0.1,0,0.1,0.1,0.2,0.1
		C34.7,62.9,34.6,64,34.6,65.1z"/>
	<path fill="#A456FF" d="M55.7,68.1c0-0.2-0.2-0.4-0.3-0.5c-0.3-0.1-0.7-0.1-1.1-0.1c-1.1,0.2-1.8,0.5-3,0.6
		c-1.5,0.1-3.1,0.4-4.9,0.5c0.2-0.5,0.4-0.8,0.5-1.1c1.1-2.4,2.3-4.9,3.5-7.2c0.3-0.7,0.3-1.4,0-2c-0.1-0.3-0.5-0.7-0.8-0.8
		c-0.5-0.1-0.7,0.3-0.8,0.7c-0.3,0.7-0.6,1.5-0.9,2.2c-1.2,2.6-2.5,5.3-3.8,7.9c-0.2,0.4-0.4,0.7-0.8,0.7c-0.5,0.1-0.8,0.8-0.7,1.5
		c0.1,0.5,0.3,0.7,0.9,0.7c0.8-0.1,1.8-0.1,2.6-0.2c1.8-0.1,3.6-0.3,5.3-0.5c1.1-0.1,1.8-0.2,2.8-0.3C55.3,70,55.8,69.3,55.7,68.1z"
		/>
	<path fill="#A456FF" d="M44,59.9c0.1-0.2,0.2-0.5,0.1-0.6c-0.3-0.7-0.5-1.2-1.1-1.7c-0.4-0.3-0.7-0.3-1,0c-0.3,0.5-0.7,1-0.8,1.5
		c-0.5,1.5-1,3-1.5,4.5c-0.6,2-1.1,4-1.6,5.9c0.1,0,0.1,0,0.1,0.1c-0.1,0.6,0.5,1.2,1.1,1.3c0.7,0.1,1.5-0.3,1.5-0.9
		c0.6-2.4,0.8-4.8,1.8-7.1C42.9,62,43.4,61,44,59.9z"/>
</g>
</svg>
