<?xml version="1.0" encoding="utf-8"?>
<!-- Generator: Adobe Illustrator 18.0.0, SVG Export Plug-In . SVG Version: 6.00 Build 0)  -->
<!DOCTYPE svg PUBLIC "-//W3C//DTD SVG 1.1//EN" "http://www.w3.org/Graphics/SVG/1.1/DTD/svg11.dtd">
<svg version="1.1" id="Layer_1" xmlns="http://www.w3.org/2000/svg" xmlns:xlink="http://www.w3.org/1999/xlink" x="0px" y="0px"
	 viewBox="0 54 128 20" enable-background="new 0 54 128 20" xml:space="preserve">
<g>
	<path fill="#A456FF" d="M57.2,65.2c-0.4-0.8-0.8-1.4-1.6-1.6c-0.5-0.2-1.2-0.1-1.8-0.3c0.3-0.1,0.4-0.3,0.5-0.3
		c1.1-0.8,2.1-1.6,3.2-2.3c0.3-0.3,0.4-0.5,0.2-0.8c-0.2-0.4-0.4-0.8-0.5-1.1c-0.2-0.5-0.5-0.8-1.1-0.8c-1.4-0.1-3,0.1-4.4,0.5
		c-0.5-0.1-0.6-0.1-1.2-0.3c-0.3-0.1-0.5,0-0.8,0.3c-0.3,0.5-0.7,0.9-1.2,1.2c-0.3,0.1-0.3,0.3-0.3,0.8c0.1,0.7,0.3,1.4,0.3,1.4
		s-1,2.6-1.5,3.7c-0.3,0.8-0.7,1.7-1,2.5c-0.3,0.7-0.3,0.7-1,0.5c-0.3-0.1-0.7-0.1-1-0.1c-0.1,0-0.4,0.2-0.4,0.3
		c-0.1,0.8,0.5,1.8,1.4,1.9c1.4,0.3,2.7,0.2,4.1-0.1c1.2-0.3,2.5-0.6,3.7-1c1.5-0.5,2.9-1,4.1-1.9c0.6-0.5,1-1,0.6-1.7
		C57.4,65.6,57.3,65.4,57.2,65.2z M53.2,60.7c0,0.1-0.8,0.9-2.5,1.5c0.1-0.4,0.4-0.9,0.4-0.9C51.5,61.1,52.1,61,53.2,60.7z
		 M48.5,68.5c0.4-1.1,0.7-2.1,1-3c0.1-0.4,0.4-0.4,0.7-0.4c1.7,0,4.5,0.6,4.9,1C53.1,67.5,50.8,68.1,48.5,68.5z M45.3,66.5
		c0.2-0.4-0.2-1.3-0.5-1.5c-0.5-0.3-1.1-0.3-1.5,0.1c-0.2,0.2-0.4,0.3-0.6,0.4c-1.2,0.6-2.5,1.2-3.7,1.9c-0.4,0.2-0.8,0.3-1.3,0.4
		c-0.1-0.1-0.1-0.1-0.1-0.1c0.2-0.6,0.9-2.1,1.2-2.6c0,0,0.3-0.2,0.5-0.3c1-0.3,2-0.6,2.9-1c0.8-0.3,1.7-0.7,2.7-0.8
		c0.1,0,0.4-0.2,0.4-0.3c0.1-0.4,0.2-0.8,0.1-1c-0.1-0.8-0.5-1.3-1.4-1c-0.1,0.1-0.3,0.1-0.4,0.1c-1,0.4-2.1,0.8-3.3,1.1
		c0.3-0.4,0.5-0.8,0.6-1.1c0.2-0.4,0.5-0.6,0.9-0.8c1-0.3,2-0.8,3-1c0.8-0.3,1.5-0.5,2.3-0.1c0.5,0.3,1-0.2,0.9-0.8
		c0-0.2-0.1-0.4-0.1-0.7c-0.1-0.8-0.4-1-1.2-1c-0.3,0-0.4,0-0.7,0.1c-1,0.3-1.9,0.5-2.9,0.8c-0.6,0.2-0.8,0.1-1.3-0.4
		c-0.4-0.4-0.8-0.4-1-0.4c-0.7,0.3-0.8,0.8-1,1.5c-0.3,0.4-0.5,0.6-1,0.8c-1.2,0.3-1.6,0.5-2.8,0.8c-0.3,0.1-0.5,0.2-0.6,0.3
		c-0.3,0.3-0.2,1.2,0.1,1.5c0.4,0.5,0.8,0.5,1.4,0.4c0.4-0.1,0.3-0.1,0.8-0.3c-0.2,0.4-0.4,0.8-0.5,1c-0.2,0.4-0.4,0.6-0.8,0.8
		C36,63.5,35.8,64,36,64.6c0.1,0.2,0.1,0.5,0.1,0.5c-0.3,0.8-1,2.1-1.2,2.9c-0.2,0.7,0,1.3,0.4,1.7c0.8,0.8,2.1,0.8,3,0.2
		c0.1-0.1,0.1-0.1,0.2-0.1c2.1-0.9,4.1-1.9,6.2-2.9C45,66.9,45.2,66.7,45.3,66.5z M13.7,64.8c0.1-0.3,0.1-0.5,0-0.8
		c-0.1-0.5-0.5-1-1-1c-0.5,0-1.2,0-1.7,0.1c-1,0.1-2.1,0.1-3.2,0.3c0.3-0.7,0.5-1.2,0.8-1.9c0.2-0.5,0.4-0.5,0.8-0.5
		c1.1-0.1,2.2-0.3,3.3-0.4c1.2-0.1,2.5-0.2,3.6-0.3c0.2,0,0.3-0.2,0.4-0.3c0.3-0.6,0.1-1.1-0.2-1.6c-0.2-0.4-0.5-0.5-0.8-0.4
		c-1.8,0.1-3.6,0.4-5.4,0.6c-0.5,0.1-0.7,0.1-1.2-0.4c-0.5-0.5-1.3-0.4-1.6,0.3C7.2,58.8,7,58.9,6.5,59c-1.5,0.1-2.9,0.2-4.3,0.8
		c-0.4,0.2-0.8,0.5-1.2,0.8C0.8,60.7,1,61.6,1.2,62c0.3,0.4,0.7,0.5,1,0.6c0.3,0,0.6-0.1,0.8-0.3c0.6-0.5,1.4-0.7,2.9-0.8
		c-0.1,0.3-0.3,0.5-0.3,0.8c-0.3,0.8-0.6,1.4-0.6,1.4s-0.4,0.1-1,0.2C3.6,63.7,3,64,3,64.5s0.1,1,0.5,1.4c0.3,0.3,0.4,0.1,0.3,0.3
		c-0.3,0.6-1.2,2.6-1.4,3.2c-0.4,0.8-0.1,1.5,0.7,1.8c0.7,0.3,1.4-0.1,1.7-0.7c0.4-0.9,1.4-3.1,1.7-4c0.2-0.5,0.3-0.5,0.8-0.6
		c1,0,1.9-0.1,2.9-0.2c0.9-0.1,1.8-0.1,2.7-0.1C13.6,65.4,13.6,65.4,13.7,64.8z M34.8,63.3c-0.5-0.4-0.9,0-1.3,0.2
		c-0.7,0.4-1.4,1-1.9,1.5c-1.6,1.4-3.3,2.6-5.3,3.4c-0.2,0.1-0.8,0.3-0.8-0.3c0.4-2.2,1.4-4.4,2.6-6.2c0.5-0.7,1-1.2,1.9-1.5
		c-0.1,0.5-0.3,0.9-0.4,1.4c-0.1,0.8,0.1,1.1,0.9,1.2c0.4,0,0.8,0,1.2,0c0.2,0,0.4-0.2,0.4-0.4c0.4-1.1,0.8-2.2,1-3.4
		c0.1-0.6,0.1-0.8,0.1-1.4c-0.1-0.4-0.4-1-0.9-1.1c-0.4-0.1-0.8,0.1-0.9,0.5c-0.1,0.3-0.2,0.3-0.3,0.4c-0.5,0-1-0.1-1.4,0
		c-1.2,0.3-2.2,0.9-3,1.9c-1.2,1.5-2.9,4.1-3.6,8.6c-0.2,1.5,0.1,2.1,1.5,2.7c0.4,0.1,1.6,0.5,2.6,0c1.5-0.8,2.9-1.7,4.1-2.7
		c0.8-0.7,1.7-1.4,2.7-1.9c0.8-0.3,0.9-0.8,1-1.4C35.4,64.1,35.3,63.6,34.8,63.3z M21.9,63.6c0.1-1.4,0.3-2.6,0.4-3.8
		c0.1-0.4,0.1-0.8-0.3-1.1c-0.5-0.3-1.1-0.5-1.7-0.3c-0.4,0.2-0.7,0.5-1,0.8c-1.5,1.5-2.7,3.2-4,5c-0.4,0.7-0.7,1.5-1.5,1.9
		c-0.7,0.3-1,0.8-1,1.5c0,0.3,0.1,0.3,0,0.5c-0.3,0.5-0.8,1.2-1.2,1.6c-0.3,0.3-0.4,0.6-0.2,0.9c0.3,0.5,0.6,0.7,1.1,0.5
		c0.3-0.1,0.5-0.2,0.8-0.4c0.6-0.7,1.3-1.4,1.9-2.1c0.9-1.3,1-1.5,2-1.6c0.8-0.1,1.5-0.4,2.3-0.5c0,0.3,0,0.4-0.1,0.6
		c-0.1,0.9-0.2,1.9-0.2,2.8c0,0.6,0.4,1,1,1c0.4,0,0.8-0.1,1.2-0.2c0.5-0.2,0.5-0.7,0.3-1.2c-0.1-0.2-0.1-0.8-0.1-1
		c0.1-0.5,0.1-0.9,0.1-1.5c0.1-1.2,0.1-1.1,0.8-1.5c0.4-0.2,0.5-0.5,0.5-0.9C22.7,64.1,22.5,63.7,21.9,63.6z M19.7,64.1
		c0,0.1-0.1,0.3-0.2,0.3c-0.5,0.2-1,0.3-1.5,0.5c-0.1,0.1-0.2-0.1-0.1-0.2c0.6-0.8,1.3-1.5,1.9-2.3l0.1-0.3
		C19.8,62.7,19.7,63.6,19.7,64.1z M91.9,69.6c-1.6-1.1-3.9-2.7-5.1-4.4c-0.5-0.8-1.1-1.4-1.6-2.1c0.1-0.1,0.2-0.2,0.3-0.3
		c0.7-0.4,1.3-0.9,1.9-1.3c0.7-0.4,1.6-1.1,2.3-1.5c0.2-0.1,0.4-0.3,0.4-0.4c0.2-0.5,0.1-0.5,0.2-1c0.1-0.4-0.6-1.2-0.9-1.2
		c-0.3,0-0.6,0.1-0.8,0.3c-1,0.7-2,1.5-3,2.1c-0.5,0.4-1.1,0.5-1.7,0.9c0.3-1,0.6-2.2,0.8-3c0.2-0.7-0.6-0.6-1.3-0.8
		c-0.6-0.1-1.1-0.1-1.4,0.7c-0.5,1.5-1.2,3-1.6,4.5c-0.5,1.9-1,3.9-1.5,6c-0.1,0.2,0.1,0.5,0.3,0.5c0.5,0.2,1,0.3,1.5,0.3
		c0.4,0.1,0.7-0.3,0.8-0.6c0.1-0.4,0.3-0.8,0.3-1.1c0.2-0.8,0.3-1.7,0.5-2.5c0-0.1,0.1-0.3,0.2-0.5c0.1,0.2,0.2,0.3,0.3,0.3
		c1.2,1.7,2.5,3.3,4.1,4.5c0.8,0.7,2.5,1.8,3.4,2.3c0.5,0.3,1,0.4,1.6-0.1C92.6,70.6,92.6,70.1,91.9,69.6z M78.5,59.5
		c-0.2-0.2-0.3,0-0.4-0.3c-0.4-1.1-1.4-2.3-2.5-2.1c-0.6,0.1-1.3,0.3-1.9,0.6c-1.2,0.8-2.2,1.7-3,2.9c-1,1.5-1.9,3.1-1.9,4.9
		c-0.1,1.5,0.3,2.8,1.8,3.6c1,0.5,2,0.9,3.2,0.8c0.3-0.1,0.4-0.1,0.7-0.1c1.2-0.4,2.1-1.1,2.7-2.1c0.8-1.4,1.6-2.8,1.9-4.4
		c0.1-0.8,0.1-1.7,0.2-2.5C79.1,60.2,78.8,59.8,78.5,59.5z M75.5,65.3c-0.4,0.8-0.8,1.7-1.6,2.3c-0.6,0.5-1.3,0.5-1.9,0.4
		s-0.9-0.8-1-1.4c0-0.2,0-0.4,0-0.5c0-2.1,0.9-3.8,2.1-5.4c0.3-0.4,0.5-0.6,1-1c0.6-0.5,2.1-0.1,2.2,0.7
		C76.6,62.2,76.2,63.8,75.5,65.3z M67.2,59.3c-0.2-0.3-0.5-0.5-0.8-0.5c-0.6-0.1-1.2-0.2-1.9-0.3c-0.9-0.1-1.8,0.1-2.6,0.5
		c-0.9,0.5-1.6,1.2-2.3,2c-0.8,1.2-1.5,2.6-1.6,4.1c-0.1,1.9,0.7,3.4,2.4,4.2c1.2,0.6,2.4,0.5,3.6,0c1.5-0.7,2.4-2,3.2-3.4
		c0.8-1.2,0.9-2.6,1-4.1C68.3,61,67.8,60.1,67.2,59.3z M65.5,63.4c-0.3,1.1-0.6,2.1-1.4,2.9c-0.4,0.4-0.9,0.8-1.4,1.2
		c-0.5,0.4-1.2,0.3-1.7-0.1c-0.6-0.4-0.6-1.1-0.6-1.4c0-0.1-0.1-0.2-0.1-0.2c0.2-0.6,0.3-1.2,0.5-1.9c0.4-0.8,0.8-1.8,1.5-2.5
		c0.4-0.3,0.8-0.7,1.2-0.9c0.6-0.4,1.3-0.3,1.9-0.1c0.3,0.1,0.4,0.5,0.4,0.8C65.8,62.1,65.5,62.8,65.5,63.4z"/>
</g>
</svg>
