<?xml version="1.0" encoding="utf-8"?>
<!-- Generator: Adobe Illustrator 18.0.0, SVG Export Plug-In . SVG Version: 6.00 Build 0)  -->
<!DOCTYPE svg PUBLIC "-//W3C//DTD SVG 1.1//EN" "http://www.w3.org/Graphics/SVG/1.1/DTD/svg11.dtd">
<svg version="1.1" id="Layer_1" xmlns="http://www.w3.org/2000/svg" xmlns:xlink="http://www.w3.org/1999/xlink" x="0px" y="0px"
	 viewBox="1.5 55.2 125 17.7" enable-background="new 1.5 55.2 125 17.7" xml:space="preserve">
<g>
	<path fill="#A456FF" d="M114.1,55.5c0-0.1-0.2-0.2-0.4-0.2c-0.4,0-0.7,0-1.1,0c-2.6,0.6-5.1,1.3-7.6,1.9c-1.1,0.3-0.9,0.3-1.9,0.7
		c-0.5,0.2-0.8,1-0.6,1.6c0.1,0.4,0.7,0.7,1.2,0.5c0.3,0,0.6-0.2,0.9-0.2l0,0c0,0,0,0,0,0s0.2,0,0.2,0c1.2-0.4,1.2-0.4,1.8-0.5l0,0
		c0.1,0,0.2,0,0.5,0c-0.1,0.3-0.2,0.6-0.2,0.8c-0.6,1.5-1.3,3-1.8,4.4c-0.4,1.2-0.8,2.3-1.2,3.6c-0.2,0.6,0.2,1.2,0.8,1.3
		c0.9,0.2,1.6-0.2,1.7-0.9c0-0.2,0-0.5,0-0.8c0-0.4,0.2-0.8,0.4-1.5c0.1-0.3,0.2-0.6,0.3-0.9c0.9-2.4,2.3-5.7,2.8-6.7
		c0.1-0.2,0.1-0.3,0.2-0.4c0,0,0.2,0,0.2,0c1-0.2,1.9-0.6,3-0.2c0.3,0.1,0.7,0,0.8-0.4C114.6,56.8,114.5,56.1,114.1,55.5z"/>
	<path fill="#A456FF" d="M38.7,67c-0.4,0.1-3.3,0.9-4.9,1.1c-0.2,0-0.4,0-0.8,0c0.2-0.5,0.2-1,0.5-1.4c0.7-1.3,2.1-3.9,2.8-5.2
		c0.2-0.4,0.6-0.8,0.9-1.3c0-0.1,0.2-0.4,0.2-0.6c-0.1-0.8-0.1-1.5-0.4-2.3c-0.2-0.6-1.1-0.6-1.4,0c-0.4,0.7-0.8,1.4-1.2,2
		c-1.3,2.3-3.4,5.8-4,8.3c-0.2,1.1,0,1.9,0.8,2.3c0.2,0,0.4,0.1,0.6,0.2c0.7,0.2,1.9,0.2,4.7-0.2c3-0.5,2.6-0.7,2.7-1l0,0
		c0.2-0.3,0.3-1.1,0.2-1.6C39.6,66.8,39.2,66.8,38.7,67z"/>
	<path fill="#A456FF" d="M46.8,58.1c0,0,0-0.2,0-0.3c-0.3-0.5-0.7-0.8-1.3-0.8c-0.5,0-1.1,0.1-1.3,0.7c-0.1,0.3-0.3,0.5-0.4,0.8
		c-0.8,2-1.2,2.8-2,4.9c-0.4,1-0.8,1.9-1.2,3c-0.2,0.5,0,0.8,0.5,1c0.2,0,0.5,0.1,0.7,0.2c0.7,0,1.1-0.3,1.3-0.8
		c0.7-1.6,1.4-3.2,2.1-4.7C45.9,60.1,46.1,59.7,46.8,58.1z"/>
	<path fill="#A456FF" d="M18.2,58.5c-0.2-0.5-0.5-0.9-0.8-1.4c-0.2-0.3-0.5-0.4-0.8-0.2c-0.7,0.4-1.4,0.8-1.9,1.3
		c-1.5,1.3-2.8,2.6-4.2,3.9C10,62.5,9.5,63,9,63.4l0,0c0-0.5,0-1.1,0-1.6c0-0.5,0.2-1.1,0-1.4c-0.3-0.7-0.8-1.2-1.4-1.8
		c-0.3-0.4-0.8-0.2-1,0.3c0,0-0.1,0.2-0.1,0.2c-1-0.5-1.4-0.3-1.8,0.7c0,0,0,0.2-0.1,0.2c-1,2.2-1.9,4.2-2.9,6.4
		c-0.2,0.4-0.3,0.9-0.2,1.2C1.7,68,2,68.2,2.4,68.5c0.2,0.1,0.4,0.1,0.6,0c0.3-0.2,0.6-0.4,0.8-0.7c0.5-0.7,1.1-1.6,1.6-2.3
		C5.6,65,6,64.5,6.4,64c0,0.2,0,0.2,0,0.3c-0.1,1.1,0.5,1.8,1.3,2.5c0.1,0.1,0.4,0.2,0.6,0.1c0.5-0.2,1.1-0.5,1.5-0.9
		c1.1-1.1,2.1-2.1,3.2-3.2c0.2-0.2,0.4-0.4,0.5-0.6l0,0c-0.6,1.3-1.2,2.6-1.8,3.9c-0.4,1.2-1.1,2.3-1.6,3.5c-0.4,0.7-0.4,1.4,0,1.9
		c0.3,0.5,1.1,0.8,1.5,0.5c0.3-0.2,0.5-0.5,0.7-0.8c0.7-1.5,1.2-3,1.9-4.5c1.2-2.5,2.3-4.9,3.5-7.4C18.2,59.2,18.3,58.8,18.2,58.5z"
		/>
	<path fill="#A456FF" d="M25.1,57.5c-0.3,0-0.7,0.2-0.9,0.4c-2,1.5-3.7,3.4-5.3,5.3c-0.3,0.4-0.5,0.7-1,0.6c0,0-0.2,0-0.3,0.1
		c-0.7,0.5-0.9,1.5-0.4,2.2c-0.7,0.9-1.3,1.8-1.9,2.6c-0.2,0.3-0.3,0.6,0,0.8c0.6,0.5,2,0.4,2.4-0.2c0.6-0.9,1.2-1.8,1.8-2.8
		c0.2-0.2,0.4-0.7,0.5-0.7c0.8-0.1,1.8-0.1,2.8-0.2c-0.2,0.6-0.4,1.1-0.5,1.5c-0.1,0.5-0.3,1.1-0.4,1.5c0,0.4,0.2,0.8,0.6,0.8
		c0.6,0.1,1.2,0.2,1.8,0.1c0.2,0,0.6-0.5,0.5-0.7c-0.2-1.2,0.2-2.3,0.5-3.5c0.3-1.4,0.8-2.7,1.1-4.2c0.2-1.1,0.4-2.3-0.3-3.4
		C25.9,57.6,25.6,57.3,25.1,57.5z M23.9,61c0,0.1-0.3,1.6-0.5,2.3c0,0.1-0.2,0.2-0.3,0.2c-0.6,0-1.2,0-1.8,0L23.9,61
		C23.8,60.9,23.9,60.8,23.9,61z"/>
	<path fill="#A456FF" d="M32.5,58.5c0,0-0.1-0.1-0.1-0.2c-0.8-0.8-1.8-0.7-2.3,0.3c-0.1,0.3-0.2,0.6-0.4,0.8
		c-1.2,2.8-2.3,5.6-3.4,8.4c0,0.1,0,0.3,0,0.4c0.5,0.7,1.7,0.7,2.1,0c0.2-0.4,0.5-0.8,0.7-1.3c0.8-1.9,1.6-3.8,2.3-5.6
		c0.3-0.7,1.1-2.3,1.1-2.5C32.7,58.7,32.5,58.5,32.5,58.5z"/>
	<path fill="#A456FF" d="M101.7,58.4c-0.2-0.9-0.7-1.1-1.2-1.1h0h0c-0.6,0-1.2,0-1.8,0.2c-1.5,0.5-3,1.1-4.1,1.5
		c-1.5,0.6-2.6,1.2-3.7,1.9c-0.5,0.4-0.9,1.1-0.9,1.8h0l0,0.4c0,0,0,0,0,0l0,0v0c0.1,0.5,0.4,0.9,0.8,1.2c0.5,0.4,1.4,0.7,2.6,1.2
		c0.6,0.2,1.3,0.3,2,0.4c0.5,0,1,0.1,1.4,0.2c-0.7,0.4-1.5,0.7-2.3,0.8l-0.2,0c-1.3,0.3-1.3,0.3-2.6,0.4h-0.1c-0.1,0-0.3,0-0.4,0
		c-0.9,0-1.6,0-2.3-0.3h0c-0.4-0.1-0.8-0.2-1.2,0c-0.2,0.1-0.2,0.3-0.2,0.5c0.1,0.5,0.4,1.3,1.1,1.6c0.4,0.2,0.8,0.2,1.2,0.3
		c0.2,0,0.4,0,0.6,0c0.6,0,1.2,0.2,1.8,0.2c0,0,0.2,0,0.2,0c0.3,0,0.5,0,0.8,0c1.1,0,1.3,0,2.6-0.5c1.1-0.3,2.3-0.8,3.4-2
		c0.7-0.8,0.6-1.1,0.2-1.9l0-0.1c-0.4-0.8-1.2-1.1-1.9-1.2c-0.8-0.2-1.4-0.3-1.9-0.4c-0.6-0.1-1.2-0.2-2.1-0.4
		c-0.2,0-0.5-0.2-0.8-0.3c0,0-0.1,0-0.2-0.1c1.6-1.1,3.4-1.6,5.1-2.2c0.3-0.1,0.6-0.2,0.9-0.3c0,0.2,0,0.4,0,0.7
		c0,0.5,0.1,1.3,1.1,1.3h0c0.5,0,1.3-0.5,1.4-0.7c0-0.1,0-0.2,0.1-0.3c0-0.1,0-0.2,0.1-0.3c0-0.1,0.1-0.3,0.1-0.4
		c0.1-0.3,0.2-0.6,0.4-0.8C101.7,59.3,101.7,58.9,101.7,58.4z"/>
	<path fill="#A456FF" d="M57.2,58.5c-0.2,0.4-0.4,0.8-0.6,1.2c-0.8,1.4-1.6,2.8-2.3,4.1c-0.4,0.7-0.9,1.5-1.4,2.2c0,0,0,0-0.1,0
		c-0.2-1.4-0.6-2.7-0.7-4.1c-0.1-1.3-0.5-2.3-1.5-3.2c-0.3-0.3-0.7-0.5-1.1-0.2c-0.6,0.5-1.2,1.2-1.8,1.9c-0.3,0.3-0.4,0.7-0.7,1.2
		c-1.2,2.3-2.1,4.7-2.8,7.1c0,0.2,0,0.7,0.1,0.8c0.7,0.7,1.8,0.5,2.2-0.4c0.4-0.7,0.6-1.5,1.1-2.3c0.7-1.2,1.4-2.3,2.1-3.6
		c0.1,0.2,0.1,0.4,0.2,0.5c0.4,1.3,0.7,2.6,1.2,3.8c0.5,1.4,2.3,1.6,3.2,0.4c1.1-1.6,2-3.2,3-4.8c0.7-1.2,1.4-2.3,2-3.5
		c0.4-0.5,0.1-1-0.2-1.4C58.1,57.1,57.7,57.2,57.2,58.5z"/>
	<path fill="#A456FF" d="M86.4,66.4c0.5-1.2,1.1-2.5,1.6-3.7c0.7-1.5,1.5-3,2.2-4.5c0-0.1,0-0.4,0-0.5c-0.2-0.6-0.8-1.1-1.4-1.4
		c-0.5-0.3-0.9,0-1.1,0.6c-0.2,0.8-0.5,1.7-0.9,2.5c-1.1,2-2.1,3.9-2.1,6.1c0,0.2,0.1,0.4,0.1,0.5c0,0.7,0.3,1,0.8,1.1
		C86.2,67.3,86.2,66.8,86.4,66.4z"/>
	<path fill="#A456FF" d="M69.7,62.1c-0.3,0-0.5-0.1-0.8-0.1c-1.4,0-2.6,0-3.9,0.1c-0.8,0-0.9,0-1.2,0.9c0,0,0,0,0,0.1
		c-0.2,0.8,0,1.2,0.9,1.2c0.5,0,1.2,0,1.7,0c0.5,0,0.5,0.2,0.4,0.2c-0.8,0.7-1.6,1.3-2.3,1.9c-1,0.8-2.1,1.4-3.3,1.7
		c-0.4,0.1-0.7,0-0.8-0.4c0-0.5-0.2-1.1,0-1.6c0.5-2.1,1.6-3.8,3-5.4c0.6-0.7,1.3-1.4,2.3-1.6c0.7-0.2,1.2,0,1.4,0.8
		c0,0.2,0.2,0.4,0.3,0.5c1.4,0.4,1.9,0.3,2.3-1.1c0-0.1,0.2-1.1,0.1-2c-0.1-0.7-0.7-0.9-1.2-0.5c-0.2,0.1-0.3,0.3-0.5,0.4
		c-0.1,0-0.3,0.1-0.4,0c-0.8-0.5-1.7-0.4-2.6-0.2c-1,0.1-1.8,0.5-2.6,1.2c-1.9,1.6-3.2,3.6-4.1,5.9c-0.5,1.4-0.7,2.7-0.2,4.2
		c0.4,1.1,1.6,2.1,2.8,2.1s2.3-0.3,3.4-0.8c0.7-0.4,1.4-1.1,2-1.6c1.2-1.2,2.3-2.3,3.5-3.6c0.5-0.5,0.5-1.5,0.2-2.1
		C69.9,62.1,69.8,62.1,69.7,62.1z"/>
	<path fill="#A456FF" d="M82.5,65.2c-0.5,0.2-1.1,0.3-1.6,0.4c-1.9,0.5-3,0.8-4.9,1.5c0,0,0,0,0,0c0.3-0.7,0.5-1.5,0.9-2.3
		c0.4-0.8,0.8-1.5,1.2-2.3c0.5-1.1,1.5-3,2.3-3.8c0.2-0.4,0.5-0.7,0.5-1.2c-0.1-0.5-0.2-1-0.4-1.4c-0.1-0.3-0.5-0.5-0.8-0.6
		c-0.2,0-0.5,0.3-0.7,0.5c-1.1,1.7-2.1,3.4-3.1,5.1c-1.1,1.9-2.3,4.7-2.6,6.8c-0.2,1.2,0,1.7,1.2,2c0.2,0,0.4,0,0.6,0
		c1.5-0.4,3-0.6,4.4-1.1c1.4-0.4,2.1-0.7,3.5-1.1c0,0,0,0,0.1,0c0.4,0,0.7-0.3,0.7-0.7c0-0.4,0-0.8-0.2-1.2
		C83.3,65.3,82.9,65.1,82.5,65.2z"/>
</g>
</svg>
