<?xml version="1.0" encoding="utf-8"?>
<!-- Generator: Adobe Illustrator 18.0.0, SVG Export Plug-In . SVG Version: 6.00 Build 0)  -->
<!DOCTYPE svg PUBLIC "-//W3C//DTD SVG 1.1//EN" "http://www.w3.org/Graphics/SVG/1.1/DTD/svg11.dtd">
<svg version="1.1" id="Layer_1" xmlns="http://www.w3.org/2000/svg" xmlns:xlink="http://www.w3.org/1999/xlink" x="0px" y="0px"
	 viewBox="0 0 128 50" enable-background="new 0 0 128 50" xml:space="preserve">
<g>
	<g>
		
			<linearGradient id="SVGID_1_" gradientUnits="userSpaceOnUse" x1="242.5252" y1="-1735.1704" x2="242.5252" y2="-1961.8583" gradientTransform="matrix(0.2203 0 0 0.2203 0 431.7422)">
			<stop  offset="0" style="stop-color:#FF92FF"/>
			<stop  offset="1" style="stop-color:#5723FF"/>
		</linearGradient>
		<path fill="url(#SVGID_1_)" d="M61.7,15.5c-1.2-0.7-2.4-1.6-3.9-0.9c-6.4,3-5.6,2.1-12.7,4.8c0.8-2,1.7-3.8,2.6-6.9
			c5.2-1.6,12.9-4.7,17.7-7.2c0,0.4,0,0.7,0,1c0,1.6,5.2,2.9,5,1l0,0c0.1-0.9,0.2-2.5,0.5-3c0.4-0.6,0.8-1.8-0.2-2.1
			c-1-0.3-2.6-1.2-3.4-1.7c-0.8-0.5-1.2-0.7-3.7,0.4C61.1,1.9,53,5.7,48.5,7.1c-1.9,0-1.8-0.2-3.1,0c-1.3,0.3-2.2,0.8-2.4,1.3
			c-0.2,0.5-0.3,0.9-0.3,0.9c-4,1.5-5.6,2.5-6.7,3.1c-0.5,0.2-0.4,1.7-0.1,2.8c0.3,1,0.5,1.9,1.5,1.6c0.6-0.2,1.5-1.1,2.8-1.5
			c-1.1,2.8-2,5.8-2.5,7.3c-1.1,0.4-2.1,0.5-2.3,1.2c-0.2,0.7-0.2,2.3,1,3c0,0,0.1,0,0.1,0.1c-0.7,2.9-1.1,6.9-1,8.9
			c0.1,2,1.8,2.5,3.7,2.7c1.9,0.2,3.3,0.4,8.4-1.8c4.3-1.9,12.3-5.1,13.4-5.7c1.1-0.6,0.5-3.2,0.5-4.1c0-0.8-0.4-1.6-1.6-1
			c-2,1-8.5,3.8-10.8,4.8c-2.3,1-6.8,3-7.4,2.4c0-1.5,0.2-3.9,1.5-7.7c5.3-2.7,6.1-2.3,12.4-4.8c6.2-2.6,6.5-3.1,6.8-3.6
			C62.7,16.5,63,16.2,61.7,15.5z"/>
		
			<linearGradient id="SVGID_2_" gradientUnits="userSpaceOnUse" x1="471.9803" y1="-1735.1704" x2="471.9803" y2="-1961.8583" gradientTransform="matrix(0.2203 0 0 0.2203 0 431.7422)">
			<stop  offset="0" style="stop-color:#FF92FF"/>
			<stop  offset="1" style="stop-color:#5723FF"/>
		</linearGradient>
		<path fill="url(#SVGID_2_)" d="M125.6,14.1c2.4-0.7,2.4-1.5,2.1-1.9c0,0,0,0-0.1-0.1c-0.1-0.2-0.2-0.4-0.3-0.6
			c-0.2-0.6-0.1-1.2-0.4-2.3c-0.3-1.2-0.8-3.1-5.7-2.9c-7.9,0.3-16.5,5.3-20.2,7.9s-4.7,3.7-4.4,5.5c0.3,1.7,2.1,3.2,4.7,4.5
			c2.5,1.3,13.2,2.5,18.8,4.1c-3.2,2.8-8.5,3.9-16.7,5.2C97.8,34.4,91,35,87.1,35.4c-1.9,0.2-2.7,0.7-3.7,1.3c-1,0.6-2.4,1-3,1.7
			c-0.5,0.6-0.3,0.8,0.2,0.9c2,0.4,5.6,0.8,11.1,0.5c17.5-0.7,26.8-4.5,30.3-5.8c3.5-1.3,4-2.9,4-3.8c0-1-0.1-2.9-0.5-3.6
			s-0.4-1.1-4-2.4c-4.3-1.6-9.8-1.7-14.2-2.7c-1.9-0.4-2.7-0.8-3-0.9c-0.1-0.1-0.1-0.2,0-0.3c6.6-5.3,12.6-6.9,17.6-8.2
			c0.1,0.5,0.4,0.9,0.6,1.3l0,0C123,14.3,123.2,14.8,125.6,14.1z"/>
		
			<linearGradient id="SVGID_3_" gradientUnits="userSpaceOnUse" x1="120.2994" y1="-1735.1704" x2="120.2994" y2="-1961.8583" gradientTransform="matrix(0.2203 0 0 0.2203 0 431.7422)">
			<stop  offset="0" style="stop-color:#FF92FF"/>
			<stop  offset="1" style="stop-color:#5723FF"/>
		</linearGradient>
		<path fill="url(#SVGID_3_)" d="M52.4,45.6c-1.4-1.1-3.6-1-8.2-2.5c-7.7-2.5-18-8.1-22.6-16.8c12.7-7.8,12.3-11.5,12.2-12.3
			c0-0.7-0.8-1.8-2.3-3.9c-4.8-6.6-12.9-3.5-20.9-0.6c-5.6,2-8.4,3.5-9.7,4.4c-0.8,0.6-0.6,1.1-0.4,2.2c0.2,1.2,1.3,2.4,2,2.5
			c0.3,0,0.8-0.1,1.6-0.5c0.6-0.4,2.5-0.9,2.5-0.9s-1.8,8.6-3.4,16.4S1.3,44.4,1.9,47.5c0,0,0,0.2,0.2,0.3l0,0c0.5,0.9,1.4,1,3.6,0
			S8,46.6,8,45.4c0.1-1.6,0.7-8.5,2-13.7c1.5-0.5,4.1-1.4,6-2.5c0.6,1.8,7.4,10,14,14.4c1.2,0.8,2.4,1.5,3.7,2.1l0,0
			c0,0,0.1,0,0.1,0c1.1,0.5,2.2,1,3.3,1.4c0.3,0.1,0.6,0.2,0.9,0.3c1.9,0.7,3.6,1.1,5,1.4c4.1,0.7,9.6-1.3,9.6-2.6
			C52.7,45.9,52.6,45.8,52.4,45.6z M10.8,27.7c0.4-2.7,2.2-9.9,2.5-10.8c0.3-0.9-0.4-1.2-1.2-2c0,0,0,0,1.5-0.7
			c4.2-2.1,11-3.4,12.1-3.4c1.1,0,6.2,1.1,0,6.7C19.3,23.1,12.9,26.5,10.8,27.7z"/>
		
			<linearGradient id="SVGID_4_" gradientUnits="userSpaceOnUse" x1="374.5858" y1="-1735.1704" x2="374.5858" y2="-1961.8583" gradientTransform="matrix(0.2203 0 0 0.2203 0 431.7422)">
			<stop  offset="0" style="stop-color:#FF92FF"/>
			<stop  offset="1" style="stop-color:#5723FF"/>
		</linearGradient>
		<path fill="url(#SVGID_4_)" d="M93.1,22.6c0.4,0.1,0.9-0.4,0.7-1.1c-1.1-2.8-0.5-3.4-2.2-3.9c-0.9-0.3-3.3,0-7.3,1.2
			c-4,1.2-8.5,2.6-8.5,2.6s2.1-5.2,2.5-6.6c5.7-1.8,12.5-5.2,17.6-6.1c0,1,1,3.2,1.6,3.2c0.6,0,0.7,0,2.4-0.5
			c1.7-0.6,1.4-0.6,1.8-1.1c0.4-0.5,0.7-2.2,0.7-2.9c0-0.7-1.1-1.5-2.6-3.5c-0.5-0.7-3.5-0.8-8.5,0.3c-5.1,1.1-18.2,5.7-24,8.6
			c-2,1-2,1.9-2,1.9c-0.2,0.2-0.7,2.5-0.6,3c0,0.5,0.2,0.8,0.8,0.9c0.5,0.1,0.8,0.1,3-0.9c2.2-1.1,2.2-0.8,2.2-0.8
			c-0.2,1.6-1.6,5.8-2.2,7.2c-1.2,0.5-2.4,0.9-2.4,1.6c0,0.8-0.5,3.1,0.3,3.5c0.1,0.1,0.3,0.1,0.4,0.1c-0.6,2.8-2.4,8.9-3.1,10.2
			c-0.4,0.7-0.7,1.1-0.9,1.4l0,0c0,0,0,0,0,0.1c-0.5,1-0.7,1.5,0.7,2.8c1.4,1.3,1.5,2.2,2.4,2.2c1.7,0,2.5-3.6,4.6-8.7
			c1.1-2.8,2.3-6.2,3.2-9.8c2.5-0.5,11.6-4,16.1-4.9C91.9,22.4,92.6,22.4,93.1,22.6z"/>
	</g>
</g>
</svg>
