<?xml version="1.0" encoding="utf-8"?>
<!-- Generator: Adobe Illustrator 18.0.0, SVG Export Plug-In . SVG Version: 6.00 Build 0)  -->
<!DOCTYPE svg PUBLIC "-//W3C//DTD SVG 1.1//EN" "http://www.w3.org/Graphics/SVG/1.1/DTD/svg11.dtd">
<svg version="1.1" id="Layer_1" xmlns="http://www.w3.org/2000/svg" xmlns:xlink="http://www.w3.org/1999/xlink" x="0px" y="0px"
	 viewBox="0 0 128 20" enable-background="new 0 0 128 20" xml:space="preserve">
<g>
	<g>
		<path fill="#A456FF" d="M53.5,1.4c-0.1-0.1-0.3-0.1-0.4-0.2c-0.4-0.4-0.8-0.4-1-0.1c-0.2,0.3-0.3,0.5-0.4,0.8
			c-0.7,2.6-1.4,5.1-2.1,7.6c-0.2,0.6-0.4,1.1-0.6,1.7c0,0,0,0-0.1,0c0-0.2-0.1-0.4-0.2-0.6c-0.5-1.9-0.7-3.9-1.5-5.7
			c0-0.1,0-0.3-0.1-0.4c-0.2-0.4-0.3-0.8-0.5-1.3c-0.1-0.2-0.3-0.4-0.5-0.5c-0.3-0.2-0.6-0.3-1-0.4c-0.1,0-0.3,0-0.4,0
			c-0.1,0.1-0.3,0.2-0.4,0.4c-0.2-0.5-0.5-0.7-1-0.4C43,2.4,42.8,2.8,42.6,3c-1.1,3.1-2,6.3-2.2,9.7c0,0.3,0.2,0.6,0.4,0.8
			c0.3,0.2,0.7,0.5,1.1,0.2c0,0,0.1-0.1,0.2-0.1c0.3-0.2,0.5-0.4,0.6-0.8c0.6-2.1,1.4-4.2,2.6-6.2c0.3,0.7,0.4,1.4,0.6,2
			c0.3,1,0.6,2,0.9,3c0.2,0.8,0.4,1.5,0.8,2.2c0.1,0.3,0.4,0.5,0.8,0.6c0.3,0.1,0.7,0,1,0.1c0.4,0.1,0.7-0.2,0.8-0.5
			c0.3-0.6,0.5-1.1,0.7-1.7c0.8-2.4,1.5-4.8,2.2-7.2c0.3-1,0.4-2,0.6-3C53.7,1.8,53.6,1.6,53.5,1.4z"/>
		<path fill="#A456FF" d="M38.8,1.7c-0.4-0.4-0.7-0.3-1,0c-0.4,0.3-0.7,0.7-1,1c-1.2,1.5-2.5,3-3.7,4.4c-0.5,0.6-1.1,1-1.7,1.5
			c0,0-0.1-0.1-0.1-0.1c0-0.1,0-0.2,0-0.4c0.1-0.4,0.3-0.7,0.4-1.1c0.1-0.4,0.2-0.8,0.3-1.2c0.1-0.4,0.2-0.8,0.4-1.3
			c0-0.2,0.1-0.4,0.1-0.6c0-0.7-0.2-1.2-0.7-1.6c-0.2-0.1-0.4-0.1-0.5,0c-0.7,0.3-1,0.9-1.2,1.7c-0.4,1.3-0.8,2.6-1.1,3.8
			c-0.2,0.8-0.3,1.5-0.4,2.3c0,0.4,0.2,0.9,0.4,1.2c0.4,0.4,0.9,0.5,1.3,0.7c0.1,0,0.3,0,0.4,0c1.1-0.5,2.5-1.9,2.5-1.9
			c0.8-0.8,1.6-1.7,2.4-2.5c0.3-0.3,0.6-0.6,0.9-1c0,0.2,0,0.3,0,0.4c-0.1,1.5-0.3,3-0.4,4.4c0,0.4,0,0.8,0.1,1.1
			c0,0.1,0.2,0.2,0.4,0.3c0.4,0.2,0.8,0.3,1.4,0.5c0.3-0.2,0.3-0.7,0.3-1.1c0,0,1.2-5.3,1.5-7.5C39.8,3.6,39.7,2.5,38.8,1.7z"/>
		<path fill="#A456FF" d="M98.1,0.9c-0.2-0.1-0.4-0.1-0.7-0.1c-0.3,0-0.7,0.2-1,0.2c-0.9,0-1.7,0.4-2.4,1c-2.3,2-3.7,4.7-4.2,7.8
			c-0.2,1.1,0.4,2,1,2.8c0.8,0.8,1.7,1.2,2.7,1.3c0.3,0,0.6,0,0.9-0.1c0.3-0.1,0.6-0.2,0.9-0.3c1.6-0.8,3.1-2,4-3.8
			c0.3-0.7,0.5-1.4,0.8-2c0.1-0.3,0.3-0.6,0.4-0.9c0-0.1,0.1-0.5,0.1-0.6c0-1.1,0.1-1.9-0.4-2.9C99.6,2.3,99,1.4,98.1,0.9z
			 M98.2,6.2c-0.1,0-0.1,0.1-0.1,0.2c0.1,1-0.5,1.8-1,2.6c-0.6,1-1.3,1.9-2.3,2.4c-0.8,0.4-1.6,0.4-2.3-0.5
			c-0.5-0.6-0.4-1.2-0.2-1.9c0.5-1.7,1.5-3.2,2.6-4.6c1-1.2,2.3-1.1,2.9,0.4C97.9,5.2,98,5.7,98.2,6.2L98.2,6.2z"/>
		<path fill="#A456FF" d="M23.7,2.4c-0.3-0.5-0.7-0.5-1.1-0.2c-0.8,0.5-1.5,1.1-2.3,1.7c-2,1.7-3.2,3.9-3.6,6.5
			c-0.1,0.7,0,1.4,0.2,2.1c0.5,1.5,2.3,2.6,4.1,2.3c1.8-0.3,4-1.7,5.4-3.7c1.7-2.4,1.6-5.6,0-8.1C25.9,2.1,24.6,1.8,23.7,2.4z
			 M24.1,10.5c-1.1,1-2.3,1.6-3.7,1.8c-1.4,0.2-1.6-0.9-1.4-1.9c0.4-2.1,1.9-3.4,3.4-4.7c0.4-0.3,0.8-0.6,1.1-1c0,0,0.1-0.2,0.1-0.3
			l0,0l0,0l0,0V4.3c0,0,0,0,0-0.1l0,0l0-0.2c0.1,0,0.2-0.1,0.3,0c0,0,0.1,0.2,0.1,0.4C24,4.8,24.3,5,24.6,5c0.4,0,0.6,0.2,0.7,0.6
			C25.9,7.4,25.6,9.1,24.1,10.5z"/>
		<path fill="#A456FF" d="M17.6,3.4c0.1-0.2,0.2-0.5,0.4-0.8c0.2-0.5,0.3-0.9-0.2-1.4c-0.7-0.7-1.5-0.6-1.9,0.4
			c-0.1,0.2-0.3,0.5-0.4,0.6c-1.1,0.3-2.2,0.5-3.3,0.8C9.8,3.5,7.5,4.3,5.5,5.6C4.9,5.9,4.5,6.6,4,7c-0.1,0.1-0.1,0.3,0,0.4
			c0.1,0.3,0.3,0.7,0.5,0.9S4.9,9,5.3,9.1c0.5,0.2,1.1,0.2,1.6,0.3C7.9,9.5,9,9.6,10,9.7c0.9,0.1,1.8,0.2,2.7,0.4
			c-0.3,0.3-0.5,0.5-0.8,0.7c-1.9,0.8-3.9,1.5-6,1.7c-1.4,0.1-2.7,0.3-4.1,0.5C1.4,13,1,13,0.6,13.2c-0.1,0-0.3,0.3-0.3,0.4
			c0,0.1,0.2,0.4,0.3,0.4c0.9,0.3,1.9,0.4,3.1,0.5c0,0,0.1,0,0.2,0c0.2,0,0.4,0,0.6,0c0.5,0,1.1,0,1.8,0c0,0,0.1,0,0.1,0
			c0,0,0.1,0,0.1,0c2,0,3.8-0.2,5.5-1c0,0,0,0,0,0c0.4-0.2,0.8-0.4,1.1-0.7c0.1,0,0.2-0.1,0.2-0.2c0.2-0.1,0.3-0.3,0.5-0.4l0,0
			c0.3-0.2,0.5-0.4,0.8-0.7c0.5-0.5,1.1-0.9,0.9-1.8c0-0.4,0.2-0.9,0-1.5S10.5,7.7,8,7.1C8.1,7,8.2,7,8.3,7C10.4,6,12.7,5.5,15,5.2
			c0,0,0.8,0.5,1.1,0.5C16.5,5.6,17.2,4.4,17.6,3.4L17.6,3.4z"/>
		<path fill="#A456FF" d="M89,10c0-0.2-0.2-0.4-0.3-0.5c0,0,0,0,0,0c-0.4-0.5-0.8-0.4-1.3-0.3c-1.9,0.6-3.8,1.1-5.8,1.7
			c-0.1,0-0.3,0-0.5,0.1c0.6-2,1.2-4,1.8-5.9l0.4-1.3c0.1-0.4,0.3-0.9,0.4-1.4c0,0,0,0,0,0.1l0.2-0.4c0-0.4-0.1-0.7-0.3-1.1
			c-0.3-0.5-0.7-0.8-1.1-0.8c-0.5-0.1-0.6,0.4-0.8,0.8c-0.1,0.2-0.1,0.4-0.2,0.5c-1,3.5-2,7-3,10.5c-0.1,0.3-0.2,0.6-0.2,0.9l0,0
			c0,0.6,0.4,1,1.1,1.2l0,0c0.4,0.2,0.8,0.3,0.9,0.2c0.4-0.3,0.6-0.4,1.1-0.4c0.5,0,1-0.4,1.5-0.5c1.6-0.5,3.2-0.9,4.8-1.4
			c0.4-0.1,0.9-0.3,1.4-0.4c0.3-0.1,0.5-0.4,0.3-0.8C89.1,10.3,89.1,10.1,89,10z"/>
		<path fill="#A456FF" d="M113.5,2c-0.3-0.3-0.5-0.7-0.8-0.9c-0.2-0.1-0.6-0.2-0.8-0.1c-0.8,0.7-1.5,1.3-2.1,2.1
			c-1.4,1.7-2.7,3.4-4.1,5.1c-0.4,0.4-0.8,0.8-1.1,1.1c-0.1,0.1-0.2,0.1-0.2-0.1c0.1-0.5,0.2-1.1,0.4-1.5c0.6-1.4,0.9-2.9,1-4.4
			c0-0.7,0.1-1.4-0.5-1.9c-0.6-0.5-0.7-0.5-1.1,0.2c-0.1,0.1-0.2,0.3-0.3,0.4c-0.4,1-0.7,2-1,3.1c-0.6,1.8-1.1,3.6-1.2,5.5
			c0,0.5,0,1.2,0.3,1.5c0.4,0.5,1,0.7,1.6,0.8c0.4,0,0.8-0.1,1.1-0.5c0,0,0,0,0,0c0.4-0.4,0.9-0.9,1.4-1.3c0,0,0.1-0.1,0.2-0.1
			c0.4-0.4,0.8-0.7,1.1-1.1c1-1.3,2-2.7,3-4c0.1,0.3,0.1,0.5,0.1,0.7c-0.2,1.3-0.4,2.6-0.6,4c-0.1,0.9-0.6,1.8,0.2,2.6
			c0.4,0,0.9,0,1.3,0.1c0.4,0.1,0.5,0,0.5-0.4c0.2-1.1,0.4-2.3,0.6-3.4C112.9,6.9,113.6,4.4,113.5,2z"/>
		<path fill="#A456FF" d="M66.6,5.6c0-0.1,0-0.3,0.2-0.3c0.2-0.1,0.4-0.4,0.4-0.7c0-0.2,0-0.4,0-0.6c-0.1-0.6-0.4-1.1-0.7-1.7
			c-0.3-0.6-0.8-0.8-1.4-0.9C64.2,1.3,63.4,1,62.6,1c-2.2,0-4.3,0-6.4,0.1c-0.5,0-0.3,0.2-0.8,0.2c-0.5,0-0.5,0.5-0.6,0.8
			c0,0.1,0.1,0.4,0.2,0.5c0,0.1,0.1,0.2,0.2,0.2c0.3,0.4,0.8,0.7,1,0.8c0.1,0,0.2,0,0.5-0.1c0,0.2,0,0.4-0.1,0.5
			c-0.2,0.8-0.4,1.6-0.7,2.4c-0.3,1.1-0.5,2.3-0.8,3.5c-0.2,0.6-0.4,1.1,0.1,1.7c-0.1,0.1-0.1,0.1-0.2,0.2c-0.4,0.2-0.7,0.4-1,0.7
			c-0.5,0.4-0.5,0.8,0,1.1c0.1,0,0.2,0.1,0.2,0.2c0.3,0.7,0.8,0.9,1.5,0.5c0.6-0.4,1.2-0.7,1.8-1.1c0.8-0.6,1.6-0.9,2.4-1.5l0,0l0,0
			c0.1-0.1,0.2-0.2,0.3-0.3c0.3-0.2,0.7-0.5,1.1-0.8c0.1,0,0.2-0.1,0.4-0.2c0,0,0,0,0-0.1c1.2-1,2.6-2.1,3.1-2.4c0,0,0.1,0,0.1-0.1
			l0,0l0,0c0.2-0.2,0.4-0.4,0.6-0.6c0,0,0.1,0,0.1-0.1C65.9,6.6,66.5,6.3,66.6,5.6z M57.8,10.1c0-1.1,0.4-2.5,0.4-2.8
			c0.1-0.3,0.2-0.6,0.3-0.9c0.1-0.3,0.3-0.8,0.5-1.2c0.1-0.2,0.2-0.4,0.3-0.7c0.3-0.5,0.5-0.9,0.8-1.1c0.7-0.2,4,0,4.7,0.4
			C63,6.6,60.4,8.2,57.8,10.1z"/>
		<path fill="#A456FF" d="M78.3,8.5L78.3,8.5C78.3,8.5,78.3,8.5,78.3,8.5C78.7,7.8,78.7,7.3,78,7l0,0c0,0-0.1-0.1-0.2-0.1
			c-0.4,0-0.8,0.4-1.1,0.7c-0.2,0.2-0.4,0.4-0.5,0.5c-1.9,1.6-4,2.5-6.3,3.1c-0.5,0.1-1.1,0.1-1.6,0.1c-0.5,0-0.6-0.2-0.4-0.7
			c0.3-0.7,0.7-1.4,1.1-2.1c0.8-1.6,2.1-2.9,3.5-3.9c0.5-0.4,1-0.6,1.5-0.8c0.1,0.4,0.2,0.7,0.3,1c0.1,0.3,0.3,0.4,0.6,0.4
			c0,0,0,0,0,0c0.6,0,1.1-0.5,1.1-1.1c0-0.9-0.2-1.7-0.6-2.5c-0.3-0.6-0.8-0.9-1.5-0.6c-0.4,0.1-0.7,0.2-1.1,0.4
			c-2.9,1.5-5,3.8-6.4,6.9c-0.4,0.9-0.6,1.9-0.7,3c-0.1,0.8,0.1,1.5,0.7,2c0.7,0.6,1.4,0.9,2.3,0.9l0,0l0,0c0,0,0.1,0,0.2,0h0
			c1.6-0.1,4.5-1.6,6.2-2.6c0.4-0.2,0.7-0.4,1.1-0.5c0,0,0.1-0.1,0.1-0.1c0.4-0.3,0.8-0.6,1.2-0.9c0.1-0.1,0.4-0.3,0.6-0.4
			C78.3,9.2,78.4,8.8,78.3,8.5z"/>
	</g>
	<path fill="#A456FF" d="M126.3,2.1c-0.4-0.2-0.7-0.3-1.1-0.4c-1.7-0.2-3.4-0.4-5-0.6c-0.2,0-0.4-0.1-0.6-0.2
		c-0.2-0.2-0.4-0.4-0.7-0.4c0,0,0,0,0,0c-1,0-1.2,0.1-1.3,0.5c-0.2,0-0.5,0-0.8,0c-0.3,0-0.6-0.1-0.9,0c-1.1,0.1-1.3,0.4-1.1,1.2
		c0,0.4,0.2,0.5,0.4,0.7c0.3,0.5,0.8,0.5,1.2,0.6c0.6,0.1,0.7,0,0.4,0.7c-0.5,1.7-1,3.4-1.4,5.1c-0.2,0.7-0.5,1-1.1,1.2
		c-0.2,0.1-0.4,0.2-0.7,0.3c-0.4,0.1-0.5,0.8-0.1,1.1c0.4,0.4,0.8,1.1,1.6,0.8c0.4-0.2,0.8-0.4,1.7-0.7c0,0,0,0,0,0
		c0.1,0,1.2-0.8,2-1.1c0.8-0.3,1.6-0.5,2.4-0.8c1.6-0.7,3-1.6,4.4-2.7c0.1,0,0.1-0.1,0.2-0.1c0.2,0,0.4-0.2,0.5-0.4c0,0,0,0,0,0
		c0.6-0.2,0.7-0.7,0.7-1.2c0-0.2,0-0.4,0.1-0.6C127.9,3.8,127.4,2.5,126.3,2.1z M125.5,4.7c-0.7,0.9-1.6,1.6-2.6,2.1
		c-1.6,0.9-3.4,1.7-5,2.5c-0.1,0-0.1-0.1-0.1-0.1c0.2-0.8,0.4-1.5,0.6-2.3c0.2-0.8,0.4-1.5,0.7-2.2l0,0c0.4-1.5,0.8-1.9,2.5-1.5l0,0
		c0.7,0.1,1.4,0.2,2,0.4c0.5,0.1,1.1,0.1,1.6,0.3C125.8,3.9,125.9,4.3,125.5,4.7z"/>
</g>
</svg>
