<?xml version="1.0" encoding="utf-8"?>
<!-- Generator: Adobe Illustrator 18.1.0, SVG Export Plug-In . SVG Version: 6.00 Build 0)  -->
<svg version="1.1" id="Layer_1" xmlns="http://www.w3.org/2000/svg" xmlns:xlink="http://www.w3.org/1999/xlink" x="0px" y="0px"
	 viewBox="0 0 290 41" enable-background="new 0 0 290 41" xml:space="preserve">
<g>
	<path fill="#FD9C5D" d="M15.9,17.5L15.9,17.5c1-2.1,1.9-4.1,3-6.1c0.4-0.7,1.2-1.6,2-1.8c4.4-1.1,8.4-3.5,13.2-3.1
		c0.7,0,1.4-0.8,1.4-1.9c-0.1-1.1-1.9-0.9-2.9-2c-0.7-0.8-1-1.2-2.5-1.1c-0.2,0-0.3,0-0.6,0.1c-0.2,0.1-0.4,0.1-0.6,0.1
		c-0.3,0.1-0.6,0.1-1,0.2c-1,0.2-1.9,0.5-3.1,0.8c-4,1.2-8,2.3-11.8,3.8C9.3,8,5.6,9.8,2,11.5c-0.5,0.2-0.8,1-0.9,1.5
		c-0.1,0.5,0.1,1,0.3,1.6c0.5,1.7,2,2.4,3.6,1.8c1.5-0.5,3-0.8,4.5-1.2c0.1,0.1,0.3-0.2,0.4-0.1c-0.2,0.5-0.5,1.5-0.7,2.1
		C8,20.9,6.4,26.8,5.4,30.5c-0.3,1.1-0.4,2.2-0.2,3.3c0,0,0,0,0,0.1c0.2,1.8,0.4,2.3,1.3,3.1c0.9,0.9,2.2,0.8,3.1,0.4
		c0.9-0.4,2.7-0.6,2.6-1.3c-0.1-0.7-0.3-0.8-0.5-2.7c0.1-1.4,0.2-2.9,0.4-4.3C12.5,26.8,13.1,24.5,15.9,17.5z"/>
	<path fill="#FD9C5D" d="M44.5,13.9c0-1.3-0.8-1.3-1.9-2.9c-1.3-1.8-2.4-3.4-3.8-1.6c0,0-0.1,0.1-0.1,0.1c-0.8,0.9-1.6,1.9-2.2,2.9
		c-2.3,3.5-4.5,7-6.9,10.4c-1.1,1.5-2.1,3.2-4,4.4c0.9-2.4,1.5-4.6,2.5-6.7c0.4-0.8,0.5-1.8,1.1-2.4c0.5-0.6,0.7-1.3,0.4-2
		c-0.3-0.9-0.6-1.7-1-2.6c-0.2-0.4-0.5-0.8-0.9-1c-1.1-0.6-2.8-0.1-3.4,1.1c-1,1.7-1.9,3.4-2.7,5.2c-1.5,3.3-2.6,6.8-2.3,10.6
		c0.1,1.2,0.5,2.4,1,3.5c0.4,1,1.3,1.7,2.5,1.5c2.4-0.4,5,0,6.8-2.3c1.1-1.5,2.3-3,3.4-4.5c0.6-0.9,1.2-1.7,1.9-2.6
		c0.2,0.4,0.2,0.7,0.1,1.1c-0.6,2.2-1.3,4.5-1.9,6.7c-0.4,1.4,0.6,3.2,2,3.3c0.9,0,1.9-0.3,2.8-0.6c0.5-0.2,0.9-0.5,1.2-0.9
		c0.3-0.5,0.4-1.2,0.6-1.8c0.8-2.6,1.5-5.3,2.3-7.9c1-3.5,2.4-6.9,2.6-10.6C44.4,14,44.4,13.9,44.5,13.9z"/>
	<path fill="#FD9C5D" d="M82.8,11.6c0.2-1.4-0.4-2-1.1-2.7c-0.5-0.4-0.9-1.1-1.6-1.6c-1.2-0.9-1.6-1.4-3.1-0.9
		c-2.6,0.9-4.3,2.8-5.9,4.8c-2.1,2.6-3.9,5.5-5.8,8.3c-0.2,0.3-0.4,0.5-0.6,0.8c0-0.7,0-1.3,0.2-1.9c0.4-1.8,0.9-3.4,0.1-5.3
		c-0.3-0.7-0.5-1.4-1-1.8c0,0,0,0,0,0c-1.6-1.6-1.6-1.9-2.4-2.1c-0.2-0.1-0.5-0.1-0.7-0.1c-2-0.1-3.8,0.5-5.3,1.7
		c-0.3-0.9-0.5-1.3-1.3-1.7c-0.1-0.1-0.2-0.1-0.3-0.1c-2-0.3-3.2,0.5-3.8,2.4c-1.9,6-3.8,11.9-5.7,17.9c-0.4,1.2-0.6,2.6,0,3.9
		c0.4,0.9,2.1,1.8,2.9,1.5c0.8-0.3,1.6-0.6,2.3-0.9c0.3-0.1,0.5-0.5,0.7-0.8c0.2-0.3,0.2-0.7,0.3-1c1.9-4.7,3.9-9.4,6.9-13.7
		c0.4-0.6,0.8-1.1,1.4-1.8c-0.5,3.6-1,6.7-1.4,9.9c-0.3,2.1-1,4.2-0.3,6.3c0.2,0.5,0.7,1.2,1.1,1.2c1.2,0.1,2.5,0.2,3.6-0.3
		c0.7-0.3,1.5-1,2.1-2.1c0.7-1.3,1.6-3,2.8-5.1c0,0,0,0,0,0c2.8-4.3,4.9-8.9,8.6-12.6c-0.1,0.7-0.2,1.4-0.4,2.1
		c-1.1,2.9-2.3,5.8-3.2,8.7c-0.9,2.8-1.6,5.7-2.3,8.5c-0.5,2.1,0.7,3.9,2.5,3.8c1-0.1,1.9-0.6,2.8-1.1c0.1,0,0.1,0,0.1-0.1
		c0.1-0.1,0.2-0.1,0.3-0.2c0,0,0.1,0,0.1-0.1c0.9-0.5,0.9-1.1,0.9-3c0.1-2.3-0.1-4.3,0.8-6.8c1-2.5,3.2-7.7,4.3-9.8
		C82.7,13.9,82.6,13,82.8,11.6z"/>
	<path fill="#FD9C5D" d="M128.1,27.2c0,0,0-0.1,0-0.1c-0.2-0.5-0.8-0.8-1.3-1c-0.7-0.3-1.5-0.7-2.1-0.6c-2.5,0.4-5,1.1-7.5,1.6
		c-1.2,0.3-2.4,0.5-3.8,0.7c0.2-0.6,0.3-1,0.5-1.4c1.8-3.8,4.2-9.4,6-13.3c0.7-1,1.5-1.6,0.6-2.9c-0.9-1.2-0.5-1.8-1.3-2.7
		c-0.8-0.9-1.3-0.9-2.1-0.5l0,0c-1,0.3-1.8,0.9-2.3,1.9c-1.4,3.2-2.6,6.5-4,9.7c-0.7,1.7-1.5,3.4-2.2,4.9c-1-1.2-2.2-2.3-3-3.6
		c-0.4-0.6-0.5-1.2-1.2-1.4c-1-0.3-2-0.7-3.1-1c0.1-0.2,0.2-0.5,0.3-0.6c1.5-1.2,2.9-2.5,4.5-3.6c0.9-0.6,1.1-1.2,0.8-2.2
		c-0.2-0.5-0.2-1-0.3-1.5c0-0.3,0-0.6-0.1-0.8c-0.2-0.3-0.6-0.6-0.8-0.8c-0.9-0.8-1.7-1.8-3-1.9c-2.7-0.2-5.4-0.6-8.1-0.5
		c-2.2,0-4.4,0.5-6.6,0.9c-1.3,0.2-1.8,2.3-0.9,3.2c0.8,0.7,0.9,1.5,0.4,2.4c-2.2,4.5-4.3,9-6.4,13.6c-0.6,1.3-1.1,2.6-0.4,4.1
		c0.1,0.2,0,0.6-0.1,0.7c-1.2,0.4-1.3,1.5-1.6,2.4c0,0.1,0,0.1-0.1,0.2C78.5,35,79.6,35,82.4,35l0,0c1.6,0,3.1,0.1,4.6-0.3
		c3.2-0.7,6.3-1.9,9.4-3c3.9-1.5,7.8-3.1,11.1-5.8c-0.6,1.4-1.2,2.9-1.9,4.3c-0.5,0.9-0.3,1.7,0.1,2.6c0.7,1.6,2.1,1.5,3.5,1.4
		c2.5-0.2,4.9-0.6,7.4-0.8c3.1-0.3,6.3-0.3,9.2-1.6c1-0.4,1.8-1.2,1.8-1.9C128,28.6,128.5,28,128.1,27.2z M95.6,12
		c1.1-1.4,2.7-0.7,4.4-0.7c-2.3,2.4-5,3.4-7.4,5.1C93.7,14.9,94.5,13.4,95.6,12z M86.9,29.5c0.8-1.7,1.4-3.5,2.3-5.2
		c0.2-0.4,0.9-0.5,1.4-0.6c3.3-0.2,6.6-0.4,9.9-0.6c0.1,0,0.1,0.1,0.3,0.3C96.5,26.3,91.8,28.1,86.9,29.5z"/>
	<path fill="#FD9C5D" d="M165.9,35.1c-1.1,0.1-2.2,0.7-6.2-1.7c-3.3-2-6-4.6-8.4-7.7c-1.2-1.5-2.2-3.1-3.3-4.8
		c0.2-0.2,0.3-0.3,0.5-0.4c1.9-0.9,3.9-1.7,5.8-2.7c2.2-1.1,4.4-2.2,5.3-4.7c0.3-1.1,0.3-1.6,0.3-2c0-0.1-0.1-0.2-0.1-0.3
		c0,0,0,0,0-0.1c-0.1-0.3-0.1-0.6-0.2-1c-0.3-1-0.8-1.8-1.6-2.4c-0.9-0.7-1.7-1.4-2.7-2c-1.2-0.8-2.4-1.3-3.9-1.3
		c-3.1,0-6,0.9-8.8,2.2c-0.7,0.3-1.3,0.6-2,0.9l0,0c-2.9,1.2-4.2,1.2-6.4,1.7s-0.8,2.3-0.4,3.2c0.4,0.8,0.9,1.9,2.4,1.7
		c-1.5,3.7-3.3,7.4-4.9,11.1c-0.8,1.8-1.5,3.7-2.2,5.6c-0.4,1.3,0.1,2.5,1.1,3.2c1,0.8,2.2,1.1,3.3-0.1c0.2-0.2,0.5-0.3,0.8-0.4
		c1-0.2,1.8-0.5,1.5-1.8c-0.1-0.3,0.1-0.6,0.2-0.9c0.7-1.7,1.4-3.4,2.1-5.1c0.1-0.3,0.5-0.6,0.8-0.7c1.1-0.2,2.3-0.4,3.5-0.5
		c0.3,0,0.9,0.1,1,0.4c2.5,4,5.5,7.3,9.1,10.2c0,0,0,0,0,0c2.4,2.1,5.5,4.2,7,4.4c1.5,0.2,1.8-0.1,4.3-0.8
		C166.2,37.5,167,34.9,165.9,35.1z M141.2,17.8c0.4-0.9,0.7-1.7,1-2.4c0-0.1,0.1-0.2,0.1-0.2c1-2.3,1.3-3.8,2-4.1
		c0.7-0.3,2.2-0.8,4.1-1.3c0.1,0,0.1,0.2,0.2,0.2c0,0,0,0,0,0c0.1,0,0.3-0.4,0.4-0.4c0,0,0-0.2,0-0.2c0.1,0,0.1-0.1,0.2-0.1
		c0,0,0.1-0.1,0.1-0.1c0.9-0.2,1.7-0.3,2.4-0.3c0,0,0.1,0,0.1,0c0,0,0,0,0,0c0.9,0,1.7,0.2,2.1,0.6c0,0,0,0,0,0c0,0,0,0,0,0
		c0,0,0,0,0,0c0,0.2,0.4,0.4,0.5,0.7c0.4,1-0.4,1.7-1.2,2.1c-2.7,1.4-5.4,2.7-8.1,3.9C144,16.9,142.7,17.3,141.2,17.8z"/>
</g>
</svg>
