<?xml version="1.0" encoding="utf-8"?>
<!-- Generator: Adobe Illustrator 18.0.0, SVG Export Plug-In . SVG Version: 6.00 Build 0)  -->
<!DOCTYPE svg PUBLIC "-//W3C//DTD SVG 1.1//EN" "http://www.w3.org/Graphics/SVG/1.1/DTD/svg11.dtd">
<svg version="1.1" id="Layer_1" xmlns="http://www.w3.org/2000/svg" xmlns:xlink="http://www.w3.org/1999/xlink" x="0px" y="0px"
	 viewBox="0 -2.8 210.2 33" enable-background="new 0 -2.8 210.2 33" xml:space="preserve">
<path fill="#A456FF" d="M125,24.9L125,24.9L125,24.9c-0.2,0-0.2,0-0.3,0s-0.5,0.2-0.8,0.2c-0.7,0-1.6-0.2-3.8-1.3
	c-2.3-1.5-4.1-3.4-5.6-5.9c-0.5-0.8-1-1.6-1.3-2.5c-0.2-0.3-0.5-0.7-0.7-1.1v-0.2l0.2-0.2c0,0,0.2,0,0.2-0.2c0,0,0.2-0.2,0.3-0.2
	c0.7-0.2,1.1-0.5,1.6-0.7c1-0.5,2.1-0.8,3.1-1.3c1.8-0.8,3.6-1.6,4.4-3.4c0.3-0.8,0.5-1.1,0.5-1.3c0-0.2,0-0.2,0-0.3s0-0.5,0-0.7
	c0-0.7-0.3-1.3-1-1.8c-0.2-0.2-0.3-0.3-0.5-0.5c-0.5-0.3-0.8-0.7-1.3-1.1c-0.8-0.7-1.8-0.8-2.6-0.8c-2.1,0-4.4,0.5-6.9,1.6
	c-0.2,0-0.3,0.2-0.7,0.2c-0.3,0.2-0.7,0.3-1.1,0.5c-1.8,0.7-2.8,0.8-3.9,1c-0.5,0-0.8,0.2-1.3,0.2c-0.5,0-0.7,0.2-0.8,0.5
	c-0.2,0.3,0,0.8,0.2,1.3c0,0.2,0.2,0.3,0.2,0.3c0.2,0.7,0.5,1.1,1.1,1.1c0,0,0.2,0,0.3,0h0.3l-0.2,0.3c-1,1.6-2,3.3-3,4.9
	c-0.7,1.1-1.5,2.3-2.1,3.4c-0.8,1.5-1.6,3-2.3,4.3c-0.5,0.8-0.3,1.6,0.5,2.3c0.3,0.3,0.7,0.5,1.1,0.5c0.3,0,0.7-0.2,1.1-0.7
	c0.2-0.2,0.7-0.3,0.8-0.3c0.5,0,0.8-0.2,1-0.3s0.2-0.3,0.2-0.7c0-0.2,0-0.5,0.3-0.8l0,0c0.7-1.3,1.5-2.6,2.1-3.8
	c0.2-0.3,0.7-0.7,0.8-0.7c1-0.2,2-0.3,2.8-0.5l0,0c0.3,0,0.7,0.2,0.8,0.5c1.3,3,3.3,5.4,5.9,7.7c1.5,1.5,3.8,3.1,4.8,3.3
	c0.2,0,0.5,0,0.5,0l0,0c0.7,0,1-0.2,2-0.5c0.2,0,0.7-0.2,1-0.3c1.5-0.5,2.1-1.6,2.1-2C125,25.1,125,24.9,125,24.9z M109.1,11.8
	c-0.3,0.2-0.8,0.2-1.1,0.3l-0.5,0.2l0.3-0.5c0.2-0.2,0.2-0.5,0.3-0.7c0.2-0.5,0.5-0.8,0.7-1.1l0.2-0.2c0.3-0.5,0.7-1,0.8-1.5
	c0.5-1,0.8-1.6,1.3-1.8c0.3-0.2,1.6-0.7,3.3-1l0,0l0,0l0,0l0,0l0,0c0,0,0,0,0.2,0c0,0,0-0.2,0.2-0.2c0,0,0,0,0.2,0l0,0l0,0
	c0.7-0.2,1.3-0.2,2-0.2h0.2l0,0c0.7,0,1.3,0.2,1.6,0.5l0,0c0,0,0,0,0.2,0.2l0,0h0.2l0,0h-0.2h0.2l0,0c0,0,0,0.2,0,0.3
	c0.8,0.7,0.3,1.3-0.8,1.6c-2,1-4.3,2-6.7,3C110.6,11.3,109.8,11.5,109.1,11.8z M15.6,5.6c1.1-0.3,2.1-0.7,3.3-1
	c2.1-0.7,4.3-1.3,6.4-1.3c0.3,0,0.7,0,0.8,0c0.2,0,0.3,0,0.5-0.2c0.3-0.2,0.5-0.7,0.5-1s-0.3-0.5-0.8-0.7s-1-0.3-1.3-0.7l0,0
	C24.6,0.2,24.5,0,24,0c0,0-0.2,0.2-0.3,0.2l0,0c0,0-0.2-0.2-0.3-0.2h-0.5c-0.2,0-0.5,0-0.8,0.2h-0.2c-0.7,0.2-1.3,0.3-2.3,0.7
	l-1.1,0.3C15.6,2,12.6,2.8,9.8,3.8C7.2,4.6,4.6,5.7,2,6.9L0.8,7.4C0.5,7.5,0.3,7.9,0,8.4C0,8.5,0,9,0,9.2v0.2
	c0.2,0.8,0.7,1.3,1.6,1.3c0.2,0,0.5,0,0.8-0.2c0.8-0.2,1.6-0.3,2.5-0.5c0.5-0.2,0.8-0.2,1.1-0.3h0.2c0,0,0,0,0.2,0h0.2v0.2
	c0,0-0.2,0.5-0.3,0.7c-0.2,0.3-0.3,0.7-0.5,1c-1.3,2.8-3.1,7.2-4.4,10C1,22.3,0.8,23.1,0.8,24c0,1.3,0,1.6,0.7,2.3
	c0.3,0.3,0.7,0.5,1.1,0.5c0.3,0,0.7,0,1-0.2c0.3-0.3,0.7-0.3,1-0.3c0.5,0,1.1-0.3,1.1-0.5c0-0.2,0-0.3,0-0.5c0-0.3,0-0.7,0-1.6
	c0.3-1.3,0.5-2.3,0.8-3.3c0.5-1.8,1.1-3.3,4.3-8.9l0.5-0.8C12.1,9.4,13,8,13.9,6.7C14.1,6.4,14.9,5.6,15.6,5.6z M32,6.9
	c-0.5-0.8-1-1.6-1.5-1.6c-0.2,0-0.5,0.2-0.8,0.5l0,0c-0.2,0.2-0.3,0.3-0.7,0.7c-0.5,0.5-1,1-1.5,1.6c-0.8,1-1.8,2.1-2.6,3.1
	c-1.3,1.6-2.6,3.1-3.9,4.8l-0.3,0.5c-0.8,1.1-1.8,2.1-3.3,3l-0.7,0.3l0.3-0.7c0.3-0.7,0.7-1.1,0.8-1.6c0.7-1.3,1.1-2.5,2-3.4
	c0.2-0.2,0.2-0.3,0.3-0.7c0.2-0.5,0.5-1,0.8-1.3c0.3-0.3,0.5-0.8,0.3-1.3c-0.2-0.7-0.3-1.3-0.5-2c0-0.3-0.3-0.7-0.5-0.7
	c-0.2,0-0.5-0.2-0.7-0.2c-0.7,0-1.5,0.3-1.8,0.8c-0.8,1.5-1.8,2.8-2.6,4.1c-1.8,3-2.8,5.6-3,7.9c0,0.7,0,1.6,0.3,2.6
	c0.2,0.7,0.7,1,1.3,1h0.2c0.5,0,0.8,0,1.3-0.2c1.5-0.2,3-0.2,4.1-1.5c0.7-0.7,1.3-1.3,1.8-2c0.5-0.5,0.8-1,1.3-1.5s0.8-0.8,1.1-1.3
	l0.8-1v0.3c0,0.3,0,0.7,0,1c-0.7,1.6-1.5,3.4-2.3,5.1c-0.2,0.5-0.2,1.1,0,1.6c0.2,0.3,0.7,0.7,1,0.7h0.2c0.7,0,1.3-0.2,2-0.5l0,0
	c0.3,0,0.7-0.3,1-0.7c0.2-0.3,0.3-0.7,0.5-1l0.2-0.3c0.8-2,1.8-3.9,2.6-6.1c0.3-0.7,0.7-1.3,0.8-2c1-2,2-3.9,2.3-6.1l0,0
	c0-0.7,0-0.7-0.3-1.1C32.5,7.5,32.3,7.4,32,6.9z M63,7.5l0.2-0.5c0.3-1,0-1.3-0.5-2c-0.2,0-0.3-0.2-0.5-0.3
	c-0.2-0.3-0.5-0.5-0.7-0.8l-0.2-0.2c-0.5-0.3-0.8-0.5-1.1-0.5c-0.2,0-0.5,0-0.8,0.2c-2,0.7-3.6,2.1-4.9,3.6c-1.3,1.3-2.6,3-3.8,4.4
	c-0.5,0.7-1.1,1.3-1.6,2c-0.2,0.2-0.2,0.3-0.3,0.5l-0.7,0.7v-0.7c0-0.5,0.2-1,0.3-1.5v-0.2c0.5-1.3,1-2.5,0.7-3.6V8.5
	c-0.2-0.5-0.2-0.8-0.5-1.1c-0.3-0.5-0.7-0.7-0.8-1c-0.3-0.5-0.5-0.5-0.7-0.7c-0.2,0-0.3,0-0.5,0c0,0-0.2,0-0.3,0
	c-1.3,0-2.6,0.5-3.8,1.3l-0.3,0.2V6.7c-0.2-0.7-0.2-0.7-0.7-1c0,0,0,0.2-0.2,0.2l0,0c-0.2,0-0.3-0.3-0.5-0.3c-1.1,0-1.8,0.3-2.5,1.5
	c-1,2-2,3.9-2.8,5.9c-1.3,2.6-2.5,5.1-3.6,7.5c-0.5,0.8-0.7,1.8-0.5,2.8c0.2,0.5,1,1,1.6,1c0,0,0.2,0,0.3,0s0.5-0.2,0.7-0.3
	c0.3-0.2,0.8-0.3,1.1-0.5c0.2,0,0.3-0.2,0.5-0.5c0-0.2,0.2-0.3,0.2-0.5c0-0.2,0-0.2,0.2-0.3c2.3-3.9,4.3-7.4,6.9-10.3
	c0.2-0.3,0.5-0.5,0.8-0.8c0.2-0.2,0.3-0.3,0.5-0.5L45,9.8l-0.2,0.8c-0.2,0.8-0.5,1.6-0.7,2.5c-0.5,1.8-1,3.4-1.5,5.1
	c-0.2,0.5-0.2,0.8-0.3,1.3c-0.5,1.1-0.8,2.3-0.7,3.4c0,0.3,0.3,0.7,0.5,0.7c0.3,0,0.7,0,1.1,0c0.7,0,1.3,0,1.6-0.2
	c0.7-0.3,1.3-0.8,1.8-1.5c0.7-1.1,1.6-2.3,2.6-3.8l0,0l0.2-0.2c0.7-1,1.5-2,2.1-2.8c1.8-2.3,3.6-4.8,5.9-6.7l0.2-0.3v0.7
	c-0.2,0.5-0.3,1.1-0.7,1.6c-0.5,0.8-0.8,1.6-1.3,2.5c-0.7,1.3-1.5,2.8-2.1,4.3c-0.8,2-1.8,3.9-2.8,6.4c-0.3,0.8-0.3,1.5,0,2
	c0.2,0.3,0.7,0.7,1.1,0.7l0,0c0.7,0,1.3-0.3,2-0.7l0.5-0.2c0,0,0.2,0,0.3-0.2l0,0c0.7-0.3,0.7-0.7,0.8-2v-0.2c0-0.3,0-0.7,0.2-0.8
	c0.2-1.3,0.5-2.6,1.3-4.3c1.1-2,3.4-5.9,4.4-7.4C62.7,9,62.7,8.4,63,7.5z M96.5,19c0-0.2-0.3-0.5-0.8-0.7h-0.2
	c-0.3-0.2-0.8-0.3-1.1-0.3c0,0,0,0-0.2,0c-1.3,0.2-2.6,0.5-3.9,0.8c-0.7,0.2-1.3,0.3-2.1,0.5c-0.7,0.2-1.3,0.2-2,0.3
	c-0.3,0-1.3,0.2-1.3,0.2l0.2-0.3c0-0.2,0.2-0.3,0.2-0.5c0.2-0.2,0.2-0.5,0.3-0.7c0.5-0.8,1.1-2,1.8-3c1.3-2.5,3-5.3,4.3-7.2
	c0.2-0.2,0.2-0.3,0.3-0.3c0.5-0.7,0.8-0.8,0.5-1.5c-0.3-0.5-0.5-1-0.5-1.3c0-0.3,0-0.5-0.3-0.8c-0.3-0.5-0.5-0.5-0.7-0.5
	c-0.2,0-0.3,0-0.7,0.2c-0.8,0.2-1.5,0.7-1.8,1.3C87.6,6.6,86.8,8,86,9.4c-0.7,1.1-1.3,2.1-1.8,3.1c-0.5,1-1.1,1.8-1.6,2.6l-0.8,1.3
	h-0.2c-0.2-0.3-0.3-0.5-0.7-0.8c-0.5-0.7-1-1.3-1.3-2c0,0,0-0.2-0.2-0.3c-0.2-0.3-0.2-0.7-0.5-0.7c-0.5-0.2-1-0.3-1.5-0.5l-1-0.3
	l0.2-0.2c0,0,0,0,0-0.2s0.2-0.3,0.3-0.5c0.3-0.2,0.7-0.5,1-0.7c1-0.7,2-1.5,3-2c0.7-0.5,0.8-0.7,0.7-1.3c0-0.3,0-0.7,0-0.8
	c0,0,0-0.2,0-0.3c0,0,0-0.2,0-0.3c0-0.2,0-0.2,0-0.3s-0.2-0.3-0.3-0.5l-0.2-0.2c0,0-0.2-0.2-0.3-0.3c-0.3-0.3-0.8-1-1.5-1
	c-0.7,0-1.5-0.2-2.3-0.2C75.7,3,74.5,3,73.2,3h-0.3c-1.5,0-3,0.3-4.4,0.5l-0.8,0.2c-0.5,0-0.8,0.5-1,0.8c-0.2,0.5-0.2,1,0,1.3
	c0.7,0.7,0.7,1.3,0,2.1c-2.1,3.6-4.4,7.4-6.1,10.2c-0.7,1-1.1,2-0.7,3c0,0.2,0,0.5-0.2,0.7c0,0.2-0.2,0.2-0.2,0.2
	c-0.7,0.2-1,0.8-1.3,1.5l-0.2,0.3c0,0,0,0,0,0.2c-0.2,0.5-0.2,0.7,0,0.8c0.2,0.3,1,0.3,2.3,0.3l0,0l0,0h0.2c0.3,0,0.7,0,1,0
	c1,0,1.8,0,2.6-0.2c2.6-0.7,5.3-1.5,7.5-2.3c3.1-1.1,6.2-2.3,9.2-4.4l0.3,0.2c-0.2,0.3-0.3,0.7-0.7,1c-0.5,0.7-0.8,1.5-1.3,2.3
	c-0.5,0.7-0.3,1.1-0.2,1.8c0.2,0.7,0.7,1,1.5,1c0.3,0,0.5,0,0.8,0c1.1,0,2.1-0.2,3.3-0.3c0.8,0,1.8-0.2,2.6-0.3c0.5,0,1,0,1.5-0.2
	c2-0.2,3.9-0.3,5.7-1.1c0.8-0.3,1.3-0.8,1.5-1.3c0.2-0.2,0.2-0.5,0.3-0.7C96.3,19.5,96.5,19.2,96.5,19L96.5,19z M71.5,9.2
	c0.5-0.7,1-1.3,1.6-2s1.3-0.7,1.8-0.7c0.3,0,0.5,0,0.8,0c0.3,0,0.7,0,0.8,0h0.2h0.5l-0.5,0.3c-1.3,1.5-2.8,2.1-4.3,3
	c-0.7,0.3-1.5,0.7-2.1,1.1l-0.2-0.3C70.7,10.2,71.1,9.7,71.5,9.2z M76,16.2c-3.3,2-6.9,3.4-11.5,4.6L64,21.2l0.2-0.5
	c0.2-0.5,0.5-0.8,0.7-1.3c0.5-0.8,1-1.8,1.6-2.6c0.3-0.5,1.3-0.5,1.3-0.7c2.1-0.2,4.3-0.5,6.4-0.5l1.3-0.2l0,0
	c0.2,0,0.2,0.2,0.2,0.3c0,0,0,0.2,0.2,0.2l0.2,0.2L76,16.2z"/>
</svg>
