<?xml version="1.0" encoding="utf-8"?>
<!-- Generator: Adobe Illustrator 18.0.0, SVG Export Plug-In . SVG Version: 6.00 Build 0)  -->
<!DOCTYPE svg PUBLIC "-//W3C//DTD SVG 1.1//EN" "http://www.w3.org/Graphics/SVG/1.1/DTD/svg11.dtd">
<svg version="1.1" id="Layer_1" xmlns="http://www.w3.org/2000/svg" xmlns:xlink="http://www.w3.org/1999/xlink" x="0px" y="0px"
	 viewBox="0 1 54.6 9.9" enable-background="new 0 1 54.6 9.9" xml:space="preserve">
<g>
	<path fill="#A456FF" d="M11,2.8c-0.1,0-0.2,0.1-0.2,0.1c-0.1,0.2-0.2,0.3-0.2,0.4c-0.2,0.5-0.3,1-0.6,1.5C9.7,5.5,9.4,6.1,9.1,6.7
		C8.9,6.9,8.8,7.2,8.6,7.5c0-0.1,0-0.1,0-0.1c0.1-0.9,0.1-1.7,0.2-2.5c0-0.1-0.1-0.3-0.2-0.3C8.4,4.4,8.2,4.3,8,4.3
		c-0.1,0-0.2,0-0.3,0.1C7.4,4.8,7.1,5.2,6.9,5.6C6.7,5.9,6.6,6.1,6.4,6.3c0,0,0,0-0.1,0c0-0.1,0-0.1,0-0.2c0.1-0.4,0.1-0.4,0.2-0.8
		C6.7,4.8,6.5,4.4,6,4.3c-0.2,0-0.3,0-0.3,0.2c-0.1,0.3-0.2,0.7-0.3,1C5.3,6.2,5.2,6.5,5,7.2C4.9,7.7,4.9,8.2,4.8,8.6
		C4.7,8.8,4.8,8.9,5,9c0.3,0.1,0.9-0.1,1.1-0.4C6.2,8.3,6.4,8,6.6,7.7c0.3-0.5,0.7-1.1,1-1.5c0,0,0.1,0,0.1,0c0,0.3-0.1,0.6-0.1,0.9
		c-0.1,0.5-0.1,1-0.2,1.5C7.3,8.9,7.5,9.2,7.8,9.2c0.2,0,0.4-0.1,0.7-0.1c0.1,0,0.2-0.1,0.3-0.2C9.2,8.1,9.6,7.4,10,6.7
		c0.5-1,1-2,1.5-3C11.7,3.2,11.4,2.8,11,2.8z"/>
	<path fill="#A456FF" d="M12.5,4.6c-0.2-0.1-0.3-0.1-0.5-0.2c-0.3,0-0.4,0.2-0.4,0.4c0,0.1,0,0.2,0,0.2c-0.3,0.7-0.6,1.7-0.9,2.5
		c-0.1,0.3-0.2,0.7-0.3,1c0,0.3,0.1,0.4,0.2,0.6c0.1,0.1,0.2,0.1,0.3,0C11,9,11.2,8.9,11.3,8.7c0.5-1.1,1.1-2.6,1.4-3.8
		C12.7,4.8,12.6,4.6,12.5,4.6z"/>
	<path fill="#A456FF" d="M4.9,4.1c0.5-0.3,1-0.5,1.6-0.7C6.7,3.3,7,3.2,7.2,3.2c0.3,0,0.3-0.1,0.3-0.3C7.3,2.5,7,2.1,6.5,2.4
		C6.3,2.5,6,2.6,5.7,2.7C4.4,3.3,3,3.8,1.7,4.3C1.2,4.6,0.7,4.8,0.3,5C0,5.2-0.1,5.4,0.1,5.6c0.2,0.2,0.3,0.2,0.5,0.1
		C1.1,5.6,1.6,5.4,2,5.2C2.4,5,2.8,4.9,3.1,4.8c0,0,0.1,0.1,0.1,0.1C3,5.1,2.9,5.4,2.8,5.7C2.5,6.5,2.1,7.3,1.9,8.2
		c0,0.1-0.1,0.2-0.2,0.3c0,0.1-0.1,0.2,0,0.3c0,0.1,0.1,0.2,0.2,0.3c0.2,0.2,0.7,0.3,0.9,0.1c0.1,0,0.1-0.1,0.1-0.2
		c0-0.3,0.3-0.5,0.2-0.8c0,0,0-0.1,0-0.1c0.1-0.3,0.2-0.7,0.3-1C3.6,6.9,3.8,6.5,4,6.1c0.3-0.5,0.5-1.1,0.7-1.6
		c0-0.1,0.1-0.2,0.1-0.2C4.8,4.3,4.8,4.1,4.9,4.1z"/>
	<path fill="#A456FF" d="M20.7,4.3C21,4.2,21.4,4.1,21.7,4c0.5-0.1,0.7-0.4,0.7-0.9s-0.2-0.6-0.6-0.4c-0.4,0.2-0.9,0.3-1.3,0.5
		C19.8,3.5,19,3.8,18.1,4c-0.4,0.1-0.3,0.1-0.7,0.2C17.2,4.2,17,4.4,17,4.6c-0.1,0.2,0.2,0.3,0.3,0.4c0.3,0.2,0.5,0.2,0.8,0.1
		c0.3-0.1,0,0,0.3-0.1c0.2-0.1,0.4-0.1,0.6-0.2c0,0.1,0,0.1,0,0.2c-0.1,0.3-0.3,0.7-0.4,1c-0.3,0.9-0.6,1.8-0.9,2.7
		c-0.1,0.2,0,0.4,0.2,0.5C18.3,9.4,19,9,19.1,8.5c0.1-0.4,0.2-0.9,0.3-1.3c0.1-0.4,0.3-0.7,0.4-1.1c0.2-0.5,0.4-0.9,0.7-1.4
		C20.5,4.5,20.6,4.4,20.7,4.3z"/>
	<path fill="#A456FF" d="M30,5.2c0.1,0,0.2-0.1,0.3-0.2c0.6-0.4,1.2-0.8,1.7-1.3c0.1-0.1,0.1-0.2,0.1-0.2c-0.1-0.3-0.3-0.6-0.6-0.7
		c-0.6-0.3-1.2-0.3-1.8-0.2c-0.4,0.1-0.8,0.1-1.2,0.1c-0.2,0-0.3,0-0.4,0.1c-0.1,0.1-0.2,0.1-0.3,0.1C27.6,3,27.4,3,27.2,3
		c-0.3,0.1-0.5,0.3-0.4,0.5c0.1,0.2,0.5,0.4,0.7,0.4c0.1,0,0.1,0,0.2,0c-0.2,0.5-0.3,1-0.5,1.5c0,0.1-0.1,0.1-0.1,0.1
		c-0.2,0.1-0.3,0.2-0.4,0.3c-0.2,0.3-0.2,0.3,0.1,0.4c0.2,0.1,0.2,0.2,0.1,0.3c-0.1,0.3-0.2,0.6-0.3,0.9c-0.1,0.3-0.1,0.4,0.2,0.5
		c0.2,0.1,0.3,0.1,0.6,0.1c0.1,0,0.3-0.1,0.3-0.2c0.1-0.1,0.1-0.3,0.1-0.4c0.1-0.4,0.3-0.8,0.4-1.2s0.3-0.5,0.7-0.6
		c0,0.1,0.1,0.2,0.1,0.2c0.2,0.6,0.4,1.1,0.8,1.5c0.3,0.4,0.7,0.8,1.1,1.2c0.2,0.2,0.3,0.3,0.5,0.2c0.2,0,0.5-0.1,0.7-0.1
		c0.1,0,0.2-0.2,0.2-0.2c0-0.1-0.1-0.2-0.2-0.3c-0.1-0.1-0.2-0.1-0.2-0.2c-0.6-0.5-1.5-1.3-1.9-2.6C29.8,5.4,29.8,5.2,30,5.2z
		 M28.7,4.8C28.7,4.8,28.7,4.8,28.7,4.8c0-0.3,0.1-0.5,0.2-0.7c0-0.1,0.1-0.1,0.1-0.2C29,3.6,29,3.6,29.3,3.5c0.5-0.1,1-0.1,1.5-0.1
		c0,0,0,0.1,0,0.1C30.2,4.1,29.4,4.4,28.7,4.8z"/>
	<path fill="#A456FF" d="M26.4,3.5c0-0.3-0.2-0.4-0.5-0.4c-0.2,0.1-0.4,0.1-1.2,0.3C23.7,3.7,23,4,21.9,4.3
		c-0.3,0.1-0.4,0.3-0.5,0.5c-0.1,0.2,0,0.4,0.2,0.4c0.2,0,0.3,0,0.5-0.1c0.3-0.1,0.2-0.1,0.4-0.2c0,0,0,0,0,0.1
		c-0.2,0.3-0.3,0.4-0.4,0.7C22.1,6,22,6.1,21.8,6.1c-0.4,0.1-0.5,0.3-0.4,0.7c0,0.2,0.1,0.3,0.1,0.3c-0.1,0.4-0.3,1.1-0.3,1.5
		c0,0.1,0.1,0.2,0.1,0.2c0.3,0.2,0.8,0.3,1.1,0.2c0.3-0.1,0.7-0.3,1-0.4c0.6-0.3,0.8-0.4,1.4-0.6c0.1,0,0.2-0.1,0.3-0.1
		c0.2-0.3,0.3-0.5,0.1-0.8C25.4,7,25.2,7,25.1,7c-0.2,0-0.3,0.1-0.5,0.2c-0.6,0.3-0.8,0.3-1.4,0.6C22.9,7.9,22.7,8,22.3,8
		c0-0.1,0.2-0.8,0.3-0.9c0.1-0.1,0.1-0.2,0.2-0.2c0.6-0.2,1-0.4,1.6-0.6c0.4-0.1,0.6-0.2,1-0.2c0.2,0,0.3-0.1,0.4-0.3
		c0-0.1,0-0.1,0.1-0.2c0.1-0.2-0.1-0.5-0.3-0.5c-0.4-0.1-0.5,0-0.9,0.1c-0.4,0.1-0.8,0.3-1.3,0.4c0.1-0.3,0.3-0.7,0.3-0.9
		c0.1-0.2,0.2-0.2,0.3-0.3c0.7-0.2,1.6-0.5,1.9-0.5c0.3,0,0.3-0.2,0.4-0.3C26.4,3.6,26.4,3.7,26.4,3.5z"/>
	<path fill="#A456FF" d="M18.2,3.3c0.2-0.5-0.2-0.8-0.5-0.7c-0.3,0.1-0.6,0.1-0.9,0.2C16,3.1,15,3.4,14.2,3.6
		c-0.8,0.2-0.3,0-1.2,0.2c-0.2,0.1-0.3,0.2-0.3,0.4c0,0.2,0.2,0.5,0.3,0.6c0.3,0.2,0.4,0.2,0.9,0c0.6-0.2-0.1,0,0.6-0.2
		c-0.1,0.3-0.2,0.5-0.3,0.8c-0.2,0.7-0.4,1.3-0.6,1.9c-0.1,0.3-0.2,0.6-0.3,0.9c-0.1,0.3,0.1,0.5,0.4,0.4c0.2-0.1,0.3-0.1,0.5-0.2
		c0.2-0.1,0.3-0.2,0.3-0.4c0.2-0.5,0.3-1,0.3-1.5c0.2-0.7,0.4-1.4,0.7-2.1c0-0.1,0.1-0.1,0.2-0.1c0.5-0.1,1-0.3,1.5-0.3
		C17.9,3.8,18.1,3.7,18.2,3.3z"/>
</g>
</svg>
