<?xml version="1.0" encoding="utf-8"?>
<!-- Generator: Adobe Illustrator 18.0.0, SVG Export Plug-In . SVG Version: 6.00 Build 0)  -->
<!DOCTYPE svg PUBLIC "-//W3C//DTD SVG 1.1//EN" "http://www.w3.org/Graphics/SVG/1.1/DTD/svg11.dtd">
<svg version="1.1" id="Layer_1" xmlns="http://www.w3.org/2000/svg" xmlns:xlink="http://www.w3.org/1999/xlink" x="0px" y="0px"
	 viewBox="0 212 500 76" enable-background="new 0 212 500 76" xml:space="preserve">
<path fill="#E1E6EA" d="M147.7,282.7h13.6v-65.4h-13.6V282.7z M207.3,264.6l-17.5-47.3h-14.4l25.1,65.4h13.2l25.2-65.4h-14.1
	L207.3,264.6z M116.6,258.7l-28.8-41.3H74.9v65.4H88v-43.6l30.9,43.6h10.8v-65.4h-13.1V258.7z M43.4,255c0,11.2-4.9,16.5-13.5,16.5
	s-13.5-5.3-13.5-16.5v-37.7H2.7v39.1c0,18,10.9,27.4,27.2,27.4c16.4,0,27.2-9.4,27.2-27.4v-39.1H43.4V255z M416.5,245l-12-2.8
	c-4.9-1.2-7.3-3.4-7.3-7.2c0-4.7,4.1-7.7,10.3-7.7c4.8,0,8.1,1.7,10.1,4.2c0.5,0.7,1.3,1,2.2,1h12.7c-2.9-9.7-11.3-16.4-25.1-16.4
	c-13.8,0-23.6,8.3-23.6,20.1c0,10.8,7.3,15.7,16.6,17.9l11.7,2.6c5.6,1.3,8,3.4,8,7.3c0,5.2-4.4,8.2-11,8.2c-4.6,0-8.4-1.4-10.8-4.3
	c-0.5-0.7-1.3-1.1-2.2-1.1h-13.3c3.3,10.6,13.1,16.6,26.4,16.6c13.8,0,24.3-7.7,24.3-20.4C433.6,253.5,427.1,247.4,416.5,245z
	 M497.3,229.2v-11.9h-44.4v65.4h44.4v-12h-31v-15.6h22.1v-11.6h-22.1v-14.3H497.3z M253.2,282.7h44.4v-12h-31v-15.6h22.1v-11.6
	h-22.1v-14.3h31v-11.9h-44.4V282.7z M368,238c0-13.4-9.1-20.8-22.9-20.8h-28.8v65.4h13.6v-24.4h8.4l18,24.4h15.9l-19.1-25.4
	C362.3,255.1,368,248.5,368,238z M344.3,247.1h-14.4v-18.2h14.4c6.8,0,10.3,3.6,10.3,9.1C354.6,243.5,351.1,247.1,344.3,247.1z"/>
</svg>
