<?xml version="1.0" encoding="utf-8"?>
<!-- Generator: Adobe Illustrator 18.1.0, SVG Export Plug-In . SVG Version: 6.00 Build 0)  -->
<svg version="1.1" id="Layer_1" xmlns="http://www.w3.org/2000/svg" xmlns:xlink="http://www.w3.org/1999/xlink" x="0px" y="0px"
	 viewBox="0 869.6 768 428.8" enable-background="new 0 869.6 768 428.8" xml:space="preserve">
<g>
	<g>
		<g>
			<path fill="#FFFFFF" d="M747.6,869.6H20.4C9.2,869.6,0,878.8,0,890V1278c0,11.2,9.2,20.4,20.4,20.4h727.5
				c11.2,0,20.4-9.2,20.4-20.4V890C768,878.8,758.8,869.6,747.6,869.6z"/>
		</g>
		<g>
			<g>
				<path d="M73.6,1086h-4.1l-10.6-22.5l0,0c0.3,3.4,0.3,5.8,0.3,7.5v14.6h-3.1v-26.9h3.7l10.6,22.1l0,0c-0.3-3.7-0.3-6.1-0.3-7.5
					v-14.6h3.1v27.2H73.6z"/>
				<path d="M89.2,1086.3c-2.7,0-4.8-1-6.5-2.7c-1.7-2-2.7-4.4-2.7-7.5s0.7-5.8,2.4-7.5s3.7-2.7,6.8-2.7c2.7,0,4.8,1,6.5,2.7
					c1.7,2,2.4,4.4,2.4,7.5c0,3.4-0.7,5.8-2.4,7.8C94.3,1085.3,92.3,1086.3,89.2,1086.3z M89.6,1083.6c3.7,0,5.8-2.7,5.8-7.8
					s-2-7.5-5.8-7.5c-3.7,0-5.8,2.4-5.8,7.5C83.8,1080.9,85.5,1083.6,89.6,1083.6z"/>
				<path d="M111,1086l-7.5-20.1h3.4l4.4,11.9c1,2.7,1.7,4.8,1.7,6.1l0,0c0-0.7,0.7-2.4,1.7-6.1l4.4-11.9h3.4l-7.5,20.1H111z"/>
				<path d="M145.4,1076.5h-14.3c0,4.4,2,6.8,6.5,6.8c2.4,0,4.8-0.3,6.8-1.4v3.1c-2,1-4.4,1.4-6.8,1.4c-3.1,0-5.4-1-7.2-2.7
					s-2.7-4.4-2.7-7.5c0-3.4,0.7-5.8,2.4-7.8s3.7-2.7,6.8-2.7c2.7,0,4.8,0.7,6.1,2.4s2.4,3.7,2.4,6.5V1076.5L145.4,1076.5z
					 M131.5,1073.7H142c0-3.7-1.7-5.4-5.1-5.4C133.5,1067.9,131.8,1070,131.5,1073.7z"/>
				<path d="M168.6,1086v-12.9c0-1.7,0-3.1-0.3-3.7c-0.3-0.7-1-1-1.7-1c-1,0-1.7,0.3-2.4,1.4c-0.3,1-0.7,2.7-0.7,5.1v11.2h-3.1
					v-12.9c0-3.1-0.7-4.8-2.4-4.8c-1,0-1.7,0.3-2,1.4s-0.7,3.1-0.7,5.8v10.6h-3.1v-20.1h2.4l0.3,2.7h0.3c0.7-2,2-3.1,3.7-3.1
					c2,0,3.4,1,3.7,3.4l0,0c1-2.4,2.4-3.4,4.1-3.4s2.7,0.7,3.4,1.7s1,3.1,1,5.8v13.3h-2.7V1086z"/>
				<path d="M182.2,1083.3L182.2,1083.3l-1,2.4h-2.4V1057h3.4v6.8c0,1,0,2.4,0,4.1l0,0c1.4-2,3.4-3.1,5.8-3.1c2.4,0,4.4,1,5.8,2.7
					c1.4,1.7,2,4.4,2,7.8s-0.7,5.8-2,7.8c-1.4,1.7-3.4,2.7-5.8,2.7C185.6,1086.3,183.6,1085.3,182.2,1083.3z M182.2,1075.8
					c0,2.7,0.3,4.8,1.4,5.8c0.7,1,2,1.7,4.1,1.7c3.4,0,5.1-2.7,5.1-7.8s-1.7-7.5-5.1-7.5c-2,0-3.4,0.7-4.1,1.7
					C182.5,1071,182.2,1073.1,182.2,1075.8z"/>
				<path d="M220.4,1076.5H206c0,4.4,2,6.8,6.5,6.8c2.4,0,4.8-0.3,6.8-1.4v3.1c-2,1-4.4,1.4-6.8,1.4c-3.1,0-5.4-1-7.2-2.7
					s-2.7-4.4-2.7-7.5c0-3.4,0.7-5.8,2.4-7.8c1.7-2,3.7-2.7,6.8-2.7c2.7,0,4.8,0.7,6.1,2.4c1.4,1.7,2.4,3.7,2.4,6.5V1076.5z
					 M206,1073.7h10.6c0-3.7-1.7-5.4-5.1-5.4C208.4,1067.9,206.4,1070,206,1073.7z"/>
				<path d="M243.2,1066.2l-1,3.1c-1.4-0.7-2.7-0.7-4.1-0.7c-2,0-3.4,0.7-4.8,1.7c-1,1-1.7,2.7-1.7,4.8v10.9h-3.4v-20.1h2.7l0.3,3.7
					l0,0c1-1.4,2-2.4,3.1-3.1c1-0.7,2.4-1,4.1-1C240.1,1065.2,241.8,1065.6,243.2,1066.2z"/>
				<path d="M292.2,1086h-16.7v-2.7l6.5-7.2c2.4-2.7,4.1-4.4,4.8-5.8c0.7-1.4,1-2.7,1-4.1c0-1.4-0.3-2.4-1-3.4
					c-0.7-0.7-1.7-1.4-3.1-1.4c-2,0-3.7,0.7-5.8,2.4l-2-2c2.4-2,4.8-3.1,7.8-3.1c2.4,0,4.1,0.7,5.4,2c1.4,1.4,2,3.1,2,5.1
					c0,1.4-0.3,3.1-1,4.4c-0.7,1.4-2.4,3.7-5.4,6.8l-5.1,5.4l0,0h12.6L292.2,1086L292.2,1086z"/>
				<path d="M306.5,1086.3c-2.7,0-4.8-1-6.5-3.4c-1.7-2.4-2-5.8-2-10.2c0-9.2,2.7-14,8.5-14c2.7,0,5.1,1,6.5,3.4
					c1.4,2.4,2,5.8,2,10.2C315,1081.6,312.3,1086.3,306.5,1086.3z M306.5,1083.3c1.7,0,3.1-1,4.1-2.7c1-1.7,1.4-4.4,1.4-8.5
					c0-3.7-0.3-6.8-1.4-8.5c-1-1.7-2-2.7-4.1-2.7c-1.7,0-3.1,1-3.7,2.7s-1.4,4.4-1.4,8.5c0,3.7,0.3,6.8,1.4,8.5
					C303.5,1082.6,304.8,1083.3,306.5,1083.3z"/>
				<path d="M331.4,1086h-3.1v-16.7c0-1.4,0-3.7,0-6.5c-0.3,0.7-1.4,1.4-2.4,2l-2.4,2l-1.7-2.4l7.2-5.4h2.7v26.9H331.4z"/>
				<path d="M359.3,1079.9h-3.7v6.1h-3.1v-6.1h-12.3v-3.1l12.3-18.1h3.4v18.1h3.7v3.1H359.3z M352.5,1076.8v-6.5c0-2,0-4.8,0.3-7.8
					l0,0c-0.3,1.4-1,2.4-1.7,3.4l-7.5,11.2h8.9V1076.8z"/>
			</g>
			<g>
				<path d="M597,1086H594v-16.7c0-1.4,0-3.7,0-6.5c-0.3,0.7-1.4,1.4-2.4,2l-2.4,2l-1.7-2.4l7.2-5.4h2.7v26.9H597z"/>
				<path d="M613,1080.2c1.7,0,2.7,1,2.7,3.1s-1,3.1-2.7,3.1s-2.7-1-2.7-3.1S611,1080.2,613,1080.2z"/>
				<path d="M635.9,1071.7L635.9,1071.7c4.4,0.7,6.5,2.7,6.5,6.5c0,2.4-0.7,4.4-2.4,5.8s-4.1,2-7.5,2c-3.1,0-5.4-0.3-7.2-1.4v-3.1
					c2.4,1,4.4,1.7,7.2,1.7c4.4,0,6.5-1.7,6.5-5.4c0-3.1-2.4-4.8-7.2-4.8h-2.4v-2.7h2.4c2,0,3.4-0.3,4.4-1.4c1-1,1.7-2,1.7-3.7
					c0-1.4-0.3-2.4-1.4-3.1s-2-1-3.4-1c-2,0-4.4,0.7-6.5,2.4l-1.7-2.4c2.4-1.7,5.1-2.7,8.2-2.7c2.4,0,4.4,0.7,5.8,1.7
					c1.4,1.4,2,2.7,2,4.8c0,1.7-0.3,3.1-1.4,4.1C638.9,1070.7,637.6,1071.4,635.9,1071.7z"/>
				<path d="M659,1071.7L659,1071.7c4.4,0.7,6.5,2.7,6.5,6.5c0,2.4-0.7,4.4-2.4,5.8c-1.7,1.4-4.1,2-7.5,2c-3.1,0-5.4-0.3-7.2-1.4
					v-3.1c2.4,1,4.4,1.7,7.2,1.7c4.4,0,6.5-1.7,6.5-5.4c0-3.1-2.4-4.8-7.2-4.8h-2.4v-2.7h2.4c2,0,3.4-0.3,4.4-1.4c1-1,1.7-2,1.7-3.7
					c0-1.4-0.3-2.4-1.4-3.1c-1-0.7-2-1-3.4-1c-2,0-4.4,0.7-6.5,2.4l-1.7-2.4c2.4-1.7,5.1-2.7,8.2-2.7c2.4,0,4.4,0.7,5.8,1.7
					c1.4,1.4,2,2.7,2,4.8c0,1.7-0.3,3.1-1.4,4.1C662.1,1070.7,660.7,1071.4,659,1071.7z"/>
				<path d="M673.3,1086v-26.9h3.4v23.8h11.6v3.1H673.3z"/>
				<path d="M698.5,1083.3L698.5,1083.3l-1,2.4h-2.4V1057h3.4v6.8c0,1,0,2.4,0,4.1l0,0c1.4-2,3.4-3.1,5.8-3.1c2.4,0,4.4,1,5.8,2.7
					c1.4,1.7,2,4.4,2,7.8s-0.7,5.8-2,7.8c-1.4,1.7-3.4,2.7-5.8,2.7C701.9,1086.3,699.9,1085.3,698.5,1083.3z M698.5,1075.8
					c0,2.7,0.3,4.8,1.4,5.8c0.7,1,2,1.7,4.1,1.7c3.4,0,5.1-2.7,5.1-7.8s-1.7-7.5-5.1-7.5c-2,0-3.4,0.7-4.1,1.7
					C698.9,1071,698.5,1073.1,698.5,1075.8z"/>
			</g>
			<g>
				<path d="M521.1,1197.7L521.1,1197.7c6.1,1,8.9,3.7,8.9,8.9c0,3.4-1,6.1-3.4,7.8c-2.4,2-5.4,3.1-9.9,3.1c-4.1,0-7.2-0.7-9.5-2
					v-4.1c3.1,1.7,6.1,2.4,9.5,2.4c5.8,0,8.9-2.4,8.9-7.2c0-4.4-3.1-6.5-9.5-6.5h-3.4v-3.7h3.4c2.7,0,4.8-0.7,6.1-2
					c1.4-1.4,2-3.1,2-5.1c0-1.7-0.7-3.1-1.7-4.1c-1-1-2.7-1.4-4.4-1.4c-3.1,0-5.8,1-8.5,3.1l-2.4-3.1c3.1-2.4,6.8-3.7,10.9-3.7
					c3.4,0,6.1,0.7,8.2,2.4c2,1.7,2.7,3.7,2.7,6.5c0,2.4-0.7,4.1-2,5.8C525.5,1196.3,523.5,1197.4,521.1,1197.7z"/>
				<path d="M546.3,1209.3c2.4,0,3.7,1.4,3.7,4.1s-1.4,4.1-3.7,4.1c-2.4,0-3.7-1.4-3.7-4.1S543.9,1209.3,546.3,1209.3z"/>
				<path d="M563.7,1217.1v-3.7c1,0.3,2.4,0.7,4.1,0.7c3.7,0,6.5-1,8.5-3.4c1.7-2.4,2.7-6.1,3.1-11.2H579c-1.7,2.7-4.1,4.1-7.8,4.1
					c-3.1,0-5.8-1-7.5-3.1s-2.7-4.8-2.7-8.2c0-3.7,1-6.8,3.1-8.9s4.8-3.4,8.2-3.4c3.7,0,6.5,1.4,8.9,4.4c2,2.7,3.1,6.8,3.1,11.9
					c0,14.3-5.4,21.5-16,21.5C566.4,1217.5,564.7,1217.1,563.7,1217.1z M565.4,1192.3c0,2.4,0.7,4.4,1.7,5.4c1,1.4,2.7,2,4.8,2
					c2,0,3.7-0.7,5.4-2s2-2.7,2-4.8c0-2.4-0.7-4.8-2-6.5c-1.4-1.7-3.1-2.7-5.4-2.7c-2,0-3.7,0.7-5.1,2
					C565.4,1187.1,565.4,1189.5,565.4,1192.3z"/>
				<path d="M595,1217.1v-3.7c1,0.3,2.4,0.7,4.1,0.7c3.7,0,6.5-1,8.5-3.4c1.7-2.4,2.7-6.1,3.1-11.2h-0.3c-1.7,2.7-4.1,4.1-7.8,4.1
					c-3.1,0-5.8-1-7.5-3.1s-2.7-4.8-2.7-8.2c0-3.7,1-6.8,3.1-8.9c2-2,4.8-3.4,8.2-3.4c3.7,0,6.5,1.4,8.9,4.4c2,2.7,3.1,6.8,3.1,11.9
					c0,14.3-5.4,21.5-16,21.5C597.7,1217.5,596,1217.1,595,1217.1z M596.7,1192.3c0,2.4,0.7,4.4,1.7,5.4c1,1.4,2.7,2,4.8,2
					c2,0,3.7-0.7,5.4-2s2-2.7,2-4.8c0-2.4-0.7-4.8-2-6.5c-1.4-1.7-3.1-2.7-5.4-2.7c-2,0-3.7,0.7-5.1,2S596.7,1189.5,596.7,1192.3z"
					/>
				<path d="M648.1,1180.3v23.5c0,4.4-1,7.5-3.1,9.9c-2,2.4-5.1,3.4-9.2,3.4c-8.2,0-11.9-4.4-11.9-13.6V1180h4.8v23.2
					c0,6.5,2.4,9.5,7.5,9.5c4.8,0,7.5-3.1,7.5-9.5V1180h4.4V1180.3z"/>
				<path d="M656,1215.8v-4.4c3.4,1.4,6.8,2,10.2,2c5.8,0,8.9-2,8.9-6.1c0-1.7-0.7-3.1-1.7-4.1c-1-1-3.4-2-7.2-3.4
					c-3.4-1.4-5.8-2.7-7.5-4.4c-1.4-1.7-2.4-3.7-2.4-6.5s1-5.1,3.1-6.8s5.1-2.4,8.9-2.4c3.7,0,7.2,0.7,10.2,2l-1.7,4.1
					c-3.1-1.4-6.1-2-8.9-2c-4.8,0-7.2,1.7-7.2,5.1c0,1.7,0.7,3.1,1.7,4.1c1,1,3.4,2,6.8,3.4c4.1,1.4,6.8,3.1,8.2,4.4
					c1.4,1.7,2,3.4,2,6.1c0,3.1-1,5.8-3.4,7.5s-5.4,2.7-9.9,2.7C662.1,1217.5,658.3,1216.8,656,1215.8z"/>
				<path d="M687.6,1216.8v-36.4h8.5c5.1,0,9.5,1.7,12.3,4.8c3.1,3.1,4.4,7.5,4.4,13.3c0,6.1-1.4,10.6-4.4,14
					c-3.1,3.4-7.5,4.8-13.3,4.8h-7.5V1216.8z M692.4,1184.4v28.6h2.4c8.9,0,13.3-4.8,13.3-14.3s-4.1-14-12.3-14h-3.4V1184.4z"/>
			</g>
			<g>
				<path d="M70.8,1197.7L70.8,1197.7c6.1,1,8.9,3.7,8.9,8.9c0,3.4-1,6.1-3.4,7.8c-2.4,2-5.4,3.1-9.9,3.1c-4.1,0-7.2-0.7-9.5-2v-4.1
					c3.1,1.7,6.1,2.4,9.5,2.4c5.8,0,8.9-2.4,8.9-7.2c0-4.4-3.1-6.5-9.5-6.5h-3.4v-3.7h3.4c2.7,0,4.8-0.7,6.1-2s2-3.1,2-5.1
					c0-1.7-0.7-3.1-1.7-4.1c-1-1-2.7-1.4-4.4-1.4c-3.1,0-5.8,1-8.5,3.1l-2.4-3.1c3.1-2.4,6.8-3.7,10.9-3.7c3.4,0,6.1,0.7,8.2,2.4
					c2,1.7,2.7,3.7,2.7,6.5c0,2.4-0.7,4.1-2,5.8S73.6,1197.4,70.8,1197.7z"/>
				<path d="M96,1209.3c2.4,0,3.7,1.4,3.7,4.1s-1.4,4.1-3.7,4.1c-2.4,0-3.7-1.4-3.7-4.1S93.7,1209.3,96,1209.3z"/>
				<path d="M122.9,1217.5c-3.7,0-6.8-1.7-8.5-4.8c-2-3.1-3.1-7.8-3.1-14c0-12.6,3.7-18.7,11.6-18.7c3.7,0,6.8,1.7,8.9,4.8
					s3.1,7.8,3.1,14C134.9,1211.3,130.8,1217.5,122.9,1217.5z M122.9,1213.7c2.4,0,4.1-1,5.4-3.4c1.4-2.4,1.7-6.1,1.7-11.6
					c0-5.1-0.7-8.9-1.7-11.2c-1-2.4-3.1-3.4-5.4-3.4c-2.4,0-4.1,1-5.4,3.4c-1,2.4-1.7,6.1-1.7,11.2c0,5.4,0.7,9.2,1.7,11.6
					C118.9,1212.4,120.6,1213.7,122.9,1213.7z"/>
				<path d="M155,1217.5c-3.7,0-6.8-1.7-8.5-4.8c-2-3.1-3.1-7.8-3.1-14c0-12.6,3.7-18.7,11.6-18.7c3.7,0,6.8,1.7,8.9,4.8
					s3.1,7.8,3.1,14C166.5,1211.3,162.5,1217.5,155,1217.5z M155,1213.7c2.4,0,4.1-1,5.4-3.4s1.7-6.1,1.7-11.6
					c0-5.1-0.7-8.9-1.7-11.2s-3.1-3.4-5.4-3.4c-2.4,0-4.1,1-5.4,3.4c-1,2.4-1.7,6.1-1.7,11.2c0,5.4,0.7,9.2,1.7,11.6
					C150.5,1212.4,152.2,1213.7,155,1213.7z"/>
				<path d="M193.4,1180.3l-15.7,36.4h-4.4l15.7-36.4H193.4z"/>
				<path d="M203.7,1216.8v-36.4h4.8v32.4h16v4.1H203.7z"/>
				<path d="M237.7,1213.4L237.7,1213.4l-1.4,3.4H233V1178h4.4v9.5c0,1.4,0,3.1-0.3,5.8h0.3c1.7-2.7,4.4-4.1,8.2-4.1
					c3.4,0,6.1,1.4,7.8,3.7c2,2.4,2.7,5.8,2.7,10.6c0,4.4-1,7.8-2.7,10.6c-2,2.4-4.4,3.7-7.8,3.7
					C242.5,1217.5,239.8,1216.1,237.7,1213.4z M237.7,1203.2c0,3.7,0.7,6.5,1.7,8.2s3.1,2.4,5.4,2.4c4.4,0,6.8-3.4,6.8-10.6
					c0-6.8-2.4-10.2-6.8-10.2c-2.7,0-4.4,0.7-5.4,2.4S237.7,1199.4,237.7,1203.2z"/>
			</g>
		</g>
	</g>
	<g>
		<rect x="53.5" y="1121.1" width="661.4" height="3.4"/>
	</g>
	<g>
		<rect x="466.9" y="1122.8" width="3.4" height="106.9"/>
	</g>
</g>
<g>
	<rect x="79.9" y="938" width="12" height="60.9"/>
	<rect x="60.5" y="938" width="12" height="75.5"/>
	<rect x="102.1" y="938" width="5.5" height="60.9"/>
	<rect x="129.9" y="938" width="5.5" height="60.9"/>
	<rect x="145" y="938" width="6.4" height="60.9"/>
	<rect x="143" y="938" width="8.6" height="60.9"/>
	<rect x="179.6" y="938" width="11.3" height="60.9"/>
	<rect x="184.9" y="938" width="12" height="60.9"/>
	<rect x="212.1" y="938" width="7.8" height="60.9"/>
	<rect x="217" y="938" width="7.1" height="60.9"/>
	<rect x="249.6" y="938" width="10.8" height="60.9"/>
	<rect x="244.4" y="938" width="9.1" height="60.9"/>
	<rect x="287.1" y="938" width="5" height="60.9"/>
	<rect x="281.9" y="938" width="5" height="60.9"/>
	<rect x="323.6" y="938" width="4" height="60.9"/>
	<rect x="331.5" y="938" width="6.9" height="60.9"/>
	<rect x="339.5" y="938" width="7" height="60.9"/>
	<rect x="355.4" y="938" width="3.5" height="60.9"/>
	<rect x="374.2" y="938" width="5.9" height="60.9"/>
	<rect x="388.2" y="938" width="5.7" height="60.9"/>
	<rect x="415.4" y="938" width="3.6" height="60.9"/>
	<rect x="434" y="938" width="3.7" height="60.9"/>
	<rect x="444.6" y="938" width="5.9" height="60.9"/>
	<rect x="479" y="938" width="7.3" height="60.9"/>
	<rect x="484.4" y="938" width="4.5" height="60.9"/>
	<rect x="516.7" y="938" width="7.5" height="60.9"/>
	<rect x="526.9" y="938" width="10.1" height="60.9"/>
	<rect x="543.5" y="938" width="9.7" height="60.9"/>
	<rect x="676.6" y="938" width="11" height="60.9"/>
	<rect x="565.3" y="938" width="8.8" height="60.9"/>
	<rect x="604" y="938" width="7.1" height="60.9"/>
	<rect x="594.4" y="938" width="10.5" height="60.9"/>
	<rect x="617.5" y="938" width="3.9" height="60.9"/>
	<rect x="635.5" y="938" width="4.5" height="60.9"/>
	<rect x="659.4" y="938" width="12" height="60.9"/>
	<rect x="695.5" y="938" width="12" height="75.5"/>
	<rect x="249.6" y="938" width="10.8" height="60.9"/>
	<rect x="244.4" y="938" width="9.1" height="60.9"/>
	<rect x="159.9" y="938" width="5" height="60.9"/>
	<rect x="281.9" y="938" width="5" height="60.9"/>
	<rect x="323.6" y="938" width="4" height="60.9"/>
	<rect x="331.5" y="938" width="6.9" height="60.9"/>
	<rect x="636.5" y="938" width="7" height="60.9"/>
	<rect x="355.4" y="938" width="3.5" height="60.9"/>
	<rect x="459.2" y="938" width="5.9" height="60.9"/>
	<rect x="473.2" y="938" width="5.7" height="60.9"/>
</g>
</svg>
