<?xml version="1.0" encoding="utf-8"?>
<!-- Generator: Adobe Illustrator 18.0.0, SVG Export Plug-In . SVG Version: 6.00 Build 0)  -->
<!DOCTYPE svg PUBLIC "-//W3C//DTD SVG 1.1//EN" "http://www.w3.org/Graphics/SVG/1.1/DTD/svg11.dtd">
<svg version="1.1" id="Layer_1" xmlns="http://www.w3.org/2000/svg" xmlns:xlink="http://www.w3.org/1999/xlink" x="0px" y="0px"
	 viewBox="0 0 429.6 226.9" enable-background="new 0 0 429.6 226.9" xml:space="preserve">
<path fill="#FFE527" d="M429.5,109.7L429.5,109.7L429.5,109.7l-0.1-0.2h-0.1l0-0.1h-0.1l0-0.1h-0.1l0-0.1H429l0-0.1h-0.1l0-0.1h-0.1
	l0-0.1h-0.1l0-0.1h-0.1l0-0.1h-0.1l0-0.1h-0.1l0-0.1h-0.1l-7.7-7.7l0-0.1h-0.1l0-0.1h-0.1l0-0.1h-0.1l0-0.1h-0.1l0-0.1h-0.1l0-0.1
	H420l0-0.1h-0.1l0-0.1h-0.1l0-0.1h-34.5l-3.5,24.6c-5.3-3.2-11-4.7-18.2-4.7c-11.3,0-19.8,5.2-25.3,15.3c-0.3-0.4-0.7-0.7-1-1
	l-9.7-9.7c-3.4-3.1-8.3-4.6-14.8-4.6c-5.1,0-10.1,1.3-16,4.2l0,0h-0.1l0-0.1h-0.1l0-0.1h-0.1l0-0.1h-0.1l0-0.1h-0.1l0-0.1h-0.1
	l0-0.1h-0.1l0-0.1H296l0-0.1h-0.1l0-0.1h-0.1l0-0.1h-0.1l0-0.1h-0.1l0-0.1h-0.1l0-0.1h-0.1l0-0.1h-0.1l0-0.1h-0.1l0-0.1h-0.1l0-0.1
	H295l0-0.1h-0.1l0-0.1h-0.1l0-0.1h-0.1l0-0.1h-0.1l0-0.1h-0.1l0-0.1h-0.1l0-0.1h-0.1l0-0.1h-0.1l0-0.1h-0.1l0-0.1H294l0-0.1h-0.1
	l0-0.1h-34.5l-0.5,3.8h-0.1l0-0.1h-0.1l0-0.1h-0.1l0-0.1h-0.1l0-0.1h-0.1l0-0.1h-0.1l0-0.1h-0.1l0-0.1h-0.1l0-0.1h-0.1l0-0.1H258
	l0-0.1h-0.1l0-0.1h-0.1l0-0.1h-0.1l0-0.1h-0.1l0-0.1h-0.1l0-0.1h-0.1l0-0.1h-0.1l0-0.1h-0.1l0-0.1h-0.1l0-0.1H257l0-0.1h-0.1l0-0.1
	h-0.1l0-0.1h-0.1l0-0.1h-0.1l0-0.1h-0.1l0-0.1h-0.1l0-0.1h-0.1l0-0.1h-0.1l0-0.1h-0.1l0-0.1H256l0-0.1h-0.1l0-0.1h-0.1l0-0.1h-0.1
	l0-0.1h-0.1l0-0.1h-0.1l0-0.1h-0.1l0-0.1h-0.1l0-0.1h-0.1l0-0.1h-32.8c2.3-1.2,4.7-2.5,7.2-4l2.2-1.3l-6.4-16.4h6.1l0.5-2.3
	c1-4.3,1.4-6.5,1.9-9.2c1.9-11.2-0.1-20.6-5.7-27.2c-0.4-0.5-0.8-0.9-1.2-1.3l-9.7-9.7c-5.7-5.9-14.2-9-24.8-9
	c-15.9,0-28.3,5.8-35.8,16.8c-0.2-0.3-0.5-0.6-0.7-0.9c-0.4-0.5-0.9-1-1.4-1.4l-9.7-9.7c-3.4-3.1-8.3-4.6-14.8-4.6
	c-2.5,0-5,0.3-7.5,1l1.5-11H124l0-0.1h-0.1l0-0.1h-0.1l0-0.1h-0.1l0-0.1h-0.1l0-0.1h-0.1l0-0.1h-0.1l0-0.1h-0.1l0-0.1h-0.1l0-0.1
	h-0.1l0-0.1H123l0-0.1h-0.1l0-0.1h-0.1l0-0.1h-0.1l0-0.1h-0.1l-7.3-7.3l0-0.1h-0.1l0-0.1h-0.1l0-0.1H115l0-0.1h-0.1l0-0.1h-0.1
	l0-0.1h-0.1l0-0.1h-0.1l0-0.1h-0.1l0-0.1h-0.1l0-0.1h-0.1l0-0.1H79.8l-3.4,24.3h0l0-0.1h-0.1l0-0.1h-0.1l0-0.1h-0.1l0-0.1H76l0-0.1
	h-0.1l0-0.1h-0.1l0-0.1h-0.1l0-0.1h-0.1l0-0.1h-0.1l0-0.1h-0.1l0-0.1h-0.1l0-0.1h-0.1l0-0.1h-0.1l0-0.1H75l0-0.1h-0.1l0-0.1h-0.1
	l0-0.1h-0.1l0-0.1h-0.1l0-0.1h-0.1l0-0.1h-0.1l0-0.1h-0.1l0-0.1h-0.1l0-0.1h-0.1l0-0.1H74l0-0.1h-0.1l0-0.1h-0.1l0-0.1h-0.1l0-0.1
	h-0.1l0-0.1h-0.1l0-0.1h-0.1l0-0.1h-0.1l0-0.1h-4.2l0.6-4.3h-0.1l0-0.1h-0.1l0-0.1h-0.1l0-0.1h-0.1l0-0.1h-0.1l0-0.1h-0.1l0-0.1
	h-0.1l0-0.1H69l0-0.1h-0.1l0-0.1h-0.1l0-0.1h-0.1l0-0.1h-0.1l0-0.1h-0.1L61,29l0-0.1h-0.1l0-0.1h-0.1l0-0.1h-0.1l0-0.1h-0.1l0-0.1
	h-0.1l0-0.1h-0.1l0-0.1h-0.1l0-0.1h-0.1l0-0.1h-0.1l0-0.1H60l0-0.1h-0.1l0-0.1H25.4l-2,14.1h-9.2l-4.1,29.7h0.1l0,0.1h0.1l0,0.1h0.1
	l0,0.1h0.1l0,0.1h0.1l0,0.1l6.4,6.4h0.1l0,0.1h0.1l0,0.1h0.1l0,0.1h0.1l0,0.1h0.1l0,0.1h0.1l0,0.1h0.1l0,0.1H18l0,0.1h0.2l-0.8,5.8
	c-1.7,12.1-0.2,20.7,4.6,26.1c0.3,0.3,0.6,0.6,0.9,0.9l1.1-1.1l-1,1.2l0.7,0.7l1.1-1.1l-1,1.2l0.1,0.1l1.1-1.1l-0.9,1.2l2.8,2.8
	l1.1-1.1l-1,1.2l0.4,0.4l1.1-1.1l-1,1.2l0.3,0.3l1.1-1.1l-1,1.1l0.3,0.3l1.1-1.1l-1,1.2l1.7,1.7l1.1-1.1l-1,1.2l1.2,1.2l1.1-1.1
	l-1,1.2l0.4,0.4l1.1-1.1l-1,1.2l0.1,0.1h-13l-13.5,96h0.1l9.7,9.7l0,0.1h34.5l3.5-24.9c4.3,3.4,8.7,5.2,16.5,5.2
	c16.8,0,25.1-12.9,28.6-20.6c0.1,0.1,0.2,0.3,0.4,0.4c0.4,0.5,0.8,0.9,1.2,1.3l1.1-1.1l-1,1.2l0.7,0.7l1.1-1.1l-1,1.1l1.1,1.1l1-1.1
	l-1,1.2l0.4,0.4l1.1-1.1l-1,1.1l0.6,0.6l1.1-1.1l-1,1.2l0.5,0.5l1.1-1.1l-1,1.1l0.5,0.5l1.1-1.1l-1,1.1l0.7,0.7l1.1-1.1l-1,1.1
	l0.5,0.5l1.1-1.1l-1,1.1l0.6,0.6l1-1.1l-1,1.2l0.5,0.5l1.1-1.1l-1,1.1l0.5,0.5l1.1-1.1l-1,1.2l0.6,0.6l1.1-1.1l-1,1.1l1.2,1.2
	l1.1-1.1l-1,1.1l0.1,0.1c6,6.1,15.4,9.1,27.9,9.1c17.7,0,30.3-6.2,37.6-18.3c0.4,0.6,0.8,1.1,1.2,1.6c0.5,0.6,1,1.1,1.6,1.6
	c0,0,0.1,0.1,0.1,0.1v0c0,0.1,0.1,0.1,0.1,0.1c0,0,0.1,0.1,0.1,0.1c0,0,0.1,0.1,0.1,0.1c0,0,0.1,0.1,0.1,0.1c0,0.1,0.1,0.1,0.1,0.1
	v0c0,0,0.1,0.1,0.1,0.1c0,0.1,0.1,0.1,0.1,0.1c0,0,0.1,0.1,0.1,0.1c0,0.1,0.1,0.1,0.1,0.1c0,0,0.1,0.1,0.1,0.1c0,0,0.1,0.1,0.1,0.1
	c0,0,0.1,0.1,0.1,0.1c0,0,0.1,0.1,0.1,0.1c0,0.1,0.1,0.1,0.1,0.1c0,0,0.1,0.1,0.1,0.1c0,0,0.1,0.1,0.1,0.1c0,0,0.1,0.1,0.1,0.1
	c0,0.1,0.1,0.1,0.1,0.1v0c0,0,0.1,0.1,0.1,0.1c0,0.1,0.1,0.1,0.1,0.1c0,0,0.1,0.1,0.1,0.1c0,0,0,0,0,0c0,0.1,0.1,0.1,0.1,0.1
	c0,0.1,0.1,0.1,0.1,0.1c0,0,0,0,0,0c0,0,0.1,0.1,0.1,0.1c0,0,0.1,0.1,0.1,0.1c0,0,0.1,0.1,0.1,0.1c0,0.1,0.1,0.1,0.1,0.1
	c0,0,0.1,0.1,0.1,0.1c0,0,0.1,0.1,0.1,0.1c0,0,0.1,0.1,0.1,0.1c0.1,0.1,0.1,0.1,0.1,0.1c0.1,0.1,0.1,0.1,0.1,0.1
	c0,0,0.1,0.1,0.1,0.1c0,0,0.1,0.1,0.1,0.1c0,0,0.1,0.1,0.1,0.1c0,0.1,0.1,0.1,0.1,0.1v0c0,0,0.1,0.1,0.1,0.1c0,0.1,0.1,0.1,0.1,0.1
	c0,0,0.1,0.1,0.1,0.1c0,0.1,0.1,0.1,0.1,0.1c0,0,0.1,0.1,0.1,0.1c0.1,0.1,0.1,0.1,0.1,0.1c0,0.1,0.1,0.1,0.1,0.1
	c0,0,0.1,0.1,0.1,0.1v0c0,0.1,0.1,0.1,0.1,0.1c0,0,0.1,0.1,0.1,0.1c0,0,0.1,0.1,0.1,0.1c0,0,0.1,0.1,0.1,0.1c0,0.1,0.1,0.1,0.1,0.1
	v0c0,0,0.1,0.1,0.1,0.1c0,0.1,0.1,0.1,0.1,0.1c0,0,0.1,0.1,0.1,0.1c0,0.1,0.1,0.1,0.1,0.1c0,0,0.1,0.1,0.1,0.1c0,0,0.1,0.1,0.1,0.1
	c0,0,0.1,0.1,0.1,0.1c0,0,0.1,0.1,0.1,0.1v0c0,0.1,0.1,0.1,0.1,0.1c0,0,0.1,0.1,0.1,0.1c0,0,0.1,0.1,0.1,0.1c0,0,0.1,0.1,0.1,0.1
	c0,0.1,0.1,0.1,0.1,0.1v0c0,0,0.1,0.1,0.1,0.1c0,0.1,0.1,0.1,0.1,0.1c0.1,0.1,0.1,0.1,0.1,0.1c0,0.1,0.1,0.1,0.1,0.1
	c0,0.1,0.1,0.1,0.1,0.1c0,0,0,0,0,0c0,0,0.1,0.1,0.1,0.1c0,0,0.1,0.1,0.1,0.1c0,0,0.1,0.1,0.1,0.1c0,0.1,0.1,0.1,0.1,0.1
	c0,0,0.1,0.1,0.1,0.1c0,0,0.1,0.1,0.1,0.1c0,0,0.1,0.1,0.1,0.1c0.1,0.1,0.1,0.1,0.1,0.1c0.1,0.1,0.1,0.1,0.1,0.1
	c0,0,0.1,0.1,0.1,0.1c0,0,0.1,0.1,0.1,0.1c0,0,0.1,0.1,0.1,0.1c0,0.1,0.1,0.1,0.1,0.1c0,0,0,0,0,0c0,0,0.1,0.1,0.1,0.1
	c0,0,0.1,0.1,0.1,0.1c0,0,0.1,0.1,0.1,0.1c0,0.1,0.1,0.1,0.1,0.1c0,0,0.1,0.1,0.1,0.1c0.1,0.1,0.1,0.1,0.1,0.1
	c0,0.1,0.1,0.1,0.1,0.1c0,0,0.1,0.1,0.1,0.1v0c0,0.1,0.1,0.1,0.1,0.1c0,0,0.1,0.1,0.1,0.1c0,0,0.1,0.1,0.1,0.1c0,0,0.1,0.1,0.1,0.1
	l0.5,0.5c4,3.6,9.6,5.4,16.7,5.4c4.6,0,9.1-1.1,13.9-3.4l0,0h0.1l0,0.1h0.1l0,0.1h0.1l0,0.1h0.1l0,0.1h0.1l0,0.1h0.1l0,0.1h0.1
	l0,0.1h0.1l0,0.1h0.1l0,0.1h0.1l0,0.1h0.1l0,0.1h0.1l0,0.1h0.1l0,0.1h0.1l0,0.1h0.1l0,0.1h0.1l0,0.1h0.1l0,0.1h0.1l0,0.1h0.1l0,0.1
	h0.1l0,0.1h0.1l0,0.1h34.5l0.5-3.8h0.1l0,0.1h0.1l0,0.1h0.1l0,0.1h0.1l0,0.1h0.1l0,0.1h0.1l0,0.1h0.1l0,0.1h0.1l0,0.1h0.1l0,0.1h0.1
	l0,0.1h0.1l0,0.1h0.1l0,0.1h0.1l0,0.1h0.1l0,0.1h0.1l0,0.1h0.1l0,0.1h0.1l0,0.1h0.1l0,0.1h0.1l0,0.1h0.1l0,0.1h0.1l0,0.1h0.1l0,0.1
	h0.1l0,0.1h0.1l0,0.1h0.1l0,0.1h0.1l0,0.1h0.1l0,0.1h0.1l0,0.1h0.1l0,0.1h0.1l0,0.1h0.1l0,0.1h0.1l0,0.1h0.1l0,0.1h0.1l0,0.1h0.1
	l0,0.1h0.1l0,0.1h0.1l0,0.1h0.1l0,0.1h34.5l1-7.2h0.1l0,0.1h0.1l0,0.1h0.1l0,0.1h0.1l0,0.1h0.1l0,0.1h0.1l0,0.1h0.1l0,0.1h0.1l0,0.1
	h0.1l0,0.1h0.1l0,0.1h0.1l0,0.1h0.1l0,0.1h0.1l0,0.1h0.1l0,0.1h0.1l0,0.1h0.1l0,0.1h0.1l0,0.1h0.1l0,0.1h0.1l0,0.1h0.1l0,0.1h0.1
	l0,0.1h0.1l0,0.1h0.1l0,0.1h0.1l0,0.1h0.1l0,0.1h0.1l0,0.1h0.1l0,0.1h0.1l0,0.1h0.1l0,0.1h0.1l0,0.1h0.1l0,0.1h0.1l0,0.1h0.1l0,0.1
	h0.1l0,0.1h0.1l0,0.1h0.1l0,0.1h0.1l0,0.1h0.1l0,0.1h0.1l0,0.1h0.1l0,0.1h0.1l0,0.1h0.1l0,0.1h0.1l0,0.1h0.1l0,0.1h0.1l0,0.1h0.1
	l0,0.1h0.1l0,0.1h0.1l0,0.1h0.1l0,0.1h0.1l0,0.1h0.1l0,0.1h0.1l0,0.1h0.1l0,0.1h0.1l0,0.1h0.1l0,0.1h0.1l0,0.1h0.1l0,0.1h0.1l0,0.1
	h0.1l0,0.1h0.1l0,0.1h0.1l0,0.1h0.1l0,0.1h0.1l0,0.1h0.1l0,0.1h0.1l0,0.1h0.1l0,0.1h0.1l0,0.1h0.1l0,0.1h0.1l0,0.1h0.1l0,0.1h0.1
	l0,0.1h0.1l0,0.1h0.1l0,0.1H336l2.3-16.7c0,0,0,0,0,0c0.3,0.4,0.6,0.7,1,1l0.3,0.3l1.1-1.1l-1,1.1l0.2,0.2l1.1-1.1l-1,1.1l1.1-1
	l-1,1.1l0.1,0.1l1.1-1.1l-1,1.1l0.2,0.2l1.1-1.1l-1,1.1l0.3,0.3l1.1-1.1l-1,1.1l0.2,0.2l1.1-1.1l-1,1.1l1.1-1l-1,1.1l0.1,0.1
	l1.1-1.1l-1,1.1l0.2,0.2l1.1-1.1l-1,1.1l0.3,0.3l1.1-1.1l-1,1.1l0.2,0.2l1.1-1.1l-1,1.1l0.2,0.2l1.1-1.1l-1,1.1l0.2,0.2l1.1-1.1
	l-1,1.1l0.3,0.3l1.1-1.1l-1,1.1l0.2,0.2l1.1-1.1l-1,1.1l0.2,0.2l1.1-1.1l-1,1.1l0.2,0.2l1.1-1.1l-1,1.1l0.3,0.3l1.1-1.1l-1,1.1
	l0.2,0.2l1.1-1.1l-1,1.1l0.2,0.2l1.1-1.1l-1,1.1l0.2,0.2l1.1-1.1l-1,1.1l0.3,0.3l1.1-1.1l-1,1.1l0.2,0.2l1.1-1.1l-1,1.1l0.2,0.2
	l1.1-1.1l-1,1.1l0.3,0.3l1.1-1.1l-1,1.1l0.2,0.2l1.1-1.1l-1,1.1l0.2,0.2l1.1-1.1l-1,1.1l0.2,0.2l1.1-1.1l-1,1.1l0.3,0.3l1.1-1.1
	l-1,1.1l0.2,0.2l1.1-1.1l-1,1.1l1.1-1l-1,1.1l0.1,0.1l1.1-1.1l-1,1.1c4.5,4.7,10.7,7.2,17.9,7.2c5.5,0,9.5-0.8,13.3-2.6l0,0.1h0.1
	l0,0.1h0.1l0,0.1h0.1l0,0.1h0.1l0,0.1h0.1l0,0.1h0.1l0,0.1h0.1l0,0.1h0.1l0,0.1h0.1l0,0.1h0.1l0,0.1h0.1l0,0.1h0.1l0,0.1h0.1l0,0.1
	h34.5l13.5-96.2H429.5z M225,59.4L225,59.4L225,59.4L225,59.4z M224.5,58.9L224.5,58.9L224.5,58.9L224.5,58.9z M224.1,58.5
	L224.1,58.5L224.1,58.5L224.1,58.5z M223.6,58L223.6,58L223.6,58L223.6,58z M223.2,57.6L223.2,57.6L223.2,57.6L223.2,57.6z
	 M222.8,57.2L222.8,57.2L222.8,57.2L222.8,57.2z M27.8,115L27.8,115L27.8,115L27.8,115z M69.6,93.4L69.6,93.4l-0.1-0.1h-0.1l0-0.1
	h-0.1l0-0.1h-0.1l0-0.1h-0.1l0-0.1H69l0-0.1h-0.1l0-0.1h-0.1l0-0.1h-0.1l0-0.1h-0.1l0-0.1h-0.1l0-0.1h-0.1l0-0.1h-0.1l0-0.1h-0.1
	l0-0.1h-0.1l0-0.1H68l0-0.1h-0.1l0-0.1h-0.1l0-0.1h-0.1l0-0.1h-0.1l0-0.1h-0.1l0-0.1h-0.1l0-0.1h-0.1l0-0.1h-0.1l0-0.1h-0.1l0-0.1
	h-0.1l0-0.1H67l0-0.1h-0.1l0-0.1h-0.1l0-0.1h-0.1l0-0.1h-0.1l0-0.1h-0.1l0-0.1h-0.1l0-0.1h-0.1l0-0.1h-0.1l0-0.1h-0.1l0-0.1H66
	l0-0.1h-0.1l0-0.1h-0.1l0-0.2h-3.2l1.1-8h7.6L69.6,93.4z M98.9,138.4c-0.4-0.6-0.8-1.1-1.2-1.6c-0.5-0.6-1.1-1.2-1.7-1.7
	c0,0-0.1-0.1-0.1-0.1c0,0,0,0,0,0c0,0-0.1-0.1-0.1-0.1c0,0-0.1-0.1-0.1-0.1c0,0-0.1-0.1-0.1-0.1c0,0-0.1-0.1-0.1-0.1
	c-0.1-0.1-0.1-0.1-0.1-0.1c0,0-0.1-0.1-0.1-0.1c0,0-0.1-0.1-0.1-0.1c0,0-0.1-0.1-0.1-0.1c0,0-0.1-0.1-0.1-0.1c0,0-0.1-0.1-0.1-0.1
	c-0.1-0.1-0.1-0.1-0.1-0.1c0,0-0.1-0.1-0.1-0.1c0,0-0.1-0.1-0.1-0.1c0,0,0,0,0,0c0,0-0.1-0.1-0.1-0.1c0,0-0.1-0.1-0.1-0.1
	c0,0-0.1-0.1-0.1-0.1c0,0-0.1-0.1-0.1-0.1c-0.1-0.1-0.1-0.1-0.1-0.1c0,0-0.1-0.1-0.1-0.1c0,0-0.1-0.1-0.1-0.1c0,0-0.1-0.1-0.1-0.1
	c0,0,0,0,0,0c0,0-0.1-0.1-0.1-0.1c0-0.1-0.1-0.1-0.1-0.1c-0.1-0.1-0.1-0.1-0.1-0.1c0,0-0.1-0.1-0.1-0.1c0,0-0.1-0.1-0.1-0.1
	c0,0,0,0,0,0c0,0-0.1-0.1-0.1-0.1c0,0-0.1-0.1-0.1-0.1c0,0-0.1-0.1-0.1-0.1c0,0-0.1-0.1-0.1-0.1c0-0.1-0.1-0.1-0.1-0.1c0,0,0,0,0,0
	c0,0-0.1-0.1-0.1-0.1c0,0-0.1-0.1-0.1-0.1h0c0,0-0.1-0.1-0.1-0.1c0,0,0,0,0,0c0,0-0.1-0.1-0.1-0.1c0-0.1-0.1-0.1-0.1-0.1
	c-0.1-0.1-0.1-0.1-0.1-0.1c0,0-0.1-0.1-0.1-0.1c0,0-0.1-0.1-0.1-0.1c0,0,0,0,0,0c0,0-0.1-0.1-0.1-0.1c0,0-0.1-0.1-0.1-0.1
	c0,0-0.1-0.1-0.1-0.1c0,0-0.1-0.1-0.1-0.1c0,0-0.1-0.1-0.1-0.1c0,0-0.1-0.1-0.1-0.1c0,0-0.1-0.1-0.1-0.1h0c0,0-0.1-0.1-0.1-0.1
	c0,0,0,0,0,0c0,0-0.1-0.1-0.1-0.1c0-0.1-0.1-0.1-0.1-0.1c-0.1-0.1-0.1-0.1-0.1-0.1c0,0-0.1-0.1-0.1-0.1l-3.3-3.3h22.3
	C105.4,129.7,101.8,133.6,98.9,138.4z M110.7,126.2l1-6.7h0l0,0.1h0.1l0,0.1h0.1l0,0.1h0.1l0,0.1h0.1l0,0.1h0.1l0,0.1h0.1l0,0.1h0.1
	l0,0.1h0.1l0,0.1h0.1l0,0.1h0.1l0,0.1h0.1l0,0.1h0.1l0,0.1h0.1l0,0.1h0.1l0,0.1h0.1l0,0.1h0.1l0,0.1h0.1l0,0.1h0.1l0,0.1h0.1l0,0.1
	h0.1l0,0.1h0.1l0,0.1h0.1l0,0.1h0.1l0,0.1h0.1l0,0.1h0.1l0,0.1h0.1l0,0.1h0.1l0,0.1h0.1l0,0.1h0.1l0,0.1h0.1l0,0.1h0.1l0,0.1h0.1
	l0,0.1h0.1l0,0.1h0.1l0,0.1h0.1l0,0.1h0.1l0,0.1h0.1l0,0.1h0.1l0,0.1h0.1l0,0.1h0.1l0,0.1h0C113.9,124.3,112.3,125.2,110.7,126.2z
	 M167.3,117L167.3,117L167.3,117L167.3,117z M166.6,116.3L166.6,116.3L166.6,116.3L166.6,116.3z M166,115.7L166,115.7L166,115.7
	L166,115.7z M165.6,115.3L165.6,115.3L165.6,115.3L165.6,115.3z M165.5,115.2L165.5,115.2L165.5,115.2L165.5,115.2z M164.9,114.6
	L164.9,114.6L164.9,114.6L164.9,114.6z M164.6,114.3L164.6,114.3L164.6,114.3L164.6,114.3z M164.1,113.8L164.1,113.8L164.1,113.8
	L164.1,113.8z M163.6,113.4L163.6,113.4L163.6,113.4L163.6,113.4z M161.3,111.1L161.3,111.1L161.3,111.1L161.3,111.1z M175.4,139.9
	c-0.1-0.1-0.1-0.2-0.2-0.3c-0.4-0.4-0.8-0.9-1.2-1.3l-0.1-0.1l-1.1,1c0,0,0,0,0,0l1-1.1l-0.1-0.1l-1.1,1l1-1.1l-1.1,1c0,0,0,0,0,0
	l1-1.1l-0.1-0.1l-1.1,1.1l0.9-1.2l-1.1,1l1-1.1l-0.1-0.1l-1.1,1c0,0,0,0,0,0l1-1.1l-0.1-0.1l-1.1,1l1-1.1l-1.1,1l1-1.1l-0.1-0.1
	l-1.1,1c0,0,0,0,0,0l1-1.1l-0.1-0.1l-1.1,1l1-1.1l-1.1,1c0,0,0,0,0,0l1-1.1l-0.1-0.1l-1.1,1.1l0.9-1.2l-1.1,1l1-1.1l-0.1-0.1l-1.1,1
	c0,0,0,0,0,0l1-1.1l-0.1-0.1l-1.1,1l1-1.1l-1.1,1l1-1.1l-0.1-0.1l-1.1,1c0,0,0,0,0,0l1-1.1l-0.1-0.1l-1.1,1l1-1.1l-1.1,1
	c0,0,0,0,0,0l1-1.1l-0.1-0.1l-1.1,1c0,0,0,0,0,0l1-1.1l-0.1-0.1l-1.1,1l1-1.1l-1.1,1c0,0,0,0,0,0l1-1.1l-0.1-0.1l-1.1,1l1-1.1
	l-1.1,1l1-1.1l-0.1-0.1l-1.1,1c0,0,0,0,0,0l1-1.1l-0.1-0.1l-1.1,1l1-1.1l-1.1,1c0,0,0,0,0,0l1-1.1l-0.1-0.1l-1.1,1c0,0,0,0,0,0
	l1-1.1l-0.1-0.1l-1.1,1l1-1.1l-1.1,1c0,0,0,0,0,0l1-1.1l-0.1-0.1l-1.1,1.1l0.9-1.2l-1.1,1l1-1.1l-0.1-0.1l-1.1,1c0,0,0,0,0,0l1-1.1
	l-0.1-0.1l-1.1,1l1-1.1l-1.1,1c0,0,0,0,0,0l1-1.1l-0.1-0.1l-1.1,1c0,0,0,0,0,0l1-1.1l-0.1-0.1l-1.1,1l1-1.1l-1.1,1c0,0,0,0,0,0
	l1-1.1l-0.1-0.1l-1.1,1.1l0.9-1.2l-1.1,1l1-1.1l-0.1-0.1l-1.1,1c0,0,0,0,0,0l1-1.1l-0.1-0.1l-1.1,1l1-1.1l-1.1,1l1-1.1l-0.1-0.1
	l-1.1,1c0,0,0,0,0,0l1-1.1l-0.1-0.1l-1.1,1l1-1.1l-1.1,1c0,0,0,0,0,0l1-1.1l-0.2-0.2l-1,1.1l1-1.2l-1.1,1.1l0.9-1.2l-1.1,1
	c0,0,0,0,0,0l1-1.1l-0.1-0.1l-1.1,1l1-1.1l-1.1,1l1-1.1l-0.1-0.1l-1.1,1c0,0,0,0,0,0l1-1.1l-0.1-0.1l-1.1,1l1-1.1l-1.1,1
	c0,0,0,0,0,0l1-1.1l-0.1-0.1l-1.1,1c0,0,0,0,0,0l1-1.1l-0.1-0.1l-1.1,1l1-1.1l-1.1,1c0,0,0,0,0,0l1-1.1l-0.1-0.1l-1.1,1.1l0.9-1.2
	l-1.1,1l1-1.1l-0.1-0.1l-1.1,1.1l1-1.2c-2.7-2.7-6.2-4.9-10.3-6.4l2-14.5c0.3,0.4,0.7,0.7,1,1.1l0.5,0.5l1.1-1.1l-1,1.2l1.1-1.1
	l-1,1.2l1.1-1.1l-1,1.2l0.2,0.2l1.1-1.1l-1,1.2l1.1-1.1l-1,1.2l0.4,0.4l1.1-1.1l-1,1.2l0.2,0.2l1.1-1.1c0,0,0,0,0,0l-1,1.2l0.1,0.1
	l1.1-1.1l-1,1.2l0.2,0.2l1.1-1.1c0,0,0,0,0,0l-1,1.2l1.1-1.1l-1,1.2l0.3,0.3l1.1-1.1l-1,1.2l0.2,0.2l1.1-1.1l-1,1.2l0.1,0.1l1.1-1.1
	l-1,1.2l0.2,0.2l1.1-1.1l-1,1.2l1.1-1.1l0,0h0l0,0l-1,1.2l0.3,0.3l1.1-1.1c0,0,0,0,0,0l-1,1.2l0.4,0.4l1.1-1.1c0,0,0,0,0,0l-1,1.2
	l0.2,0.2l1.1-1.1l-1,1.2l1.1-1.1l0,0h0l0,0l-1,1.2l0.2,0.2l1.1-1.1l-1,1.2l1.1-1.1c0,0,0,0,0,0l-1,1.2l0.9,0.9l1.1-1.1c0,0,0,0,0,0
	l-1,1.2l0.2,0.2l1.1-1.1l-1,1.2l0.5,0.5l1.1-1.1l-1,1.2l0.4,0.4l1.1-1.1l-1,1.2l1.2,1.2l1.1-1.1l-1,1.2l0.5,0.5
	c2.9,2.9,6.5,5.2,10.7,6.8L175.4,139.9z M220.1,54.5L220.1,54.5L220.1,54.5L220.1,54.5z M219.7,54.1L219.7,54.1L219.7,54.1
	L219.7,54.1z M219.2,53.6L219.2,53.6L219.2,53.6L219.2,53.6z M218.8,53.2L218.8,53.2L218.8,53.2L218.8,53.2z M218.4,52.8L218.4,52.8
	L218.4,52.8L218.4,52.8z M217.9,52.3L217.9,52.3L217.9,52.3L217.9,52.3z M217.5,52L217.5,52L217.5,52L217.5,52z M217.1,51.5
	L217.1,51.5L217.1,51.5L217.1,51.5z M219.7,128.3L219.7,128.3L219.7,128.3l-0.2-0.1l0-0.1h-0.1l0-0.1h-0.1l0-0.1h-0.1l0-0.1h-0.1
	l0-0.1h-0.1l0-0.1H219l0-0.1h-0.1l0-0.1h-0.1l0-0.1h-0.1l0-0.1h-0.1l0-0.1h-0.1l0-0.1h-0.1l0-0.1h-0.1l0-0.1h-0.1l0-0.1h-0.1l0-0.1
	H218l0-0.1h-0.1l0-0.1h-0.1l0-0.1h-0.1l0-0.1h-0.1l0-0.1h-0.1l0-0.1h-0.1l0-0.1h-0.1l0-0.1h-0.1l0-0.1h-0.1l0-0.1H217l0-0.1h-0.1
	l0-0.1h-0.1l0-0.1h-0.1l0-0.1h-0.1l0-0.1h-0.1l0-0.1h-0.1l0-0.1h-0.1l0-0.1h-0.1l0-0.1h-0.1l0-0.1H216l0-0.1h-0.1l0-0.1h-0.1l0-0.1
	h-0.1l0-0.1h-0.1l0-0.1h-0.1l0,0c1.7-0.6,3.4-1.4,5.1-2.2L219.7,128.3z M220.6,55L220.6,55L220.6,55L220.6,55z M221,55.4L221,55.4
	L221,55.4L221,55.4z M221.4,55.8L221.4,55.8L221.4,55.8L221.4,55.8z M221.9,56.3L221.9,56.3L221.9,56.3L221.9,56.3z M222.3,56.7
	L222.3,56.7L222.3,56.7L222.3,56.7z"/>
<g>
	<path fill="#EC345B" d="M48.8,85.4c-0.6,4.1-0.3,6.9,5.8,6.9h8.3l1.5,17.6c-5.1,3.2-13.2,5.2-23.4,5.2c-17.2,0-23.7-9.3-20.9-29.7
		l2.4-16.9h-9l3.2-23.7H26l2-14.1h28.5l-2,14.1h15.4l-3.2,23.7H51.2L48.8,85.4z"/>
	<path fill="#EC345B" d="M106.7,52.8c10.1-7,16.6-9.3,23.2-9.3c14.7,0,19.6,8.2,16.9,26.9l-6.1,43.4h-28.5l5.1-36.6
		c0.6-5.1-0.1-6.6-2.8-6.6c-3.5,0-7.9,2.1-11,4.5l-5.5,38.7H69.7l12.7-90.2h28.5L106.7,52.8z"/>
	<path fill="#EC345B" d="M218.2,104.5c-12.8,7.7-22.7,10.6-34.8,10.6c-22.5,0-34.7-13.5-31.6-36.2c3.2-23.1,17.5-35.5,40.6-35.5
		c20.4,0,32.3,12.4,28.6,34c-0.4,2.5-0.8,4.6-1.8,9h-40.9c0,5.5,2,7,8.5,7c9.3,0,15.4-2.3,24.8-5.8L218.2,104.5z M197.3,72.6
		c1.3-6.9-0.8-9.9-5.9-9.9c-5.5,0-8.9,3.4-11,9.9H197.3z"/>
	<path fill="#EC345B" d="M48.8,129.7c8-5.4,13.8-7,20.1-7c17.5,0,24.5,11.6,21.1,35.8c-3.7,25.8-16.8,35.8-30.4,35.8
		c-9.7,0-13.2-3-18.7-8.2L37,214H8.5l12.7-90h28.5L48.8,129.7z M43.5,167.9c2.4,2.1,4.5,2.7,7.6,2.7c6.1,0,9.9-4.9,11.1-13.8
		c1-7.5-0.6-10.1-5.2-10.1c-3.8,0-6.9,1.8-11.1,4.6L43.5,167.9z"/>
	<path fill="#EC345B" d="M168.6,158.4c-3.1,24.4-17.8,35.8-41.1,35.8c-25.2,0-35.4-12.8-32.1-35.8c3.4-24.4,18-35.9,41.1-35.9
		C161.7,122.5,171.8,135.5,168.6,158.4z M140.7,157.7c1.3-9.3-1.1-13-6.5-13c-6.5,0-10.3,5.5-11.6,14.2c-1.4,9.3,1,13.1,6.5,13.1
		C135.6,172.1,139.4,166.5,140.7,157.7z"/>
	<path fill="#EC345B" d="M242.1,193h-28.5l0.8-6.2c-8,5.4-14.1,7.5-20.3,7.5c-14.7,0-22.4-8.2-19.7-26.9l6.1-43.4H209l-5.2,37.3
		c-0.7,4.5,0.3,6.6,3,6.6c3.4,0,7-2,11-4.4l5.5-39.6h28.5L242.1,193z"/>
	<path fill="#EC345B" d="M289.4,131.4c10.4-6.6,16.9-8.7,23.2-8.7c14.7,0,19.6,8.2,16.9,26.9l-6.1,43.4h-28.5l5.1-36.6
		c0.7-4.8-0.6-6.6-3.4-6.6s-6.1,1.3-10.6,4.2l-5.4,39h-28.5l9.6-69h28.5L289.4,131.4z"/>
	<path fill="#EC345B" d="M403.6,193h-28.5l0.8-5.6c-6.2,4.9-10.3,6.9-18.9,6.9c-14.8,0-25.9-11.7-22.3-37.5
		c3.4-24.2,13.8-34.1,28.7-34.1c7.5,0,13.8,1.5,20.4,7l3.8-26.9h28.5L403.6,193z M381.2,150c-2.8-2.4-5.1-3.4-7.9-3.4
		c-5.8,0-9.6,4.4-10.6,11.8c-1.3,8.9,0.3,12.1,5.2,12.1c3.9,0,7.6-1.5,10.8-3.8L381.2,150z"/>
</g>
<g>
	<linearGradient id="SVGID_1_" gradientUnits="userSpaceOnUse" x1="251.7827" y1="99.5294" x2="248.7827" y2="-10.4706">
		<stop  offset="0.2413" style="stop-color:#276FFF"/>
		<stop  offset="1" style="stop-color:#8DB6FF"/>
	</linearGradient>
	<circle fill="url(#SVGID_1_)" cx="250.2" cy="41.8" r="41.7"/>
	<g>
		<path fill="#266FFF" d="M239.8,48.2c-1,0-2,0.4-2.8,1.1c-1.7,1.6-1.8,4.3-0.1,6.1c0.9,0.9,2.1,1.5,3.3,1.5c1,0,2-0.4,2.8-1.1
			c0.8-0.8,1.3-1.8,1.3-3c0-1.1-0.4-2.2-1.2-3.1C242.2,48.7,241.1,48.2,239.8,48.2z M242.3,55c-1.2,1.1-3.4,1-4.6-0.3
			c-1.3-1.4-1.2-3.5,0.1-4.7c0.6-0.5,1.3-0.8,2.1-0.8c1,0,1.9,0.4,2.5,1.1c0.6,0.7,0.9,1.5,0.9,2.4C243.3,53.6,242.9,54.4,242.3,55z
			"/>
		<path fill="#266FFF" d="M271.3,15c-1.3-1.4-3.2-1.9-4.7-1.1c-0.2-0.9-0.8-1.7-1.3-2.3c-1.6-1.7-3.9-2-5.4-0.5
			c-1.8,1.7-2.1,3.9-0.6,5.5c0.1,0.1,0.3,0.3,0.4,0.5c0.3,0.4,0.7,0.8,1.1,1.1l-1.9,2.7c-2.1-1-4.7-1.3-8-0.3
			c-5.6,1.8-13.1,8.6-23.4,18.1l0,0c-2,1.8-3.4,4.1-4,6.6c-0.9,3.9,1.8,7,4.6,10.2c2.2,2.5,4.6,5.3,5.9,8.9
			c1.2,3.5,5.4,5.6,10.9,5.6c0,0,0,0,0,0c4.6,0,9.8-1.6,12.8-4.9c5.8-5.4,9.5-14.5,10-24.4c0.3-6.7-1.1-12.5-3.7-15.6l2.3-3.5
			c0.5,0.1,1.4,0.4,2.4,0.4c1.4,0,2.5-0.5,3.1-1.4C273,18.6,272.9,16.7,271.3,15z M251,21.6c0.5-0.2,1.1-0.3,1.6-0.4
			c1.1,1.2,2.3,2.7,3.5,4.4c-2.5-0.2-5.4,0.1-8.3,0.8c-0.6-0.8-1.3-1.5-1.9-2.2C247.8,22.9,249.5,22,251,21.6z M253.4,34.3
			c2.9-0.2,5.8,0.2,8.6,1.7c1.3,3.2,2.3,6.5,2.7,9.9c-2.2-1.9-4.4-3-7.4-3.4C256.4,39.8,255,37,253.4,34.3z M256.8,43.1
			C256.8,43.1,256.8,43.1,256.8,43.1c-0.1-0.1-0.1-0.1-0.1-0.1c0,0,0,0,0.1,0C256.8,43.1,256.8,43.1,256.8,43.1z M252.7,34.3
			c1.6,2.7,3,5.5,3.9,8.1c0,0-0.1,0-0.1,0l0,0.3c-2.5-3.2-6-5.6-10.3-7.2C248.2,35,250.4,34.5,252.7,34.3z M245.9,34.9
			c-0.2,0.1-0.5,0.1-0.7,0.2c-0.1,0-0.3-0.1-0.4-0.1c-0.6-0.9-2.4-3.4-4.3-5.5c2.3-1,4.7-1.8,7.1-2.4c1.6,2,3.2,4.3,4.8,6.7
			C250,34,247.9,34.5,245.9,34.9z M253,33.7c-1.5-2.5-3.2-4.8-4.8-6.8c3-0.7,5.8-1,8.3-0.6c1.8,2.6,3.6,5.6,5,8.9
			C258.8,33.7,255.8,33.5,253,33.7z M245.4,24.5c0.5,0.6,1.1,1.3,1.7,2c-2.4,0.6-4.8,1.5-7.1,2.5c-0.1-0.1-0.1-0.1-0.2-0.2
			C241.9,27.1,243.7,25.7,245.4,24.5z M239.4,29.2C239.4,29.2,239.5,29.2,239.4,29.2c0,0.1-0.1,0.1-0.2,0.2
			C239.3,29.3,239.4,29.2,239.4,29.2z M237.5,30.8c0.8-0.4,1.6-0.8,2.4-1.1c1.6,1.8,3.1,3.9,4,5c-0.3-0.1-0.6-0.2-1-0.3
			c-1.2-0.3-2.4-0.4-3.6-0.4c-2.4,0-4.8,0.5-6.9,1.5C234.1,33.8,235.9,32.3,237.5,30.8z M258.8,60.6c-1.3,5.5-8.1,8.3-14.1,8.3
			c-4,0-8.8-1.3-10-4.9c-1.3-3.8-3.8-6.6-6.1-9.2c-2.8-3.2-5.2-5.9-4.4-9.3c0.5-2.3,1.9-4.4,3.7-6.1l0,0c0,0,0,0,0,0
			c2.9-2.6,6.9-4.3,11.2-4.3c1.2,0,2.3,0.1,3.4,0.4C252.3,37.7,262.3,45.7,258.8,60.6z M264.7,51.2c-1.1,3.5-2.7,7-5,10
			c0-0.1,0.1-0.2,0.1-0.3c1.4-6.1,0.7-11.7-2-16.2c-0.1-0.5-0.2-1-0.4-1.5c3,0.5,5,1.6,7.3,3.6C264.8,48.2,264.8,49.7,264.7,51.2z
			 M265.4,48.6c0-0.4,0-0.8,0-1.2c0.1,0.1,0.2,0.2,0.3,0.2C265.6,47.9,265.5,48.3,265.4,48.6z M266.6,40.6c-0.1,2-0.3,4.1-0.8,6.3
			c-0.2-0.1-0.3-0.3-0.5-0.4c-0.3-3.4-1.2-6.8-2.5-10c1.3,0.9,2.6,2,3.8,3.5C266.6,40.2,266.6,40.4,266.6,40.6z M266.6,39.1
			c-1.3-1.6-2.7-2.7-4.2-3.5c-1.4-3.4-3.2-6.5-5-9.2c0.9,0.2,1.7,0.4,2.4,0.8c3.8,1.8,5.4,3.8,6.1,4.8
			C266.4,34.1,266.6,36.5,266.6,39.1z M265.5,30.4c-1-1.1-2.6-2.5-5.4-3.8c-1-0.5-2-0.7-3.2-0.9c-1.2-1.8-2.5-3.3-3.6-4.6
			c4.3-0.5,7.1,1.7,9.5,4.3C264,26.6,264.8,28.3,265.5,30.4z M270.8,19.9c-0.5,0.6-1.2,1-2.3,1c-1.2,0-2.4-0.4-2.4-0.4
			c-0.2-0.1-0.5,0-0.6,0.2l-2.4,3.6c-0.7-0.7-2-2-3.4-2.9l2.1-2.9c0.1-0.1,0.1-0.3,0.1-0.5c-0.1-0.2-0.2-0.3-0.4-0.3
			c-0.3-0.1-0.8-0.6-1.1-1.1c-0.2-0.2-0.3-0.4-0.5-0.6c-1.3-1.4-0.6-3,0.6-4.1c1.2-1.1,2.8-0.9,4,0.5c0.9,0.9,1.2,1.7,1.1,2.4
			c0,0.2,0.1,0.4,0.3,0.5c0.2,0.1,0.4,0.1,0.6-0.1c1.2-1.1,2.9-0.8,4.1,0.5C271.8,17,271.9,18.4,270.8,19.9z"/>
	</g>
	<g>
		<path fill="#FFFFFF" d="M222.3,50.4l4.6-1.5L227,53l-4.6,1.5l0.1,3.6l-4.3,1.4l-0.2-13.9l9.8-3.2l0.1,4.3l-5.5,1.8L222.3,50.4z"/>
		<path fill="#FFFFFF" d="M234.7,40.2c4.3-1.4,5.8-0.2,6.2,2.7c0.4,2.4-0.3,4.3-1.7,5.7l2.3,2.9l0,0.4l-4.6,1.5l-1.7-2.7l-1.3,0.4
			l0.1,3.3l-4.4,1.4L229.3,42L234.7,40.2z M235.3,47c1-0.3,1.6-1,1.4-2.3c-0.1-0.7-0.6-1-1.7-0.6l-1.2,0.4l0.1,3L235.3,47z"/>
		<path fill="#FFFFFF" d="M247.2,41.3l4.7-1.6l0.1,3.4l-4.7,1.6l0,1.3l5.8-1.9l0.1,3.9L243,51.4l-0.2-13.9l9.9-3.3l0.1,3.9l-5.6,1.8
			L247.2,41.3z"/>
		<path fill="#FFFFFF" d="M265.2,34.6c-2.7,0.2-4.1,0.5-4.8,0.7c-0.6,0.2-0.9,0.4-0.9,0.8c0,0.4,0.4,0.4,2.9,0.2
			c2.7-0.1,3.6,0.5,4,2.7c0.4,2.6-1.6,5.4-5.4,6.7c-2,0.6-4.5,0.7-6.5,0.3l1.2-4c2,0.4,3.9,0.3,5-0.1c0.7-0.2,1-0.5,1-0.8
			c-0.1-0.4-0.8-0.3-2.9-0.3c-2.7,0.1-3.7-0.6-4-2.7c-0.4-2.8,1.8-5.4,5-6.4c2.1-0.7,3.2-0.8,6.2-0.9L265.2,34.6z"/>
		<path fill="#FFFFFF" d="M280.4,39.1l-4.4,1.4l-0.1-4.7l-3.4,1.1l0.1,4.7l-4.4,1.4l-0.2-13.9l4.4-1.4l0.1,4.8l3.4-1.1l-0.1-4.8
			l4.4-1.4L280.4,39.1z"/>
	</g>
</g>
</svg>
