<?xml version="1.0" encoding="utf-8"?>
<!-- Generator: Adobe Illustrator 18.0.0, SVG Export Plug-In . SVG Version: 6.00 Build 0)  -->
<!DOCTYPE svg PUBLIC "-//W3C//DTD SVG 1.1//EN" "http://www.w3.org/Graphics/SVG/1.1/DTD/svg11.dtd">
<svg version="1.1" id="Layer_1" xmlns="http://www.w3.org/2000/svg" xmlns:xlink="http://www.w3.org/1999/xlink" x="0px" y="0px"
	 viewBox="0 0 430 90" enable-background="new 0 0 430 90" xml:space="preserve">
<g>
	<g>
		<path fill="#FFFFFF" d="M18.4,15.7h18.9v5.5H24.8v3.6h11.3v5.1H24.8v3.7h12.6v5.5H18.4V15.7z"/>
		<path fill="#FFFFFF" d="M48.9,15.5h6.3l10,23.7h-7l-1.7-4.2h-9.1l-1.7,4.2H39L48.9,15.5z M54.7,29.9L52,23.2l-2.7,6.7H54.7z"/>
		<path fill="#FFFFFF" d="M67.5,15.7h11.1c3.6,0,6.1,0.9,7.7,2.5c1.4,1.4,2.1,3.2,2.1,5.5v0.1c0,3.6-1.9,6-4.8,7.3l5.6,8.2h-7.5
			l-4.7-7.1H74v7.1h-6.5V15.7z M78.4,26.9c2.2,0,3.5-1.1,3.5-2.8v-0.1c0-1.9-1.4-2.8-3.5-2.8H74v5.7H78.4z"/>
		<path fill="#FFFFFF" d="M97.4,21.4h-7v-5.7H111v5.7h-7.1v17.8h-6.5V21.4z"/>
		<path fill="#FFFFFF" d="M113.9,15.7h6.5v8.8h8.4v-8.8h6.5v23.5h-6.5v-8.9h-8.4v8.9h-6.5V15.7z"/>
		<path fill="#FFFFFF" d="M156.9,15.5h6.3l10,23.7h-7l-1.7-4.2h-9.1l-1.7,4.2h-6.8L156.9,15.5z M162.6,29.9l-2.6-6.7l-2.7,6.7H162.6
			z"/>
		<path fill="#FFFFFF" d="M175.4,15.7h10.1c5.9,0,9.7,3.1,9.7,8.2V24c0,5.6-4.3,8.5-10.1,8.5H182v6.7h-6.5V15.7z M185.1,27.4
			c2.3,0,3.7-1.2,3.7-3.1v-0.1c0-2-1.4-3.1-3.8-3.1H182v6.2H185.1z"/>
		<path fill="#FFFFFF" d="M198.1,15.7h10.1c5.9,0,9.7,3.1,9.7,8.2V24c0,5.6-4.3,8.5-10.1,8.5h-3.3v6.7h-6.5V15.7z M207.7,27.4
			c2.3,0,3.7-1.2,3.7-3.1v-0.1c0-2-1.4-3.1-3.8-3.1h-3.1v6.2H207.7z"/>
		<path fill="#FFFFFF" d="M220.7,15.7h11.1c3.6,0,6.1,0.9,7.7,2.5c1.4,1.4,2.1,3.2,2.1,5.5v0.1c0,3.6-1.9,6-4.8,7.3l5.6,8.2h-7.5
			l-4.7-7.1h-2.9v7.1h-6.5V15.7z M231.5,26.9c2.2,0,3.5-1.1,3.5-2.8v-0.1c0-1.9-1.4-2.8-3.5-2.8h-4.3v5.7H231.5z"/>
		<path fill="#FFFFFF" d="M244.8,15.7h18.9v5.5h-12.5v3.6h11.3v5.1h-11.3v3.7h12.6v5.5h-19.1V15.7z"/>
		<path fill="#FFFFFF" d="M266.3,27.5L266.3,27.5c0-6.9,5.2-12.3,12.4-12.3c4.8,0,7.9,2,10,4.9l-4.9,3.8c-1.3-1.6-2.9-2.8-5.1-2.8
			c-3.3,0-5.6,2.8-5.6,6.2v0.1c0,3.5,2.3,6.3,5.6,6.3c2.5,0,3.9-1.1,5.3-2.9l4.9,3.5c-2.2,3.1-5.2,5.3-10.4,5.3
			C271.7,39.6,266.3,34.5,266.3,27.5z"/>
		<path fill="#FFFFFF" d="M291.8,15.7h6.5v23.5h-6.5V15.7z"/>
		<path fill="#FFFFFF" d="M310.8,15.5h6.3l10,23.7h-7l-1.7-4.2h-9.1l-1.7,4.2h-6.8L310.8,15.5z M316.5,29.9l-2.6-6.7l-2.7,6.7H316.5
			z"/>
		<path fill="#FFFFFF" d="M332.1,21.4h-7v-5.7h20.6v5.7h-7.1v17.8h-6.5V21.4z"/>
		<path fill="#FFFFFF" d="M348.7,15.7h6.5v23.5h-6.5V15.7z"/>
		<path fill="#FFFFFF" d="M358.7,27.5L358.7,27.5c0-6.8,5.4-12.3,12.7-12.3c7.3,0,12.6,5.4,12.6,12.2v0.1c0,6.8-5.4,12.2-12.7,12.2
			C364.1,39.6,358.7,34.2,358.7,27.5z M377.4,27.5L377.4,27.5c0-3.5-2.4-6.4-6-6.4c-3.6,0-6,2.9-6,6.3v0.1c0,3.4,2.5,6.4,6,6.4
			C375,33.8,377.4,30.9,377.4,27.5z"/>
		<path fill="#FFFFFF" d="M387.4,15.7h6.1l9.7,12.4V15.7h6.5v23.5H404l-10.1-12.9v12.9h-6.5V15.7z"/>
	</g>
	<g>
		<path fill="#FFFFFF" d="M75,78.9h4.1v2.5H75V85h-2.7V74.4h7.4V77H75V78.9z"/>
		<path fill="#FFFFFF" d="M93.6,85h-2.9L90,82.9h-2.8L86.5,85h-2.9l3.7-10.6h2.4L93.6,85z M89.4,80.5l-0.7-3.1h-0.1l-0.8,3.1H89.4z"
			/>
		<path fill="#FFFFFF" d="M98.8,74.4h2.7v8h4.3V85h-7V74.4z"/>
		<path fill="#FFFFFF" d="M111.4,74.4h2.7v8h4.3V85h-7V74.4z"/>
		<path fill="#FFFFFF" d="M130.5,76.7c0.9-1.7,2.3-2.4,3.8-2.4c2.3,0,3.6,1.6,3.6,3.3c0,1-0.4,2.1-1.3,3l-2.3,2.2l1.2-0.3h2.4V85
			H131l-0.7-1.4l4.3-4.9c1.4-1.6-0.9-3.1-2.1-1L130.5,76.7z"/>
		<path fill="#FFFFFF" d="M143.6,81.9v-4.4c0-2.3,2-3.3,3.8-3.3c1.8,0,3.8,1,3.8,3.3v4.4c0,2.3-2,3.3-3.8,3.3
			C145.6,85.2,143.6,84.2,143.6,81.9z M146.1,77.6V82c0,0.6,0.6,0.9,1.3,0.9c0.6,0,1.3-0.3,1.3-0.9v-4.4c0-0.6-0.7-1-1.3-1
			C146.8,76.6,146.1,77,146.1,77.6z"/>
		<path fill="#FFFFFF" d="M158.8,85v-7.1l-1,0.7l-1.4-1.2l2.8-3h2V85H158.8z"/>
		<path fill="#FFFFFF" d="M174.7,82.7h-1V85h-2.6v-2.3h-3.7l-0.9-1.6l5-6.7h2.2v6.1h1V82.7z M171.3,80.6l0-2.7l-1.9,2.7H171.3z"/>
		<path fill="#FFFFFF" d="M190,77.6c1.3,0,2.4,1.1,2.4,2.4c0,1.4-1.1,2.4-2.4,2.4c-1.4,0-2.4-1.1-2.4-2.4
			C187.6,78.7,188.7,77.6,190,77.6z"/>
		<path fill="#FFFFFF" d="M208.5,78.9h4.1v2.5h-4.1V85h-2.7V74.4h7.4V77h-4.7V78.9z"/>
		<path fill="#FFFFFF" d="M218.7,77.9c0-2.4,2.2-3.6,4.4-3.6c2.2,0,4.4,1.2,4.4,3.6v3.6c0,2.4-2.2,3.6-4.4,3.6s-4.4-1.2-4.4-3.6
			V77.9z M221.4,81.5c0,0.8,0.9,1.2,1.7,1.2c0.9,0,1.7-0.4,1.7-1.2v-3.6c0-0.8-0.9-1.2-1.8-1.2c-0.8,0-1.7,0.4-1.7,1.2V81.5z"/>
		<path fill="#FFFFFF" d="M236.6,81.7h-0.5V85h-2.7V74.4h4.2c2.2,0,3.9,1,3.9,3.5c0,2-0.8,3.1-2.1,3.5l2.9,3.6h-3.3L236.6,81.7z
			 M237.7,79.4c1.7,0,1.7-2.4,0-2.4h-1.6v2.4H237.7z"/>
		<path fill="#FFFFFF" d="M250.8,81.7h-0.5V85h-2.7V74.4h4.2c2.2,0,3.9,1,3.9,3.5c0,2-0.8,3.1-2.1,3.5l2.9,3.6h-3.3L250.8,81.7z
			 M251.9,79.4c1.7,0,1.7-2.4,0-2.4h-1.6v2.4H251.9z"/>
		<path fill="#FFFFFF" d="M264.6,78.6h4.3v2.3h-4.3v1.6h4.7V85h-7.4V74.4h7.4v2.5h-4.7V78.6z"/>
		<path fill="#FFFFFF" d="M276.4,81.7c1.1,1.3,3.4,1.4,3.5,0.2c0-0.6-0.9-0.9-1.8-1.1c-1.7-0.3-3.3-1.4-3.3-3.4
			c0-2.1,1.9-3.2,3.8-3.2c1.3,0,2.5,0.4,3.6,1.7l-1.8,1.4c-1.1-1.2-3-1.1-3.1,0.1c0,0.5,0.6,0.8,1.4,1c1.9,0.3,3.8,1,3.7,3.6
			c-0.1,2.1-2.3,3.2-4.2,3.2c-1.3,0-2.6-0.6-3.6-1.9L276.4,81.7z"/>
		<path fill="#FFFFFF" d="M293.1,77V85h-2.7V77h-2.8v-2.6h8.4V77H293.1z"/>
		<path fill="#FFFFFF" d="M311.1,85h-2.7V74.4h2.7v4h3.1v-4h2.7V85h-2.7v-4h-3.1V85z"/>
		<path fill="#FFFFFF" d="M332.1,85h-2.9l-0.7-2.1h-2.8L325,85h-2.9l3.7-10.6h2.4L332.1,85z M327.9,80.5l-0.7-3.1H327l-0.8,3.1
			H327.9z"/>
		<path fill="#FFFFFF" d="M337.3,74.4h2.7v8h4.3V85h-7V74.4z"/>
		<path fill="#FFFFFF" d="M349.9,74.4h2.7v8h4.3V85h-7V74.4z"/>
	</g>
	<g>
		<path fill="#FFFFFF" d="M426.8,54.8H1.2V0.7h425.6V54.8z M6.2,49.8h415.6V5.7H6.2V49.8z"/>
	</g>
</g>
</svg>
