<?xml version="1.0" encoding="utf-8"?>
<!-- Generator: Adobe Illustrator 18.1.0, SVG Export Plug-In . SVG Version: 6.00 Build 0)  -->
<svg version="1.1" id="Layer_1" xmlns="http://www.w3.org/2000/svg" xmlns:xlink="http://www.w3.org/1999/xlink" x="0px" y="0px"
	 viewBox="0 0 185.8 28" enable-background="new 0 0 185.8 28" xml:space="preserve">
<g>
	<path fill="#FF448A" d="M185.1,0.3C185,0.1,184.8,0,184.5,0c-0.6,0-1.2,0-1.8,0.1c-4.2,1-8.4,2.1-12.5,3.2
		c-1.8,0.5-1.5,0.5-3.2,1.1c-0.9,0.3-1.3,1.6-1,2.7c0.2,0.6,1.1,1.1,2,0.9c0.5-0.1,1-0.3,1.5-0.4l0,0c0,0,0,0,0.1,0
		c0.1,0,0.3-0.1,0.4-0.1c1.9-0.6,2-0.6,2.9-0.8c0,0,0,0,0,0c0.2-0.1,0.4-0.1,0.8-0.1c-0.2,0.5-0.3,1-0.4,1.4c-1,2.4-2.1,4.9-3,7.3
		c-0.7,1.9-1.4,3.9-1.9,5.9c-0.3,1,0.4,2,1.3,2.1c1.5,0.3,2.6-0.3,2.8-1.5c0.1-0.4,0.1-0.9,0.1-1.3c0.1-0.6,0.4-1.4,0.7-2.4
		c0.2-0.5,0.4-1,0.5-1.5c1.5-4,3.8-9.4,4.6-11.1c0.2-0.3,0.2-0.5,0.4-0.7c0.1,0,0.3-0.1,0.4-0.1c1.6-0.3,3.1-1,4.8-0.4
		c0.5,0.2,1.2-0.1,1.4-0.6C186,2.5,185.9,1.4,185.1,0.3z"/>
	<path fill="#FF448A" d="M61.1,19.2c-0.7,0.2-5.4,1.5-8,1.8c-0.4,0.1-0.7,0-1.3,0c0.3-0.8,0.4-1.6,0.8-2.2c1.1-2.1,3.5-6.4,4.7-8.5
		c0.4-0.7,1-1.4,1.5-2.1c0.1-0.2,0.4-0.6,0.3-1c-0.2-1.4-0.2-2.4-0.7-3.7c-0.3-1-1.7-1-2.2,0c-0.6,1.1-1.3,2.2-1.9,3.3
		c-2.1,3.7-5.6,9.5-6.6,13.7c-0.4,1.8-0.1,3.1,1.4,3.7c0.3,0.1,0.7,0.2,1,0.3c1.2,0.3,3.1,0.4,7.7-0.4c4.8-0.9,4.3-1.1,4.5-1.6
		c0,0,0,0,0,0c0.3-0.5,0.5-1.8,0.4-2.7C62.6,18.9,61.8,18.9,61.1,19.2z"/>
	<path fill="#FF448A" d="M74.4,4.6c0.1-0.1,0.1-0.4,0-0.5c-0.5-0.8-1.2-1.4-2.1-1.4c-0.9,0-1.7,0.2-2.1,1.1
		c-0.2,0.5-0.5,0.9-0.7,1.3c-1.4,3.3-1.9,4.6-3.3,8c-0.7,1.6-1.4,3.2-2,4.8c-0.3,0.8,0,1.3,0.8,1.6c0.4,0.1,0.8,0.2,1.2,0.3
		c1.1,0.1,1.7-0.5,2.1-1.4c1.1-2.6,2.3-5.2,3.5-7.8C72.9,7.9,73.2,7.3,74.4,4.6z"/>
	<path fill="#FF448A" d="M27.3,5.4c-0.3-0.8-0.9-1.5-1.4-2.2c-0.3-0.5-0.8-0.7-1.4-0.3c-1.1,0.7-2.3,1.3-3.2,2.1
		c-2.4,2.1-4.6,4.2-6.9,6.4c-0.7,0.7-1.5,1.4-2.2,2.1c0,0,0,0,0,0c0-0.9,0-1.8,0-2.6c0-0.8,0.3-1.7,0-2.3c-0.5-1.1-1.3-2-2.2-2.9
		C9.5,5,8.6,5.4,8.4,6.2c0,0.1-0.2,0.3-0.2,0.4C6.6,5.8,5.9,6.1,5.3,7.7C5.3,7.8,5.2,8,5.1,8.1C3.5,11.6,1.9,15,0.4,18.5
		c-0.3,0.6-0.5,1.5-0.3,2c0.3,0.6,0.8,1,1.4,1.4c0.3,0.2,0.7,0.2,1,0c0.5-0.3,1-0.7,1.3-1.1c0.9-1.2,1.7-2.6,2.6-3.9
		c0.5-0.8,1.1-1.6,1.8-2.5c0.1,0.3,0.1,0.4,0.1,0.5c-0.2,1.8,0.8,3,2.1,4.1c0.2,0.2,0.7,0.3,1,0.2c0.8-0.4,1.7-0.8,2.4-1.5
		c1.8-1.7,3.5-3.4,5.2-5.2c0.3-0.3,0.6-0.7,0.9-1c0,0,0.1,0.1,0.1,0.1c-1,2.1-2,4.3-2.9,6.5c-0.7,2-1.7,3.9-2.7,5.7
		C13.8,25,13.8,26,14.5,27c0.5,0.8,1.7,1.3,2.5,0.8c0.5-0.3,0.9-0.9,1.1-1.4c1.1-2.5,2-5,3.2-7.4c1.9-4.1,3.9-8.1,5.8-12.1
		C27.3,6.5,27.5,5.8,27.3,5.4z"/>
	<path fill="#FF448A" d="M38.7,3.6c-0.5,0.1-1.1,0.3-1.5,0.6c-3.3,2.4-6,5.5-8.6,8.7c-0.5,0.6-0.8,1.2-1.6,1c-0.1,0-0.3,0.1-0.5,0.2
		c-1.2,0.8-1.5,2.4-0.7,3.6c-1.1,1.5-2.1,2.9-3.2,4.4c-0.4,0.5-0.5,1,0,1.4c1,0.8,3.3,0.7,4-0.4c1-1.5,1.9-3,2.9-4.6
		c0.3-0.4,0.6-1.1,0.9-1.1c1.4-0.2,2.9-0.2,4.6-0.3c-0.3,1-0.6,1.7-0.8,2.5c-0.2,0.8-0.5,1.7-0.6,2.5c-0.1,0.7,0.4,1.3,1,1.4
		c1,0.2,2,0.3,3,0.2c0.4,0,1-0.8,0.9-1.2c-0.4-2,0.4-3.8,0.9-5.7c0.5-2.3,1.3-4.5,1.7-6.9c0.3-1.8,0.6-3.7-0.5-5.5
		C40,3.9,39.5,3.4,38.7,3.6z M36.7,9.4c-0.1,0.2-0.5,2.6-0.8,3.9c-0.1,0.2-0.3,0.3-0.5,0.3c-1,0-1.9,0-2.9,0l4.1-4.2
		C36.6,9.2,36.7,9.1,36.7,9.4z"/>
	<path fill="#FF448A" d="M50.9,5.4c-0.1-0.1-0.2-0.2-0.2-0.3c-1.3-1.3-3-1.1-3.9,0.5c-0.2,0.4-0.4,0.9-0.6,1.3
		c-1.9,4.6-3.7,9.2-5.6,13.8c-0.1,0.2,0,0.5,0.1,0.6c0.8,1.1,2.8,1.1,3.5,0c0.4-0.6,0.8-1.4,1.1-2.1c1.3-3.1,2.6-6.2,3.9-9.3
		c0.5-1.2,1.7-3.8,1.8-4.1C51.1,5.6,50.9,5.4,50.9,5.4z"/>
	<path fill="#FF448A" d="M164.6,5.2c-0.4-1.5-1.2-1.8-1.9-1.8c0,0-0.1,0-0.1,0l-0.1,0c-1,0.1-2,0.1-3,0.4c-2.4,0.8-4.8,1.7-6.7,2.4
		c-2.5,1-4.4,2-6,3.2c-0.9,0.7-1.5,1.8-1.5,2.9l-0.1,0l0.1,0.6c0,0,0,0,0,0.1l0,0l0,0.1c0.2,0.8,0.6,1.5,1.3,1.9
		c0.8,0.6,2.2,1.2,4.4,1.9c1,0.3,2.1,0.5,3.3,0.7c0.8,0.1,1.6,0.2,2.3,0.4c-1.2,0.7-2.5,1.1-3.7,1.4l-0.3,0.1
		c-2.1,0.5-2.1,0.5-4.4,0.6l-0.2,0c-0.2,0-0.5,0-0.7,0c-1.5,0-2.6-0.1-3.7-0.5l-0.1,0c-0.6-0.2-1.4-0.3-2,0.1
		c-0.3,0.2-0.4,0.5-0.3,0.8c0.2,0.9,0.6,2.1,1.8,2.6c0.6,0.3,1.3,0.4,1.9,0.5c0.3,0,0.7,0.1,1,0.1c1,0.1,1.9,0.3,2.9,0.3
		c0.1,0,0.3,0,0.4,0c0.5,0,0.9,0,1.3,0c1.7-0.1,2.1-0.1,4.4-0.8c1.7-0.5,3.8-1.4,5.6-3.3c1.2-1.3,1-1.8,0.3-3.1l-0.1-0.2
		c-0.7-1.3-1.9-1.7-3.1-1.9c-1.3-0.3-2.3-0.5-3.2-0.6c-1-0.2-2-0.3-3.4-0.7c-0.4-0.1-0.8-0.3-1.3-0.5c-0.1-0.1-0.2-0.1-0.3-0.2
		c2.6-1.8,5.5-2.7,8.3-3.6c0.5-0.2,1-0.3,1.5-0.5c0,0.4-0.1,0.6-0.1,1.1c0,0.9,0.2,2.1,1.7,2.1l0.1,0c0.9,0,2.1-0.8,2.2-1.1
		c0.1-0.2,0.1-0.3,0.2-0.5c0.1-0.2,0.1-0.4,0.2-0.5c0.1-0.2,0.2-0.5,0.2-0.7c0.2-0.5,0.3-1,0.6-1.3C164.7,6.6,164.8,6,164.6,5.2z"/>
	<path fill="#FF448A" d="M91.4,5.3c-0.3,0.7-0.6,1.3-1,1.9c-1.3,2.3-2.6,4.6-3.9,6.8c-0.7,1.2-1.5,2.4-2.3,3.6c-0.1,0-0.1,0-0.2,0
		c-0.4-2.2-1-4.5-1.2-6.7c-0.2-2.1-0.8-3.9-2.4-5.3c-0.5-0.5-1.2-0.9-1.7-0.4c-1,0.9-2,2-2.9,3.1c-0.5,0.5-0.7,1.2-1.1,1.9
		c-2,3.7-3.4,7.7-4.6,11.7c-0.1,0.4,0,1.1,0.2,1.4c1.1,1.2,2.9,0.8,3.6-0.7c0.6-1.2,1-2.5,1.7-3.7c1.1-1.9,2.2-3.8,3.5-5.9
		c0.2,0.4,0.2,0.6,0.3,0.8c0.6,2.1,1.2,4.2,1.9,6.2c0.9,2.3,3.9,2.6,5.3,0.7c1.7-2.6,3.3-5.2,4.9-7.9c1.1-1.9,2.2-3.9,3.3-5.8
		c0.6-0.9,0.2-1.6-0.4-2.3C93,3,92.4,3.2,91.4,5.3z"/>
	<path fill="#FF448A" d="M139.5,18.4c0.9-2,1.7-4.1,2.6-6.1c1.2-2.5,2.4-5,3.6-7.5c0.1-0.2,0.1-0.6,0-0.8c-0.4-1-1.3-1.7-2.3-2.2
		c-0.9-0.5-1.5-0.1-1.8,1c-0.4,1.4-0.8,2.8-1.5,4.1c-1.8,3.3-3.4,6.5-3.5,10.1c0.1,0.3,0.2,0.6,0.2,0.9c0.1,1.1,0.5,1.6,1.4,1.8
		C139.1,19.7,139.2,18.9,139.5,18.4z"/>
	<path fill="#FF448A" d="M112.1,11.2c-0.5-0.1-0.9-0.2-1.4-0.2c-2.2,0-4.4,0.1-6.5,0.2c-1.4,0-1.5,0.1-1.9,1.5c0,0.1,0,0.1,0,0.2
		c-0.4,1.3,0.1,1.9,1.5,1.9c0.9,0,1.9-0.1,2.8-0.1c0.8,0,0.8,0.3,0.7,0.4c-1.3,1.1-2.6,2.1-3.9,3.2c-1.6,1.3-3.4,2.2-5.4,2.8
		c-0.7,0.2-1.2,0-1.3-0.7c-0.1-0.9-0.3-1.8-0.1-2.6c0.8-3.4,2.6-6.3,4.9-8.9c1-1.2,2.1-2.3,3.7-2.7c1.2-0.3,1.9,0.1,2.2,1.3
		c0.1,0.3,0.3,0.7,0.5,0.8c2.2,0.6,3.2,0.5,3.9-1.8c0.1-0.2,0.4-1.8,0.2-3.3c-0.2-1.1-1.1-1.5-2-0.8c-0.3,0.2-0.5,0.5-0.8,0.7
		c-0.2,0.1-0.5,0.2-0.6,0.1c-1.3-0.9-2.8-0.6-4.2-0.4c-1.6,0.2-3,0.9-4.2,1.9c-3.1,2.6-5.3,5.9-6.7,9.7c-0.9,2.3-1.1,4.5-0.3,6.9
		c0.6,1.7,2.6,3.5,4.6,3.5c2,0,3.8-0.5,5.5-1.4c1.2-0.7,2.3-1.7,3.3-2.6c2-1.9,3.9-3.9,5.8-5.9c0.8-0.8,0.9-2.4,0.3-3.4
		C112.4,11.3,112.2,11.2,112.1,11.2z"/>
	<path fill="#FF448A" d="M133,16.4c-0.8,0.3-1.7,0.5-2.6,0.7c-3.1,0.9-5,1.4-8.1,2.4c0-0.1-0.1-0.1-0.1-0.1c0.5-1.2,0.9-2.5,1.5-3.7
		c0.6-1.3,1.4-2.5,2-3.8c0.8-1.8,2.5-4.8,3.7-6.3c0.4-0.6,0.9-1.2,0.8-2c-0.2-0.8-0.3-1.6-0.6-2.3c-0.2-0.5-0.8-0.9-1.3-1
		c-0.3-0.1-0.9,0.5-1.1,0.8c-1.7,2.8-3.4,5.6-5.1,8.4c-1.8,3.1-3.7,7.7-4.4,11.2c-0.4,1.9,0.1,2.8,2,3.3c0.3,0.1,0.7,0,1,0
		c2.4-0.6,4.9-1,7.3-1.7c2.3-0.6,3.5-1.1,5.8-1.8c0.1,0,0.1,0,0.2,0c0.6-0.1,1.1-0.5,1.2-1.1c0-0.7-0.1-1.4-0.4-2
		C134.4,16.5,133.8,16.1,133,16.4z"/>
</g>
</svg>
