<?xml version="1.0" encoding="utf-8"?>
<!-- Generator: Adobe Illustrator 18.0.0, SVG Export Plug-In . SVG Version: 6.00 Build 0)  -->
<!DOCTYPE svg PUBLIC "-//W3C//DTD SVG 1.1//EN" "http://www.w3.org/Graphics/SVG/1.1/DTD/svg11.dtd">
<svg version="1.1" id="Layer_1" xmlns="http://www.w3.org/2000/svg" xmlns:xlink="http://www.w3.org/1999/xlink" x="0px" y="0px"
	 viewBox="0 0 581 237" enable-background="new 0 0 581 237" xml:space="preserve">
<g>
	<g>
		<linearGradient id="SVGID_1_" gradientUnits="userSpaceOnUse" x1="243.2316" y1="224.4758" x2="243.2316" y2="-2.212">
			<stop  offset="0" style="stop-color:#FDA15C"/>
			<stop  offset="1" style="stop-color:#FC4275"/>
		</linearGradient>
		<path fill="url(#SVGID_1_)" d="M281,70.2c-5.7-3.2-10.8-7.1-17.5-3.9c-28.9,13.6-25.3,9.5-57.7,21.6c3.7-9.1,7.6-17.2,11.6-31.4
			c23.5-7.2,58.6-21.4,80.2-32.5c-0.1,1.8-0.1,3.3-0.2,4.6c0,7.4,23.4,13.3,22.9,4.4l0,0c0.3-4,0.9-11.5,2.4-13.8
			c1.9-2.9,3.6-8.2-0.9-9.5s-11.7-5.5-15.3-7.9c-3.6-2.4-5.3-3-16.8,1.8S241.3,25.9,221.1,32c-8.7,0.2-8.3-0.9-14.1,0.2
			c-5.8,1.2-10,3.8-10.8,6c-0.9,2.1-1.4,3.9-1.4,3.9c-18.3,6.8-25.5,11.5-30.6,13.9c-2.2,1-1.8,7.8-0.3,12.8c1.4,4.7,2.3,8.8,7,7.4
			c2.7-0.8,7-4.8,12.9-6.6c-5,12.7-9,26.3-11.2,33.2c-4.8,1.7-9.7,2.4-10.4,5.3c-0.7,3.2-1.1,10.6,4.7,13.7c0.1,0.1,0.3,0.2,0.5,0.3
			c-3,13.1-5.1,31.3-4.6,40.2c0.4,8.9,8,11.3,16.8,12.3c8.8,1,15.2,1.9,38.1-8.2c19.3-8.5,55.7-23,60.7-25.9
			c5.1-2.9,2.3-14.4,2.4-18.7c0-3.7-2-7.4-7.4-4.6c-9.1,4.6-38.7,17.4-49.2,21.9c-10.5,4.5-30.7,13.4-33.8,10.9
			c0-6.7,1.1-17.8,6.6-34.8c24.1-12.3,27.9-10.5,56.1-22c28.3-11.6,29.5-14.2,30.8-16.1C285.1,74.9,286.8,73.3,281,70.2z"/>
		<linearGradient id="SVGID_2_" gradientUnits="userSpaceOnUse" x1="472.7164" y1="224.4758" x2="472.7164" y2="-2.212">
			<stop  offset="0" style="stop-color:#FDA15C"/>
			<stop  offset="1" style="stop-color:#FC4275"/>
		</linearGradient>
		<path fill="url(#SVGID_2_)" d="M570.9,63.9c10.7-3.3,10.8-6.7,9.7-8.5c-0.1-0.1-0.2-0.2-0.3-0.4c-0.3-0.8-0.9-1.7-1.4-2.9
			c-1-2.6-0.6-5.3-1.8-10.4c-1.2-5.2-3.6-14-25.9-13.1c-35.7,1.5-74.8,24-91.7,35.9c-16.9,11.9-21.3,17-20.1,24.9
			c1.2,7.9,9.6,14.6,21.1,20.3c11.5,5.8,59.9,11.5,85.5,18.7c-14.6,12.5-38.8,17.8-76,23.5c-25.5,3.9-56.2,7-73.8,8.5
			c-8.7,0.8-12.1,3.3-16.8,6.1c-4.7,2.8-10.9,4.4-13.8,7.7c-2.5,2.9-1.2,3.7,1,4.1c9.3,1.8,25.3,3.5,50.2,2.5
			c79.3-3.3,121.6-20.4,137.5-26.5s18.1-13,18.2-17.4c0.1-4.4-0.5-13.2-2.4-16.4c-1.9-3.2-1.7-4.9-18.4-11.1
			c-19.4-7.2-44.7-7.8-64.5-12.4c-8.5-2-12.2-3.4-13.7-4.2c-0.5-0.3-0.5-1,0-1.4c30.1-24.2,57.2-31.2,80.1-37.3
			c0.4,2.1,1.6,4.3,2.7,6.1l0,0C559,65,560.1,67.3,570.9,63.9z"/>
		<linearGradient id="SVGID_3_" gradientUnits="userSpaceOnUse" x1="121.0428" y1="224.4758" x2="121.0428" y2="-2.212">
			<stop  offset="0" style="stop-color:#FDA15C"/>
			<stop  offset="1" style="stop-color:#FC4275"/>
		</linearGradient>
		<path fill="url(#SVGID_3_)" d="M238.6,207.1c-6.4-5-16.2-4.5-37.4-11.4c-34.8-11.3-81.6-36.9-102.4-76.2
			c57.7-35.3,55.6-52.2,55.3-55.6c-0.2-3.3-3.6-8.3-10.3-17.6c-21.6-30-58.4-15.7-95.1-2.6c-25.3,9-37.9,15.9-44.1,20
			c-3.8,2.9-2.7,5-1.6,9.9c1.1,5.2,6.1,10.9,9.3,11.5c1.4,0.1,3.4-0.3,7.1-2.3c2.9-1.6,11.2-4.3,11.2-4.3s-8.3,39.1-15.5,74.4
			c-7.2,35.3-8.3,48.4-5.7,62.5c0,0,0.1,0.7,0.7,1.4c0,0,0,0,0,0c2.5,3.9,6.2,4.5,16.5,0c10.3-4.5,10.3-5.2,10.3-10.7
			c0.4-7.2,3.3-38.5,9-62.4c6.7-2.1,18.8-6.2,27.4-11.2c2.6,8.3,33.8,45.3,63.8,65.5c5.4,3.7,11.1,6.9,17,9.7h0
			c0.2,0.1,0.4,0.2,0.5,0.2c4.9,2.3,9.9,4.4,15,6.3c1.3,0.5,2.6,0.9,3.9,1.3c8.5,3,16.3,5,22.8,6.4c18.8,3.2,43.8-6,43.8-12
			C240.1,208.3,239.3,207.9,238.6,207.1z M49.5,125.7c1.9-12.4,10-44.8,11.2-48.9c1.2-4.1-1.7-5.2-5.7-9.1c0,0,0,0,6.7-3.3
			c19-9.5,49.8-15.5,54.8-15.3c5,0.2,28.1,4.8,0,30.3C88.3,104.9,59.2,120.4,49.5,125.7z"/>
		<linearGradient id="SVGID_4_" gradientUnits="userSpaceOnUse" x1="375.2088" y1="224.4758" x2="375.2088" y2="-2.212">
			<stop  offset="0" style="stop-color:#FDA15C"/>
			<stop  offset="1" style="stop-color:#FC4275"/>
		</linearGradient>
		<path fill="url(#SVGID_4_)" d="M423.4,102.5c1.6,0.5,4.2-2,3-4.9c-5-12.6-2.4-15.4-9.8-17.6c-4.2-1.2-14.8-0.1-33,5.2
			c-18.2,5.3-38.4,12-38.4,12s9.5-23.5,11.2-29.9c25.9-8.2,56.9-23.7,80.1-27.7c0.2,4.5,4.4,14.3,7.3,14.4c2.9,0.1,3.1,0.2,10.9-2.5
			c7.8-2.7,6.5-2.7,8.2-4.8c1.7-2.2,3-10.1,3.1-13.2c0.1-3.1-5-6.8-11.8-15.7c-2.5-3.3-15.7-3.5-38.8,1.4
			c-23,4.9-82.5,26-108.7,39.2c-9.1,4.6-9.2,8.4-9.2,8.4c-1.1,1-3,11.5-2.6,13.5c0,2.1,1.1,3.8,3.4,4.2c2.3,0.4,3.6,0.6,13.5-4.3
			c10-4.9,10.1-3.5,10.1-3.5c-1.1,7.4-7.4,26.4-9.8,32.9c-5.4,2.1-10.7,4.3-10.9,7.2c-0.2,3.5-2.5,14.2,1.3,15.9
			c0.6,0.3,1.2,0.4,1.9,0.5c-2.6,12.8-10.9,40.5-14,46.3c-1.7,3.2-3.1,5.1-3.9,6.5l0,0c-0.1,0.1-0.1,0.2-0.2,0.3
			c-2.5,4.7-3,6.8,3.3,12.6c6.5,6,6.8,10.2,10.9,10.2c7.6,0,11.5-16.2,21-39.5c5.1-12.6,10.4-28,14.5-44.4
			c11.3-2.5,52.7-18.1,73.1-22.1C418,101.5,421,101.8,423.4,102.5z"/>
	</g>
</g>
</svg>
