<?xml version="1.0" encoding="utf-8"?>
<!-- Generator: Adobe Illustrator 18.1.0, SVG Export Plug-In . SVG Version: 6.00 Build 0)  -->
<svg version="1.1" id="Layer_1" xmlns="http://www.w3.org/2000/svg" xmlns:xlink="http://www.w3.org/1999/xlink" x="0px" y="0px"
	 viewBox="0 0 150 25" enable-background="new 0 0 150 25" xml:space="preserve">
<g>
	<path fill="#FF448A" d="M87.9,4c0.5-0.9,0.4-1.8-0.1-2.5c-0.4-0.7-1-1.2-2-1c-1.3,0.3-3.6,0.9-4.9,1.3c-1.7,0.6-3.4,1.3-5.1,2
		c-0.5,0.2-0.9,0.2-1.5-0.1c-0.8-0.5-1.4-0.3-1.6,0.3c-0.3,1.1-1.1,1.5-2.1,1.7c-0.9,0.3-1.8,0.6-2.7,1c-0.6,0.2-1,0.6-0.7,1.4
		c0.5,1.2,1.1,2.2,2.6,2.4c-0.1,0.4-0.2,0.6-0.3,0.9c-0.3,0.9-0.6,1.8-1.7,2.1c-0.5,0.2-0.7,0.8-0.6,1.4c0.2,0.6,0.4,1.2,0.4,1.8
		c-0.1,1.1-0.3,2.3-0.6,3.4c-0.3,1.2,1.3,3.1,2.5,3c1.3,0,2.5-0.4,3.8-1c3.2-1.4,6.5-2.5,9.8-3.7c0.8-0.3,1.3-0.8,1.3-1.4
		c0-0.6-1.1-2.4-1.5-2.5c-0.1,0-0.1,0-0.2,0c-0.8,0.2-1.6,0.2-2.3,0.5c-1.4,0.5-2.8,1-4.1,1.5c-1.7,0.7-3.4,1.5-5.1,2.2
		c-0.1-0.1-0.2-0.2-0.2-0.2c0.3-0.8,0.6-1.5,0.8-2.3c0.2-0.7,0.6-1.1,1.3-1.2c3.5-0.9,6.8-2.3,10.1-3.7c0.6-0.3,0.9-0.9,0.6-1.5
		c-0.3-0.6-0.6-1.1-0.9-1.6c-0.2-0.5-0.5-0.5-1-0.3c-2.2,0.9-4.3,1.7-6.5,2.6c-0.3,0.1-0.7,0.2-1.2,0.3c0.3-0.7,0.4-1.3,0.8-1.8
		c0.5-0.7,0.8-1.5,1.7-1.8c2.2-0.8,5.4-1.9,7.6-2.7c0.5-0.2,1-0.4,1.3,0.3c0,0.1,0.2,0.2,0.3,0.2C86.6,4.8,87.4,4.8,87.9,4z"/>
	<path fill="#FF448A" d="M108.4,3.6c0.1-0.9-0.1-1.7-0.7-2.3c-0.6-0.6-1-0.6-1.6,0c-2.9,3.1-5.9,6.3-8.8,9.4c-0.3,0.3-0.6,0.6-1,0.9
		c-0.1,0-0.1-0.1-0.2-0.1c0-0.7,0-1.5,0-2.2c0-1.3,0-2.7-0.2-4c-0.1-1.2-1.7-1.9-2.7-1.1c-0.7,0.5-1.3,1.2-2,1.8
		c-1.5-0.4-1.9-0.3-2.4,1.3c-0.9,2.4-1.8,4.9-2.6,7.4c-0.1,0.2,0,0.5,0.2,0.6c0.2,0.3,0.6,0.6,0.8,0.8c0.6,0.6,1.6,0.5,2-0.3
		c1-1.8,2-3.5,3.1-5.3c0.1-0.2,0.3-0.3,0.5-0.6c0.1,0.6,0.1,1,0.1,1.4c0.1,0.9,0.2,1.8,0.4,2.7c0.1,0.5,0.2,1.1,0.6,1.5
		c0.8,0.8,2.3,0.8,3.2-0.1c0.8-0.7,1.5-1.5,2.3-2.3c0.7-0.7,1.3-1.4,1.9-2.1c-0.1,0.6-0.3,1.1-0.5,1.6c-0.8,2-1.7,3.9-2.5,5.9
		c-0.6,1.5-0.3,2.2,1.2,2.9c0.8,0.4,1.4,0.3,1.7-0.3c0.8-1.9,1.7-3.9,2.5-5.8c1.2-2.8,2.5-5.7,3.8-8.5
		C107.8,5.8,108.3,4.8,108.4,3.6z"/>
	<path fill="#FF448A" d="M120.5,1.6c-1.1-0.9-1.7-1-3-0.2c0,0-0.1,0.1-0.1,0.1c-1.5,0.2-2.3,1.3-3.1,2.3c-2.3,3.1-4.6,6.2-6.8,9.3
		c-0.9,1.2-1.6,2.5-2.4,3.8c-0.3,0.5-0.6,1.1,0,1.7c0.6,0.5,1.3,0.7,2.1,0.4c0.2-0.1,0.3-0.1,0.5-0.1c0.6,0,0.8-0.3,1-0.8
		c0.2-0.8,0.7-1.4,1.6-1.5c1.6-0.3,3.3-0.7,4.9-1c0.6-0.1,1.1-0.2,1.9-0.3c-0.1,2.4-0.2,4.6-0.4,6.8c-0.1,1.1,0,1.3,0.9,1.8
		c1.4,0.7,2.7-0.2,2.8-1.8c0.2-5.2,0.6-10.4,1-15.6c0.1-1.7-0.5-3.2-0.8-4.7C120.7,1.7,120.6,1.7,120.5,1.6z M117.3,11.7
		c0,0.1-0.2,0.3-0.4,0.3c-1.4,0.4-2.9,0.8-4.3,1.1c-0.1,0-0.1,0-0.4-0.1c1.8-2.2,3.5-4.3,5.2-6.4c0.1,0,0.2,0.1,0.3,0.1
		C117.5,8.4,117.4,10.1,117.3,11.7z"/>
	<path fill="#FF448A" d="M150,16.5c0-0.3-0.3-0.6-0.5-0.7c-0.5-0.1-1.1-0.2-1.7-0.2c-1.8,0.3-2.8,0.8-4.7,0.9
		c-2.4,0.2-4.8,0.6-7.5,0.7c0.3-0.7,0.6-1.2,0.8-1.8c1.8-3.7,3.5-7.5,5.4-11.2c0.5-1.1,0.5-2.1,0-3.1c-0.2-0.5-0.8-1-1.3-1.2
		c-0.7-0.2-1.1,0.5-1.3,1.1c-0.5,1.1-0.9,2.3-1.4,3.4c-1.9,4.1-3.9,8.1-5.9,12.2c-0.3,0.6-0.6,1-1.3,1.1c-0.8,0.1-1.3,1.2-1.1,2.2
		c0.1,0.8,0.5,1.1,1.4,1.1c1.3-0.1,2.7-0.2,4-0.3c2.7-0.1,5.5-0.5,8.2-0.7c1.7-0.1,2.7-0.3,4.4-0.5C149.3,19.3,150.1,18.2,150,16.5z
		"/>
	<path fill="#FF448A" d="M131.8,3.8c0.1-0.3,0.3-0.7,0.2-0.9c-0.4-1-0.8-1.9-1.8-2.6c-0.6-0.4-1.1-0.5-1.5,0c-0.5,0.7-1,1.5-1.3,2.4
		c-0.8,2.3-1.5,4.6-2.2,7c-0.9,3.1-1.7,6.1-2.5,9.2c0.1,0,0.1,0,0.2,0.1c-0.1,0.9,0.8,1.9,1.6,2c1.1,0.1,2.2-0.5,2.4-1.4
		c0.9-3.7,1.3-7.4,2.7-11C130.2,7,131,5.4,131.8,3.8z"/>
</g>
</svg>
