<?xml version="1.0" encoding="utf-8"?>
<!-- Generator: Adobe Illustrator 18.1.0, SVG Export Plug-In . SVG Version: 6.00 Build 0)  -->
<svg version="1.1" id="Layer_1" xmlns="http://www.w3.org/2000/svg" xmlns:xlink="http://www.w3.org/1999/xlink" x="0px" y="0px"
	 viewBox="0 0 150 25" enable-background="new 0 0 150 25" xml:space="preserve">
<g>
	<path fill="#FF448A" d="M92.1,14.5c-0.6-1.2-1.3-2.2-2.6-2.7c-0.8-0.3-2-0.1-2.9-0.4c0.4-0.2,0.6-0.4,0.8-0.5
		c1.8-1.3,3.5-2.6,5.3-3.8c0.5-0.4,0.6-0.8,0.3-1.3c-0.3-0.6-0.6-1.2-0.8-1.8c-0.3-0.9-0.9-1.2-1.8-1.2c-2.3-0.2-5,0.2-7.2,0.9
		c-0.8-0.2-1-0.2-2-0.4c-0.5-0.1-0.9,0-1.2,0.4c-0.5,0.9-1.1,1.5-2,1.9c-0.5,0.2-0.5,0.5-0.5,1.2C77.6,7.9,77.9,9,77.9,9
		s-1.7,4.2-2.4,6c-0.5,1.4-1.1,2.8-1.6,4.1c-0.4,1.1-0.4,1.1-1.6,0.8c-0.5-0.1-1.1-0.2-1.6-0.2c-0.2,0-0.6,0.3-0.7,0.5
		c-0.2,1.3,0.9,2.9,2.2,3.1c2.2,0.4,4.5,0.3,6.7-0.1c2-0.4,4-1,6-1.6c2.4-0.8,4.7-1.6,6.7-3.2c1-0.8,1.6-1.6,1-2.8
		C92.4,15.1,92.2,14.8,92.1,14.5z M85.5,7.1c0,0.1-1.4,1.5-4,2.5c0.2-0.7,0.6-1.5,0.6-1.5C82.7,7.7,83.8,7.5,85.5,7.1z M77.9,19.9
		c0.6-1.8,1.1-3.4,1.6-5c0.2-0.6,0.6-0.7,1.1-0.7c2.8,0,7.4,1,8,1.6C85.4,18.2,81.7,19.1,77.9,19.9z M72.6,16.6
		c0.3-0.6-0.3-2.1-0.8-2.5c-0.8-0.5-1.8-0.4-2.5,0.2c-0.3,0.3-0.6,0.5-1,0.7c-2,1-4,2-6,3c-0.7,0.3-1.4,0.5-2.1,0.7
		c-0.1-0.1-0.1-0.1-0.2-0.2c0.3-1,1.5-3.4,1.9-4.3c0,0,0.4-0.3,0.8-0.4c1.6-0.5,3.3-1,4.8-1.6c1.4-0.5,2.8-1.1,4.4-1.2
		c0.2,0,0.6-0.3,0.6-0.5c0.2-0.6,0.3-1.2,0.2-1.7c-0.2-1.3-0.8-2.1-2.2-1.6c-0.2,0.1-0.5,0.2-0.7,0.2c-1.7,0.6-3.4,1.2-5.4,1.8
		c0.4-0.7,0.8-1.2,1-1.8c0.3-0.7,0.8-1,1.5-1.2c1.7-0.5,3.3-1.2,5-1.7c1.2-0.4,2.5-0.8,3.8-0.1c0.9,0.4,1.6-0.3,1.5-1.3
		C77.2,2.8,77.1,2.4,77,2c-0.2-1.2-0.6-1.6-1.9-1.7c-0.4,0-0.7,0-1.1,0.1c-1.6,0.4-3.2,0.8-4.8,1.2C68.2,1.9,68,1.8,67.1,1
		c-0.7-0.7-1.4-0.7-1.6-0.7c-1.1,0.5-1.2,1.4-1.7,2.4c-0.4,0.7-0.9,1-1.6,1.2c-1.9,0.5-2.7,0.8-4.6,1.3c-0.4,0.1-0.8,0.3-1,0.5
		c-0.4,0.5-0.3,2,0.1,2.4C57.3,8.9,58,9,59,8.7c0.7-0.2,0.5-0.2,1.4-0.4C60.1,9,59.8,9.5,59.6,10c-0.3,0.6-0.6,1-1.2,1.2
		c-1,0.4-1.3,1.3-1,2.3c0.1,0.3,0.1,0.8,0.1,0.8c-0.4,1.2-1.6,3.5-1.9,4.7c-0.3,1.1,0,2.1,0.7,2.8c1.4,1.2,3.5,1.3,5,0.3
		c0.1-0.1,0.2-0.1,0.3-0.2c3.4-1.5,6.8-3.1,10.2-4.7C72.1,17.2,72.4,16.9,72.6,16.6z M20.9,13.8c0.1-0.4,0.1-0.9,0-1.3
		c-0.1-0.9-0.8-1.6-1.6-1.6c-0.9,0-1.9,0-2.8,0.1c-1.7,0.1-3.4,0.2-5.3,0.4c0.5-1.1,0.9-2,1.3-3c0.3-0.8,0.6-0.8,1.2-0.9
		c1.8-0.2,3.6-0.5,5.4-0.7c2-0.2,4-0.3,5.9-0.5c0.3,0,0.5-0.3,0.6-0.5C26,4.8,25.7,4,25.3,3.1c-0.3-0.6-0.8-0.8-1.4-0.7
		c-2.9,0.3-5.9,0.7-8.8,1c-0.9,0.1-1.1,0.1-1.9-0.6c-0.9-0.8-2.1-0.6-2.6,0.5C10.3,3.9,10,4.1,9.3,4.2c-2.4,0.2-4.8,0.3-7,1.2
		C1.6,5.7,0.9,6.2,0.4,6.7C0,7,0.3,8.5,0.7,9.1c0.4,0.6,1,0.8,1.5,0.9C2.7,10,3.2,9.8,3.5,9.5c1-0.9,2.2-1.1,4.7-1.4
		C8.1,8.5,7.8,9,7.7,9.4c-0.5,1.3-1,2.2-1,2.2s-0.7,0.2-1.7,0.3c-0.6,0-1.5,0.4-1.5,1.2c0,0.8,0.1,1.7,0.9,2.2
		c0.5,0.4,0.7,0.1,0.5,0.5c-0.4,1-1.9,4.2-2.3,5.2c-0.6,1.3-0.2,2.5,1,3c1.1,0.5,2.3-0.1,2.8-1.1c0.7-1.5,2.2-5.1,2.8-6.6
		c0.3-0.8,0.4-0.9,1.4-1c1.6,0,3.2-0.2,4.8-0.3c1.5-0.1,2.9-0.2,4.4-0.2C20.7,14.8,20.8,14.8,20.9,13.8z M55.5,11.3
		c-0.8-0.6-1.5,0-2.1,0.3c-1.1,0.7-2.2,1.6-3.2,2.5c-2.6,2.3-5.4,4.2-8.6,5.6c-0.3,0.1-1.3,0.4-1.2-0.4c0.7-3.6,2.2-7.2,4.3-10.2
		c0.8-1.1,1.6-1.9,3-2.5c-0.2,0.8-0.5,1.5-0.6,2.2c-0.2,1.3,0.1,1.8,1.5,1.9c0.7,0,1.3,0,2,0c0.3,0,0.6-0.3,0.7-0.6
		c0.6-1.8,1.2-3.6,1.6-5.5c0.2-1,0.2-1.3,0.1-2.3c-0.1-0.7-0.7-1.7-1.5-1.8c-0.7-0.1-1.2,0.2-1.5,0.8c-0.2,0.4-0.3,0.5-0.4,0.7
		c-0.9,0-1.6-0.1-2.3,0c-2,0.4-3.6,1.5-4.9,3.1c-2,2.4-4.8,6.8-5.8,14c-0.3,2.4,0.2,3.5,2.5,4.5c0.6,0.2,2.6,0.8,4.2,0
		c2.5-1.2,4.7-2.8,6.8-4.5c1.4-1.1,2.8-2.3,4.4-3c1.2-0.5,1.5-1.3,1.7-2.3C56.4,12.7,56.2,11.9,55.5,11.3z M34.3,11.7
		c0.2-2.2,0.4-4.2,0.7-6.2c0.1-0.7,0.1-1.4-0.5-1.8c-0.8-0.5-1.8-0.9-2.8-0.4c-0.6,0.3-1.1,0.8-1.6,1.3c-2.5,2.4-4.5,5.3-6.5,8.2
		c-0.7,1.1-1.1,2.4-2.5,3c-1.1,0.5-1.6,1.3-1.7,2.5c0,0.4,0.2,0.5,0,0.8c-0.5,0.8-1.4,2-2,2.7c-0.5,0.5-0.6,1-0.3,1.5
		c0.5,0.8,1,1.1,1.8,0.9c0.4-0.1,0.9-0.3,1.2-0.6c1-1.1,2.1-2.2,3-3.4c1.5-2.1,1.6-2.4,3.3-2.6c1.2-0.1,2.4-0.6,3.7-0.9
		c0,0.4,0,0.7-0.1,1c-0.1,1.5-0.3,3.1-0.3,4.6c0,1,0.7,1.7,1.6,1.7c0.6,0,1.3-0.1,1.9-0.3c0.8-0.3,0.8-1.1,0.5-2
		c-0.1-0.3-0.2-1.3-0.2-1.6c0.1-0.9,0.1-1.5,0.1-2.4c0.1-1.9,0.1-1.8,1.3-2.4c0.6-0.3,0.8-0.8,0.8-1.5C35.7,12.7,35.3,12,34.3,11.7z
		 M30.7,12.6c0,0.2-0.1,0.4-0.3,0.5c-0.8,0.3-1.7,0.5-2.5,0.8c-0.2,0.1-0.3-0.1-0.2-0.3c1-1.3,2.1-2.5,3.1-3.8L31,9.4
		C30.9,10.3,30.8,11.7,30.7,12.6z M149,21.6c-2.7-1.8-6.4-4.5-8.3-7.2c-0.8-1.2-1.8-2.3-2.7-3.5c0.2-0.2,0.3-0.3,0.4-0.4
		c1.1-0.6,2.1-1.5,3.1-2.1c1.1-0.6,2.6-1.8,3.7-2.4c0.3-0.2,0.6-0.4,0.7-0.7c0.3-0.8,0.1-0.8,0.3-1.7c0.1-0.6-1-2-1.5-2
		c-0.5,0-1,0.1-1.4,0.4c-1.7,1.1-3.3,2.4-5,3.5c-0.8,0.6-1.8,0.9-2.8,1.5c0.5-1.6,1-3.6,1.4-5c0.3-1.1-1-1-2.1-1.2
		c-1-0.2-1.8-0.1-2.2,1.1c-0.9,2.5-1.9,4.9-2.6,7.4c-0.9,3.2-1.6,6.4-2.4,9.7c-0.1,0.3,0.2,0.9,0.4,0.9c0.8,0.3,1.6,0.4,2.4,0.5
		c0.7,0.1,1.1-0.4,1.4-1c0.2-0.6,0.4-1.2,0.5-1.8c0.3-1.4,0.5-2.8,0.8-4.1c0-0.2,0.2-0.5,0.3-0.8c0.2,0.3,0.3,0.4,0.4,0.5
		c1.9,2.8,4.1,5.4,6.8,7.4c1.4,1.1,4,2.9,5.6,3.7c0.8,0.4,1.7,0.6,2.6-0.2C150,23.3,150.1,22.4,149,21.6z M126.9,5.1
		c-0.3-0.3-0.5,0-0.7-0.4c-0.6-1.8-2.3-3.7-4-3.4c-1,0.1-2.1,0.5-3,1c-2,1.2-3.6,2.8-5,4.7c-1.7,2.5-3.1,5.1-3.2,8.1
		c-0.1,2.4,0.5,4.6,2.9,5.9c1.6,0.9,3.3,1.5,5.2,1.2c0.4-0.1,0.7-0.1,1.1-0.2c1.9-0.6,3.4-1.8,4.4-3.5c1.4-2.3,2.6-4.6,3-7.2
		c0.2-1.4,0.2-2.8,0.3-4.1C127.9,6.3,127.5,5.6,126.9,5.1z M122.1,14.6c-0.6,1.4-1.4,2.8-2.6,3.8c-1,0.9-2.1,0.9-3.2,0.6
		c-1.1-0.3-1.5-1.2-1.6-2.2c0-0.3,0-0.6,0-0.9c0-3.4,1.5-6.2,3.5-8.8c0.5-0.7,0.9-1,1.6-1.6c1-0.8,3.4-0.1,3.6,1.1
		C123.8,9.5,123.2,12.1,122.1,14.6z M108.5,4.7c-0.3-0.4-0.9-0.8-1.4-0.9c-1-0.2-2-0.3-3-0.4c-1.5-0.1-2.9,0.2-4.2,0.9
		c-1.5,0.8-2.7,2-3.7,3.3c-1.4,2-2.5,4.3-2.6,6.8c-0.1,3,1.1,5.5,3.9,6.9c1.9,1,3.9,0.8,5.8,0c2.5-1.1,3.9-3.3,5.2-5.6
		c1.2-2,1.5-4.3,1.7-6.8C110.2,7.5,109.5,6,108.5,4.7z M105.6,11.5c-0.4,1.8-1,3.4-2.3,4.7c-0.7,0.7-1.5,1.4-2.3,2
		c-0.9,0.6-1.9,0.5-2.8-0.1c-1-0.6-1-1.8-1-2.3c0-0.2-0.1-0.3-0.2-0.3c0.3-1,0.5-2,0.9-3c0.6-1.4,1.2-2.9,2.5-4
		c0.6-0.5,1.2-1.1,1.9-1.5c1-0.7,2.1-0.5,3-0.1c0.4,0.2,0.7,0.9,0.7,1.4C106.1,9.4,105.8,10.5,105.6,11.5z"/>
</g>
</svg>
