<?xml version="1.0" encoding="utf-8"?>
<!-- Generator: Adobe Illustrator 18.1.0, SVG Export Plug-In . SVG Version: 6.00 Build 0)  -->
<svg version="1.1" id="Layer_1" xmlns="http://www.w3.org/2000/svg" xmlns:xlink="http://www.w3.org/1999/xlink" x="0px" y="0px"
	 viewBox="0 0 128 28" enable-background="new 0 0 128 28" xml:space="preserve">
<g>
	<path fill="#FF448A" d="M43.7,2c-0.3,0-0.7,0.2-0.8,0.4C42.5,3,42.2,3.6,42,4.2c-0.7,2.1-1.3,4.1-2.2,6.2c-1,2.4-2.3,4.7-3.5,7
		c-0.6,1.1-1.2,2.1-2,3.4c-0.1-0.3-0.1-0.4-0.1-0.5c0.2-3.4,0.5-6.7,0.7-10.1c0-0.4-0.2-1-0.6-1.2c-0.7-0.5-1.5-0.8-2.3-1.1
		c-0.3-0.1-0.9,0-1.1,0.3c-1.2,1.7-2.3,3.4-3.5,5.1c-0.6,0.8-1.2,1.7-1.7,2.5c-0.1,0-0.1-0.1-0.2-0.1c0-0.3,0.1-0.5,0.1-0.8
		c0.4-1.5,0.4-1.5,0.8-3.1C26.9,9.9,26,8.4,24.1,8c-0.6-0.1-1.2,0-1.3,0.8c-0.3,1.4-0.7,2.7-1,4.1c-0.7,2.7-1.1,3.9-1.6,6.7
		c-0.4,1.8-0.5,3.7-0.9,5.5c-0.2,0.8,0,1.2,0.7,1.5c1.1,0.4,3.6-0.4,4.3-1.6c0.7-1.1,1.3-2.3,2-3.4c1.3-2.1,2.7-4.2,4-6.2
		c0.1,0,0.2,0.1,0.4,0.1c-0.1,1.2-0.2,2.4-0.4,3.5c-0.2,2-0.3,4-0.8,6c-0.3,1.4,0.6,2.7,1.7,2.7c0.9,0,1.8-0.2,2.7-0.5
		c0.4-0.1,0.9-0.5,1.1-0.9c1.7-2.9,3.6-5.7,5.1-8.7c2-4,3.8-8,5.6-12.1C46.6,3.7,45.6,2.1,43.7,2z"/>
	<path fill="#FF448A" d="M49.9,9c-0.6-0.3-1.4-0.5-2.1-0.6c-1.2-0.1-1.7,0.6-1.7,1.7c0,0.3,0,0.6-0.1,0.9c-1,2.9-2.5,6.9-3.4,9.8
		c-0.4,1.3-0.8,2.6-1.1,3.9c0,1,0.2,1.8,0.8,2.5c0.4,0.4,0.7,0.5,1,0.1c0.5-0.6,1.2-1.1,1.5-1.8c2.1-4.5,4.3-10.3,5.6-15.1
		C50.7,9.9,50.4,9.3,49.9,9z"/>
	<path fill="#FF448A" d="M19.7,7.1c2.1-1,4.1-1.9,6.3-2.7c0.9-0.3,1.8-0.6,2.7-0.7c1.2-0.1,1.3-0.2,1-1.4c-0.4-1.7-1.9-2.9-3.6-2.1
		C25,0.7,24,1.3,22.9,1.7C17.6,3.9,12.2,6,6.9,8.2c-2,0.8-4,1.7-5.9,2.6c-1.2,0.6-1.3,1.5-0.5,2.5c0.6,0.7,1.4,0.8,2.1,0.5
		c1.9-0.7,3.7-1.5,5.6-2.3c1.4-0.6,2.9-1.1,4.3-1.7c0.1,0.1,0.2,0.2,0.2,0.2c-0.5,1.2-1,2.4-1.5,3.6c-1.4,3.2-3,6.2-3.7,9.6
		c-0.1,0.4-0.4,0.8-0.6,1.3c-0.1,0.4-0.2,0.9-0.1,1.3c0.1,0.5,0.5,0.9,0.8,1.3c0.6,0.8,2.9,1,3.6,0.4c0.2-0.1,0.3-0.4,0.4-0.6
		c0.1-1.1,1-1.9,0.8-3c0-0.1,0-0.2,0.1-0.3c0.4-1.4,0.8-2.8,1.3-4.1c0.6-1.5,1.2-2.9,1.9-4.3c1-2.1,1.9-4.2,2.9-6.3
		c0.1-0.3,0.2-0.6,0.3-0.9C19.2,7.8,19.4,7.3,19.7,7.1z"/>
	<path fill="#FF448A" d="M82.4,8.1c1.5-0.5,2.8-0.9,4.2-1.3c2-0.5,2.9-1.5,2.9-3.4c0-1.9-0.8-2.5-2.5-1.8c-1.7,0.6-3.4,1.4-5.1,2
		c-3.2,1.1-6.4,2.2-9.7,3.1c-1.6,0.5-1.1,0.2-2.8,0.6c-0.8,0.2-1.5,0.9-1.8,1.8c-0.2,0.9,0.7,1.2,1.4,1.7c1.2,0.8,1.9,0.7,3.2,0.2
		c1.1-0.4,0,0,1.1-0.4c0.8-0.3,1.6-0.5,2.5-0.7c-0.1,0.3-0.1,0.5-0.1,0.6c-0.5,1.3-1,2.6-1.5,3.9c-1.2,3.5-2.4,7.1-3.7,10.7
		c-0.3,0.8-0.1,1.5,0.7,1.9c1.7,0.9,4.4-0.6,4.8-2.6c0.3-1.7,0.7-3.4,1.2-5.1c0.4-1.5,1.1-2.9,1.7-4.3c0.8-1.9,1.7-3.8,2.6-5.7
		C81.7,8.8,82,8.3,82.4,8.1z"/>
	<path fill="#FF448A" d="M119.5,11.4c0.4-0.1,0.8-0.4,1.2-0.7c2.5-1.5,4.9-3,6.8-5.2c0.2-0.2,0.4-0.6,0.3-0.8
		c-0.4-1.2-1.1-2.2-2.3-2.7c-2.3-1-4.7-1.2-7.2-0.8c-1.5,0.2-3.1,0.2-4.6,0.2c-0.6,0-1.2-0.1-1.7,0.5c-0.3,0.3-0.8,0.4-1.2,0.5
		c-0.8,0.2-1.7,0.3-2.5,0.5c-1.1,0.2-1.9,1.3-1.6,2c0.3,0.8,1.9,1.7,2.7,1.5c0.2-0.1,0.5,0,0.9,0c-0.7,2.1-1.3,4-2,6
		c-0.1,0.2-0.3,0.3-0.4,0.4c-0.6,0.5-1.2,0.9-1.7,1.4c-0.8,1-0.7,1.3,0.4,1.8c0.6,0.3,0.7,0.6,0.5,1.1c-0.4,1.3-0.8,2.5-1.2,3.8
		c-0.4,1.1-0.2,1.7,0.9,2c0.7,0.2,1.4,0.3,2.2,0.3c0.4,0,1-0.3,1.2-0.7c0.3-0.4,0.2-1,0.4-1.5c0.5-1.6,1.2-3.2,1.5-4.8
		c0.3-1.6,1.3-2.1,2.7-2.5c0.1,0.3,0.2,0.6,0.3,0.9c0.7,2.2,1.6,4.3,3,6.1c1.3,1.8,2.9,3.3,4.4,4.7c0.6,0.6,1.1,1,1.9,0.9
		c0.9-0.1,1.9-0.3,2.7-0.5c0.3-0.1,0.8-0.6,0.8-0.9c0-0.3-0.4-0.7-0.7-1c-0.3-0.2-0.6-0.4-0.8-0.6c-2.4-2.1-6-5-7.6-10.5
		C118.8,12.4,118.7,11.6,119.5,11.4z M114.2,10c-0.1-0.1-0.1-0.1-0.2-0.2c0.3-0.8,0.6-1.7,0.8-2.5c0.1-0.2,0.2-0.4,0.2-0.7
		c0.3-1.4,0.3-1.5,1.7-1.6c2-0.2,4-0.3,6.1-0.5c0,0.1,0.1,0.2,0.1,0.2C120.4,7.1,117.3,8.5,114.2,10z"/>
	<path fill="#FF448A" d="M105.3,4.7c0.1-1-0.9-1.8-1.9-1.5c-0.7,0.2-1.6,0.3-4.7,1.2C94.3,5.8,91.5,6.7,87.1,8
		c-1.1,0.3-1.5,1.1-1.9,2c-0.3,0.8,0.1,1.7,0.9,1.8c0.6,0.1,1.3,0,2-0.2c1-0.3,0.6-0.2,1.6-0.6c0,0.1,0.1,0.1,0.1,0.2
		c-0.6,1.2-1,1.7-1.6,2.9c-0.3,0.5-0.6,0.9-1.2,1.1c-1.6,0.5-1.9,1.3-1.7,2.9c0.1,0.8,0.5,1.1,0.5,1.3c-0.5,1.5-1.2,4.3-1,5.9
		c0,0.3,0.2,0.8,0.4,0.9c1.4,0.7,3,1.2,4.5,0.8c1.4-0.4,2.8-1.1,4.1-1.8c2.3-1.3,3.1-1.6,5.7-2.3c0.4-0.1,0.8-0.2,1-0.5
		c0.7-1,1-2.1,0.5-3.3c-0.1-0.3-0.6-0.5-0.9-0.5c-0.6,0.1-1.3,0.4-1.9,0.7c-2.4,1-3.1,1.4-5.6,2.4c-1.3,0.5-2.3,1.2-3.8,1.1
		c0-0.4,0.9-3,1.2-3.7c0.2-0.3,0.5-0.7,0.8-0.8c2.3-0.8,4.1-1.5,6.4-2.2c1.6-0.5,2.3-0.7,3.9-0.8c0.9-0.1,1.3-0.5,1.6-1.2
		c0.1-0.3,0.1-0.3,0.2-0.6c0.3-0.8-0.2-1.9-1-2.1c-1.6-0.5-2.1,0.1-3.5,0.5c-1.7,0.5-3.3,1.1-5.2,1.8c0.2-1,1.1-2.9,1.3-3.6
		c0.2-0.6,0.6-0.9,1.1-1c2.6-0.7,6.4-1.9,7.6-2c1-0.1,1.4-0.6,1.6-1.3C105.1,5.3,105.2,5.4,105.3,4.7z"/>
	<path fill="#FF448A" d="M72.7,4.1c0.8-2-0.6-3-2.1-2.7c-1.2,0.2-2.3,0.4-3.5,0.8c-3.5,1-7.1,2-10.6,3c-3.3,0.9-1.4,0-4.7,0.8
		c-0.7,0.2-1,0.9-1,1.6c0,0.7,0.9,1.9,1.4,2.2c1.3,0.7,1.7,0.6,3.4,0c2.5-0.9-0.2,0.1,2.5-0.8c-0.4,1.1-0.8,2-1.1,3
		c-0.8,2.6-1.5,5.1-2.3,7.7c-0.4,1.2-0.8,2.4-1.1,3.7c-0.3,1.2,0.5,1.9,1.6,1.5c0.7-0.2,1.4-0.4,2-0.8c0.6-0.4,1.3-0.9,1.4-1.5
		c0.6-1.9,1-3.9,1.4-5.8c0.6-2.9,1.8-5.7,2.9-8.5c0.1-0.2,0.4-0.3,0.6-0.4c2.1-0.5,4.1-1,6.2-1.4C71.5,6.1,72.1,5.8,72.7,4.1z"/>
</g>
</svg>
