<?xml version="1.0" encoding="utf-8"?>
<!-- Generator: Adobe Illustrator 18.0.0, SVG Export Plug-In . SVG Version: 6.00 Build 0)  -->
<!DOCTYPE svg PUBLIC "-//W3C//DTD SVG 1.1//EN" "http://www.w3.org/Graphics/SVG/1.1/DTD/svg11.dtd">
<svg version="1.1" id="Layer_1" xmlns="http://www.w3.org/2000/svg" xmlns:xlink="http://www.w3.org/1999/xlink" x="0px" y="0px"
	 viewBox="0 0 175 27" enable-background="new 0 0 175 27" xml:space="preserve">
<path fill="#535A63" d="M52.9,24.9h4.8V2h-4.8V24.9z M73.7,18.6L67.6,2h-5l8.8,22.9H76L84.8,2h-4.9L73.7,18.6z M42,16.5L31.9,2h-4.5
	v22.9H32V9.7l10.8,15.2h3.8V2H42V16.5z M16.4,15.2c0,3.9-1.7,5.8-4.7,5.8s-4.7-1.9-4.7-5.8V2H2.2v13.7c0,6.3,3.8,9.6,9.5,9.6
	c5.7,0,9.5-3.3,9.5-9.6V2h-4.8V15.2z M146.5,11.7l-4.2-1c-1.7-0.4-2.6-1.2-2.6-2.5c0-1.6,1.5-2.7,3.6-2.7c1.7,0,2.8,0.6,3.5,1.5
	c0.2,0.2,0.5,0.3,0.8,0.3h4.4c-1-3.4-4-5.7-8.8-5.7c-4.8,0-8.2,2.9-8.2,7c0,3.8,2.5,5.5,5.8,6.3l4.1,0.9c2,0.4,2.8,1.2,2.8,2.6
	c0,1.8-1.5,2.9-3.8,2.9c-1.6,0-2.9-0.5-3.8-1.5c-0.2-0.2-0.5-0.4-0.8-0.4h-4.7c1.2,3.7,4.6,5.8,9.2,5.8c4.8,0,8.5-2.7,8.5-7.1
	C152.5,14.7,150.2,12.6,146.5,11.7z M173.3,6.2V2h-15.5v22.9h15.5v-4.2h-10.8v-5.4h8.6v-4.1h-8.6v-5H173.3z M89.8,24.9h15.5v-4.2
	H94.5v-5.4h8.6v-4.1h-8.6v-5h10.8V2H89.8V24.9z M129.5,9.3c0-4.7-3.2-7.3-8-7.3h-9.6v22.9h4.8v-8.5h2.5l6.3,8.5h5.6l-6.7-8.9
	C127.5,15.3,129.5,13,129.5,9.3z M121.2,12.5h-4.6V6.1h4.6c2.4,0,3.6,1.3,3.6,3.2C124.8,11.2,123.6,12.5,121.2,12.5z"/>
</svg>
