<?xml version="1.0" encoding="utf-8"?>
<!-- Generator: Adobe Illustrator 18.0.0, SVG Export Plug-In . SVG Version: 6.00 Build 0)  -->
<!DOCTYPE svg PUBLIC "-//W3C//DTD SVG 1.1//EN" "http://www.w3.org/Graphics/SVG/1.1/DTD/svg11.dtd">
<svg version="1.1" id="Layer_1" xmlns="http://www.w3.org/2000/svg" xmlns:xlink="http://www.w3.org/1999/xlink" x="0px" y="0px"
	 viewBox="0 0 128 128" enable-background="new 0 0 128 128" xml:space="preserve">
<g>
	<path fill="#2473FF" d="M106.9,71c1.4,0,2.5-1.1,2.5-2.4s-1.1-2.4-2.5-2.4c-2.8,0-7.8,1.6-9.2,12.2c-0.2,1.3,0.8,2.5,2.2,2.6
		c0.1,0,0.2,0,0.3,0c1.2,0,2.3-0.9,2.5-2.1c0-0.1,0-0.3,0.1-0.4c1.1,0.6,1.5,1.7,1.3,2.6c-0.2,0.9-0.9,1.3-2.1,1.3
		c-1.4,0-2.5,1.1-2.5,2.4s1.1,2.4,2.5,2.4c3.5,0,6.2-2,7-5c0.8-3.2-0.9-6.6-4.1-8c-0.3-0.1-0.6-0.2-0.9-0.2
		C104.7,72.2,105.8,71,106.9,71z"/>
	<path fill="#2473FF" d="M62.1,99.8c-0.7-0.3-1.7-1.6-1.5-2.8c0.1-1.3-0.9-2.4-2.2-2.6c-1.4-0.1-2.6,0.8-2.7,2.1
		c-0.1,0.6,0,1.2,0.1,1.8c-4.5,1.7-8.5,2.5-12.5,2.6c-1.4,0-2.5,1.1-2.4,2.4c0,1.3,1.1,2.3,2.5,2.3c0,0,0,0,0.1,0
		c4.8-0.1,9.4-1.1,14.6-3c0.7,0.7,1.5,1.2,2.2,1.6c0.3,0.1,0.7,0.2,1,0.2c1,0,1.9-0.5,2.3-1.4C63.9,101.7,63.3,100.3,62.1,99.8z"/>
	<path fill="#2473FF" d="M55.8,67.3c0.3,0,0.7-0.1,1-0.2c10.3-4.4,15.1-3.9,19.2-1.8c1.2,0.6,2.7,0.2,3.4-1c0.6-1.2,0.2-2.6-1-3.2
		c-6.4-3.2-13.2-2.7-23.6,1.7c-1.3,0.5-1.8,1.9-1.3,3.1C53.9,66.7,54.8,67.3,55.8,67.3z"/>
	<path fill="#2473FF" d="M69.7,67.5c-6.4-1-12.8,2.2-15.7,7.8c-0.6,1.2-0.1,2.6,1.2,3.2c1.2,0.6,2.7,0.1,3.3-1.1
		c1.3-2.6,3.5-4.1,5.8-4.8c-1.4,1.4-2.6,3.6-2.8,7c-0.2,3.8,0.9,7,3.2,9.1c1.5,1.4,3.5,2.1,5.6,2.1c0.3,0,0.5,0,0.8,0
		c2.4-0.2,4.6-1.4,6.2-3.3c2.1-2.4,2.9-5.8,2.5-9.5C79.1,72.4,75.2,68.4,69.7,67.5z"/>
	<path fill="#2473FF" d="M121.6,70.1c-1-7.8-5.9-13.1-13.4-14.6c-0.2,0-0.5-0.1-0.7-0.1c0-2.4-0.5-4.4-1.2-6.2
		c0.9-0.7,1.6-1.6,2.2-2.4c3-4.4,1.7-9.1,1.2-11.1c-0.6-2.1-2-4.7-4.2-6.9c3.2-0.6,5.7-1.9,7.4-3.9c1.5-1.8,3-4.8,1.8-9.6
		c-1.2-4.7-4.9-6.4-7.9-6.4c-1.2,0-3.1,0.3-5.6,1.5c-0.1-0.2-0.2-0.3-0.3-0.5c-1.5-2.3-3.9-3.6-6.7-3.6c0,0,0,0,0,0l-0.2,0
		c-3.2,0.1-5.9,1.8-7.3,4.5c-0.7,1.4-1,3-1,4.7c-4.5-2.9-9.9-4.4-15.7-4.4c-5.2,0-10.5,1.2-15.8,3.5c-4.9,2.2-9,3.3-12.2,3.3
		c-2.9,0-4.4-0.9-6.2-1.9c-1.2-0.7-2.5-1.5-4.1-1.8c-0.4-0.1-0.8-0.1-1.1-0.1c-0.8,0-1.5,0.2-2.2,0.5c-2.4,1.1-4.3,3.4-5,6
		c-0.3,0.9-0.4,2.1-0.3,3.5C14.3,27.3,9.8,34.4,9.8,40.8c0,1.1,0.4,2.1,1.1,3c0.8,1,1.8,1.8,3,2.4c-1.5,4.8-1,9.9,1.5,13.4
		c-2.2,1.5-4.3,4.4-4.8,8.8c-1,8.2,1.4,17.2,5.9,21.9c0.5,0.5,1,1,1.5,1.4c-0.1,6.3,1.1,13.9,6.8,19.9c6.1,6.4,16.1,9.7,29.7,9.7
		c15.5,0,27.5-3.2,35.8-9.6c5.3-4.1,8.4-8.9,10.1-13.2c0.5,0.1,1,0.1,1.4,0.1c2,0,4.1-0.5,6.2-1.4C117.6,93,122.8,79.6,121.6,70.1z
		 M88,56.2c0.2-0.5,0.5-0.9,0.7-1.4c1.8-0.2,3.8-0.4,6.1-0.8c2.8-0.5,5.2-1.2,7.2-2.1c0.4,1.2,0.6,2.4,0.5,3.7
		c-4.4,0.9-8.7,3.7-11.4,8.5c-1.1-1.9-2.7-3.6-4.5-4.9C87,58.2,87.6,57.1,88,56.2z M94.1,11.1C94.1,11.1,94.2,11.1,94.1,11.1
		c3.3,0,4.3,4.9,2.2,9c2.8-2.8,7.3-6.4,10.5-6.4c1.4,0,2.6,0.8,3.1,2.8c1.5,6.2-3,8-8,8c-2.8,0-5.8-0.6-7.9-1.4c0,0,0,0,0-0.1
		c0,0,0,0,0,0C89.3,17.4,90,11.2,94.1,11.1z M14.8,40.8c0-5.3,4.8-12.1,14.9-13.5c-3.2-4.6-0.6-7.7,1.1-8.5
		c2.5,0.5,4.9,3.9,11.4,3.9c3.4,0,8-0.9,14.3-3.7c4.9-2.2,9.5-3.1,13.6-3.1c10.6,0,18.3,6.1,20,12.8c1.2-0.3,2.3-0.5,3.3-0.5
		c6.6,0,10.8,5.7,11.5,8.6c0.9,3.3,2.6,10.1-11,12.5c-3.8,0.7-6.5,0.9-8.7,0.9c-5.3,0-7.4-1.3-13.7-1.3c-0.5,0-0.9,0-1.4,0
		c-5.4,0.2-8.2,5-12.4,6.9c-2.1-1.9-2.6-7.7-2.6-7.7c-3.4,4.7-5.1,6.1-7.8,8.3c0,0-2.7-2.5-2.2-6.1c-1.9,2.6-4.4,5.8-8.3,7
		c-0.3-1.5-0.4-3.9-0.1-6c-1.3,2.7-3.5,6.2-4.6,7.9c-6.5-2-6.4-6.9-6.4-6.9s-3,5.7-4.9,5.8c0,0,0,0-0.1,0
		c-3.7-3.2-3.4-10.3,0.5-15.4c-0.3,0-0.6,0-0.8,0C17.3,42.8,15.7,42,14.8,40.8z M25.4,61.2c-0.2,0.1-0.4,0.1-0.6,0.2
		c0.1-0.1,0.3-0.2,0.4-0.3C25.3,61.2,25.4,61.2,25.4,61.2z M15.5,69c0.3-2.6,1.3-4.2,2.3-5.1c0.1,1.8,0.3,3.7,0.5,5.4
		c0.4,4.2,0.8,8.2,0.6,11.8c0,0.7-0.1,1.6-0.3,2.8c0,0.3-0.1,0.7-0.1,1.1C16.1,80.8,14.8,74.5,15.5,69z M106,92.8
		c-1.4,0.6-2.8,0.9-4.1,0.9c-1.7,0-3.3-0.6-4.7-1.8c-2,9.9-10.5,24.6-42.7,24.6c-38.9,0-30.9-27.7-30.6-35.3c0-0.3,0-0.5,0-0.8
		c0.1-0.1,0.2-0.3,0.3-0.5c1.8-3.9,4.7-5.8,7.4-6.4c-1.6,1.3-3.1,3.6-3.4,7.5c-0.2,3.8,0.9,7,3.2,9.1c1.5,1.4,3.5,2.1,5.6,2.1
		c0.3,0,0.5,0,0.8,0c2.4-0.2,4.6-1.4,6.2-3.3c2.1-2.4,2.9-5.8,2.5-9.5c-0.7-5.7-4.9-9.9-10.7-10.7c-3.9-0.5-8.6,0.6-12.3,3.9
		c-0.2-1.8-0.3-3.6-0.5-5.3c4.3-2.5,10.2-2.8,16.9-0.7c1.3,0.4,2.7-0.3,3.1-1.5c0.4-1.2-0.3-2.6-1.6-3c-0.8-0.2-1.6-0.5-2.4-0.6
		c1.5-0.6,2.8-1.3,4-2.2c0.2,0.2,0.4,0.4,0.5,0.5c1,0.9,2.2,1.4,3.5,1.4c1.2,0,2.4-0.4,3.3-1.2l0.2-0.2c0.8-0.7,1.5-1.3,2.3-1.9
		c0.3,0.5,0.7,0.9,1.1,1.3c1,0.9,2.2,1.3,3.5,1.3c0.7,0,1.4-0.1,2.1-0.4c2.3-1,4-2.4,5.6-3.7c2-1.7,3.4-2.7,4.9-2.7
		c0.4,0,0.9,0,1.3,0c2.8,0,4.7,0.3,6.6,0.6c1.5,0.3,3.1,0.5,5,0.6c-0.9,1.8-1.9,4.1-1.9,6.9c5.3,2,7.5,7.1,7.3,12.1
		c-0.1,3.1,1.8,4.7,3.1,4.7c0.8,0,1.5-0.5,1.5-1.6c0-12.9,7.5-16.9,12.5-16.9c0.6,0,1.1,0,1.6,0.1C122.9,63.1,116.9,88.1,106,92.8z"
		/>
</g>
</svg>
