<?xml version="1.0" encoding="utf-8"?>
<!-- Generator: Adobe Illustrator 18.0.0, SVG Export Plug-In . SVG Version: 6.00 Build 0)  -->
<!DOCTYPE svg PUBLIC "-//W3C//DTD SVG 1.1//EN" "http://www.w3.org/Graphics/SVG/1.1/DTD/svg11.dtd">
<svg version="1.1" id="Layer_1" xmlns="http://www.w3.org/2000/svg" xmlns:xlink="http://www.w3.org/1999/xlink" x="0px" y="0px"
	 viewBox="0 0 60 60" enable-background="new 0 0 60 60" xml:space="preserve">
<path fill="#FFFFFF" d="M46.5,36.7c-3.5-1.2-7.6-2.3-13.2-2.5l0.3-1.1l0,0l0,0l5-16c0.7-2.2-0.5-4.5-2.7-5.2L34,11.4
	c-0.4-0.1-0.8-0.2-1.2-0.2c-1.8,0-3.4,1.2-4,2.9l-5,16l-0.7,2.2l0.7,2.4c-7.1,1-8.7,3.7-9,5.3c-0.4,1.7,0.6,3.5,2.5,4.5
	c2.4,1.4,6.6,2.1,10.7,2.1c3.1,0,6.1-0.4,8.2-1.3c1.7-0.7,2.8-1.7,3.1-2.8c0.4-1.3,0-2.2-0.4-2.7c-1.3-1.8-4.6-2.2-8.5-2.2l1.2-1
	c6.5,0,10.7,1.2,14.1,2.4c0.6,0.2,1.3-0.1,1.5-0.7C47.4,37.6,47.1,37,46.5,36.7z M31,14.8c0.3-0.9,1.3-1.5,2.3-1.2l1.9,0.6
	c1,0.3,1.5,1.3,1.2,2.3l-0.6,2l-5.4-1.7L31,14.8z M29.7,19l5.4,1.7l-3.3,10.7l-5.4-1.7L29.7,19z M33.3,34.3
	C33.3,34.3,33.3,34.3,33.3,34.3L33.3,34.3L33.3,34.3z M25.7,31.9l5.4,1.7l-0.2,0.6L28.7,36l-2.3-0.6l-0.8-3L25.7,31.9z M37.1,41.8
	c-0.1,0.5-0.8,0.9-1.8,1.3c-4.4,1.8-13.2,1.4-16.9-0.7c-1-0.6-1.5-1.3-1.3-2c0.2-1.2,2.4-2.8,7.4-3.5l0.8,2.8h1.2c0.1,0,0.2,0,0.2,0
	c0.3,0,0.7,0,1.1,0c2.4,0,8.2-0.1,9.2,1.3C37.1,41.3,37.2,41.4,37.1,41.8z"/>
</svg>
