<?xml version="1.0" encoding="utf-8"?>
<!-- Generator: Adobe Illustrator 18.1.0, SVG Export Plug-In . SVG Version: 6.00 Build 0)  -->
<svg version="1.1" id="Layer_1" xmlns="http://www.w3.org/2000/svg" xmlns:xlink="http://www.w3.org/1999/xlink" x="0px" y="0px"
	 viewBox="0 0 600 300" enable-background="new 0 0 600 300" xml:space="preserve">
<g>
	<g>
		<linearGradient id="SVGID_1_" gradientUnits="userSpaceOnUse" x1="0.4758" y1="326.5459" x2="580.1179" y2="15.6008">
			<stop  offset="0" style="stop-color:#AD7053"/>
			<stop  offset="0.8259" style="stop-color:#CEA36D"/>
		</linearGradient>
		<path fill="url(#SVGID_1_)" d="M556.7,86.3c-0.3-1.2-0.4-2.6-3.1-1.9c-2.8,0.8-36.6,4.4-60.7,6.8c2-3.5,4.9-9.2,6-11.9
			c0.8-1.8,0.3-4-2.2-4c-3.7,0.1-6.1,0.2-6.8,4.4c-0.4,2.5-3.2,8.4-5.5,12.4c-9.8,1-16.6,1.9-24,2.6c5.1-8.7,10-18.2,9.1-20.4
			c-0.6-1.7,0.2-2.6-4.8-1.6c-4.9,1-3.5,4.5-4.4,6.7c-1.9,4.5-5.5,11.5-8,16.1c-4.6,0.4-9.5,1.2-9.5,1.2
			c-11.9-0.9-12.3,1.6-12.3,5.5c0,3.3,5,1.9,10.4,1.3c1.1-0.1,5.1-0.8,7.5-1.1h0l7.9-0.9l0,0c0.2,0,0.5-0.1,0.7-0.1l0,0
			c7.2-0.8,13.8-1.8,23.5-2.9c-3.8,6.3-10.7,17.3-15.6,25.1c-13.7,16.6-25.7,26.6-29.8,23c-5.4-4.8,8.9-25.1,20-43.4l-6.8-0.9
			c-1.8,2.3-3.4,4.5-4.9,6.7c-4.2,3.9-12,8.1-19.9,9.8c2-9.2,0.3-17.4-7.1-20.9c-9.2-4.3-18.3,1.3-20.2,7.5
			c-3.4,11.6,4.6,20,18.3,19.7c-5.6,13.3-17.8,27.5-26.1,24.3c-3.4-1.3-3.4-9.1,3.7-21.5c2.5-4.3,2.8-11.2-4.4-12.1
			c-0.1,0-0.2,0-0.3,0c-0.3,0-0.6,0-0.9-0.1c-0.2,0-0.3,0-0.4,0c-0.1,0-0.2,0-0.3,0c-0.1,0-0.3,0-0.4,0c-0.4,0-0.8,0.1-1.1,0.1
			c-2.3,0.3-5.3,1.1-8.6,1.8c1.6-8.3-0.1-15.6-6.8-18.7c-7.1-3.3-16.5,1-19.2,6.9c-5.8,12.7,3.3,20,17.6,19.4
			c-6.1,13.6-20,28.1-27.8,22.8c-3.4-2.3-1.8-12.9,5.9-24.8c1.8-2.8-0.1-7.3-3.4-8.5c-0.1,0-2.1-0.3-2.2-0.3l0,0
			c-1-0.1-2.2,0.1-3.5,0.9c-3.7,2.3-2.5,7.2-3.1,9.7c-1.6,6.4-22.1,28.7-28.6,21.4c-4.6-5.2,6.8-24,24.4-47.5l-7.6-0.4L329,98
			c0,0,3.9-0.6,3.9-0.6c23-2.8,74.3-8.1,79.4-9.7c2.5-0.8,3.7-2.2,3.3-3.6c-0.4-1.2-0.5-2.6-3.1-1.8c-4.4,1.3-54.5,6.4-77.9,8.8
			c2.2-2.8,5-6.3,6.5-8.4c2.8-4,4.5-10.4-0.2-9.3c-4.7,1.1-6.8,1.7-7,5.5c-0.2,3.2-4.5,7.7-8.8,13.2c-1.6,0.2-7.5,0-7.5,0
			c-5.6-0.3-7.1,2.1-7.1,5.9c0,2.9,5.6,1.8,8.5,1.4c0.6-0.1,1.2-0.2,1.8-0.3c-2.8,4.3-10.2,13.2-13.1,17.2c0,0-0.1,0-0.1,0
			c-6.6,2.6-9.5-7.4-8.4-12.1c1.1-4.7,0-7.5-5.2-5.9c-3.4,1-3.7,2.9-3.7,4.2c0,1.2-0.8,8.7-1.9,11.4c-5.1,13.6-20,34.4-24.6,31.8
			c-5.8-3.3,17.4-41.8,7.2-45.1c-7.2-2.3-31.9,48.6-38.6,45.1c-4.8-2.5,13.4-29.2,15-41.3c0.5-3.6-2-3.8-5.4-3c-1.3,0.3-3,1.1-5,4.5
			c-17.3,27.7-31.3,41.3-33.7,39.9c-2.9-1.6,11.4-16.4,4.1-19.8c-11.6-5.3-31.4,24.3-37,21.7c-3.5-1.6,2.3-8.9,7.8-16l-11.2-0.7
			c-10.9,16.1-8.2,22-3.8,24c11.2,5.1,34.6-24.4,38.1-22.2c0.9,0.6-14.1,17.8-5.1,21.4c8.2,3.3,22-11.9,29.5-24.2
			c2.6-4.1,8-12.8,8-12.8l0.4,0.7c-4.6,8-19,30.8-8.8,36.6c9.3,5.2,24.2-15.5,33.7-32.2c0.8-1.8,2.6-4.7,2.6-4.7l0.4,1
			c-12.6,29.8-7.2,35-1.4,35.8c7.8,1.1,22.9-14.3,33.4-38.8c1.4,3.3,4.8,6.1,10.1,6.1c-5.4,9.5-12.7,25.2-5.8,30.8
			c6.5,5.2,18.4,2,29.5-10.4l1.2-4.8l1-0.9c0,0-0.7,3-1.2,5.6c-0.4,5.3,1.4,10,7.3,12.6c13.8,6,31.5-12.5,38-30l0,0
			c0.6-1.8,1.3-3.9,1.5-5c-0.1,1.7,0,3.2,0.1,4.7c1.5-0.3,3-0.7,4.5-1.2c4.4-1.4,4.3,0.4,3.3,2.8c-5.2,10.4-10.1,24.4,2.2,28.9
			c13.2,4.9,29.2-11.5,35.8-28.2c0.9-2.6,1.9-5.8,1.9-5.8s0.1,1.4,0.1,3.2c4.3-1,8.9-2.8,13.7-5.3c-13.2,20.7-13.9,31.4-7.8,35
			c6.8,4.1,17.3-2,24.8-10.9l3-6.4l0.9-0.9c0,0-0.8,1.9-1.9,4.6c0.1-0.1,0.1-0.2,0.2-0.3c-0.2,0.4-0.4,0.7-0.6,1.1
			c-0.5,1.2-1.1,2.4-1.7,3.8c-0.9,2.2-1.6,4.3-2.7,6.8c-1.2,2.8,2.6,3.4,5.6,2.8c3-0.6,3.3-4.8,4.4-7.5c2.7-6.3,6-13.1,11.2-21.4
			c6.2-6.3,18.4-13.5,23.1-11.7c9.9,3.8-19.2,32.4-13.7,43.6c8.6,17.5,51.5-4.2,64.1-32.4c1.3-2.8,1.2-5.1-2.2-6.3
			c-2.2-0.8-2.7,2.8-3.2,3.8c-19.4,34.9-57.3,41.4-51.4,27.4c6.6-15.8,24.8-37,10-42.3c-2.7-1-9.3-1-18.8,5.4
			c2.7-4.3,5.4-9.8,7.9-13.8l-7.6-0.7l8.5-0.8c0,0,0,0,0,0c25.7-2.9,61.7-7,64.1-7.7C555.8,89.1,557.1,87.7,556.7,86.3z
			 M369.7,118.9c-3.7,0.5-7.4,0.5-10.2-0.7c-7.4-3.2-2.5-15.7,5.8-12.7C370.4,107.3,371.3,112.6,369.7,118.9z M416.7,119.6
			c-3.6,0-7-0.8-9.8-2.6c-8-5.1-1.5-17.6,7.5-11.9C418.2,107.5,418.5,113.2,416.7,119.6z"/>
		<linearGradient id="SVGID_2_" gradientUnits="userSpaceOnUse" x1="-54.6604" y1="223.7649" x2="524.9818" y2="-87.1802">
			<stop  offset="0" style="stop-color:#AD7053"/>
			<stop  offset="0.8259" style="stop-color:#CEA36D"/>
		</linearGradient>
		<path fill="url(#SVGID_2_)" d="M133.2,135c0.2,0,0.4,0,0.6-0.1l12.7-1.4c0,0,0.7-0.1,0.7-0.1c3.8-0.4,15.9-2.2,19.5-2.6
			c0,0-0.1,0-0.1,0.1l11.5-1.2c0,0,0.1,0,0.1,0c26-3,33.7-11.6,36.8-18.3c2.3-4.9,0.3-9.9-4-11.8c-8.5-3.8-26.7,9.1-39.9,25.3
			c-8.1,1.1-25.1,2.7-34.3,3.6c-11.8-6.6-30.6-13.4-25.7-25c4.8-11.5,40-18.2,55.2-12.8c3.7,1.3-6.5,14.5-3.1,16
			c2.3,1,1.6,3.5,8.6-3.4c7-6.9,14.5-10.9,13.7-14.1c-1.1-4.4-4.2-6.6-6.6-3.4c-3.4,4.5-5.9,7.8-5.9,7.8s3.9-6.5-0.5-8.6
			c-12.2-5.6-61.6-2-69.6,16c-4.7,10.6,1.6,21.3,17.5,29c-34.5,3.1-67,5.1-71,15.4c-8.4,21.8,86,39.6,99.4,4.9
			c2.1-5.6,0.6-11.9-2.3-14.8L133.2,135z M208.2,104.6c2.3,1,3.4,2.8,2,5.7c-2.6,5.5-9.1,11.2-26.8,13.9
			C193.1,114.5,203.9,102.6,208.2,104.6z M138.5,148.4c-10,27.4-83.1,12.1-77-0.4c2.6-5.2,18.3-6.7,65.2-12.3
			c2.5-0.3,3.5-0.4,5.1-0.6C136.6,137.7,140.1,143.8,138.5,148.4z"/>
	</g>
	<g>
		<g>
			<path fill="#CEA26C" d="M142.6,223.5c-0.3,0.4-0.7,0.5-1.2,0.5c-0.6,0-1.1-0.3-1.4-0.8c-0.3-0.5-0.4-1.7-0.4-3.3v0
				c0-1.7,0.1-2.8,0.4-3.3c0.3-0.5,0.7-0.8,1.4-0.8c1.1,0,1.5,0.7,1.7,2.7l6.4-0.4c-0.2-1.8-1-3.2-2.3-4.3c-1.3-1.1-3.3-1.7-5.9-1.7
				c-2.8,0-5,0.7-6.6,2.1c-1.6,1.4-2.3,3.3-2.3,5.7v0c0,2.4,0.8,4.3,2.3,5.7c1.6,1.4,3.8,2.1,6.6,2.1c4.9,0,7.9-1.9,8.3-6.1
				l-6.4-0.4C143.1,222.4,142.9,223.1,142.6,223.5z"/>
			<path fill="#CEA26C" d="M167,212c-2.7,0-4.9,0.7-6.5,2.1c-1.6,1.4-2.4,3.3-2.4,5.8v0c0,2.5,0.8,4.4,2.4,5.8
				c1.6,1.4,3.8,2.1,6.5,2.1c2.7,0,4.9-0.7,6.5-2.1c1.6-1.4,2.4-3.3,2.4-5.8v0c0-2.5-0.8-4.4-2.4-5.8C171.9,212.7,169.8,212,167,212
				z M168.7,219.9c0,1.7-0.1,2.8-0.4,3.3c-0.3,0.5-0.7,0.8-1.2,0.8c-0.5,0-1-0.3-1.2-0.8c-0.3-0.6-0.4-1.7-0.4-3.3v0
				c0-1.7,0.1-2.8,0.4-3.3c0.3-0.6,0.7-0.8,1.2-0.8c0.5,0,0.9,0.3,1.2,0.8C168.5,217.1,168.7,218.2,168.7,219.9L168.7,219.9z"/>
			<polygon fill="#CEA26C" points="184.9,227.4 191.9,227.4 191.9,222.5 197.9,222.5 197.9,218.6 191.9,218.6 191.9,216.2 
				198.9,216.2 198.9,212.3 184.9,212.3 			"/>
			<polygon fill="#CEA26C" points="207.7,227.4 214.7,227.4 214.7,222.5 220.7,222.5 220.7,218.6 214.7,218.6 214.7,216.2 
				221.7,216.2 221.7,212.3 207.7,212.3 			"/>
			<polygon fill="#CEA26C" points="230.6,227.4 244.6,227.4 244.6,223.6 237.6,223.6 237.6,221.7 243.5,221.7 243.5,217.8 
				237.6,217.8 237.6,216.2 244.6,216.2 244.6,212.3 230.6,212.3 			"/>
			<polygon fill="#CEA26C" points="253.8,227.4 267.9,227.4 267.9,223.6 260.8,223.6 260.8,221.7 266.7,221.7 266.7,217.8 
				260.8,217.8 260.8,216.2 267.9,216.2 267.9,212.3 253.8,212.3 			"/>
			<path fill="#CEA26C" d="M304.8,225.1c-0.2-0.1-0.4-0.3-0.6-0.4c0.4-0.5,1.3-1.5,1.7-3c0.1-0.5,0.2-1,0.3-1.4l-2.2,0
				c0,0.6,0,1.4-0.8,2.5l-0.6,0.8l-1.3-0.9c-1.2-0.8-2.2-1.8-3.3-2.7c0.7-0.2,1.1-0.4,1.4-0.5c0.6-0.3,2.3-1.2,2.3-3.2
				c0-1.6-1.3-2.5-1.8-2.8c-1.1-0.6-2.3-0.6-2.7-0.6c-2.6,0-3.9,1-4.4,1.9c-0.2,0.3-0.4,0.8-0.4,1.6c0,1.7,1.3,2.6,1.7,3
				c-1.5,0.5-3.2,1-4.2,2.2c-0.3,0.3-0.6,1-0.6,2c0,0.9,0.3,1.6,0.9,2.3c1.8,2.1,5,2.1,5.7,2.1c2.7,0,4.7-0.8,5.5-1.2
				c0.3-0.1,0.7-0.3,1-0.5c1.2,0.7,1.7,1.1,2.4,1.3c0.3,0.1,0.6,0.1,1,0.1c0.3,0,0.6,0,1.2-0.2v-1.8
				C306.5,225.7,305.8,225.7,304.8,225.1z M297.1,214.4c1.3,0,2.2,0.8,2.2,1.9c0,1.6-1.8,2.1-2.2,2.2c-0.1,0-0.3,0.1-0.5,0.1
				c-0.5-0.3-0.8-0.6-1.2-1.1c-0.5-0.6-0.6-1-0.6-1.4C294.8,215.1,295.9,214.4,297.1,214.4z M300,225.3c-0.5,0.2-2,0.7-3.7,0.7
				c-2.2,0-3.5-0.8-4-1.4c-0.2-0.2-0.5-0.7-0.5-1.4c0-0.9,0.7-1.8,2.7-2.4c0.3-0.1,0.7-0.2,1-0.3c0.9,0.7,1.7,1.5,2.6,2.2
				c0.9,0.7,1.8,1.4,2.7,2.1C300.6,225.1,300.3,225.2,300,225.3z"/>
			<polygon fill="#CEA26C" points="335.4,212.3 328.4,212.3 328.4,227.4 342.1,227.4 342.1,223.1 335.4,223.1 			"/>
			<path fill="#CEA26C" d="M359,212c-2.7,0-4.9,0.7-6.5,2.1c-1.6,1.4-2.4,3.3-2.4,5.8v0c0,2.5,0.8,4.4,2.4,5.8
				c1.6,1.4,3.8,2.1,6.5,2.1c2.7,0,4.9-0.7,6.5-2.1c1.6-1.4,2.4-3.3,2.4-5.8v0c0-2.5-0.8-4.4-2.4-5.8C363.9,212.7,361.7,212,359,212
				z M360.6,219.9c0,1.7-0.1,2.8-0.4,3.3c-0.3,0.5-0.7,0.8-1.2,0.8c-0.5,0-1-0.3-1.2-0.8c-0.3-0.6-0.4-1.7-0.4-3.3v0
				c0-1.7,0.1-2.8,0.4-3.3c0.3-0.6,0.7-0.8,1.2-0.8c0.5,0,0.9,0.3,1.2,0.8C360.5,217.1,360.6,218.2,360.6,219.9L360.6,219.9z"/>
			<path fill="#CEA26C" d="M386.5,222c0,1.2-0.5,1.8-1.4,1.8c-0.9,0-1.4-0.5-1.4-1.8v-9.7h-7v8.9c0,4.3,3,6.6,8.2,6.6
				c5.2,0,8.2-2.3,8.2-6.6v-8.9h-6.7V222z"/>
			<polygon fill="#CEA26C" points="413.1,218.1 408.6,212.3 402.5,212.3 402.5,227.4 408.4,227.4 408.4,221.4 413.2,227.4 
				419,227.4 419,212.3 413.1,212.3 			"/>
			<path fill="#CEA26C" d="M436.6,222.2h2.1v0.3c0,1.1-0.7,1.7-1.6,1.7c-0.7,0-1.2-0.3-1.5-0.8c-0.3-0.5-0.4-1.7-0.4-3.5v0
				c0-1.7,0.1-2.8,0.4-3.3c0.3-0.5,0.8-0.8,1.5-0.8c0.9,0,1.6,0.5,1.7,1.6l6.2-0.5c-0.4-3.1-3-4.9-8.1-4.9c-2.9,0-5.2,0.7-6.7,2.2
				c-1.5,1.4-2.3,3.3-2.3,5.7v0c0,2.7,0.7,4.7,2.1,6s3.1,1.9,5.2,1.9c2.2,0,3.8-0.7,4.5-2.2l0.3,1.9h5v-8.8h-8.5V222.2z"/>
			<polygon fill="#CEA26C" points="468.4,216.2 468.4,212.3 454.3,212.3 454.3,227.4 468.4,227.4 468.4,223.6 461.3,223.6 
				461.3,221.7 467.2,221.7 467.2,217.8 461.3,217.8 461.3,216.2 			"/>
		</g>
	</g>
	<path fill="#EC5EA0" d="M440.8,179.1c-0.8-0.9-2.2-0.9-5.2-0.9l-1.3,0c-30.3-0.5-66.3-0.7-110.1-0.7c-36.4,0-70.7,0.2-98.3,0.3
		c-18,0.1-32.2,0.1-42,0.1c-8.5,0-13.1-0.1-13.8-0.2c-1.1-0.2-2.1-0.2-3-0.2c-5.5,0-6,2.8-6,3.7c0,1.8,0.3,3,1,3.7
		c0.5,0.5,1.2,0.8,2.1,0.8c0.8,0,1.7-0.2,2.6-0.5c0.8-0.2,1.6-0.4,2.4-0.5c34.8-0.5,126.9-1.6,231.2-1.6c11.1,0,22.4,0,33.9,0
		c3.3,0,7.3-0.4,7.3-2.5C441.4,180.1,441.2,179.6,440.8,179.1z"/>
</g>
</svg>
