<?xml version="1.0" encoding="utf-8"?>
<!-- Generator: Adobe Illustrator 18.1.0, SVG Export Plug-In . SVG Version: 6.00 Build 0)  -->
<svg version="1.1" id="Layer_1" xmlns="http://www.w3.org/2000/svg" xmlns:xlink="http://www.w3.org/1999/xlink" x="0px" y="0px"
	 viewBox="0 0 360 400" enable-background="new 0 0 360 400" xml:space="preserve">
<rect x="31.9" y="30" fill="none" width="281.6" height="45.5"/>
<text transform="matrix(1 0 0 1 31.8862 46.7183)" fill="#B58257" font-family="'Calibre-Black'" font-size="25.7126" letter-spacing="2">VISIT SAWTOOTH</text>
<rect x="31.9" y="59.4" fill="none" width="281.6" height="45.5"/>
<text transform="matrix(1 0 0 1 31.8862 69.9209)"><tspan x="0" y="0" fill="#E7EBF2" font-family="'Calibre-Regular'" font-size="16.2551">We put out new mixtapes every</tspan><tspan x="0" y="19.5" fill="#E7EBF2" font-family="'Calibre-Regular'" font-size="16.2551">week, with some for special occasions.</tspan></text>
<rect x="31.9" y="146.3" fill="none" width="281.6" height="45.5"/>
<text transform="matrix(1 0 0 1 31.8862 156.8979)"><tspan x="0" y="0" fill="#E7EBF2" font-family="'Calibre-Regular'" font-size="16.2551">A download code will be printed for a tape </tspan><tspan x="0" y="19.5" fill="#E7EBF2" font-family="'Calibre-Regular'" font-size="16.2551">when you buy any drink.</tspan></text>
<rect x="31.9" y="233.9" fill="none" width="281.6" height="45.5"/>
<text transform="matrix(1 0 0 1 31.8862 244.4942)"><tspan x="0" y="0" fill="#E7EBF2" font-family="'Calibre-Regular'" font-size="16.2551">Stuff it in your jacket or whatever. Keep it </tspan><tspan x="0" y="19.5" fill="#E7EBF2" font-family="'Calibre-Regular'" font-size="16.2551">‘til you’re somewhere with good speakers.</tspan></text>
<rect x="31.9" y="322" fill="none" width="281.6" height="45.5"/>
<text transform="matrix(1 0 0 1 31.8862 332.5429)"><tspan x="0" y="0" fill="#E7EBF2" font-family="'Calibre-Regular'" font-size="16.2551">Enter the code above to download an mp3 </tspan><tspan x="0" y="19.5" fill="#E7EBF2" font-family="'Calibre-Regular'" font-size="16.2551">of your new favorite mix.</tspan></text>
<rect x="31.9" y="116.7" fill="none" width="281.6" height="29.6"/>
<text transform="matrix(1 0 0 1 31.8862 133.4121)" fill="#B58257" font-family="'Calibre-Black'" font-size="25.7126" letter-spacing="2">GET A DRINK</text>
<rect x="31.9" y="203.4" fill="none" width="281.6" height="27.8"/>
<text transform="matrix(1 0 0 1 31.8862 220.1064)" fill="#B58257" font-family="'Calibre-Black'" font-size="25.7126" letter-spacing="2">KEEP THE RECEIPT</text>
<rect x="31.9" y="290.1" fill="none" width="281.6" height="45.5"/>
<text transform="matrix(1 0 0 1 31.8862 306.7998)" fill="#B58257" font-family="'Calibre-Black'" font-size="25.7126" letter-spacing="2">INPUT THE CODE</text>
<path fill="#CEA26C" d="M12.2,201.7c-6,0-10.8,4.8-10.8,10.8c0,6,4.8,10.8,10.8,10.8c6,0,10.8-4.8,10.8-10.8
	C23,206.5,18.2,201.7,12.2,201.7z M12.3,217.3c-2.3,0-3.7-1.3-3.8-3.3h3c0,0,0.3,0.8,0.8,0.8c0.4,0,0.7-0.5,0.7-0.9
	c0-0.5-0.4-0.9-1-0.9h-1v-2h0.9c0.5,0,1-0.1,1-0.6c0-0.4-0.2-0.9-0.7-0.9c-0.5,0-0.7,0.5-0.8,0.5H8.5c0.2-1,1.5-2.9,3.8-2.9
	c2.1,0,3.4,1.5,3.4,3.3c0,0.7-0.4,1.6-0.9,1.9c0.6,0.3,1,1.1,1,1.9C15.8,215.9,14.4,217.3,12.3,217.3z M12.2,288.4
	c-6,0-10.8,4.8-10.8,10.8c0,6,4.8,10.8,10.8,10.8c6,0,10.8-4.8,10.8-10.8C23,293.2,18.2,288.4,12.2,288.4z M16,302h-1v1h-2v-1H8
	v-2.1l2.8-5.9h2.8l-2.1,6H13v-2h2v2h1V302z M12.2,49.9c6,0,10.8-4.8,10.8-10.8c0-6-4.8-10.8-10.8-10.8c-6,0-10.8,4.8-10.8,10.8
	C1.4,45.1,6.3,49.9,12.2,49.9z M9,35.6l3.4-1.6H15v9h-3v-5.7l-3,1.1V35.6z M12.2,115c-6,0-10.8,4.8-10.8,10.8
	c0,6,4.8,10.8,10.8,10.8c6,0,10.8-4.8,10.8-10.8C23,119.8,18.2,115,12.2,115z M15,127v3H8v-1.6l3.8-3.3c0.5-0.4,0.9-0.7,0.9-1.1
	c0-0.4-0.2-0.5-0.5-0.5c-0.4,0-0.6,0.6-0.6,0.6H8.4c0.2-2,1.5-3.3,3.7-3.3c2.2,0,3.6,1.2,3.6,3.1c0,1.3-0.8,1.8-1.7,2.6l-1.3,0.7H15
	z"/>
</svg>
