<?xml version="1.0" encoding="utf-8"?>
<!-- Generator: Adobe Illustrator 18.0.0, SVG Export Plug-In . SVG Version: 6.00 Build 0)  -->
<!DOCTYPE svg PUBLIC "-//W3C//DTD SVG 1.1//EN" "http://www.w3.org/Graphics/SVG/1.1/DTD/svg11.dtd">
<svg version="1.1" id="Layer_1" xmlns="http://www.w3.org/2000/svg" xmlns:xlink="http://www.w3.org/1999/xlink" x="0px" y="0px"
	 viewBox="0 0 976 678" enable-background="new 0 0 976 678" xml:space="preserve">
<g>
	<path fill="#2A2935" d="M530.5,304c-17-5.3-34.1-10.5-52-11.9c-7.1-0.6-14.2-0.3-20.9,2.5c-4.4,1.9-11,7.5-10.9,12.9
		c0.2,5.8,10,6.5,14.4,7.3c8.3,1.6,16.8,1.7,25.2,1.6c8.9-0.1,17.8-0.3,26.7-0.4c6.6-0.1,13.2-1.1,18.2-5.8c0.9-0.9,0.7-2,0-2.7
		C532.2,306.6,532.2,304.6,530.5,304z M489.1,297.4c2.8,0.4,5.6,1,8.4,1.6c-0.4,0.4-0.6,1-0.4,1.8c3.3,10.1-10.7,12.1-17.5,10.8
		c-6.4-1.3-11.2-9.7-13.7-15.4C474,295,483.3,296.4,489.1,297.4z M451,306.7c1.6-5.5,5.8-8.4,11-9.8c0,0.1,0.1,0.3,0.1,0.4
		c2.5,5.8,6,11.1,10.7,14.6C462,311.2,450.1,309.8,451,306.7z M511.4,312.1c-5,0.1-9.9,0.2-14.9,0.3c3.9-2.8,6.3-7.1,4.5-12.7
		c9.2,2.2,18.2,5,27.2,7.8C523.6,311.8,517.4,312,511.4,312.1z"/>
	<path fill="#2A2935" d="M523.9,289.2c-5.8-2.2-8.9-8.3-12.9-12.7c-4.2-4.5-9.3-5.6-15.2-5.9c-15.5-0.7-31,4-44,12.2
		c-2.2,1.4-0.2,4.8,2,3.5c12.6-8,27-12,42-11.7c7.9,0.2,11.7,3.6,16.3,9.4c3,3.8,6.1,7.2,10.7,9C525.2,294,526.3,290.2,523.9,289.2z
		"/>
	<path fill="#2A2935" d="M550.3,281.3c-0.7-2.5-4.5-1.4-3.9,1.1c2.1,7.7-1.8,16.1-9.3,19.2c-2.4,1-1.3,4.8,1.1,3.9
		C547.6,301.5,553,291.2,550.3,281.3z"/>
	<path fill="#2A2935" d="M529.2,261.9c-16.2-12.7-36.5-18.2-56.9-15.1c-2.5,0.4-1.5,4.2,1.1,3.9c18.8-2.8,38.1,2.4,53,14.1
		C528.4,266.3,531.2,263.5,529.2,261.9z"/>
	<path fill="#2A2935" d="M463.1,250.3c-10.5,1.2-20.8,3.3-30.9,6.5c-2.5,0.8-1.4,4.6,1.1,3.9c9.8-3,19.7-5.2,29.9-6.4
		C465.6,254,465.6,250,463.1,250.3z"/>
	<path fill="#2A2935" d="M459.2,242.8H443c-2.6,0-2.6,4,0,4h16.2C461.8,246.8,461.8,242.8,459.2,242.8z"/>
	<path fill="#2A2935" d="M482.6,231.1h-26c-2.6,0-2.6,4,0,4h26C485.2,235.1,485.2,231.1,482.6,231.1z"/>
	<path fill="#2A2935" d="M485.8,237h-11.7c-2.6,0-2.6,4,0,4h11.7C488.4,241,488.4,237,485.8,237z"/>
	<path fill="#2A2935" d="M530.4,253.8c-10.8-3.2-20.2-9-28-17c-1-1.1-2.4-0.6-3,0.3c-0.2,0-0.4-0.1-0.6-0.1h-7.1c-2.6,0-2.6,4,0,4
		h7.1c0.7,0,1.2-0.3,1.5-0.7c8.1,8.2,18,14,29,17.3C531.8,258.3,532.9,254.5,530.4,253.8z"/>
	<path fill="#2A2935" d="M518.5,238.2c-6.8-3-13.7-6-20.5-9c-2.3-1-4.4,2.4-2,3.5c6.8,3,13.7,6,20.5,9
		C518.8,242.7,520.9,239.3,518.5,238.2z"/>
	<path fill="#2A2935" d="M432.3,241.9c-3.7,2.4-7.4,4.7-11.1,7.1c-2.2,1.4-0.2,4.9,2,3.5c3.7-2.4,7.4-4.7,11.1-7.1
		C436.5,243.9,434.5,240.5,432.3,241.9z"/>
	<path fill="#2A2935" d="M418.6,263.3c-6.1,4-11.5,8.8-16.2,14.4c-1.7,2,1.2,4.8,2.8,2.8c4.5-5.3,9.6-9.9,15.4-13.8
		C422.8,265.3,420.8,261.9,418.6,263.3z"/>
	<path fill="#2A2935" d="M431.4,265.6c-4.4,1.3-8.4,3.4-12,6.3c-2,1.6,0.8,4.4,2.8,2.8c3.1-2.4,6.5-4.1,10.2-5.2
		C434.9,268.7,433.9,264.9,431.4,265.6z"/>
	<path fill="#2A2935" d="M422.2,253.8c-4.3,0.3-8.3,1.4-12.1,3.4c-2.3,1.2-0.3,4.7,2,3.5c3.2-1.7,6.5-2.6,10.1-2.9
		C424.8,257.7,424.8,253.7,422.2,253.8z"/>
	<path fill="#2A2935" d="M620.9,247.4v16.2c0,2.6,4,2.6,4,0v-16.2C624.9,244.8,620.9,244.8,620.9,247.4z"/>
	<path fill="#2A2935" d="M638.8,222.1c-2.3,9.2-3.7,18.5-4.4,27.9c-0.2,2.6,3.8,2.6,4,0c0.6-9.1,2-18,4.2-26.8
		C643.3,220.7,639.5,219.6,638.8,222.1z"/>
	<path fill="#2A2935" d="M626.1,244.2v5.2c0,2.6,4,2.6,4,0v-5.2C630.1,241.6,626.1,241.6,626.1,244.2z"/>
	<path fill="#2A2935" d="M658.4,226.4c-5.3,4.2-10.3,8.7-15,13.6c-1.8,1.9,1,4.7,2.8,2.8c4.7-4.9,9.7-9.4,15-13.6
		C663.3,227.7,660.4,224.9,658.4,226.4z"/>
	<path fill="#2A2935" d="M662,220.3c-4.5,1.5-8.5,3.8-12,6.9c-1.9,1.7,0.9,4.5,2.8,2.8c3-2.6,6.4-4.6,10.2-5.8
		C665.5,223.3,664.4,219.5,662,220.3z"/>
	<path fill="#2A2935" d="M683.2,231.3c-8.5-0.1-16.7,1.2-24.7,4c-2.4,0.9-1.4,4.7,1.1,3.9c7.7-2.7,15.5-4,23.7-3.9
		C685.8,235.3,685.8,231.3,683.2,231.3z"/>
	<path fill="#2A2935" d="M681.3,222.6c-4.7,0.6-9.5,0.8-14.3,0.8c-2.6,0-2.6,4,0,4c4.8,0.1,9.5-0.2,14.3-0.8
		C683.8,226.3,683.8,222.3,681.3,222.6z"/>
	<path fill="#2A2935" d="M700.8,228.5h-5.8c-2.6,0-2.6,4,0,4h5.8C703.4,232.5,703.4,228.5,700.8,228.5z"/>
	<path fill="#2A2935" d="M660.6,289.6c0.2-0.2,0.3-0.5,0.3-0.7c4.8,0.5,9.4,2,12.6,5.3c1.8,1.9,4.6-1,2.8-2.8
		c-5.7-6-14.5-6.5-22.3-6.7c-9.9-0.3-19.8,1.6-29.1,4.9c0.6-1.1,1.2-2.2,1.7-3.3c1.1-2.3-2.3-4.3-3.5-2c-3.2,6.7-7.3,12.7-12.4,18.2
		c-1.7,1.9,1.1,4.7,2.8,2.8c0.6-0.6,1.1-1.2,1.6-1.9c9.2,4.1,18.6,5.4,28.5,4.1c10.4-1.3,20.4-4.9,30.7-6.6c2.5-0.4,1.5-4.3-1.1-3.9
		c-7.3,1.2-14.4,3.1-21.4,4.6C655.7,298.2,658.4,292.8,660.6,289.6z M650.5,288.7c1.9-0.1,3.9-0.1,6-0.1c-2.4,3.6-4.7,7.4-7.8,10.5
		c-6.1,6-11.6-3.6-13.8-8.3C640.1,289.6,645.2,288.9,650.5,288.7z M618,300.2c1.8-2.3,3.5-4.7,5-7.2c0.4,0.7,1.1,1.1,2.1,0.8
		c2-0.7,4-1.4,6-1.9c0,0.2,0.1,0.5,0.2,0.7c2,4.3,4.7,8.8,8.7,10.9C632.8,304,625.5,303.4,618,300.2z"/>
	<path fill="#2A2935" d="M682.1,270.5c-5-9.8-19.2-6.1-27.9-5.4c-4.7,0.3-8.9,1.2-12.7,4.2c-4.2,3.3-7.6,7.9-12.7,9.8
		c-2.4,0.9-1.4,4.8,1.1,3.9c6.6-2.4,10.4-8.4,16.2-12c4.3-2.7,10.9-2.1,15.8-2.4c5.6-0.4,13.6-2.1,16.7,4
		C679.8,274.9,683.3,272.8,682.1,270.5z"/>
	<path fill="#2A2935" d="M509.7,218.5c-9.5-1.5-19-3-28.5-4.5c-2.5-0.4-3.6,3.5-1.1,3.9c9.5,1.5,19,3,28.5,4.5
		C511.2,222.7,512.3,218.9,509.7,218.5z"/>
	<path fill="#2A2935" d="M567.6,407.5c-5.1,0.7-10.2,1.7-15.4,1.6c-6.7-0.2-6.9-5.1-8.7-9.6c3.8-9.5,7.5-19,11.1-28.6
		c0.9-2.4-3-3.5-3.9-1.1c-3.3,8.8-6.6,17.5-10.1,26.3c-1.5-0.1-2.9,1.4-1.9,2.9c0.2,0.2,0.3,0.5,0.4,0.7
		c-5.5,13.6-11.3,27.2-17.4,40.6c-1.1,2.3,2.4,4.4,3.5,2c5.5-12.1,10.7-24.3,15.7-36.5c0.1,0.3,0.3,0.6,0.5,1c1.3,2.3,3,3.8,5.4,5
		c6.1,3.1,14.4,0.6,20.8-0.3C570.2,411.2,570.2,407.2,567.6,407.5z"/>
	<path fill="#2A2935" d="M511.8,462.9c-11.3,20-19.2,42-27.9,63.2c-1,2.4,2.9,3.4,3.9,1.1c8.6-20.9,16.4-42.5,27.5-62.2
		C516.6,462.7,513.1,460.7,511.8,462.9z"/>
	<path fill="#2A2935" d="M646.7,445c-3.8-13.8-9-27.1-15.1-40c1.7-1.8,3-3.9,4-6.4c2.4-6.1-1-12.9-5.9-16.5c-0.3-0.3-0.7-0.4-1-0.4
		c0-6.1-1.9-12.1-4.8-17.7c-3-5.9-4.2-12.2-5.5-18.6c-1.5-6.9-3-13.9-4.4-20.8s-2.9-13.9-4.4-20.8c-1.4-6.6-4.3-14.3-2-20.9
		c0.8-2.4-3-3.5-3.9-1.1c-1.4,4-1,7.9-0.3,12c1.1,6.2,2.6,12.4,3.9,18.6c2.5,12,5.1,24,7.6,36c1.1,5.1,2.1,10,4.1,14.8
		c2.5,5.9,5.4,10.6,5.7,17.1c0.6,12.7-9,23.2-21,25.8c-2.5,0.6-1.5,4.4,1.1,3.9c9.7-2.1,17.6-8.5,21.6-17.6c0.9-2.1,1.5-4.2,1.9-6.3
		c4.9,4.1,4.9,10.7,1,15.7c-0.2,0.2-0.4,0.4-0.6,0.7c-0.7,0.2-1.3,0.8-1.5,1.5c-3.2,2.8-7.4,4.5-11.1,6.1c-2.4,1-0.3,4.5,2,3.5
		c3.7-1.6,7.3-3.4,10.4-5.7c5.5,11.8,10.1,24,13.8,36.5c4,13.5,7.8,28,5.6,42.2c-0.4,2.5,3.5,3.6,3.9,1.1
		C654,473.1,650.5,458.8,646.7,445z"/>
	<path fill="#2A2935" d="M612.4,270.9c-2.2-8-4.4-16-6.6-24c-0.7-2.5-4.5-1.4-3.9,1.1c2.2,8,4.4,16,6.6,24
		C609.3,274.5,613.1,273.4,612.4,270.9z"/>
	<path fill="#2A2935" d="M604,266.9c0,0-0.1,0-0.1,0c-0.1,0-0.3-0.1-0.4-0.1c0.5,0.2-0.5-0.4-0.2-0.1c-0.1-0.1-0.2-0.2-0.3-0.3
		c0,0,0,0,0,0c0,0,0-0.1-0.1-0.1c0-0.1,0-0.1-0.1-0.1c0-0.1-0.1-0.3-0.1-0.4c-0.2-1.1-1.5-1.7-2.5-1.4c-1.1,0.3-1.6,1.4-1.4,2.5
		c0.5,2.4,2.7,4.1,5.1,4.1c1.1,0,2-0.9,2-2C606,267.8,605.1,266.9,604,266.9z"/>
	<path fill="#2A2935" d="M589.9,403.1c-4.4,0.2-6.3-3.3-9.4-5.6c-2.4-1.9-4.8-2.7-7.8-2.7c-6-0.1-11,4.8-14.9,8.8
		c-1.8,1.9,1,4.7,2.8,2.8c5.2-5.3,11.7-10.9,18.6-4.7c3.2,2.9,6,5.7,10.6,5.5C592.5,406.9,592.5,402.9,589.9,403.1z"/>
	<path fill="#2A2935" d="M630.5,490.7c-7,0.4-9.5-7.2-11.1-12.6c-1.2-4.3-2.6-8.1-5.4-11.6c-5.9-7.2-19.1-8.7-27.7-8.6
		c-9.2,0.2-17.9,3.6-24.7,9.8c-4.2,3.8-7.3,8.7-11,13c-4.3,5-9.4,9.3-14.8,12.9c-1.6,1-0.9,3.2,0.4,3.7c-0.5,1.2,0,2.9,1.7,2.9
		c6.5,0,5.2,5.9,7.6,9.8c1.8,2.9,6.6,3.5,9.6,4.3c9.8,2.6,19.9,4.4,30,3.4c15.9-1.5,29.9-12.1,36.7-26.4c2.2,2.1,5,3.5,8.6,3.3
		C633.1,494.6,633.1,490.6,630.5,490.7z M607.3,466.6c-3.2,2.5-11.7,4.7-10.9-2.3c0.1-0.8-0.3-1.4-0.9-1.7c2.7,0.5,5.4,1.3,8,2.2
		C605,465.3,606.3,465.9,607.3,466.6z M589.3,462c1.7,0,3.3,0.2,4.9,0.4c-0.4,0-0.8,0.2-1.2,0.5c-2.2,2-2.4,6.4-5.9,6.6
		c-2.7,0.1-13,0.5-13.8-3.1c-0.1-0.5-0.3-0.8-0.7-1.1C577.7,463,583.2,461.9,589.3,462z M569,467.3c-0.6,0.9-1.3,1.4-2.2,1.5
		C567.5,468.3,568.3,467.8,569,467.3z M618.8,488.8c-7.1,15.6-22,25-39.1,25.4c-9.5,0.2-19.3-2.3-28.4-5c-3-0.9-3.8-7.4-5.7-9.8
		c-1.5-2-4.2-2.8-6.6-3c8.2-5.8,14.6-12.8,20.9-20.7c1-1.3,2.1-2.5,3.2-3.6c0.2,0.2,0.5,0.4,0.8,0.5c2.9,0.8,5.7,0,7.6-1.9
		c2.6,2.1,7,2.3,10.1,2.6c2.8,0.3,6.9,1,9.5-0.6c1.3-0.8,2-2,2.5-3.3c0.9,1.4,2.3,2.5,4,3.1c4.8,1.5,9.2,0.1,12.8-3.3
		c2.4,2.6,3.9,6,5.1,10.1c0.9,2.9,2,6.1,3.7,8.9C619.1,488.2,618.9,488.5,618.8,488.8z"/>
	<path fill="#2A2935" d="M608.6,494.1c-1.5-0.1-2.7,0.2-3.8,0.8c-1.6-2.8-4.8-4-9.3-3.5c-1.2,0.1-2.7,0.4-3.9,1
		c-0.1-0.7-0.3-1.4-0.4-2c-0.1-0.6-0.8-1.3-1.4-1.4c-3-0.4-5.2,0.4-6.9,1.9c-0.1,0-0.2,0-0.3,0h-20.1c-0.4,0-0.7,0.1-1,0.3
		c-2.1-0.1-3.6,0.7-4.7,1.9c0-0.1-0.1-0.1-0.1-0.2c-2-2.7-6.1-2.2-8.9-1.6c-2.5,0.5-1.5,4.3,1.1,3.9c4-0.8,5.1,1.8,5.3,4.9
		c-0.3,2.2-0.2,4.3,0,5.9c0.3,2.5,4,2.6,4,0c0-2,0.2-4.3,0.1-6.6c1.2-2.9,4.2-6.8,6.1-2c1.3,3.3-0.4,7.6,0.2,11.1
		c0.5,2.4,3.7,1.5,3.9-0.5c0.5-3.7,0.6-7.5,2.3-10.9c1.9,0.2,3.7,0.4,5.6,0.6c0.8,1.7,1.1,3.5,1,5.3c0,1.9-0.1,3.8,0,5.6
		c0.1,2.6,3.8,2.5,4,0c0.4-4.6,1-9.5,3.3-13.6c3.6-6.6,3.7,2.4,3.8,3.2c0.2,2.4,0.1,4.8,0,7.2c-0.1,2,2.8,2.7,3.7,1
		c1.2-2.2,1.2-4.2,1-6.7c-0.2-2.7,1.2-4,3.7-4.2c3.7-0.4,5,1.7,5.2,4.5c0,0.5,0,0.9,0,1.4v0h0c0,0.2,0,0.4,0.1,0.5
		c0.4,2.3,3.9,1.6,3.9-0.5c0-0.2,0-0.4,0-0.6c0.9-0.8,1.7-1.6,2.6-2.4C611.1,498.3,611.1,494.3,608.6,494.1z M579.4,494.9h0.7
		c-0.1,0.2-0.2,0.5-0.3,0.7C579.6,495.4,579.5,495.1,579.4,494.9z"/>
	<path fill="#2A2935" d="M629.4,508.6c-0.1,22.7-23,33.5-42.7,34.4c-9.4,0.4-20.1-0.2-28.6-4.5c-5.2-2.7-7.8-7.7-10.4-12.6
		c-2.6-5-5.2-10-7.9-15c-1.2-2.3-4.7-0.3-3.5,2c5.2,10,9.5,23.1,19.7,29c9.6,5.6,23.3,5.6,34,4.9c20.9-1.4,43.2-15.1,43.3-38.2
		C633.4,506,629.4,506,629.4,508.6z"/>
	<path fill="#2A2935" d="M636.6,487.7c-3.5-6.6-5.1-12.4-6.2-19.7c-0.8-5.5-4.8-10.2-8.2-14.4c-8.8-10.8-23.1-8.6-35.7-8.8
		c-2.6-0.1-2.6,3.9,0,4c5.9,0.1,11.8,0.2,17.7,0.4c7.6,0.2,12.3,3.5,16.8,9.3c3.7,4.9,5.2,9.1,6.1,15.1c0.8,5.8,3.3,10.9,6.1,16
		C634.3,492,637.8,490,636.6,487.7z"/>
	<path fill="#2A2935" d="M555.9,606.2c-13.4,1.5-25.6-3.4-36.7-10.5c-5.2-3.4-10.1-7.3-15-11.2c-4.6-3.8-10.8-7.9-11.3-14.5
		c-0.2-2.6-4.2-2.6-4,0c0.4,5.6,3.6,9.5,7.6,13.2c5.5,5,11.7,9.6,17.8,13.9c12.1,8.6,26.6,14.7,41.7,13
		C558.5,609.9,558.5,605.9,555.9,606.2z"/>
	<path fill="#2A2935" d="M893,637.4c-35.1-14.9-71.5-26.2-107.9-37.3c-18.1-5.5-36.3-10.9-54.4-16.6c-17.8-5.6-36.5-11.8-50.9-24.3
		c-0.3-0.2-0.5-0.4-0.8-0.4c12.1-24.5,19.3-51.2,24.1-78c2.7-14.9,4.6-29.9,6.2-45c1.6-15,3-29.7-0.5-44.5
		c-2.7-11.5-7-22.5-7.7-34.3c0.2-0.5,0.5-1,0.7-1.5c0.5-1.1,0-2.2-0.8-2.7c0-12.3,2.8-24.6,3.3-36.9c1.1-26.8-3.1-53.5-7-79.9
		c-0.4-2.5-4.2-1.5-3.9,1.1c4.9,32.5,9.3,65.1,5.3,98c-0.9,7-1.7,14-1.6,21c-1.5,2.9-3.3,5.7-5.2,8.4c-1.5,2.1,2,4.1,3.5,2
		c0.8-1.1,1.5-2.2,2.3-3.4c0.7,5.3,2.1,10.5,3.6,15.6c1.9,6.8,4,13.5,5.2,20.5c1.4,8.4,0.9,17,0.1,25.4
		c-5.2,58.8-15.9,121.5-54.1,168.6c-12.4,15.3-27.5,27.5-44.7,37.2c-19,10.7-39,21.9-60.5,26.5c-2.5,0.5-1.5,4.4,1.1,3.9
		c14.4-3.1,27.7-9.1,40.7-15.8c13.1-6.7,26.4-13.6,38.4-22.3c2.6-1.9,5.2-3.9,7.7-6c0.9,13.7-1.4,26.5-4.1,39.9
		c-0.5,2.5,3.4,3.6,3.9,1.1c2.9-14.4,5.4-28,4.1-42.8c0-0.5-0.2-0.9-0.5-1.2c15.7-14.1,28.3-31.5,38.1-50.1c0.2-0.5,0.5-0.9,0.7-1.4
		c12.5,10.8,28.1,16.9,43.5,22.2c18.4,6.3,37.3,11.6,55.9,17.3c38.5,11.7,77.1,23.4,114.2,39.1C893.3,641.9,895.4,638.4,893,637.4z"
		/>
	<path fill="#2A2935" d="M692.9,202.2c-1.1-2.3-4.6-0.3-3.5,2c2.6,5.4,3.6,11.4,2.8,17.3c-0.3,2.5,3.5,3.6,3.9,1.1
		C697.1,215.5,696,208.7,692.9,202.2z"/>
	<path fill="#2A2935" d="M518.7,650.6c-23.2-8.9-45.9-19.4-67.8-31.2c-21.4-11.5-42.8-24-60.2-41.1c-16.1-15.8-27.9-35.3-37.8-55.4
		c-10.2-20.7-16.7-43.4-28.3-63.3c-1.3-2.2-4.8-0.2-3.5,2c3.4,5.9,6.2,12,8.8,18.3c-2,2.4-4.1,4.6-6.2,6.8c-0.3-0.1-0.6-0.1-0.9,0
		c-19.6,4.2-38.4,9-56.3,18.2c-9.4,4.8-19.2,7.1-29.4,9.7c-10.7,2.7-21.4,5.4-32,8.3c-20.1,5.5-39.8,12.2-59.5,18.9
		c-20,6.8-40.5,12.7-61.7,13.2c-2.6,0.1-2.6,4.1,0,4c19.8-0.5,38.9-5.5,57.6-11.6c20.3-6.6,40.4-13.9,61-19.6
		c10.6-3,21.3-5.7,32-8.4c9.9-2.5,19.9-4.5,29.2-8.6c10-4.4,19.3-9.4,29.7-12.7c8.2-2.6,16.6-4.5,25-6.3
		c-18.4,16.6-40.6,28.9-54.8,49.9c-17.2,25.5-22.5,57.3-27.4,87c-0.4,2.5,3.4,3.6,3.9,1.1c4.8-29.2,10.1-59.3,26.2-84.7
		c16.4-25.9,45.7-38.3,65.4-61c1.5,3.8,3,7.6,4.6,11.4c4.3,10.5,8.8,20.8,13.8,31c9.8,20,21.9,38.9,37.7,54.7
		c17,17,38.4,29.3,59.4,40.8c22.7,12.4,46.3,23.2,70.4,32.5C520,655.4,521.1,651.5,518.7,650.6z"/>
	<path fill="#2A2935" d="M355.6,448.8c-8,5.8-17.7,7-27,3.9c-9-3-14.7-11.5-18.7-19.6c-3.8-7.7-6.4-16-9.9-23.9
		c-4.1-9.3-10.4-17.2-15.5-26c-5.9-10.3-7.5-22.1-8.7-33.7c-0.9-9.4-2.2-19.6,1.6-28.6c4.4-10.4,18.3-13.8,28.5-14.3
		c10.8-0.5,21.6,4.4,27.1,13.9c1.3,2.2,4.8,0.2,3.5-2c-5-8.6-13.9-14.3-23.8-15.5c-10.4-1.3-23.8,0.9-32.2,7.7
		c-8,6.5-9.7,16.4-9.6,26.3c0.1,12.5,1.7,26,5.6,38c3.9,11.9,12.5,21.4,18.2,32.3c1.2,2.4,2.3,4.8,3.4,7.3c-0.3,0.2-0.5,0.4-0.7,0.7
		c-3,4.8-8.3,7.2-12.8,10.4c-1.8,1.3-3.4,2.8-4.8,4.6c-0.6,0.8-1.1,1.6-1.5,2.5c-1.9,3.7-2.6,0.9-3.3-1.8
		c-1.8-7.2,1.9-15.6,3.4-22.6c1.4-6.5,1-12.7-0.8-19c-1.9-6.7-5.4-13-8.3-19.3c-3.5-7.5-5.9-15.3-7.9-23.3
		c-3.8-15.7-4.6-32-4.7-48.2c0-2.6-4-2.6-4,0c0.1,17.7,1.3,35.5,5.7,52.7c2.1,8.3,5.2,16.2,8.8,23.9c4,8.4,8.1,16.7,8,26.2
		c-0.1,8.1-3.8,16-4.6,24.1c-0.3,3.5,0.3,13.8,5.4,14c1.9,0.1,3.5-0.6,4.5-2.4c2.1-3.6,3.6-6.2,7.1-8.7c4.3-3.1,8.9-5.4,12.1-9.6
		c2.5,6.3,4.8,12.7,7.9,18.7c4.4,8.5,10.9,15.4,19.8,18.9c9.8,3.9,21.6,1.8,30.1-4.3C359.7,450.8,357.7,447.3,355.6,448.8z"/>
	<path fill="#2A2935" d="M334.9,366.8c-6.3-14.8-17.8-27.5-27.6-40c-3.4-4.3-7.2-8.4-13-8.8c-4.3-0.3-8.4,2.7-9.2,6.9
		c-0.5,2.5,3.4,3.6,3.9,1.1c1.6-8,10.7-2,13.6,1.3c4.1,4.5,7.6,9.6,11.3,14.5c6.6,8.6,13.4,17.1,17.7,27.2
		C332.5,371.2,335.9,369.1,334.9,366.8z"/>
	<path fill="#2A2935" d="M287.9,345.5c0.1-2.6-3.9-2.6-4,0c-0.3,6.5-0.2,13,0.4,19.5c0.2,2.6,4.2,2.6,4,0
		C287.7,358.5,287.6,352,287.9,345.5z"/>
	<path fill="#2A2935" d="M308.7,363.1c0.9-0.7,0.7-2.1,0-2.8c-0.8-0.8-2-0.7-2.8,0c-1.1,0.9-1.5,2.6-1.1,3.9c0.3,1,1.4,1.7,2.5,1.4
		C308.2,365.3,308.9,364.2,308.7,363.1C308.6,363.2,308.7,363.1,308.7,363.1z"/>
	<path fill="#2A2935" d="M341.7,411.1c-0.9-2.1-1.8-4.3-2.7-6.4c-0.4-0.9-0.9-1.4-1.9-1.5c-3.9-0.4-7.9-0.5-11.6-1.4
		c-3.7-0.8-7.6-8-8.5-11.2c-1.2-4,1.6-9.1,3-12.8c1.5-3.9,3-7.8,4.5-11.6c0.9-2.4-2.9-3.4-3.9-1.1c-2.1,5.6-4.3,11.1-6.4,16.7
		c-1.6,4.2-2.1,9,0.1,13.1c2.1,3.8,5,7.4,8.4,10c2.9,2.2,9,1.9,13,2.1c0.7,1.7,1.4,3.4,2.1,5.1C338.8,414.6,342.7,413.5,341.7,411.1
		z"/>
	<path fill="#2A2935" d="M349.7,399.1c-2.2-2.8-4.7-5.5-7.3-7.9c-1.3-1.2-2.7-2.3-4.1-3.4c-1.5-1.1-4.4-2.6-4.5-4.7
		c-0.1-2.6-4.1-2.6-4,0c0.2,3.6,2.8,5.5,5.5,7.5c4.4,3.2,8.2,7.2,11.6,11.5C348.5,404,351.3,401.1,349.7,399.1z"/>
	<path fill="#2A2935" d="M321.5,417c-0.5-2.5-4.3-1.5-3.9,1.1c0.3,1.4,0.1,2.9-0.6,4.1c-2.8-1.8-4.3-5.2-3.9-8.5
		c0.3-2.6-3.7-2.5-4,0c-0.6,5.7,2.9,10.9,8.1,13c0.6,0.2,1.6,0,1.9-0.5C321.3,423.5,322.1,420.4,321.5,417z"/>
	<path fill="#2A2935" d="M429.4,218.8c-10,4.1-16.5,13.3-17,24.1c-0.1,2.6,3.9,2.6,4,0c0.4-8.9,5.9-16.8,14.1-20.2
		C432.9,221.7,431.8,217.8,429.4,218.8z"/>
	<path fill="#2A2935" d="M418.6,198.4c-5.5,8.4-8.7,17.6-9.8,27.5c-0.3,2.6,3.7,2.5,4,0c1-9.2,4.2-17.8,9.2-25.5
		C423.5,198.3,420,196.3,418.6,198.4z"/>
	<path fill="#2A2935" d="M364.2,259.7c-6.2,2.7-9.5,8.5-12.8,14.1l-14.2,24.4c-1.3,2.2,2.2,4.2,3.5,2c3.8-6.5,7.6-13,11.4-19.6
		c3.7-6.4,7-14.4,14.2-17.6C368.6,262.1,366.5,258.7,364.2,259.7z"/>
	<path fill="#2A2935" d="M362.5,300.5c2.5-6.8,6.2-12.6,6.6-20c0.1-2.6-3.9-2.6-4,0c-0.3,6.3-3.6,11.7-5.9,17.4
		c-2.5,6.1-2.9,11.7-2.3,18.2c0.8,7.8,1.8,15.5,2.7,23.3c0.6,4.9,2.8,13.5-1.5,17.4c-1.9-1.9-3.5-4.1-4.8-6.5
		c-0.6-1.1-2.3-1.4-3.1-0.4c-1.6,2-3.4,3.3-5.8,4.2c-2.4,0.8-1.4,4.7,1.1,3.9c2.3-0.8,4.2-1.8,5.8-3.3c1.5,2.3,3.2,4.3,5.3,6.2
		c0.7,0.6,1.6,0.8,2.4,0.3c4.1-2.3,5.3-6.3,5.6-10.8c0.6-8-1.6-16.8-2.6-24.8C361.1,317.1,359.5,308.9,362.5,300.5z"/>
	<path fill="#2A2935" d="M778.3,131.7c-5.1-3.5-11.3-5.1-16.7-8.2c-11.7-7-21.4-16.9-33.2-23.7c-12.7-7.3-26.5-12.2-39.1-19.6
		c-11.3-6.6-21.9-14.5-32.4-22.3c-20.9-15.4-42.4-30.5-68.4-35.5c-15-2.9-30.5-2.9-45.7-3.5c-16.4-0.7-32.8-1.3-49.2-1.5
		c-15.9-0.2-32.2-0.5-48,1.8c-13.3,1.9-25.2,7.1-33.9,17.7c-1.5,1.8-3.2,3.1-5.1,4c-0.3,0-0.6,0-1,0c-0.9,0-1.5,0.5-1.7,1.1
		c-4.6,1.4-9.7,1.3-14.8,2c-7.5,1.1-14.8,3.2-21.9,5.9c-14,5.3-26.7,13.7-37.4,24.2c0,0,0,0.1-0.1,0.1c-0.6-0.6-1.5-0.9-2.4-0.4
		c-10.7,5.8-18.9,14.6-26.1,24.3c-7.4,9.9-16,20.9-18.3,33.3c-1.1,6.1-0.9,12.4-1.5,18.5c-0.8,8.1-4.6,13.5-9.6,19.5
		c-4.9,5.9-9,16.4-2.2,22.1c-2.9,3.7-5.8,7.3-8.6,11c-2.6,3.3-5.1,6.3-5.1,10.8c0,7.7,8.1,9.9,14.8,10.4
		c-15.3,16.2-22.4,38.6-19.6,60.8c-1.4-0.8-2.7-1.5-4-2.3c-2.2-1.3-4.2,2.1-2,3.5c9.4,5.7,19.4,9.9,30.4,10.8
		c5.1,0.4,10.3-0.3,15.3-1.8c5.1-1.6,9.5-4.9,14.5-6.7c2.4-0.9,1.4-4.7-1.1-3.9c-3.7,1.3-7,3.3-10.5,5.1c-5.1,2.6-10.9,3.5-16.6,3.5
		c-8,0-15.7-2.7-22.9-6.4c0.5-0.4,0.9-1.1,0.8-2c-3.1-22.6,5.3-45.6,21.9-61.1c1.2-1.2,0.3-3.5-1.4-3.4c-6.3,0.3-20-1.1-14.3-10.9
		c3.3-5.8,8.5-11.1,12.7-16.3c0.8-1,0.8-2.5-0.4-3.1c-11.5-6.4,5.5-21.3,8.9-27.6c4.9-9.3,2.9-20.8,4.7-30.9
		c2-10.7,10.4-20.7,16.7-29.4c6.9-9.6,15.1-18.5,25.6-24.1c0.2-0.1,0.4-0.2,0.5-0.4c0.7,0.7,1.9,1,2.8,0.1
		c10.2-10.1,22.3-17.9,35.6-23.2c6-2.4,12.3-4.1,18.7-5.3c6.7-1.3,14.1-0.7,20.6-3c0.3-0.1,0.6-0.2,0.9-0.4
		c15.5,0.3,31,0.6,46.5,0.9c2.6,0,2.6-4,0-4c-13.8-0.3-27.7-0.5-41.5-0.8c2.1-2.3,4-4.9,6.1-6.9c5-4.7,11.7-7.4,18.2-9.2
		c13.5-3.8,28.1-3.4,41.9-3.5c16.4-0.1,32.8,0.3,49.2,0.9c16,0.6,32,0.9,47.9,2.5c28.5,2.8,51.6,17.3,74.2,33.8
		c9.7,7.1,19.4,14.4,29.5,21c11,7.1,22.8,12.4,34.6,18c12.4,5.8,22.8,13.4,33.6,21.8c4.8,3.7,9.7,7.2,15,10
		c3.6,1.9,15.8,4.4,14.4,10.1c-0.6,2.5,3.2,3.6,3.9,1.1C782.9,136.7,781.4,133.7,778.3,131.7z"/>
	<path fill="#2A2935" d="M683.3,197.1c-27.3,2.1-54.8,5.3-82.2,5.6c-13,0.2-26-0.9-38.6-4.4c-12.4-3.5-22.7-11.2-34.7-15.7
		c-11.8-4.4-20.9-14-31.8-20.2c-10.6-6-22.1-10.5-33.7-13.8c-26-7.5-53.5-8.7-80.4-8.1c-2.6,0.1-2.6,4.1,0,4
		c27.8-0.6,55.8,0.8,82.6,8.9c12.4,3.7,24.3,9.1,35.3,16c3.2,2,6.3,4.3,9.3,6.6c-15.1,4.2-30.1,8.2-45.8,9.5
		c-16.6,1.4-33.5,0.6-50.2,0.6c-17,0-34,0-51,0c-16.6,0-33.5,0.7-49.5-4.5c-2.5-0.8-3.5,3.1-1.1,3.9c15.1,4.9,31,4.7,46.7,4.7
		c17.7,0,35.3,0,53,0c17.4,0,34.9,0.6,52.2-0.6c16.4-1.1,32.3-5.6,48-10c0.6-0.2,1-0.5,1.2-0.9c0.8,0.6,1.6,1.2,2.3,1.8
		c4.9,3.7,10.4,5.3,16,7.7c6,2.6,11.5,6.3,17.3,9.1c5.3,2.6,10.9,4.4,16.5,5.9c11.8,3.1,24.2,3.8,36.3,3.7
		c27.4-0.2,54.9-3.5,82.2-5.6C685.9,200.9,685.9,196.9,683.3,197.1z"/>
	<path fill="#2A2935" d="M365.5,217.3c-7.1,6.2-14.4,12.1-22,17.6c-2.1,1.5-0.1,5,2,3.5c7.9-5.7,15.5-11.8,22.8-18.2
		C370.3,218.4,367.4,215.6,365.5,217.3z"/>
	<path fill="#2A2935" d="M345.7,210.4c-3,1.9-5.9,4.1-8.7,6.4c-2,1.7,0.9,4.5,2.8,2.8c2.5-2.1,5.2-4,7.9-5.7
		C349.9,212.4,347.9,209,345.7,210.4z"/>
	<path fill="#2A2935" d="M322.8,254.4c-15.1,1.7-30.1-2.8-41.7-12.8c-1.9-1.7-4.8,1.1-2.8,2.8c12.3,10.7,28.3,15.8,44.5,14
		C325.4,258.1,325.4,254.1,322.8,254.4z"/>
	<path fill="#2A2935" d="M315.8,229.1c-12.3,2.1-24.5-2.8-32.2-12.5c-1.6-2-4.4,0.8-2.8,2.8c8.7,10.8,22.5,15.8,36.1,13.5
		C319.4,232.5,318.3,228.6,315.8,229.1z"/>
	<path fill="#2A2935" d="M773.5,158c-8.7-1.2-17.4-2.5-26.1-3.7c-2.5-0.4-3.6,3.5-1.1,3.9c7.7,1.1,15.4,2.2,23.1,3.3
		c-4.5,4.6-12.8,5.6-18.4,7.8c-8.1,3.1-15.6,7.4-23.1,11.7c-2.2,1.3-0.2,4.7,2,3.5c8.8-5,17.7-9.9,27.3-13.2
		c6.6-2.2,14-3.6,17.6-10.3C775.2,160,774.8,158.2,773.5,158z"/>
	<path fill="#2A2935" d="M778.9,145.7c-1.7,2.6-4.1,4.7-6.8,6.1c-2.3,1.2-0.3,4.7,2,3.5c3.4-1.8,6.2-4.4,8.3-7.6
		C783.8,145.6,780.3,143.6,778.9,145.7z"/>
	<path fill="#2A2935" d="M755.9,253.5c-0.2-8.5,0.1-17.2-2.2-25.5c-2.1-7.4-8.1-12.7-12.4-18.7c-5.6-7.8-7.1-20.3,3.1-25
		c2.3-1.1,0.3-4.5-2-3.5c-13.9,6.5-10.1,23.6-2.3,33.4c2.5,3.1,5.1,6.1,7.3,9.4c3,4.5,3.8,10,4.2,15.3c0.7,9.8,0.6,19.6,0.9,29.4
		c0.3,10.2-2.1,17.7-9.9,24.5c-4.9,4.2-11.7,7.2-14.2,13.5c-1.2,3.1,0.3,7.2,0.4,10.3c0.1,4.7-5.1,10-7.7,13.7
		c-6,8.5-12,16.9-18.1,25.4c-1.5,2.1,2,4.1,3.5,2c5.3-7.4,10.5-14.8,15.8-22.2c4.4-6.1,10.6-12.5,10.4-20.5c0-1.5-0.5-3.6-0.6-4.9
		c-0.4-3.2,1.5-5.2,3.7-7.1c3.1-2.6,6.5-4.8,9.6-7.4c5.8-4.8,9.5-10.6,10.6-18C757.2,269.8,756.1,261.4,755.9,253.5z"/>
	<path fill="#2A2935" d="M669.1,341c-6.8,1.6-13.6,1.6-20.5,0.2c-5.9-1.2-14.8-3.9-16.4-10.6c-0.6-2.5-4.4-1.4-3.9,1.1
		c1.7,7.4,9.4,10.4,15.9,12.5c8.3,2.7,17.4,2.6,25.8,0.6C672.6,344.3,671.6,340.4,669.1,341z"/>
	<path fill="#2A2935" d="M682.4,318.9c-0.8,3.6-1.7,7-2.9,10.5c-0.9,2.4,3,3.5,3.9,1.1c1.2-3.4,2.2-6.9,2.9-10.5
		C686.8,317.5,682.9,316.4,682.4,318.9z"/>
	<path fill="#2A2935" d="M512.4,343.5c-16.5,4.3-35.1,6.7-52,3.4c-8-1.6-12.7-7.7-18-13.2c-4.5-4.6-9.5-8.5-15.7-10.3
		c-2.5-0.7-3.5,3.1-1.1,3.9c7.6,2.2,12.9,8.1,18.1,13.7c5.4,5.8,10.9,9.1,18.8,10.4c16.7,2.6,34.7,0.3,51-4
		C515.9,346.7,514.9,342.8,512.4,343.5z"/>
	<path fill="#2A2935" d="M432.7,379.6c-7.3-1-12.4-7-16.8-12.3c-1.7-2-4.5,0.9-2.8,2.8c5.3,6.3,11.1,12.4,19.7,13.5
		C435.2,383.9,435.2,379.9,432.7,379.6z"/>
	<path fill="#2A2935" d="M654,569.5c-0.4,4.5-5,9.7-7.7,13.1c-3.2,4.1-7.1,7.6-11.2,10.8c-2,1.5,0,5,2,3.5c4.9-3.7,9.2-7.9,13-12.6
		c3.3-4.1,7.4-9.3,7.8-14.7C658.3,566.9,654.2,566.9,654,569.5z"/>
	<path fill="#2A2935" d="M615,552.4c-25.9-2.4-51.9,0.7-76.6,9.1c-2.4,0.8-1.4,4.7,1.1,3.9c24.3-8.3,49.9-11.3,75.5-8.9
		C617.6,556.6,617.6,552.6,615,552.4z"/>
	<path fill="#2A2935" d="M745.7,137.4c-29.1-3.1-54.5-18.7-78.8-33.9c-2.2-1.4-4.2,2.1-2,3.5c25,15.6,50.9,31.2,80.8,34.4
		C748.3,141.7,748.2,137.7,745.7,137.4z"/>
	<path fill="#2A2935" d="M684.5,176.4c-7.4-10.4-21.2-13.9-31-21.5c-12.3-9.6-23-21.5-34.1-32.3c-1.8-1.8-4.7,1-2.8,2.8
		c10.4,10.1,20.5,20.7,31.5,30.1c4.8,4.1,9.9,7.7,15.5,10.6c6.3,3.4,13.2,6.2,17.5,12.3C682.6,180.5,686,178.5,684.5,176.4z"/>
	<path fill="#2A2935" d="M527.5,117.6c-13.5-2.6-24.8-10.2-37.3-15.3c-13.6-5.6-27.8-6.5-42.4-7.1c-2.1-0.1-2.6,2.7-1,3.7
		c10.5,6.7,22.1,11.1,34.4,13c2.5,0.4,3.6-3.5,1.1-3.9c-9.2-1.5-18-4.3-26.2-8.5c11.7,0.7,23.1,2.3,34.1,7
		c12.1,5.2,23.2,12.4,36.2,14.9C528.9,122,530,118.1,527.5,117.6z"/>
	<path fill="#2A2935" d="M617,83.6c-5.1-3-10.3-5.4-15.8-7.4c-6.1-2.2-12.6-3-18.6-5.6c-5.8-2.5-11.2-5.3-17.2-7.2
		c-6.6-2.1-13.5-3-20.4-3.3c-2.6-0.1-2.6,3.9,0,4c6.6,0.3,13,1.3,19.4,3.2c6.3,1.8,11.9,4.9,17.9,7.5c4.7,2,9.8,2.8,14.7,4.2
		c6.4,1.8,12.4,4.7,18.1,8.1C617.3,88.4,619.3,85,617,83.6z"/>
</g>
</svg>
